# Blender 5.1.0
# www.blender.org
mtllib left cheek.mtl
o Left_cheek
v 1.036156 -0.336330 0.683695
v 1.029148 -0.287594 0.742546
v 1.003935 -0.373765 0.747594
v 0.996533 -0.325284 0.803862
v 0.979703 -0.459851 0.755937
v 0.412783 -0.306897 1.327210
v 0.415271 -0.247766 1.333635
v 0.794499 -0.001440 1.137397
v 0.815427 -0.078007 1.138647
v 0.888846 -0.053647 1.068050
v 0.856039 0.006448 1.088097
v 0.775866 0.051654 1.132116
v 0.716466 0.053073 1.162176
v 0.724261 0.005741 1.174575
v 0.759273 0.096100 1.126855
v 0.706941 0.094996 1.152374
v 0.652934 0.098271 1.172470
v 0.598165 0.070856 1.201004
v 0.656261 0.060308 1.184575
v 0.543283 0.083530 1.213495
v 0.537301 0.053629 1.229208
v 0.594732 0.036122 1.216784
v 0.528512 0.023376 1.246400
v 0.586990 0.000830 1.234353
v 0.656961 0.019972 1.199852
v 0.651059 -0.021986 1.217463
v 0.722779 -0.046684 1.190844
v 0.807135 0.102358 1.096084
v 0.874165 0.071529 1.052393
v 0.903675 0.023795 1.036139
v 0.829447 0.058022 1.094585
v 0.935638 -0.028984 1.008893
v 0.965915 -0.084004 0.968595
v 0.924210 -0.115703 1.028111
v 0.875512 -0.150659 1.084880
v 0.911267 -0.208471 1.030832
v 0.952875 -0.173006 0.976246
v 0.827367 -0.190393 1.129642
v 0.867563 -0.244145 1.077717
v 0.783063 -0.227630 1.162282
v 0.823486 -0.277823 1.115528
v 0.896168 -0.296062 1.023745
v 0.935637 -0.261690 0.974498
v 0.854884 -0.328066 1.065796
v 0.877610 -0.377569 1.014984
v 0.915805 -0.346145 0.969229
v 0.812734 -0.356699 1.101037
v 0.837730 -0.405775 1.055039
v 0.796964 -0.430929 1.090363
v 0.770814 -0.382127 1.131145
v 0.816796 -0.480193 1.049552
v 0.856149 -0.455059 1.009439
v 0.831243 -0.530165 1.009665
v 0.869190 -0.504914 0.965224
v 0.792091 -0.552500 1.050250
v 0.776631 -0.502660 1.085555
v 0.893821 -0.426844 0.964960
v 0.905206 -0.476398 0.916824
v 0.755814 -0.453453 1.121401
v 0.714729 -0.473899 1.148832
v 0.736106 -0.522904 1.117756
v 0.729378 -0.404858 1.157210
v 0.688556 -0.425553 1.180035
v 0.780288 -0.307761 1.145808
v 0.738534 -0.334132 1.171041
v 0.741097 -0.259823 1.187332
v 0.732468 -0.179320 1.201548
v 0.694245 -0.213408 1.221363
v 0.771479 -0.137804 1.176316
v 0.700863 -0.287468 1.207610
v 0.662090 -0.311545 1.224517
v 0.697932 -0.357482 1.192431
v 0.657351 -0.242086 1.237667
v 0.621471 -0.266759 1.251231
v 0.624191 -0.332976 1.238704
v 0.658242 -0.378584 1.210823
v 0.586138 -0.288356 1.262691
v 0.963332 -0.361273 0.861899
v 0.952070 -0.312157 0.917685
v 0.929350 -0.395354 0.915802
v 0.971584 -0.410056 0.807994
v 0.947309 -0.495123 0.815514
v 0.939066 -0.444608 0.864398
v 0.986770 -0.276302 0.861425
v 1.020147 -0.238750 0.801919
v 1.007903 -0.189222 0.861032
v 0.973015 -0.226017 0.919511
v 0.990417 -0.137852 0.917809
v 0.702972 -0.095314 1.211579
v 0.673935 -0.135877 1.231411
v 0.642223 -0.169880 1.248160
v 0.588128 -0.130595 1.268420
v 0.613994 -0.098594 1.253165
v 0.534383 -0.095155 1.283683
v 0.555814 -0.065724 1.268458
v 0.511046 -0.121592 1.297581
v 0.560564 -0.158572 1.281683
v 0.462594 -0.087551 1.311678
v 0.441664 -0.109451 1.325717
v 0.486626 -0.144800 1.310132
v 0.482394 -0.062640 1.296513
v 0.500627 -0.035475 1.280542
v 0.573893 -0.033552 1.251932
v 0.516345 -0.006616 1.263818
v 0.636060 -0.062270 1.235874
v 0.433143 -0.032059 1.309137
v 0.448962 -0.006422 1.291797
v 0.463239 0.020075 1.274225
v 0.416162 -0.055978 1.325900
v 0.419711 -0.127631 1.338298
v 0.532267 -0.182903 1.293211
v 0.577600 -0.223638 1.273823
v 0.609898 -0.198786 1.262124
v 0.545417 -0.245180 1.283972
v 0.503582 -0.203816 1.303442
v 0.550911 -0.307560 1.272951
v 0.513126 -0.263852 1.293461
v 0.474602 -0.221384 1.313047
v 0.461497 -0.164452 1.321367
v 0.435857 -0.180371 1.331639
v 0.409695 -0.192829 1.341510
v 0.445301 -0.235845 1.322956
v 0.396822 -0.141974 1.349515
v 0.506788 -0.455369 1.272586
v 0.572643 -0.483882 1.237216
v 0.543371 -0.436280 1.256295
v 0.609705 -0.464150 1.219154
v 0.635539 -0.511714 1.196368
v 0.674436 -0.493034 1.173557
v 0.648549 -0.444972 1.200400
v 0.695903 -0.541649 1.146921
v 0.580767 -0.417364 1.241391
v 0.619185 -0.398293 1.226789
v 0.512032 -0.388283 1.275629
v 0.474742 -0.405004 1.290733
v 0.549238 -0.370840 1.262763
v 0.447277 -0.294085 1.314582
v 0.480499 -0.279999 1.303414
v 0.479622 -0.340678 1.295052
v 0.515437 -0.324868 1.283343
v 0.586626 -0.352538 1.250984
v 0.443141 -0.355392 1.308819
v 1.032810 -0.311978 0.713057
v 1.020125 -0.355209 0.716035
v 1.007569 -0.398072 0.719861
v 1.023674 -0.379510 0.687518
v 1.000411 -0.349566 0.775564
v 1.012935 -0.306674 0.773553
v 1.016696 -0.330987 0.744695
v 0.995720 -0.441457 0.724654
v 0.397943 -0.282501 1.336411
v 0.399651 -0.253028 1.339341
v 0.399083 -0.224809 1.342693
v 0.804337 -0.033440 1.138866
v 0.858764 -0.065279 1.099792
v 0.871617 -0.022657 1.080432
v 0.827055 0.000808 1.113691
v 0.841080 -0.030365 1.109767
v 0.784949 0.026578 1.134859
v 0.746561 0.051451 1.148149
v 0.720812 0.030218 1.168020
v 0.759571 0.000572 1.157684
v 0.753219 0.027256 1.152661
v 0.767314 0.074707 1.129353
v 0.733501 0.094943 1.140313
v 0.711722 0.074632 1.156908
v 0.739938 0.073947 1.143974
v 0.751799 0.116067 1.124705
v 0.702308 0.114255 1.148585
v 0.727426 0.114641 1.137244
v 0.650963 0.116275 1.167736
v 0.679977 0.096142 1.163067
v 0.676742 0.114831 1.158745
v 0.626046 0.101224 1.180701
v 0.598990 0.087953 1.194080
v 0.626855 0.065278 1.193371
v 0.654747 0.079599 1.178086
v 0.626624 0.083456 1.186624
v 0.570252 0.076923 1.207685
v 0.571955 0.092985 1.200606
v 0.540556 0.068583 1.221146
v 0.565421 0.044690 1.223377
v 0.596848 0.053575 1.208573
v 0.568175 0.060856 1.215261
v 0.533298 0.038525 1.237668
v 0.510360 0.062985 1.234471
v 0.501204 0.034944 1.251562
v 0.506107 0.049034 1.242882
v 0.557089 0.012044 1.240753
v 0.591491 0.018466 1.225474
v 0.561744 0.028364 1.231952
v 0.657178 0.040435 1.191866
v 0.625223 0.027882 1.209088
v 0.626525 0.046751 1.200877
v 0.655079 -0.000987 1.208435
v 0.685745 -0.034004 1.205777
v 0.725593 -0.020278 1.182044
v 0.689959 0.012477 1.188509
v 0.689314 -0.010708 1.196774
v 0.618237 -0.010448 1.226755
v 0.622546 0.008720 1.217786
v 0.686196 0.056143 1.174246
v 0.688654 0.034810 1.181018
v 0.683175 0.076569 1.168226
v 0.783918 0.098558 1.112064
v 0.888422 0.048344 1.045427
v 0.842079 0.033281 1.092429
v 0.881416 0.014336 1.062029
v 0.852936 0.064014 1.073813
v 0.866562 0.040006 1.069104
v 0.803685 0.053857 1.114179
v 0.814814 0.028645 1.114626
v 0.817851 0.080992 1.095587
v 0.793429 0.077053 1.113179
v 0.840362 0.086468 1.076921
v 0.954758 -0.015657 0.980664
v 0.919578 -0.002078 1.024107
v 0.939097 0.009851 0.997106
v 0.913932 -0.041618 1.037970
v 0.897352 -0.012987 1.051883
v 0.951269 -0.056457 0.990308
v 0.983915 -0.068004 0.939254
v 0.969849 -0.041726 0.961332
v 0.906910 -0.085113 1.050261
v 0.946064 -0.099773 0.998308
v 0.930452 -0.070802 1.019971
v 0.763344 -0.060409 1.171413
v 0.764229 -0.028876 1.163411
v 0.851238 -0.118617 1.110800
v 0.900422 -0.132419 1.057391
v 0.880151 -0.100278 1.081060
v 0.895092 -0.180307 1.058242
v 0.932470 -0.190643 1.004281
v 0.939647 -0.144978 1.003097
v 0.917833 -0.162313 1.031511
v 0.849125 -0.217448 1.104050
v 0.889543 -0.226392 1.055404
v 0.850895 -0.170380 1.109089
v 0.872030 -0.198847 1.082525
v 0.804839 -0.209616 1.147142
v 0.804451 -0.252647 1.139511
v 0.845507 -0.261402 1.097733
v 0.826584 -0.235520 1.122945
v 0.883134 -0.270357 1.050889
v 0.916150 -0.279093 0.999960
v 0.924637 -0.235520 1.002839
v 0.904104 -0.253103 1.027826
v 0.875734 -0.312439 1.045711
v 0.867207 -0.352891 1.040393
v 0.896957 -0.362225 0.992867
v 0.906908 -0.321276 0.996430
v 0.887291 -0.337451 1.019253
v 0.826158 -0.381236 1.078083
v 0.857815 -0.392086 1.035632
v 0.833827 -0.342821 1.084158
v 0.846768 -0.367485 1.059926
v 0.817417 -0.418706 1.073266
v 0.791708 -0.369777 1.116649
v 0.784766 -0.406482 1.110816
v 0.805469 -0.394217 1.095017
v 0.836620 -0.467985 1.030023
v 0.847667 -0.430365 1.032113
v 0.807603 -0.455494 1.069894
v 0.827739 -0.443280 1.051546
v 0.824650 -0.505069 1.029441
v 0.850406 -0.517926 0.987934
v 0.863282 -0.479883 0.987120
v 0.844152 -0.492854 1.008782
v 0.874046 -0.530259 0.943874
v 0.855523 -0.543298 0.967562
v 0.811763 -0.541665 1.030437
v 0.796782 -0.491737 1.068053
v 0.784998 -0.527484 1.067782
v 0.804899 -0.516593 1.049099
v 0.875236 -0.441351 0.987767
v 0.886408 -0.402202 0.989790
v 0.867262 -0.416704 1.011531
v 0.887479 -0.491078 0.941527
v 0.899995 -0.451526 0.940604
v 0.881909 -0.466112 0.964392
v 0.766906 -0.477986 1.103454
v 0.776409 -0.442490 1.106387
v 0.787310 -0.467045 1.087187
v 0.735217 -0.463891 1.135511
v 0.726038 -0.498343 1.133267
v 0.756375 -0.513021 1.102097
v 0.746467 -0.488392 1.118782
v 0.743288 -0.429058 1.139329
v 0.708880 -0.415416 1.168984
v 0.702224 -0.449608 1.164423
v 0.722675 -0.439538 1.152248
v 0.750032 -0.393795 1.144630
v 0.764002 -0.418065 1.125550
v 0.797367 -0.332154 1.123655
v 0.759249 -0.321365 1.158963
v 0.755350 -0.357981 1.151313
v 0.776242 -0.345454 1.138034
v 0.840302 -0.303011 1.090883
v 0.801692 -0.293267 1.131418
v 0.818740 -0.318031 1.108019
v 0.861837 -0.287068 1.071909
v 0.761855 -0.244349 1.175551
v 0.761549 -0.283630 1.167214
v 0.782758 -0.268672 1.154116
v 0.759124 -0.203053 1.183129
v 0.713205 -0.197153 1.211982
v 0.718619 -0.236369 1.205397
v 0.738667 -0.220423 1.194904
v 0.801633 -0.163447 1.154035
v 0.751892 -0.159678 1.189769
v 0.780018 -0.184113 1.169688
v 0.720408 -0.310630 1.189975
v 0.720774 -0.274155 1.197951
v 0.740794 -0.297592 1.179118
v 0.680592 -0.334348 1.209071
v 0.718109 -0.346140 1.182159
v 0.681327 -0.299892 1.216441
v 0.700354 -0.322846 1.199926
v 0.639318 -0.254861 1.244769
v 0.642313 -0.288997 1.238465
v 0.679770 -0.264607 1.223451
v 0.660907 -0.277212 1.231296
v 0.643073 -0.322538 1.231904
v 0.641748 -0.355646 1.225303
v 0.677989 -0.368264 1.201963
v 0.661084 -0.345247 1.217518
v 0.603763 -0.277892 1.257173
v 0.605608 -0.310527 1.251112
v 0.623907 -0.300070 1.245045
v 0.714203 -0.380987 1.175014
v 0.734676 -0.369796 1.163601
v 0.675640 -0.228317 1.229884
v 0.698990 -0.251041 1.214853
v 0.958201 -0.336809 0.889596
v 0.934157 -0.329423 0.944128
v 0.923187 -0.370795 0.942308
v 0.946477 -0.378590 0.889410
v 0.940872 -0.354080 0.916559
v 0.979999 -0.343486 0.833352
v 0.967702 -0.385658 0.834679
v 0.987737 -0.392065 0.778268
v 0.984073 -0.367797 0.805591
v 0.975446 -0.434632 0.781747
v 0.991474 -0.416477 0.751292
v 0.963609 -0.477800 0.786222
v 0.955420 -0.427622 0.836702
v 0.943203 -0.469540 0.839638
v 0.959405 -0.452379 0.811192
v 0.930661 -0.511686 0.843842
v 0.909654 -0.501612 0.893674
v 0.892110 -0.516371 0.919257
v 0.922389 -0.460893 0.891112
v 0.926666 -0.485988 0.867129
v 0.934555 -0.419926 0.889808
v 0.951236 -0.403070 0.862770
v 0.911818 -0.411466 0.940995
v 0.917521 -0.436123 0.915749
v 0.905042 -0.386862 0.966736
v 0.969593 -0.294437 0.890059
v 0.992045 -0.300890 0.832512
v 0.975239 -0.319065 0.861535
v 1.003625 -0.257757 0.831980
v 1.014532 -0.214141 0.831601
v 0.990791 -0.207789 0.890560
v 0.980522 -0.251401 0.890487
v 0.997763 -0.232978 0.861341
v 1.024971 -0.263198 0.772191
v 1.036316 -0.219188 0.771431
v 1.041039 -0.243525 0.741222
v 1.024345 -0.170215 0.831193
v 1.030815 -0.194796 0.801490
v 1.008627 -0.282285 0.802676
v 0.954614 -0.243979 0.947590
v 0.963914 -0.199955 0.948222
v 0.944621 -0.217780 0.976185
v 0.944662 -0.287177 0.946045
v 0.962817 -0.269466 0.918802
v 0.926027 -0.304476 0.971982
v 0.972237 -0.155474 0.947268
v 0.999959 -0.163835 0.889904
v 0.982385 -0.182009 0.919337
v 0.979065 -0.111218 0.944234
v 0.960116 -0.128061 0.973811
v 0.791592 -0.112630 1.160492
v 0.824781 -0.141043 1.135101
v 0.714803 -0.071996 1.200979
v 0.737739 -0.114990 1.195477
v 0.752978 -0.089830 1.183084
v 0.689035 -0.116533 1.221867
v 0.703662 -0.156802 1.217489
v 0.721012 -0.137032 1.207025
v 0.658225 -0.153591 1.240145
v 0.668615 -0.191128 1.235539
v 0.686115 -0.174737 1.226925
v 0.615268 -0.149711 1.259060
v 0.643912 -0.116550 1.243283
v 0.601373 -0.115123 1.261055
v 0.629851 -0.133755 1.251489
v 0.561105 -0.112444 1.276511
v 0.584568 -0.081724 1.261397
v 0.545415 -0.080801 1.276240
v 0.573161 -0.097522 1.269163
v 0.522889 -0.108762 1.290800
v 0.535749 -0.139689 1.289982
v 0.574476 -0.145061 1.275281
v 0.548591 -0.126496 1.283448
v 0.452258 -0.098928 1.318857
v 0.464006 -0.126768 1.317988
v 0.498940 -0.133618 1.304021
v 0.486612 -0.104229 1.304717
v 0.475426 -0.115921 1.311515
v 0.472654 -0.075422 1.304218
v 0.508093 -0.078596 1.290236
v 0.497525 -0.091766 1.297621
v 0.527807 -0.050372 1.274723
v 0.491752 -0.049300 1.288616
v 0.518233 -0.064781 1.282601
v 0.544556 -0.019975 1.258187
v 0.508880 -0.021228 1.272280
v 0.565385 -0.049960 1.260355
v 0.536648 -0.035419 1.266591
v 0.604373 -0.047559 1.244652
v 0.644652 -0.042543 1.226704
v 0.581127 -0.016574 1.243228
v 0.612160 -0.029298 1.235780
v 0.625693 -0.080977 1.244755
v 0.595076 -0.065057 1.253217
v 0.522890 0.008291 1.255169
v 0.551382 -0.004113 1.249548
v 0.457408 -0.047164 1.302767
v 0.474348 -0.020866 1.286184
v 0.441207 -0.019391 1.300506
v 0.466078 -0.034210 1.294543
v 0.456350 0.006755 1.283039
v 0.489247 0.006700 1.269091
v 0.482119 -0.007209 1.277702
v 0.424798 -0.044306 1.317631
v 0.439111 -0.071489 1.318683
v 0.448409 -0.059632 1.310835
v 0.419637 -0.092847 1.333456
v 0.407212 -0.066915 1.333855
v 0.429523 -0.082600 1.326241
v 0.398933 -0.110450 1.346734
v 0.430810 -0.119032 1.332198
v 0.409438 -0.102138 1.340285
v 0.509420 -0.163514 1.301918
v 0.546475 -0.171174 1.287638
v 0.522670 -0.152029 1.296122
v 0.555021 -0.202948 1.283858
v 0.593741 -0.211666 1.268234
v 0.585339 -0.178269 1.272454
v 0.570203 -0.191056 1.278375
v 0.599825 -0.244931 1.262992
v 0.633979 -0.220090 1.250552
v 0.616848 -0.232964 1.257058
v 0.626077 -0.184898 1.255457
v 0.600384 -0.164516 1.266026
v 0.651239 -0.206193 1.243407
v 0.561502 -0.234790 1.279040
v 0.565994 -0.266554 1.273587
v 0.582889 -0.256103 1.268474
v 0.517970 -0.193783 1.298467
v 0.524576 -0.224262 1.293917
v 0.539824 -0.214007 1.289029
v 0.568544 -0.298225 1.267893
v 0.529299 -0.254853 1.288726
v 0.532159 -0.285535 1.283316
v 0.549098 -0.276346 1.278479
v 0.489123 -0.213009 1.308256
v 0.493910 -0.242467 1.303367
v 0.509271 -0.233740 1.298641
v 0.474136 -0.155089 1.315902
v 0.482522 -0.183859 1.312561
v 0.496031 -0.174131 1.307384
v 0.440552 -0.145669 1.329891
v 0.452373 -0.136698 1.324108
v 0.448735 -0.172872 1.326590
v 0.455252 -0.200644 1.322477
v 0.468928 -0.192691 1.317562
v 0.422856 -0.186996 1.336585
v 0.427580 -0.214090 1.332337
v 0.460006 -0.228975 1.317922
v 0.441481 -0.207754 1.327377
v 0.391446 -0.172415 1.350602
v 0.416420 -0.160741 1.340615
v 0.404087 -0.166942 1.345661
v 0.408385 -0.135254 1.344052
v 0.428566 -0.153673 1.335377
v 0.668979 -0.078010 1.225023
v 0.657130 -0.097996 1.234445
v 0.678795 -0.056612 1.215341
v 1.007433 -0.119959 0.888250
v 1.016639 -0.145303 0.860242
v 0.996522 -0.094160 0.914747
v 0.554926 -0.494073 1.246188
v 0.558342 -0.460135 1.246741
v 0.525027 -0.445772 1.264266
v 0.540307 -0.470050 1.255165
v 0.590904 -0.473925 1.228207
v 0.586108 -0.507534 1.227632
v 0.616778 -0.521248 1.207315
v 0.623095 -0.487796 1.207783
v 0.604300 -0.497530 1.217800
v 0.654787 -0.502364 1.185138
v 0.662019 -0.468866 1.186927
v 0.628954 -0.454530 1.209936
v 0.642358 -0.478302 1.197509
v 0.685749 -0.517314 1.160219
v 0.646847 -0.535747 1.185029
v 0.666080 -0.526538 1.172847
v 0.595571 -0.440701 1.230376
v 0.634243 -0.421471 1.213788
v 0.599869 -0.407870 1.234148
v 0.614767 -0.431086 1.222208
v 0.673841 -0.401874 1.195608
v 0.638649 -0.388556 1.219069
v 0.668434 -0.435363 1.190467
v 0.653945 -0.411771 1.204961
v 0.694441 -0.483582 1.161490
v 0.681994 -0.459347 1.175944
v 0.561935 -0.426822 1.248718
v 0.576748 -0.450369 1.238506
v 0.493457 -0.396735 1.282874
v 0.490804 -0.430231 1.281618
v 0.527896 -0.412308 1.265941
v 0.509368 -0.421297 1.273523
v 0.565321 -0.394081 1.252191
v 0.530601 -0.379651 1.268961
v 0.546535 -0.403243 1.258873
v 0.396265 -0.197972 1.346482
v 0.430425 -0.242075 1.328186
v 0.413489 -0.219742 1.337423
v 0.430273 -0.300580 1.320714
v 0.431275 -0.270912 1.324245
v 0.414946 -0.276826 1.330159
v 0.463988 -0.287261 1.308821
v 0.463392 -0.317295 1.304811
v 0.497588 -0.332941 1.288979
v 0.498033 -0.302312 1.293426
v 0.480788 -0.309997 1.298910
v 0.462920 -0.257845 1.313281
v 0.447217 -0.264622 1.318619
v 0.496868 -0.272217 1.298317
v 0.478469 -0.250484 1.308216
v 0.533206 -0.316422 1.278041
v 0.515147 -0.294175 1.288262
v 0.532576 -0.347726 1.273142
v 0.567921 -0.361816 1.256835
v 0.569148 -0.329920 1.262226
v 0.550883 -0.338992 1.267619
v 0.603315 -0.375337 1.239190
v 0.584249 -0.384792 1.245690
v 0.605378 -0.342948 1.245007
v 0.587371 -0.320452 1.256787
v 0.622492 -0.365649 1.232467
v 0.495889 -0.364354 1.285339
v 0.514247 -0.356172 1.278998
v 0.461507 -0.348136 1.301667
v 0.458802 -0.380006 1.299794
v 0.477445 -0.372290 1.292268
v 0.427826 -0.331115 1.317983
v 0.445782 -0.324290 1.311178
v 0.495608 0.020793 1.260354
v 0.693929 -0.391647 1.185656
v 0.715897 -0.532408 1.132663
v 0.705764 -0.507953 1.147052
v 0.744891 -0.547581 1.102338
v 0.764983 -0.537790 1.085515
vn 0.9158 -0.2392 0.3226
vn 0.9159 -0.2436 0.3189
vn 0.9150 -0.2403 0.3240
vn 0.9154 -0.2393 0.3237
vn 0.9085 -0.2499 0.3349
vn 0.9046 -0.2509 0.3447
vn 0.9129 -0.2483 0.3239
vn 0.9134 -0.2464 0.3241
vn 0.9118 -0.2499 0.3257
vn 0.9169 -0.2465 0.3140
vn 0.9150 -0.2461 0.3198
vn 0.9155 -0.2422 0.3211
vn 0.5857 0.1906 0.7878
vn 0.6268 0.1284 0.7685
vn 0.6855 0.1195 0.7182
vn 0.6463 0.1746 0.7428
vn 0.4873 0.2570 0.8346
vn 0.4680 0.2733 0.8404
vn 0.4247 0.2882 0.8583
vn 0.4400 0.2776 0.8540
vn 0.4530 0.2799 0.8464
vn 0.4414 0.2749 0.8542
vn 0.4015 0.2816 0.8715
vn 0.4110 0.2912 0.8639
vn 0.4336 0.2616 0.8623
vn 0.3965 0.2638 0.8793
vn 0.3329 0.2702 0.9034
vn 0.3632 0.2661 0.8929
vn 0.3120 0.3054 0.8997
vn 0.2997 0.3404 0.8913
vn 0.3184 0.3289 0.8891
vn 0.2856 0.3543 0.8905
vn 0.2890 0.3855 0.8763
vn 0.3003 0.3937 0.8688
vn 0.3050 0.3936 0.8672
vn 0.3040 0.3802 0.8735
vn 0.3078 0.3797 0.8724
vn 0.2954 0.3700 0.8808
vn 0.3257 0.4018 0.8559
vn 0.3206 0.4048 0.8564
vn 0.3155 0.4075 0.8570
vn 0.3094 0.4094 0.8583
vn 0.3036 0.4117 0.8593
vn 0.3114 0.3793 0.8713
vn 0.3106 0.3943 0.8649
vn 0.3139 0.3902 0.8656
vn 0.3182 0.3868 0.8655
vn 0.3190 0.3686 0.8731
vn 0.3353 0.3476 0.8756
vn 0.3262 0.3441 0.8804
vn 0.3354 0.3470 0.8758
vn 0.3258 0.3443 0.8805
vn 0.3073 0.3577 0.8818
vn 0.3075 0.3572 0.8820
vn 0.3115 0.3616 0.8787
vn 0.3159 0.3663 0.8752
vn 0.3198 0.3635 0.8750
vn 0.3780 0.3111 0.8719
vn 0.3878 0.2897 0.8750
vn 0.4282 0.2555 0.8668
vn 0.4162 0.2822 0.8644
vn 0.3458 0.3378 0.8754
vn 0.3241 0.3609 0.8745
vn 0.3321 0.3460 0.8775
vn 0.3546 0.3201 0.8785
vn 0.4018 0.3004 0.8651
vn 0.3868 0.3078 0.8693
vn 0.3548 0.3279 0.8756
vn 0.3543 0.3279 0.8758
vn 0.3660 0.3250 0.8720
vn 0.3662 0.3247 0.8720
vn 0.3668 0.2880 0.8846
vn 0.3378 0.2960 0.8935
vn 0.3447 0.3176 0.8834
vn 0.3742 0.3047 0.8759
vn 0.6245 0.2313 0.7460
vn 0.6582 0.2038 0.7247
vn 0.6974 0.1932 0.6901
vn 0.6664 0.2173 0.7132
vn 0.5193 0.2604 0.8140
vn 0.5482 0.2369 0.8021
vn 0.6085 0.2181 0.7630
vn 0.5743 0.2465 0.7806
vn 0.4831 0.2679 0.8336
vn 0.4984 0.2697 0.8239
vn 0.5476 0.2592 0.7956
vn 0.5275 0.2605 0.8086
vn 0.5945 0.2471 0.7652
vn 0.7891 0.1130 0.6037
vn 0.6930 0.1655 0.7017
vn 0.7289 0.1158 0.6747
vn 0.7626 0.1143 0.6366
vn 0.7295 0.1593 0.6652
vn 0.8183 0.0650 0.5712
vn 0.8438 0.0136 0.5365
vn 0.7949 0.0613 0.6036
vn 0.7650 0.0577 0.6414
vn 0.7984 -0.0018 0.6022
vn 0.8237 0.0058 0.5671
vn 0.5484 0.1575 0.8212
vn 0.5145 0.2185 0.8292
vn 0.4568 0.2523 0.8531
vn 0.4719 0.2176 0.8543
vn 0.7270 0.0554 0.6844
vn 0.6745 0.0568 0.7361
vn 0.7334 -0.0160 0.6796
vn 0.7674 -0.0086 0.6411
vn 0.8015 -0.0663 0.5944
vn 0.7733 -0.0749 0.6296
vn 0.8046 -0.1230 0.5809
vn 0.8285 -0.1160 0.5478
vn 0.7129 -0.1011 0.6939
vn 0.7483 -0.1426 0.6479
vn 0.7777 -0.1315 0.6148
vn 0.7435 -0.0861 0.6631
vn 0.7169 -0.1566 0.6794
vn 0.6815 -0.1190 0.7220
vn 0.6502 -0.1383 0.7471
vn 0.6838 -0.1743 0.7085
vn 0.8062 -0.1676 0.5674
vn 0.7790 -0.1754 0.6020
vn 0.8057 -0.2017 0.5569
vn 0.8299 -0.1962 0.5223
vn 0.8028 -0.2318 0.5494
vn 0.7733 -0.2401 0.5868
vn 0.7976 -0.2508 0.5485
vn 0.8235 -0.2447 0.5119
vn 0.7139 -0.2462 0.6556
vn 0.7430 -0.2544 0.6191
vn 0.7695 -0.2555 0.5854
vn 0.7427 -0.2457 0.6230
vn 0.6903 -0.2462 0.6804
vn 0.7166 -0.2508 0.6508
vn 0.6865 -0.2429 0.6854
vn 0.6599 -0.2381 0.7127
vn 0.7426 -0.2536 0.6199
vn 0.7660 -0.2577 0.5889
vn 0.7430 -0.2555 0.6186
vn 0.7180 -0.2511 0.6492
vn 0.7641 -0.2559 0.5922
vn 0.7833 -0.2576 0.5658
vn 0.8040 -0.2607 0.5344
vn 0.7864 -0.2594 0.5606
vn 0.8186 -0.2603 0.5121
vn 0.7420 -0.2503 0.6219
vn 0.7197 -0.2422 0.6506
vn 0.7418 -0.2446 0.6245
vn 0.7623 -0.2522 0.5961
vn 0.7682 -0.2575 0.5861
vn 0.7901 -0.2592 0.5554
vn 0.8137 -0.2591 0.5204
vn 0.7930 -0.2584 0.5517
vn 0.8251 -0.2597 0.5017
vn 0.8450 -0.2564 0.4693
vn 0.8310 -0.2592 0.4922
vn 0.8094 -0.2599 0.5266
vn 0.6661 -0.2368 0.7073
vn 0.6942 -0.2393 0.6788
vn 0.7188 -0.2476 0.6496
vn 0.6922 -0.2447 0.6789
vn 0.6411 -0.2265 0.7333
vn 0.6183 -0.2140 0.7562
vn 0.6469 -0.2160 0.7313
vn 0.6699 -0.2287 0.7064
vn 0.6116 -0.2249 0.7585
vn 0.5836 -0.2245 0.7804
vn 0.5619 -0.2159 0.7986
vn 0.5898 -0.2138 0.7787
vn 0.6073 -0.2304 0.7603
vn 0.6365 -0.2335 0.7351
vn 0.6628 -0.2410 0.7090
vn 0.6327 -0.2348 0.7380
vn 0.6562 -0.2324 0.7179
vn 0.6283 -0.2213 0.7459
vn 0.6029 -0.2242 0.7657
vn 0.6306 -0.2324 0.7405
vn 0.7122 -0.2280 0.6639
vn 0.6819 -0.2113 0.7003
vn 0.6540 -0.2174 0.7246
vn 0.6830 -0.2312 0.6929
vn 0.7773 -0.2097 0.5932
vn 0.7484 -0.1860 0.6367
vn 0.7145 -0.1998 0.6705
vn 0.7447 -0.2202 0.6301
vn 0.6198 -0.1576 0.7688
vn 0.5916 -0.1718 0.7877
vn 0.6249 -0.1999 0.7546
vn 0.6523 -0.1905 0.7336
vn 0.5768 -0.1104 0.8094
vn 0.5258 -0.0579 0.8486
vn 0.5014 -0.0755 0.8619
vn 0.5479 -0.1252 0.8271
vn 0.6078 -0.0917 0.7888
vn 0.6387 -0.0700 0.7662
vn 0.5830 -0.0088 0.8124
vn 0.5539 -0.0350 0.8319
vn 0.5393 -0.1851 0.8215
vn 0.5738 -0.2104 0.7915
vn 0.5995 -0.2057 0.7735
vn 0.5652 -0.1796 0.8052
vn 0.4897 -0.1923 0.8504
vn 0.5237 -0.2150 0.8243
vn 0.5485 -0.2135 0.8084
vn 0.5145 -0.1891 0.8364
vn 0.4409 -0.1168 0.8899
vn 0.4199 -0.1291 0.8983
vn 0.4516 -0.1578 0.8781
vn 0.4751 -0.1513 0.8669
vn 0.4649 -0.1933 0.8640
vn 0.4397 -0.1925 0.8773
vn 0.4759 -0.2120 0.8536
vn 0.5001 -0.2142 0.8390
vn 0.3997 -0.1390 0.9061
vn 0.3806 -0.1480 0.9128
vn 0.4060 -0.1695 0.8980
vn 0.4284 -0.1641 0.8886
vn 0.6050 -0.2320 0.7617
vn 0.5777 -0.2261 0.7843
vn 0.5532 -0.2264 0.8017
vn 0.5803 -0.2301 0.7812
vn 0.4981 -0.1444 0.8550
vn 0.5220 -0.1362 0.8420
vn 0.4802 -0.0904 0.8725
vn 0.4606 -0.1038 0.8815
vn 0.8837 -0.2497 0.3960
vn 0.8745 -0.2448 0.4187
vn 0.8598 -0.2476 0.4465
vn 0.8717 -0.2511 0.4208
vn 0.9041 -0.2509 0.3458
vn 0.8986 -0.2507 0.3601
vn 0.9076 -0.2493 0.3378
vn 0.9039 -0.2473 0.3491
vn 0.9081 -0.2378 0.3447
vn 0.9080 -0.2494 0.3366
vn 0.9085 -0.2482 0.3363
vn 0.9122 -0.2372 0.3341
vn 0.9088 -0.2342 0.3453
vn 0.9133 -0.2106 0.3485
vn 0.9162 -0.2127 0.3396
vn 0.9126 -0.2105 0.3505
vn 0.9083 -0.2113 0.3611
vn 0.9003 -0.2166 0.3774
vn 0.9079 -0.2114 0.3621
vn 0.9038 -0.2329 0.3591
vn 0.8960 -0.2348 0.3768
vn 0.8373 -0.2582 0.4819
vn 0.8554 -0.2527 0.4520
vn 0.8856 -0.2391 0.3982
vn 0.8717 -0.2459 0.4239
vn 0.8771 -0.2364 0.4182
vn 0.8721 -0.2451 0.4235
vn 0.8902 -0.2254 0.3959
vn 0.8896 -0.2455 0.3851
vn 0.8981 -0.2453 0.3649
vn 0.8914 -0.2501 0.3780
vn 0.8815 -0.2504 0.4002
vn 0.8781 -0.2477 0.4094
vn 0.8681 -0.2524 0.4273
vn 0.8513 -0.2557 0.4582
vn 0.8628 -0.2521 0.4381
vn 0.8410 -0.2516 0.4790
vn 0.8185 -0.2556 0.5146
vn 0.8365 -0.2563 0.4843
vn 0.8558 -0.2538 0.4507
vn 0.8949 -0.2403 0.3761
vn 0.8859 -0.2425 0.3954
vn 0.8928 -0.2486 0.3755
vn 0.9000 -0.2474 0.3590
vn 0.8972 -0.2269 0.3789
vn 0.9049 -0.2231 0.3625
vn 0.8999 -0.2058 0.3845
vn 0.8903 -0.2103 0.4039
vn 0.9145 -0.2300 0.3329
vn 0.9150 -0.2295 0.3318
vn 0.9190 -0.2261 0.3230
vn 0.9081 -0.1995 0.3681
vn 0.9117 -0.2179 0.3483
vn 0.9022 -0.2378 0.3599
vn 0.9060 -0.2453 0.3451
vn 0.9116 -0.2419 0.3325
vn 0.9164 -0.2381 0.3216
vn 0.9086 -0.2344 0.3457
vn 0.8298 -0.1620 0.5341
vn 0.8498 -0.1927 0.4906
vn 0.8665 -0.1897 0.4617
vn 0.8499 -0.1574 0.5029
vn 0.8654 -0.2155 0.4524
vn 0.8771 -0.2318 0.4206
vn 0.8882 -0.2295 0.3981
vn 0.8790 -0.2133 0.4265
vn 0.8486 -0.2189 0.4816
vn 0.8279 -0.2244 0.5140
vn 0.8454 -0.2390 0.4777
vn 0.8630 -0.2349 0.4472
vn 0.8824 -0.1450 0.4476
vn 0.8674 -0.1521 0.4738
vn 0.8807 -0.1858 0.4357
vn 0.8928 -0.1800 0.4130
vn 0.8266 -0.0580 0.5598
vn 0.8494 -0.1089 0.5163
vn 0.8676 -0.1005 0.4870
vn 0.8479 -0.0491 0.5279
vn 0.6423 0.0523 0.7647
vn 0.6124 0.0206 0.7903
vn 0.6697 -0.0469 0.7412
vn 0.7005 -0.0282 0.7131
vn 0.4796 0.1813 0.8585
vn 0.4779 0.1441 0.8665
vn 0.5398 0.0901 0.8370
vn 0.5583 0.1306 0.8193
vn 0.4992 0.0230 0.8662
vn 0.5196 0.0557 0.8526
vn 0.4710 0.1081 0.8755
vn 0.4602 0.0709 0.8850
vn 0.4638 -0.0299 0.8855
vn 0.4797 -0.0063 0.8774
vn 0.4480 0.0373 0.8932
vn 0.4364 0.0104 0.8997
vn 0.3806 0.0999 0.9193
vn 0.4065 0.0552 0.9120
vn 0.4164 0.0842 0.9053
vn 0.3859 0.1305 0.9133
vn 0.3545 0.1836 0.9168
vn 0.3629 0.1436 0.9207
vn 0.3632 0.1734 0.9154
vn 0.3508 0.2116 0.9122
vn 0.3591 0.1559 0.9202
vn 0.3639 0.1269 0.9227
vn 0.3639 0.0848 0.9276
vn 0.3633 0.1141 0.9247
vn 0.3977 0.1747 0.9007
vn 0.4070 0.1436 0.9021
vn 0.3870 0.1062 0.9159
vn 0.3798 0.1376 0.9148
vn 0.3749 0.2290 0.8983
vn 0.3865 0.2029 0.8997
vn 0.3713 0.1671 0.9134
vn 0.3626 0.1949 0.9114
vn 0.3632 0.2522 0.8969
vn 0.3539 0.2205 0.9089
vn 0.3468 0.2458 0.9052
vn 0.3528 0.2748 0.8944
vn 0.3366 0.2984 0.8931
vn 0.3378 0.3232 0.8840
vn 0.3443 0.2982 0.8902
vn 0.3412 0.2712 0.9000
vn 0.3429 0.2982 0.8908
vn 0.3644 0.2667 0.8923
vn 0.3609 0.2956 0.8845
vn 0.3385 0.3246 0.8832
vn 0.3455 0.2690 0.8990
vn 0.3478 0.2398 0.9064
vn 0.3640 0.2040 0.9088
vn 0.3651 0.2357 0.9006
vn 0.3262 0.3499 0.8782
vn 0.3259 0.3707 0.8697
vn 0.3322 0.3482 0.8766
vn 0.3319 0.3255 0.8854
vn 0.4024 0.3050 0.8632
vn 0.3806 0.2795 0.8815
vn 0.3677 0.3003 0.8801
vn 0.3874 0.3239 0.8631
vn 0.3645 0.3616 0.8582
vn 0.3745 0.3421 0.8618
vn 0.3566 0.3216 0.8772
vn 0.3478 0.3441 0.8721
vn 0.4080 0.2339 0.8825
vn 0.3945 0.2581 0.8819
vn 0.4181 0.2846 0.8626
vn 0.4327 0.2612 0.8629
vn 0.4293 0.1768 0.8857
vn 0.4201 0.2069 0.8836
vn 0.4448 0.2343 0.8645
vn 0.4361 0.1061 0.8936
vn 0.4344 0.1426 0.8894
vn 0.3729 0.0656 0.9255
vn 0.3640 0.0254 0.9310
vn 0.3638 0.0547 0.9299
vn 0.3685 0.0964 0.9246
vn 0.3616 -0.0136 0.9322
vn 0.3646 -0.0471 0.9300
vn 0.3750 -0.0228 0.9268
vn 0.3661 0.0139 0.9305
vn 0.3762 -0.0767 0.9234
vn 0.3952 -0.1033 0.9128
vn 0.4142 -0.0871 0.9060
vn 0.3917 -0.0565 0.9183
vn 0.3755 0.0705 0.9241
vn 0.3711 0.0424 0.9276
vn 0.3853 0.0019 0.9228
vn 0.3955 0.0275 0.9180
vn 0.4224 -0.0138 0.9063
vn 0.4068 -0.0359 0.9128
vn 0.4322 -0.0702 0.8991
vn 0.4488 -0.0509 0.8922
vn 0.3634 -0.0935 0.9269
vn 0.3524 -0.1097 0.9294
vn 0.3624 -0.1290 0.9230
vn 0.3781 -0.1170 0.9183
vn 0.3583 -0.0384 0.9328
vn 0.3535 -0.0627 0.9333
vn 0.3505 -0.0884 0.9324
vn 0.3575 -0.0682 0.9314
vn 0.3430 -0.1444 0.9281
vn 0.3436 -0.1438 0.9281
vn 0.3460 -0.1329 0.9288
vn 0.3429 -0.1435 0.9284
vn 0.3500 -0.1384 0.9265
vn 0.3446 -0.1233 0.9306
vn 0.3416 -0.1322 0.9305
vn 0.3509 -0.0829 0.9327
vn 0.3521 -0.0973 0.9309
vn 0.3523 -0.0982 0.9307
vn 0.3555 -0.1060 0.9286
vn 0.3452 -0.1059 0.9325
vn 0.3447 -0.1161 0.9315
vn 0.3448 -0.1151 0.9316
vn 0.3453 -0.1049 0.9326
vn 0.3616 -0.0318 0.9318
vn 0.3635 -0.0035 0.9316
vn 0.3751 0.0335 0.9264
vn 0.3758 0.0019 0.9267
vn 0.4144 0.0730 0.9072
vn 0.3934 0.0386 0.9185
vn 0.3914 0.0724 0.9174
vn 0.4125 0.1087 0.9044
vn 0.3614 -0.0556 0.9308
vn 0.3762 -0.0258 0.9262
vn 0.3757 -0.0489 0.9254
vn 0.3628 -0.0744 0.9289
vn 0.3629 -0.0756 0.9287
vn 0.3646 -0.0866 0.9271
vn 0.3745 -0.0670 0.9248
vn 0.3735 -0.0798 0.9242
vn 0.3650 -0.0886 0.9268
vn 0.3700 -0.0899 0.9247
vn 0.3694 -0.0991 0.9240
vn 0.3670 -0.0950 0.9254
vn 0.3812 -0.0653 0.9222
vn 0.3868 -0.0465 0.9210
vn 0.4086 0.0057 0.9127
vn 0.3911 -0.0220 0.9201
vn 0.3933 0.0068 0.9194
vn 0.4130 0.0384 0.9099
vn 0.4339 0.1532 0.8878
vn 0.3954 0.1973 0.8971
vn 0.3909 0.1627 0.9059
vn 0.4258 0.1170 0.8972
vn 0.4354 0.2229 0.8722
vn 0.3942 0.2618 0.8809
vn 0.3966 0.2299 0.8887
vn 0.4370 0.1875 0.8797
vn 0.8948 -0.1364 0.4252
vn 0.9029 -0.1725 0.3938
vn 0.8655 -0.0396 0.4994
vn 0.8825 -0.0910 0.4614
vn 0.4643 -0.0611 0.8836
vn 0.4406 -0.0699 0.8950
vn 0.4963 -0.1153 0.8605
vn 0.4939 -0.0853 0.8653
vn 0.5273 -0.1114 0.8423
vn 0.5028 -0.1437 0.8524
vn 0.5333 -0.1373 0.8347
vn 0.5419 -0.1611 0.8248
vn 0.5128 -0.1683 0.8418
vn 0.5711 -0.1595 0.8053
vn 0.5621 -0.1363 0.8158
vn 0.4357 -0.1588 0.8859
vn 0.4695 -0.1522 0.8697
vn 0.4814 -0.1770 0.8584
vn 0.4466 -0.1825 0.8759
vn 0.5147 -0.2107 0.8311
vn 0.4850 -0.2126 0.8483
vn 0.4641 -0.2005 0.8628
vn 0.4966 -0.1968 0.8454
vn 0.5422 -0.2040 0.8151
vn 0.5257 -0.1883 0.8296
vn 0.5545 -0.1819 0.8120
vn 0.5709 -0.1995 0.7964
vn 0.4640 -0.1225 0.8773
vn 0.4326 -0.1306 0.8921
vn 0.4348 -0.1000 0.8950
vn 0.4633 -0.0907 0.8815
vn 0.4061 -0.0908 0.9093
vn 0.4186 -0.0671 0.9057
vn 0.4306 -0.0574 0.9007
vn 0.4217 -0.0814 0.9031
vn 0.4048 -0.1377 0.9040
vn 0.3822 -0.1415 0.9132
vn 0.3924 -0.1169 0.9123
vn 0.4110 -0.1100 0.9050
vn 0.3661 -0.1088 0.9242
vn 0.3685 -0.1048 0.9237
vn 0.3658 -0.0964 0.9257
vn 0.3632 -0.0973 0.9266
vn 0.3698 -0.0994 0.9238
vn 0.3657 -0.0964 0.9257
vn 0.3732 -0.0798 0.9243
vn 0.3651 -0.0891 0.9267
vn 0.3796 -0.1168 0.9177
vn 0.3817 -0.1101 0.9177
vn 0.3772 -0.1220 0.9180
vn 0.3727 -0.1189 0.9203
vn 0.3704 -0.1285 0.9199
vn 0.3693 -0.1210 0.9214
vn 0.3635 -0.1084 0.9253
vn 0.3501 -0.1370 0.9267
vn 0.3619 -0.1348 0.9224
vn 0.3690 -0.1303 0.9202
vn 0.3539 -0.1447 0.9240
vn 0.3672 -0.1299 0.9210
vn 0.3698 -0.1269 0.9204
vn 0.3673 -0.1295 0.9211
vn 0.3554 -0.1394 0.9243
vn 0.3576 -0.1416 0.9231
vn 0.3527 -0.1507 0.9235
vn 0.3625 -0.1217 0.9240
vn 0.3624 -0.1268 0.9234
vn 0.3556 -0.1264 0.9261
vn 0.3671 -0.1145 0.9231
vn 0.3623 -0.1126 0.9252
vn 0.3565 -0.1074 0.9281
vn 0.3611 -0.1119 0.9258
vn 0.3549 -0.1263 0.9263
vn 0.3482 -0.1231 0.9293
vn 0.3440 -0.1353 0.9292
vn 0.3478 -0.1244 0.9293
vn 0.3455 -0.1413 0.9277
vn 0.3493 -0.1371 0.9269
vn 0.3498 -0.1542 0.9240
vn 0.3423 -0.1469 0.9280
vn 0.3434 -0.1373 0.9291
vn 0.3524 -0.1582 0.9224
vn 0.3493 -0.1522 0.9246
vn 0.3482 -0.1573 0.9241
vn 0.3497 -0.1517 0.9245
vn 0.3624 -0.1681 0.9167
vn 0.3607 -0.1588 0.9191
vn 0.3608 -0.1596 0.9189
vn 0.3703 -0.1733 0.9126
vn 0.3632 -0.1693 0.9162
vn 0.3841 -0.1770 0.9062
vn 0.3797 -0.1617 0.9109
vn 0.4052 -0.1621 0.8997
vn 0.4125 -0.1820 0.8926
vn 0.3539 -0.1579 0.9219
vn 0.3634 -0.1552 0.9186
vn 0.3711 -0.1736 0.9122
vn 0.3860 -0.1734 0.9061
vn 0.3643 -0.1549 0.9183
vn 0.4285 -0.1968 0.8818
vn 0.4508 -0.2069 0.8683
vn 0.4151 -0.1914 0.8894
vn 0.3959 -0.1867 0.8991
vn 0.3782 -0.1226 0.9176
vn 0.3707 -0.1262 0.9201
vn 0.3789 -0.1224 0.9173
vn 0.3659 -0.1430 0.9196
vn 0.3666 -0.1431 0.9193
vn 0.3586 -0.1419 0.9226
vn 0.3938 -0.0991 0.9138
vn 0.3854 -0.1065 0.9166
vn 0.3930 -0.0997 0.9141
vn 0.3810 -0.1160 0.9173
vn 0.3845 -0.1080 0.9168
vn 0.3976 -0.0874 0.9134
vn 0.4074 -0.0764 0.9100
vn 0.3791 -0.1216 0.9173
vn 0.3805 -0.1173 0.9173
vn 0.3860 -0.1119 0.9157
vn 0.3907 -0.1035 0.9147
vn 0.3912 -0.1026 0.9146
vn 0.3408 0.3672 0.8655
vn 0.3339 0.3879 0.8591
vn 0.5349 -0.2200 0.8158
vn 0.5570 -0.2261 0.7991
vn 0.5299 -0.2243 0.8179
vn 0.5071 -0.2201 0.8333
vn 0.6277 -0.2002 0.7523
vn 0.5997 -0.1984 0.7752
vn 0.5839 -0.1803 0.7916
vn 0.6121 -0.1821 0.7695
vn 0.6967 -0.2318 0.6789
vn 0.6743 -0.2192 0.7052
vt 0.000000 0.000000
s 1
usemtl defaultMat
f 146/1/1 144/1/2 3/1/3 145/1/4
f 4/1/5 147/1/6 149/1/7 148/1/8
f 147/1/9 3/1/3 144/1/2 149/1/7
f 149/1/7 144/1/2 1/1/10 143/1/11
f 148/1/8 149/1/7 143/1/11 2/1/12
f 8/1/13 154/1/13 158/1/13 157/1/13
f 154/1/14 9/1/14 155/1/14 158/1/14
f 158/1/15 155/1/15 10/1/15 156/1/15
f 157/1/16 158/1/16 156/1/16 11/1/16
f 8/1/17 159/1/17 163/1/17 162/1/17
f 159/1/18 12/1/18 160/1/18 163/1/18
f 163/1/19 160/1/19 13/1/19 161/1/19
f 162/1/20 163/1/20 161/1/20 14/1/20
f 12/1/21 164/1/21 167/1/21 160/1/21
f 164/1/22 15/1/22 165/1/22 167/1/22
f 167/1/23 165/1/23 16/1/23 166/1/23
f 160/1/24 167/1/24 166/1/24 13/1/24
f 15/1/25 168/1/25 170/1/25 165/1/25
f 165/1/26 170/1/26 169/1/26 16/1/26
f 173/1/27 171/1/27 17/1/27 172/1/27
f 169/1/28 173/1/28 172/1/28 16/1/28
f 17/1/29 174/1/29 178/1/29 177/1/29
f 178/1/30 175/1/30 18/1/30 176/1/30
f 177/1/31 178/1/31 176/1/31 19/1/31
f 180/1/32 179/1/32 18/1/32 175/1/32
f 20/1/33 181/1/33 184/1/33 179/1/33
f 181/1/34 21/1/35 182/1/35 184/1/34
f 184/1/36 182/1/37 22/1/37 183/1/36
f 179/1/38 184/1/38 183/1/38 18/1/38
f 23/1/39 185/1/40 188/1/41 187/1/39
f 185/1/40 21/1/42 186/1/43 188/1/41
f 22/1/37 182/1/37 191/1/44 190/1/44
f 182/1/35 21/1/35 185/1/45 191/1/46
f 191/1/46 185/1/45 23/1/47 189/1/47
f 190/1/48 191/1/48 189/1/48 24/1/48
f 25/1/49 192/1/50 194/1/51 193/1/49
f 192/1/50 19/1/52 176/1/52 194/1/51
f 194/1/53 176/1/54 18/1/54 183/1/55
f 193/1/56 194/1/53 183/1/55 22/1/57
f 25/1/58 195/1/58 199/1/58 198/1/58
f 195/1/59 26/1/59 196/1/59 199/1/59
f 199/1/60 196/1/60 27/1/60 197/1/60
f 198/1/61 199/1/61 197/1/61 14/1/61
f 25/1/62 193/1/62 201/1/62 195/1/62
f 193/1/56 22/1/57 190/1/63 201/1/63
f 201/1/64 190/1/64 24/1/64 200/1/64
f 195/1/65 201/1/65 200/1/65 26/1/65
f 14/1/66 161/1/66 203/1/66 198/1/66
f 161/1/67 13/1/67 202/1/67 203/1/67
f 203/1/68 202/1/69 19/1/69 192/1/70
f 198/1/71 203/1/68 192/1/70 25/1/71
f 16/1/72 172/1/72 204/1/72 166/1/72
f 172/1/73 17/1/73 177/1/73 204/1/73
f 204/1/74 177/1/74 19/1/74 202/1/74
f 166/1/75 204/1/75 202/1/75 13/1/75
f 31/1/76 207/1/76 210/1/76 209/1/76
f 207/1/77 11/1/77 208/1/77 210/1/77
f 210/1/78 208/1/78 30/1/78 206/1/78
f 209/1/79 210/1/79 206/1/79 29/1/79
f 12/1/80 159/1/80 212/1/80 211/1/80
f 159/1/81 8/1/81 157/1/81 212/1/81
f 212/1/82 157/1/82 11/1/82 207/1/82
f 211/1/83 212/1/83 207/1/83 31/1/83
f 15/1/84 164/1/84 214/1/84 205/1/84
f 164/1/85 12/1/85 211/1/85 214/1/85
f 214/1/86 211/1/86 31/1/86 213/1/86
f 205/1/87 214/1/87 213/1/87 28/1/87
f 213/1/88 31/1/88 209/1/88 215/1/88
f 32/1/89 216/1/89 218/1/89 217/1/89
f 11/1/90 156/1/90 220/1/90 208/1/90
f 156/1/91 10/1/91 219/1/91 220/1/91
f 220/1/92 219/1/92 32/1/92 217/1/92
f 208/1/93 220/1/93 217/1/93 30/1/93
f 216/1/94 32/1/94 221/1/94 223/1/94
f 223/1/95 221/1/95 33/1/95 222/1/95
f 32/1/96 219/1/96 226/1/96 221/1/96
f 219/1/97 10/1/97 224/1/97 226/1/97
f 226/1/98 224/1/98 34/1/98 225/1/98
f 221/1/99 226/1/99 225/1/99 33/1/99
f 9/1/100 154/1/100 228/1/100 227/1/100
f 154/1/101 8/1/101 162/1/101 228/1/101
f 228/1/102 162/1/102 14/1/102 197/1/102
f 227/1/103 228/1/103 197/1/103 27/1/103
f 10/1/104 155/1/104 231/1/104 224/1/104
f 155/1/105 9/1/105 229/1/105 231/1/105
f 231/1/106 229/1/106 35/1/106 230/1/106
f 224/1/107 231/1/107 230/1/107 34/1/107
f 34/1/108 230/1/108 235/1/108 234/1/108
f 230/1/109 35/1/109 232/1/109 235/1/109
f 235/1/110 232/1/110 36/1/110 233/1/110
f 234/1/111 235/1/111 233/1/111 37/1/111
f 38/1/112 236/1/112 239/1/112 238/1/112
f 236/1/113 39/1/113 237/1/113 239/1/113
f 239/1/114 237/1/114 36/1/114 232/1/114
f 238/1/115 239/1/115 232/1/115 35/1/115
f 39/1/116 236/1/116 243/1/116 242/1/116
f 236/1/117 38/1/117 240/1/117 243/1/117
f 243/1/118 240/1/118 40/1/118 241/1/118
f 242/1/119 243/1/119 241/1/119 41/1/119
f 36/1/120 237/1/120 247/1/120 246/1/120
f 237/1/121 39/1/121 244/1/121 247/1/121
f 247/1/122 244/1/122 42/1/122 245/1/122
f 246/1/123 247/1/123 245/1/123 43/1/123
f 42/1/124 248/1/124 252/1/124 251/1/124
f 248/1/125 44/1/125 249/1/125 252/1/125
f 252/1/126 249/1/126 45/1/126 250/1/126
f 251/1/127 252/1/127 250/1/127 46/1/127
f 47/1/128 253/1/128 256/1/128 255/1/128
f 253/1/129 48/1/129 254/1/129 256/1/129
f 256/1/130 254/1/130 45/1/130 249/1/130
f 255/1/131 256/1/131 249/1/131 44/1/131
f 49/1/132 257/1/132 260/1/132 259/1/132
f 257/1/133 48/1/133 253/1/133 260/1/133
f 260/1/134 253/1/134 47/1/134 258/1/134
f 259/1/135 260/1/135 258/1/135 50/1/135
f 51/1/136 261/1/136 264/1/136 263/1/136
f 261/1/137 52/1/137 262/1/137 264/1/137
f 264/1/138 262/1/138 48/1/138 257/1/138
f 263/1/139 264/1/139 257/1/139 49/1/139
f 51/1/140 265/1/140 268/1/140 261/1/140
f 265/1/141 53/1/141 266/1/141 268/1/141
f 268/1/142 266/1/142 54/1/142 267/1/142
f 261/1/143 268/1/143 267/1/143 52/1/143
f 54/1/144 266/1/144 270/1/144 269/1/144
f 51/1/145 272/1/145 274/1/145 265/1/145
f 272/1/146 56/1/146 273/1/146 274/1/146
f 274/1/147 273/1/147 55/1/147 271/1/147
f 265/1/148 274/1/148 271/1/148 53/1/148
f 48/1/149 262/1/149 277/1/149 254/1/149
f 262/1/150 52/1/150 275/1/150 277/1/150
f 277/1/151 275/1/151 57/1/151 276/1/151
f 254/1/152 277/1/152 276/1/152 45/1/152
f 54/1/153 278/1/153 280/1/153 267/1/153
f 278/1/154 58/1/154 279/1/154 280/1/154
f 280/1/155 279/1/155 57/1/155 275/1/155
f 267/1/156 280/1/156 275/1/156 52/1/156
f 59/1/157 281/1/157 283/1/157 282/1/157
f 281/1/158 56/1/158 272/1/158 283/1/158
f 283/1/159 272/1/159 51/1/159 263/1/159
f 282/1/160 283/1/160 263/1/160 49/1/160
f 59/1/161 284/1/161 287/1/161 281/1/161
f 284/1/162 60/1/162 285/1/162 287/1/162
f 287/1/163 285/1/163 61/1/163 286/1/163
f 281/1/164 287/1/164 286/1/164 56/1/164
f 59/1/165 288/1/165 291/1/165 284/1/165
f 288/1/166 62/1/166 289/1/166 291/1/166
f 291/1/167 289/1/167 63/1/167 290/1/167
f 284/1/168 291/1/168 290/1/168 60/1/168
f 62/1/169 288/1/169 293/1/169 292/1/169
f 288/1/170 59/1/170 282/1/170 293/1/170
f 293/1/171 282/1/171 49/1/171 259/1/171
f 292/1/172 293/1/172 259/1/172 50/1/172
f 47/1/173 294/1/173 297/1/173 258/1/173
f 294/1/174 64/1/174 295/1/174 297/1/174
f 297/1/175 295/1/175 65/1/175 296/1/175
f 258/1/176 297/1/176 296/1/176 50/1/176
f 44/1/177 298/1/177 300/1/177 255/1/177
f 298/1/178 41/1/178 299/1/178 300/1/178
f 300/1/179 299/1/179 64/1/179 294/1/179
f 255/1/180 300/1/180 294/1/180 47/1/180
f 42/1/181 244/1/181 301/1/181 248/1/181
f 244/1/182 39/1/182 242/1/182 301/1/182
f 301/1/183 242/1/183 41/1/183 298/1/183
f 248/1/184 301/1/184 298/1/184 44/1/184
f 40/1/185 302/1/185 304/1/185 241/1/185
f 302/1/186 66/1/186 303/1/186 304/1/186
f 304/1/187 303/1/187 64/1/187 299/1/187
f 241/1/188 304/1/188 299/1/188 41/1/188
f 40/1/189 305/1/189 308/1/189 302/1/189
f 305/1/190 67/1/190 306/1/190 308/1/190
f 308/1/191 306/1/191 68/1/191 307/1/191
f 302/1/192 308/1/192 307/1/192 66/1/192
f 40/1/193 240/1/193 311/1/193 305/1/193
f 240/1/194 38/1/194 309/1/194 311/1/194
f 311/1/195 309/1/195 69/1/195 310/1/195
f 305/1/196 311/1/196 310/1/196 67/1/196
f 70/1/197 312/1/197 314/1/197 313/1/197
f 312/1/198 65/1/198 295/1/198 314/1/198
f 314/1/199 295/1/199 64/1/199 303/1/199
f 313/1/200 314/1/200 303/1/200 66/1/200
f 71/1/201 315/1/201 318/1/201 317/1/201
f 315/1/202 72/1/202 316/1/202 318/1/202
f 318/1/203 316/1/203 65/1/203 312/1/203
f 317/1/204 318/1/204 312/1/204 70/1/204
f 73/1/205 319/1/205 322/1/205 321/1/205
f 319/1/206 74/1/206 320/1/206 322/1/206
f 322/1/207 320/1/207 71/1/207 317/1/207
f 321/1/208 322/1/208 317/1/208 70/1/208
f 71/1/209 323/1/209 326/1/209 315/1/209
f 323/1/210 75/1/210 324/1/210 326/1/210
f 326/1/211 324/1/211 76/1/211 325/1/211
f 315/1/212 326/1/212 325/1/212 72/1/212
f 74/1/213 327/1/213 329/1/213 320/1/213
f 327/1/214 77/1/214 328/1/214 329/1/214
f 329/1/215 328/1/215 75/1/215 323/1/215
f 320/1/216 329/1/216 323/1/216 71/1/216
f 50/1/217 296/1/217 331/1/217 292/1/217
f 296/1/218 65/1/218 316/1/218 331/1/218
f 331/1/219 316/1/219 72/1/219 330/1/219
f 292/1/220 331/1/220 330/1/220 62/1/220
f 70/1/221 313/1/221 333/1/221 321/1/221
f 313/1/222 66/1/222 307/1/222 333/1/222
f 333/1/223 307/1/223 68/1/223 332/1/223
f 321/1/224 333/1/224 332/1/224 73/1/224
f 78/1/225 334/1/225 338/1/225 337/1/225
f 334/1/226 79/1/226 335/1/226 338/1/226
f 338/1/227 335/1/227 46/1/227 336/1/227
f 337/1/228 338/1/228 336/1/228 80/1/228
f 4/1/5 339/1/229 342/1/229 147/1/6
f 339/1/230 78/1/230 340/1/230 342/1/230
f 342/1/231 340/1/232 81/1/232 341/1/233
f 147/1/234 342/1/231 341/1/233 3/1/235
f 145/1/236 3/1/235 341/1/233 344/1/236
f 344/1/237 341/1/237 81/1/237 343/1/237
f 150/1/238 344/1/239 343/1/240 5/1/241
f 82/1/242 345/1/242 348/1/242 347/1/242
f 345/1/243 5/1/241 343/1/240 348/1/243
f 348/1/244 343/1/244 81/1/244 346/1/244
f 347/1/245 348/1/245 346/1/245 83/1/245
f 54/1/246 269/1/246 351/1/246 278/1/246
f 278/1/247 351/1/247 350/1/247 58/1/247
f 83/1/248 352/1/248 353/1/248 347/1/248
f 352/1/249 58/1/249 350/1/250 353/1/251
f 347/1/252 353/1/252 349/1/252 82/1/252
f 83/1/253 346/1/253 355/1/253 354/1/253
f 346/1/254 81/1/254 340/1/254 355/1/254
f 355/1/255 340/1/255 78/1/255 337/1/255
f 354/1/256 355/1/256 337/1/256 80/1/256
f 83/1/257 354/1/257 357/1/257 352/1/257
f 354/1/258 80/1/258 356/1/258 357/1/258
f 357/1/259 356/1/259 57/1/259 279/1/259
f 352/1/260 357/1/260 279/1/260 58/1/260
f 46/1/261 250/1/261 358/1/261 336/1/261
f 250/1/262 45/1/262 276/1/262 358/1/262
f 358/1/263 276/1/263 57/1/263 356/1/263
f 336/1/264 358/1/264 356/1/264 80/1/264
f 84/1/265 359/1/265 361/1/265 360/1/265
f 359/1/266 79/1/266 334/1/266 361/1/266
f 361/1/267 334/1/267 78/1/267 339/1/267
f 360/1/268 361/1/268 339/1/268 4/1/268
f 84/1/269 362/1/269 366/1/269 365/1/269
f 362/1/270 85/1/270 363/1/270 366/1/270
f 366/1/271 363/1/271 86/1/271 364/1/271
f 365/1/272 366/1/272 364/1/272 87/1/272
f 85/1/273 367/1/273 369/1/274 368/1/275
f 86/1/276 363/1/276 371/1/276 370/1/276
f 363/1/277 85/1/277 368/1/277 371/1/277
f 84/1/278 360/1/278 372/1/278 362/1/278
f 360/1/279 4/1/279 148/1/279 372/1/279
f 372/1/280 148/1/8 2/1/12 367/1/281
f 362/1/282 372/1/282 367/1/282 85/1/282
f 36/1/283 246/1/283 375/1/283 233/1/283
f 246/1/284 43/1/284 373/1/284 375/1/284
f 375/1/285 373/1/285 87/1/285 374/1/285
f 233/1/286 375/1/286 374/1/286 37/1/286
f 43/1/287 376/1/287 377/1/287 373/1/287
f 376/1/288 79/1/288 359/1/288 377/1/288
f 377/1/289 359/1/289 84/1/289 365/1/289
f 373/1/290 377/1/290 365/1/290 87/1/290
f 43/1/291 245/1/291 378/1/291 376/1/291
f 245/1/292 42/1/292 251/1/292 378/1/292
f 378/1/293 251/1/293 46/1/293 335/1/293
f 376/1/294 378/1/294 335/1/294 79/1/294
f 88/1/295 379/1/295 381/1/295 380/1/295
f 379/1/296 37/1/296 374/1/296 381/1/296
f 381/1/297 374/1/297 87/1/297 364/1/297
f 380/1/298 381/1/298 364/1/298 86/1/298
f 34/1/299 234/1/299 383/1/299 225/1/299
f 234/1/300 37/1/300 379/1/300 383/1/300
f 383/1/301 379/1/301 88/1/301 382/1/301
f 225/1/302 383/1/302 382/1/302 33/1/302
f 9/1/303 384/1/303 385/1/303 229/1/303
f 384/1/304 69/1/304 309/1/304 385/1/304
f 385/1/305 309/1/305 38/1/305 238/1/305
f 229/1/306 385/1/306 238/1/306 35/1/306
f 27/1/307 386/1/307 388/1/307 227/1/307
f 386/1/308 89/1/308 387/1/308 388/1/308
f 388/1/309 387/1/309 69/1/309 384/1/309
f 227/1/310 388/1/310 384/1/310 9/1/310
f 67/1/311 310/1/311 391/1/311 390/1/311
f 310/1/312 69/1/312 387/1/312 391/1/312
f 391/1/313 387/1/313 89/1/313 389/1/313
f 390/1/314 391/1/314 389/1/314 90/1/314
f 68/1/315 306/1/315 394/1/315 393/1/315
f 306/1/316 67/1/316 390/1/316 394/1/316
f 394/1/317 390/1/317 90/1/317 392/1/317
f 393/1/318 394/1/318 392/1/318 91/1/318
f 92/1/319 395/1/319 398/1/319 397/1/319
f 395/1/320 91/1/320 392/1/320 398/1/320
f 398/1/321 392/1/321 90/1/321 396/1/321
f 397/1/322 398/1/322 396/1/322 93/1/322
f 94/1/323 399/1/323 402/1/323 401/1/323
f 399/1/324 92/1/324 397/1/324 402/1/324
f 402/1/325 397/1/325 93/1/325 400/1/325
f 401/1/326 402/1/326 400/1/326 95/1/326
f 94/1/327 403/1/327 406/1/327 399/1/327
f 403/1/328 96/1/328 404/1/328 406/1/328
f 406/1/329 404/1/329 97/1/329 405/1/329
f 399/1/330 406/1/330 405/1/330 92/1/330
f 98/1/331 407/1/331 411/1/331 410/1/331
f 407/1/332 99/1/332 408/1/332 411/1/332
f 411/1/333 408/1/333 100/1/333 409/1/333
f 410/1/334 411/1/334 409/1/334 96/1/334
f 101/1/335 412/1/335 414/1/335 413/1/335
f 412/1/336 98/1/336 410/1/336 414/1/336
f 414/1/337 410/1/337 96/1/337 403/1/337
f 413/1/338 414/1/338 403/1/338 94/1/338
f 101/1/339 413/1/339 417/1/339 416/1/339
f 413/1/340 94/1/340 401/1/340 417/1/340
f 417/1/341 401/1/341 95/1/341 415/1/341
f 416/1/342 417/1/342 415/1/342 102/1/342
f 103/1/343 418/1/343 421/1/343 420/1/343
f 418/1/344 104/1/344 419/1/344 421/1/344
f 421/1/345 419/1/345 102/1/345 415/1/345
f 420/1/346 421/1/346 415/1/346 95/1/346
f 103/1/347 422/1/347 425/1/347 424/1/347
f 422/1/348 105/1/348 423/1/348 425/1/348
f 425/1/349 423/1/349 26/1/349 200/1/349
f 424/1/350 425/1/350 200/1/350 24/1/350
f 103/1/351 420/1/351 427/1/351 422/1/351
f 420/1/352 95/1/352 400/1/352 427/1/352
f 427/1/353 400/1/353 93/1/353 426/1/353
f 422/1/354 427/1/354 426/1/354 105/1/354
f 24/1/355 189/1/355 429/1/355 424/1/355
f 189/1/356 23/1/356 428/1/356 429/1/356
f 429/1/357 428/1/357 104/1/357 418/1/357
f 424/1/358 429/1/358 418/1/358 103/1/358
f 106/1/359 430/1/359 433/1/359 432/1/359
f 430/1/360 101/1/360 416/1/360 433/1/360
f 433/1/361 416/1/361 102/1/361 431/1/361
f 432/1/362 433/1/362 431/1/362 107/1/362
f 108/1/363 434/1/363 436/1/363 435/1/363
f 434/1/364 107/1/364 431/1/364 436/1/364
f 436/1/365 431/1/365 102/1/365 419/1/365
f 435/1/366 436/1/366 419/1/366 104/1/366
f 98/1/367 412/1/367 439/1/367 438/1/367
f 412/1/368 101/1/368 430/1/368 439/1/368
f 439/1/369 430/1/369 106/1/369 437/1/369
f 438/1/370 439/1/370 437/1/370 109/1/370
f 440/1/371 99/1/371 407/1/371 442/1/371
f 442/1/372 407/1/372 98/1/372 438/1/372
f 441/1/373 442/1/373 438/1/373 109/1/373
f 445/1/374 443/1/374 110/1/374 444/1/374
f 440/1/375 445/1/375 444/1/375 99/1/375
f 100/1/376 446/1/376 448/1/376 409/1/376
f 446/1/377 111/1/377 447/1/377 448/1/377
f 448/1/378 447/1/378 97/1/378 404/1/378
f 409/1/379 448/1/379 404/1/379 96/1/379
f 111/1/380 449/1/380 452/1/380 447/1/380
f 449/1/381 112/1/381 450/1/381 452/1/381
f 452/1/382 450/1/382 113/1/382 451/1/382
f 447/1/383 452/1/383 451/1/383 97/1/383
f 112/1/384 453/1/384 455/1/384 450/1/384
f 453/1/385 74/1/385 319/1/385 455/1/385
f 455/1/386 319/1/386 73/1/386 454/1/386
f 450/1/387 455/1/387 454/1/387 113/1/387
f 92/1/388 405/1/388 457/1/388 395/1/388
f 405/1/389 97/1/389 451/1/389 457/1/389
f 457/1/390 451/1/390 113/1/390 456/1/390
f 395/1/391 457/1/391 456/1/391 91/1/391
f 91/1/392 456/1/392 458/1/392 393/1/392
f 456/1/393 113/1/393 454/1/393 458/1/393
f 458/1/394 454/1/394 73/1/394 332/1/394
f 393/1/395 458/1/395 332/1/395 68/1/395
f 112/1/396 459/1/396 461/1/396 453/1/396
f 459/1/397 114/1/397 460/1/397 461/1/397
f 461/1/398 460/1/398 77/1/398 327/1/398
f 453/1/399 461/1/399 327/1/399 74/1/399
f 111/1/400 462/1/400 464/1/400 449/1/400
f 462/1/401 115/1/401 463/1/401 464/1/401
f 464/1/402 463/1/402 114/1/402 459/1/402
f 449/1/403 464/1/403 459/1/403 112/1/403
f 116/1/404 465/1/405 468/1/406 467/1/407
f 465/1/405 77/1/408 460/1/408 468/1/406
f 468/1/409 460/1/409 114/1/409 466/1/409
f 467/1/407 468/1/406 466/1/410 117/1/410
f 115/1/411 469/1/411 471/1/411 463/1/411
f 469/1/412 118/1/413 470/1/414 471/1/412
f 471/1/415 470/1/416 117/1/416 466/1/417
f 463/1/418 471/1/415 466/1/417 114/1/418
f 115/1/419 462/1/419 474/1/419 473/1/419
f 462/1/420 111/1/420 446/1/420 474/1/420
f 474/1/421 446/1/421 100/1/421 472/1/421
f 473/1/422 474/1/422 472/1/422 119/1/422
f 110/1/423 475/1/423 476/1/423 444/1/423
f 475/1/424 119/1/424 472/1/424 476/1/424
f 476/1/425 472/1/425 100/1/425 408/1/425
f 444/1/426 476/1/426 408/1/426 99/1/426
f 115/1/427 473/1/427 479/1/427 469/1/427
f 473/1/428 119/1/428 477/1/428 479/1/428
f 479/1/429 477/1/429 120/1/429 478/1/429
f 469/1/430 479/1/430 478/1/431 118/1/432
f 120/1/433 480/1/433 483/1/433 478/1/433
f 480/1/434 121/1/434 481/1/434 483/1/434
f 483/1/435 481/1/436 122/1/437 482/1/438
f 478/1/431 483/1/435 482/1/438 118/1/432
f 484/1/439 121/1/439 480/1/439 486/1/439
f 486/1/440 480/1/440 120/1/440 485/1/440
f 123/1/441 485/1/441 488/1/441 487/1/441
f 485/1/442 120/1/442 477/1/442 488/1/442
f 488/1/443 477/1/443 119/1/443 475/1/443
f 487/1/444 488/1/444 475/1/444 110/1/444
f 89/1/445 489/1/445 490/1/445 389/1/445
f 489/1/446 105/1/446 426/1/446 490/1/446
f 490/1/447 426/1/447 93/1/447 396/1/447
f 389/1/448 490/1/448 396/1/448 90/1/448
f 27/1/449 196/1/449 491/1/449 386/1/449
f 196/1/450 26/1/450 423/1/450 491/1/450
f 491/1/451 423/1/451 105/1/451 489/1/451
f 386/1/452 491/1/452 489/1/452 89/1/452
f 492/1/453 88/1/453 380/1/453 493/1/453
f 493/1/454 380/1/454 86/1/454 370/1/454
f 222/1/455 33/1/455 382/1/455 494/1/455
f 494/1/456 382/1/456 88/1/456 492/1/456
f 495/1/457 125/1/457 496/1/457 498/1/457
f 498/1/458 496/1/458 126/1/458 497/1/458
f 127/1/459 499/1/459 503/1/459 502/1/459
f 499/1/460 125/1/460 500/1/460 503/1/460
f 502/1/461 503/1/461 501/1/461 128/1/461
f 127/1/462 502/1/462 507/1/462 506/1/462
f 502/1/463 128/1/463 504/1/463 507/1/463
f 507/1/464 504/1/464 129/1/464 505/1/464
f 506/1/465 507/1/465 505/1/465 130/1/465
f 508/1/466 129/1/466 504/1/466 510/1/466
f 510/1/467 504/1/467 128/1/467 509/1/467
f 132/1/468 511/1/468 514/1/468 513/1/468
f 511/1/469 127/1/469 506/1/469 514/1/469
f 514/1/470 506/1/470 130/1/470 512/1/470
f 513/1/471 514/1/471 512/1/471 133/1/471
f 63/1/472 515/1/472 518/1/472 517/1/472
f 515/1/473 76/1/473 516/1/473 518/1/473
f 518/1/474 516/1/474 133/1/474 512/1/474
f 517/1/475 518/1/475 512/1/475 130/1/475
f 63/1/476 517/1/476 520/1/476 290/1/476
f 517/1/477 130/1/477 505/1/477 520/1/477
f 520/1/478 505/1/478 129/1/478 519/1/478
f 290/1/479 520/1/479 519/1/479 60/1/479
f 127/1/480 511/1/480 522/1/480 499/1/480
f 511/1/481 132/1/481 521/1/481 522/1/481
f 522/1/482 521/1/482 126/1/482 496/1/482
f 499/1/483 522/1/483 496/1/483 125/1/483
f 134/1/484 523/1/484 526/1/484 525/1/484
f 523/1/485 135/1/485 524/1/485 526/1/485
f 526/1/486 524/1/486 124/1/486 497/1/486
f 525/1/487 526/1/487 497/1/487 126/1/487
f 132/1/488 527/1/488 529/1/488 521/1/488
f 527/1/489 136/1/489 528/1/489 529/1/489
f 529/1/490 528/1/490 134/1/490 525/1/490
f 521/1/491 529/1/491 525/1/491 126/1/491
f 7/1/492 531/1/493 532/1/494 153/1/495
f 531/1/496 122/1/437 481/1/436 532/1/497
f 532/1/497 481/1/436 121/1/498 530/1/499
f 151/1/500 6/1/501 533/1/502 535/1/503
f 535/1/503 533/1/502 137/1/504 534/1/505
f 152/1/506 535/1/503 534/1/505 7/1/492
f 138/1/507 536/1/508 540/1/509 539/1/510
f 536/1/508 137/1/504 537/1/511 540/1/509
f 540/1/509 537/1/511 139/1/512 538/1/513
f 539/1/510 540/1/514 538/1/515 140/1/516
f 7/1/492 534/1/505 542/1/517 531/1/493
f 534/1/505 137/1/504 536/1/508 542/1/517
f 542/1/517 536/1/508 138/1/518 541/1/519
f 531/1/493 542/1/517 541/1/520 122/1/521
f 118/1/413 482/1/522 544/1/523 470/1/414
f 482/1/522 122/1/521 541/1/520 544/1/523
f 544/1/524 541/1/519 138/1/518 543/1/524
f 470/1/525 544/1/525 543/1/526 117/1/527
f 138/1/507 539/1/510 546/1/528 543/1/529
f 539/1/510 140/1/516 545/1/530 546/1/528
f 546/1/528 545/1/530 116/1/531 467/1/532
f 543/1/526 546/1/528 467/1/532 117/1/527
f 116/1/533 545/1/530 550/1/534 549/1/535
f 545/1/530 140/1/516 547/1/536 550/1/534
f 550/1/537 547/1/538 136/1/538 548/1/539
f 549/1/540 550/1/537 548/1/539 141/1/541
f 141/1/542 548/1/542 552/1/542 551/1/542
f 548/1/543 136/1/543 527/1/543 552/1/543
f 552/1/544 527/1/544 132/1/544 513/1/544
f 551/1/545 552/1/545 513/1/545 133/1/545
f 116/1/533 549/1/535 554/1/546 465/1/547
f 549/1/540 141/1/541 553/1/548 554/1/548
f 554/1/549 553/1/549 75/1/549 328/1/549
f 465/1/547 554/1/546 328/1/550 77/1/550
f 133/1/551 516/1/551 555/1/551 551/1/551
f 516/1/552 76/1/552 324/1/552 555/1/552
f 555/1/553 324/1/553 75/1/553 553/1/553
f 551/1/554 555/1/554 553/1/554 141/1/554
f 139/1/512 556/1/555 557/1/556 538/1/513
f 556/1/555 134/1/557 528/1/557 557/1/556
f 557/1/558 528/1/559 136/1/559 547/1/560
f 538/1/515 557/1/558 547/1/560 140/1/516
f 134/1/561 556/1/562 560/1/563 523/1/561
f 556/1/562 139/1/564 558/1/565 560/1/563
f 560/1/566 558/1/566 142/1/566 559/1/566
f 523/1/567 560/1/567 559/1/567 135/1/567
f 139/1/564 537/1/568 562/1/569 558/1/565
f 537/1/568 137/1/504 533/1/502 562/1/569
f 562/1/570 533/1/502 6/1/501 561/1/571
f 558/1/572 562/1/570 561/1/571 142/1/572
f 104/1/573 428/1/573 563/1/573 435/1/573
f 428/1/574 23/1/574 187/1/574 563/1/574
f 63/1/575 289/1/575 564/1/575 515/1/575
f 289/1/576 62/1/576 330/1/576 564/1/576
f 564/1/577 330/1/577 72/1/577 325/1/577
f 515/1/578 564/1/578 325/1/578 76/1/578
f 61/1/579 285/1/579 566/1/579 565/1/579
f 285/1/580 60/1/580 519/1/580 566/1/580
f 566/1/581 519/1/581 129/1/581 508/1/581
f 565/1/582 566/1/582 508/1/582 131/1/582
f 568/1/583 273/1/583 56/1/583 286/1/583
f 567/1/584 568/1/584 286/1/584 61/1/584
