# Blender 5.1.0
# www.blender.org
mtllib Lower Lip.mtl
o new__lower_lips
v 0.315245 -0.795438 1.341970
v 0.340429 -0.795766 1.322337
v 0.321600 -0.785976 1.359290
v 0.250748 -0.780778 1.403256
v 0.210412 -0.779073 1.441855
v 0.147930 -0.766323 1.441316
v 0.151624 -0.776668 1.460864
v 0.211610 -0.795581 1.459116
v 0.250334 -0.789524 1.423640
v 0.284357 -0.790854 1.381251
v 0.342370 -0.793366 1.309421
v 0.310381 -0.797859 1.354940
v 0.307332 -0.810510 1.366463
v 0.336302 -0.803278 1.325189
v 0.278849 -0.804706 1.396889
v 0.279424 -0.823123 1.407372
v 0.343273 -0.830808 1.328755
v 0.317911 -0.846739 1.359437
v 0.363538 -0.818418 1.302804
v 0.292997 -0.867643 1.385378
v 0.201297 -0.926370 1.441421
v 0.203838 -0.908676 1.451098
v 0.240899 -0.893736 1.430585
v 0.270332 -0.874114 1.410934
v 0.296155 -0.852715 1.386332
v 0.321205 -0.834519 1.356361
v 0.300060 -0.838014 1.383729
v 0.274390 -0.857151 1.413315
v 0.325159 -0.822759 1.349470
v 0.051141 -0.953278 1.471898
v -0.002007 -0.953856 1.473623
v -0.002495 -0.937128 1.483589
v 0.051377 -0.936201 1.482466
v 0.051579 -0.917950 1.492198
v -0.002117 -0.919115 1.492055
v 0.107853 -0.936936 1.473003
v 0.109097 -0.918766 1.483479
v 0.159237 -0.934519 1.458206
v 0.161867 -0.916767 1.468353
v -0.001234 -0.899743 1.499161
v 0.051372 -0.898490 1.500666
v -0.000912 -0.878683 1.504027
v 0.051246 -0.877460 1.506861
v 0.109640 -0.898655 1.493105
v 0.109134 -0.876274 1.500481
v 0.363101 -0.795403 1.285715
v 0.356331 -0.803423 1.301795
v 0.330345 -0.811703 1.339360
v 0.302537 -0.824410 1.379422
v 0.277232 -0.839855 1.412175
v 0.247078 -0.855047 1.438400
v 0.244012 -0.874934 1.435748
v 0.207324 -0.868618 1.464828
v 0.203687 -0.890142 1.459664
v 0.167123 -0.873289 1.483808
v 0.165289 -0.896530 1.476970
v 0.166685 -0.848560 1.487874
v 0.107108 -0.851807 1.503452
v 0.210146 -0.843496 1.466806
v 0.164056 -0.823559 1.487688
v 0.104706 -0.827304 1.501107
v 0.211397 -0.818700 1.465135
v 0.249569 -0.834646 1.438251
v 0.251069 -0.813065 1.432719
v 0.350573 -0.810441 1.314665
v 0.370824 -0.802665 1.285801
v 0.365386 -0.809906 1.296524
v 0.345877 -0.820610 1.324117
v 0.158658 -0.799089 1.481104
v 0.101277 -0.804237 1.491798
v 0.046970 -0.810752 1.495031
v 0.049079 -0.831574 1.503864
v -0.001261 -0.814118 1.493913
v -0.000948 -0.833052 1.501263
v -0.001496 -0.801859 1.483361
v 0.044778 -0.793196 1.482416
v 0.096853 -0.783246 1.476050
v 0.091883 -0.773153 1.459638
v 0.042271 -0.781874 1.464548
v 0.038194 -0.772500 1.438228
v -0.001663 -0.794493 1.468605
v -0.001608 -0.788019 1.446906
v -0.000859 -0.855773 1.505075
v 0.050798 -0.854362 1.508225
v -0.394389 -0.788704 1.262940
v -0.325477 -0.791356 1.343168
v -0.364226 -0.784938 1.317318
v -0.360442 -0.790183 1.302901
v -0.372046 -0.787114 1.294986
v -0.306224 -0.781725 1.374969
v -0.278745 -0.776469 1.405639
v -0.274239 -0.786061 1.387011
v -0.291854 -0.778476 1.363133
v -0.254029 -0.778848 1.405648
v -0.212105 -0.774625 1.442166
v -0.154648 -0.778358 1.465914
v -0.218644 -0.790220 1.458616
v -0.257471 -0.793200 1.426121
v -0.291389 -0.790738 1.383134
v -0.322535 -0.785584 1.339477
v -0.346629 -0.789376 1.314499
v -0.322058 -0.795942 1.355862
v -0.320740 -0.811980 1.369097
v -0.344513 -0.798948 1.330471
v -0.295855 -0.807877 1.394258
v -0.298022 -0.824987 1.405078
v -0.356439 -0.830590 1.332680
v -0.372199 -0.817621 1.310386
v -0.207176 -0.923738 1.441438
v -0.211457 -0.907020 1.450925
v -0.253774 -0.894597 1.432003
v -0.288727 -0.876249 1.409000
v -0.317623 -0.855161 1.382413
v -0.340618 -0.835418 1.356025
v -0.321201 -0.839366 1.380056
v -0.292959 -0.858811 1.411686
v -0.342332 -0.821759 1.351647
v -0.055250 -0.953565 1.469825
v -0.056176 -0.937066 1.480340
v -0.056378 -0.918948 1.490461
v -0.110386 -0.935188 1.470661
v -0.112633 -0.917268 1.480698
v -0.160941 -0.930905 1.457650
v -0.163626 -0.913294 1.467555
v -0.058567 -0.900057 1.499763
v -0.056646 -0.877255 1.508575
v -0.114241 -0.897380 1.490391
v -0.115027 -0.875098 1.498630
v -0.395262 -0.792995 1.273960
v -0.389790 -0.798793 1.280475
v -0.388958 -0.793079 1.270600
v -0.381789 -0.806621 1.292821
v -0.381200 -0.799430 1.284395
v -0.384582 -0.785174 1.261556
v -0.365081 -0.790920 1.293125
v -0.360308 -0.799506 1.308236
v -0.378017 -0.791619 1.279153
v -0.343696 -0.809618 1.342850
v -0.323235 -0.825267 1.374897
v -0.295958 -0.841480 1.411057
v -0.260426 -0.856140 1.442143
v -0.257911 -0.876513 1.438900
v -0.217937 -0.865545 1.467278
v -0.215325 -0.887673 1.459878
v -0.167413 -0.870964 1.484118
v -0.165918 -0.893759 1.476387
v -0.167800 -0.845698 1.486217
v -0.113904 -0.850061 1.502683
v -0.221591 -0.841597 1.470200
v -0.163637 -0.819939 1.484477
v -0.110577 -0.824535 1.500644
v -0.220994 -0.814537 1.469352
v -0.261921 -0.836548 1.440353
v -0.260496 -0.815586 1.437438
v -0.357702 -0.809514 1.319826
v -0.373099 -0.799301 1.293531
v -0.392068 -0.786406 1.256155
v -0.384797 -0.792373 1.272004
v -0.393786 -0.787495 1.257039
v -0.371822 -0.808203 1.303902
v -0.355872 -0.819878 1.327930
v -0.158365 -0.795822 1.477954
v -0.105749 -0.800816 1.490658
v -0.050767 -0.807499 1.497420
v -0.055061 -0.829269 1.507508
v -0.047678 -0.790781 1.482266
v -0.097401 -0.785044 1.474876
v -0.090860 -0.769906 1.454897
v -0.044460 -0.780500 1.464145
v -0.056985 -0.853323 1.511054
v 0.327236 -0.797261 1.325352
v 0.330344 -0.795046 1.342528
v 0.316696 -0.793997 1.349861
v 0.325877 -0.796797 1.332411
v 0.346026 -0.793759 1.332358
v 0.335583 -0.787100 1.352555
v 0.208439 -0.773576 1.431563
v 0.231553 -0.779147 1.421543
v 0.182006 -0.783266 1.457562
v 0.148401 -0.769056 1.451051
v 0.179665 -0.774375 1.445903
v 0.233564 -0.792703 1.443449
v 0.251173 -0.785913 1.412733
v 0.211367 -0.785624 1.452206
v 0.233547 -0.783380 1.432009
v 0.285186 -0.785838 1.373747
v 0.267051 -0.787609 1.400259
v 0.265026 -0.782416 1.390346
v 0.297448 -0.787189 1.359100
v 0.345448 -0.789009 1.301100
v 0.324892 -0.798202 1.332025
v 0.312898 -0.794615 1.346502
v 0.329420 -0.791211 1.323416
v 0.321072 -0.805420 1.346916
v 0.337467 -0.794740 1.316622
v 0.306887 -0.803138 1.363064
v 0.323164 -0.802440 1.340029
v 0.294953 -0.799466 1.376769
v 0.280208 -0.814471 1.401739
v 0.292899 -0.816647 1.390473
v 0.295261 -0.808056 1.383559
v 0.281467 -0.795264 1.390181
v 0.297157 -0.794338 1.368076
v 0.330855 -0.838113 1.343209
v 0.317201 -0.852859 1.358922
v 0.330218 -0.843608 1.343370
v 0.354161 -0.824199 1.315058
v 0.306361 -0.856292 1.371144
v 0.292033 -0.875303 1.383107
v 0.305406 -0.863257 1.369958
v 0.281606 -0.879077 1.394303
v 0.203144 -0.917782 1.446415
v 0.238844 -0.902628 1.427604
v 0.223219 -0.901773 1.440733
v 0.221596 -0.910787 1.436969
v 0.268627 -0.882498 1.408652
v 0.254901 -0.884142 1.420697
v 0.253704 -0.892945 1.418286
v 0.283635 -0.863197 1.397134
v 0.294326 -0.860195 1.386381
v 0.282809 -0.871151 1.396093
v 0.319245 -0.840628 1.358670
v 0.310061 -0.842552 1.369208
v 0.308040 -0.849406 1.370774
v 0.283438 -0.847624 1.397318
v 0.272459 -0.865869 1.412454
v 0.298249 -0.845287 1.385324
v 0.284156 -0.855099 1.397199
v 0.323307 -0.828515 1.352997
v 0.311456 -0.829699 1.366862
v 0.311197 -0.835955 1.367879
v 0.024659 -0.953827 1.473458
v 0.079607 -0.953208 1.467902
v 0.051475 -0.927211 1.487342
v 0.024395 -0.918653 1.492348
v -0.002506 -0.928295 1.487929
v 0.024529 -0.936726 1.483521
v 0.024456 -0.927801 1.488031
v 0.051281 -0.944895 1.477473
v 0.107181 -0.945428 1.467455
v 0.080465 -0.936193 1.478733
v 0.080171 -0.944906 1.473311
v 0.080722 -0.917844 1.489825
v 0.108502 -0.928052 1.478289
v 0.080533 -0.927191 1.484379
v 0.160596 -0.925901 1.463426
v 0.136839 -0.918603 1.476292
v 0.134864 -0.936507 1.465961
v 0.135890 -0.927813 1.471248
v 0.157883 -0.942758 1.452690
v 0.133837 -0.944826 1.460459
v -0.002281 -0.945644 1.478977
v 0.024615 -0.945417 1.478826
v 0.051655 -0.908396 1.496762
v 0.024257 -0.899475 1.499676
v -0.001680 -0.909624 1.495806
v 0.024330 -0.909246 1.496286
v -0.000975 -0.889412 1.501914
v 0.051165 -0.888241 1.503886
v 0.024034 -0.878566 1.504525
v 0.024164 -0.889268 1.502456
v 0.109449 -0.887776 1.497238
v 0.081858 -0.876510 1.506206
v 0.081048 -0.898175 1.499368
v 0.081516 -0.887684 1.503123
v 0.109459 -0.908973 1.488467
v 0.080950 -0.908189 1.494891
v 0.359339 -0.800107 1.293618
v 0.367872 -0.799870 1.285172
v 0.371885 -0.795739 1.277493
v 0.344114 -0.806301 1.319882
v 0.349602 -0.798843 1.305391
v 0.333116 -0.806833 1.333008
v 0.347191 -0.802157 1.312825
v 0.316309 -0.817469 1.360823
v 0.301150 -0.831080 1.382001
v 0.327682 -0.817181 1.344873
v 0.313003 -0.823644 1.365337
v 0.287165 -0.832107 1.396254
v 0.276038 -0.848490 1.413059
v 0.284567 -0.839763 1.397364
v 0.259965 -0.848416 1.427262
v 0.245603 -0.865105 1.437396
v 0.257650 -0.866389 1.424611
v 0.258753 -0.857428 1.426284
v 0.228715 -0.861407 1.451590
v 0.205404 -0.879821 1.462644
v 0.226242 -0.882482 1.447204
v 0.227605 -0.872159 1.449691
v 0.186196 -0.871947 1.474713
v 0.166087 -0.885321 1.480808
v 0.185401 -0.894365 1.468669
v 0.186140 -0.883452 1.472073
v 0.138245 -0.898433 1.485703
v 0.140849 -0.875824 1.493270
v 0.139153 -0.887916 1.489730
v 0.163205 -0.907055 1.472936
v 0.184234 -0.913648 1.459708
v 0.203458 -0.899660 1.455694
v 0.184921 -0.904484 1.464582
v 0.137649 -0.908824 1.481133
v 0.167213 -0.860923 1.486247
v 0.138731 -0.850812 1.495961
v 0.108177 -0.864208 1.502752
v 0.140977 -0.863259 1.495076
v 0.186066 -0.847555 1.478706
v 0.208531 -0.856510 1.466353
v 0.185393 -0.860202 1.477106
v 0.165525 -0.836251 1.488508
v 0.135251 -0.825522 1.495193
v 0.106244 -0.839415 1.503144
v 0.137311 -0.838122 1.496128
v 0.187015 -0.821438 1.478892
v 0.211076 -0.830877 1.466059
v 0.186957 -0.834238 1.478853
v 0.230797 -0.838946 1.453605
v 0.248346 -0.844958 1.438724
v 0.229721 -0.850306 1.452857
v 0.263482 -0.829555 1.426291
v 0.278250 -0.831462 1.410465
v 0.261530 -0.839220 1.427353
v 0.250778 -0.823788 1.436159
v 0.232819 -0.815962 1.452187
v 0.231758 -0.827442 1.453347
v 0.268039 -0.809850 1.417650
v 0.266517 -0.819728 1.423010
v 0.211623 -0.806785 1.463167
v 0.249167 -0.802922 1.430744
v 0.233618 -0.804607 1.449244
v 0.267508 -0.797801 1.410601
v 0.242663 -0.884480 1.433275
v 0.256424 -0.875226 1.422629
v 0.224710 -0.892347 1.444187
v 0.306133 -0.817364 1.373463
v 0.289434 -0.824665 1.394634
v 0.319584 -0.811225 1.353093
v 0.338468 -0.816414 1.331902
v 0.353448 -0.805946 1.308604
v 0.341187 -0.811212 1.326362
v 0.361265 -0.805952 1.299309
v 0.374372 -0.799599 1.278871
v 0.364457 -0.803134 1.292688
v 0.379086 -0.799268 1.274457
v 0.367732 -0.805843 1.291726
v 0.373209 -0.805989 1.285694
v 0.375642 -0.802545 1.280625
v 0.348010 -0.815442 1.319945
v 0.356325 -0.814672 1.309369
v 0.358471 -0.810032 1.304817
v 0.364012 -0.814145 1.300240
v 0.344280 -0.825748 1.327044
v 0.354893 -0.819461 1.312819
v 0.371652 -0.813530 1.292501
v 0.371892 -0.809757 1.289652
v 0.333796 -0.827176 1.339709
v 0.335975 -0.821760 1.336354
v 0.352642 -0.794603 1.296445
v 0.332058 -0.832628 1.341985
v 0.185234 -0.797412 1.472250
v 0.161225 -0.811088 1.485445
v 0.186199 -0.808865 1.476687
v 0.129365 -0.800652 1.486873
v 0.102770 -0.815932 1.497107
v 0.132479 -0.813295 1.492111
v 0.076385 -0.807479 1.495874
v 0.048009 -0.820993 1.499515
v 0.078158 -0.829487 1.505357
v 0.077296 -0.818339 1.501415
v 0.021959 -0.813128 1.493498
v -0.001100 -0.822948 1.497513
v 0.022930 -0.832993 1.501058
v 0.022528 -0.822799 1.496845
v 0.045926 -0.801328 1.489330
v 0.020729 -0.798950 1.483002
v -0.001388 -0.807241 1.489060
v 0.021343 -0.805300 1.488820
v 0.099666 -0.792211 1.484071
v 0.071238 -0.787539 1.480415
v 0.074057 -0.796700 1.488761
v 0.066546 -0.776570 1.462843
v 0.043477 -0.786946 1.474609
v 0.094373 -0.778395 1.468796
v 0.069228 -0.784180 1.472265
v 0.039922 -0.776320 1.451792
v 0.118396 -0.764974 1.447010
v 0.019376 -0.790241 1.467782
v 0.017960 -0.783822 1.445391
v -0.001762 -0.791367 1.458646
v 0.018695 -0.787204 1.457485
v 0.123767 -0.778496 1.467869
v 0.119856 -0.771805 1.457271
v 0.155667 -0.787890 1.473982
v 0.126236 -0.787806 1.477773
v -0.001583 -0.797678 1.476686
v 0.020080 -0.794006 1.476124
v 0.050089 -0.842745 1.506831
v -0.000875 -0.844219 1.503647
v 0.023590 -0.855637 1.505247
v 0.023248 -0.844117 1.503713
v 0.080807 -0.853047 1.508461
v 0.051252 -0.866158 1.508130
v 0.081747 -0.865079 1.507830
v -0.000877 -0.867441 1.505262
v 0.023852 -0.867309 1.505617
v 0.079554 -0.841051 1.507693
v 0.184065 -0.787956 1.465965
v 0.181227 -0.931039 1.450045
v 0.182751 -0.922434 1.455068
v -0.396324 -0.787230 1.261323
v -0.323945 -0.792884 1.335383
v -0.328335 -0.787777 1.352322
v -0.367372 -0.779597 1.324854
v -0.359683 -0.782476 1.331197
v -0.361585 -0.788016 1.310533
v -0.354560 -0.789777 1.315554
v -0.356489 -0.787234 1.323304
v -0.367599 -0.786437 1.306340
v -0.371745 -0.788513 1.286959
v -0.366492 -0.789977 1.290504
v -0.366486 -0.788781 1.298677
v -0.373590 -0.784673 1.302520
v -0.369678 -0.782875 1.313350
v -0.376856 -0.786950 1.284126
v -0.377635 -0.785370 1.291943
v -0.315356 -0.787444 1.358666
v -0.319972 -0.780029 1.368616
v -0.286093 -0.789201 1.371950
v -0.277873 -0.782150 1.396074
v -0.291548 -0.778287 1.387344
v -0.302353 -0.788140 1.366177
v -0.288642 -0.785720 1.380841
v -0.260583 -0.782629 1.401537
v -0.262710 -0.776153 1.411968
v -0.313002 -0.791296 1.350797
v -0.272952 -0.778361 1.383046
v -0.234644 -0.777693 1.422988
v -0.207670 -0.768598 1.429237
v -0.150745 -0.772490 1.455335
v -0.182822 -0.777149 1.455697
v -0.179638 -0.770633 1.444654
v -0.216002 -0.780844 1.450482
v -0.256138 -0.784521 1.415998
v -0.240742 -0.791347 1.443323
v -0.237695 -0.782049 1.434449
v -0.276542 -0.791837 1.404626
v -0.293275 -0.784133 1.373691
v -0.275780 -0.786167 1.395175
v -0.310472 -0.788101 1.360953
v -0.308751 -0.782287 1.352027
v -0.347521 -0.784650 1.305395
v -0.322318 -0.792184 1.348127
v -0.334975 -0.795254 1.334941
v -0.335345 -0.788073 1.326628
v -0.321152 -0.803193 1.362758
v -0.345457 -0.794107 1.322534
v -0.334754 -0.804227 1.348769
v -0.334829 -0.798999 1.342489
v -0.312517 -0.817567 1.387669
v -0.297570 -0.816696 1.400596
v -0.311134 -0.800641 1.374934
v -0.312393 -0.809366 1.381717
v -0.293039 -0.798346 1.388836
v -0.310310 -0.793367 1.368657
v -0.348996 -0.839730 1.343917
v -0.365828 -0.823877 1.321319
v -0.233286 -0.901349 1.441808
v -0.251525 -0.902980 1.428016
v -0.209092 -0.915590 1.446227
v -0.231044 -0.909976 1.437315
v -0.272540 -0.886255 1.421036
v -0.286780 -0.884354 1.406672
v -0.270239 -0.894725 1.417689
v -0.316329 -0.863039 1.382006
v -0.304198 -0.865909 1.397118
v -0.302493 -0.874049 1.395572
v -0.328973 -0.845117 1.369234
v -0.340102 -0.842529 1.356663
v -0.328487 -0.852416 1.369021
v -0.319439 -0.847148 1.381581
v -0.290806 -0.867552 1.410847
v -0.306990 -0.848951 1.398204
v -0.305538 -0.857267 1.398155
v -0.331351 -0.831277 1.367527
v -0.341490 -0.828430 1.354372
v -0.329972 -0.838214 1.368845
v -0.027115 -0.953748 1.472638
v -0.082343 -0.952805 1.465401
v -0.027236 -0.936621 1.482185
v -0.026821 -0.918128 1.490644
v -0.056452 -0.928518 1.485205
v -0.026778 -0.927356 1.486387
v -0.083667 -0.936221 1.475951
v -0.109449 -0.943544 1.465392
v -0.055708 -0.945474 1.475333
v -0.082986 -0.944661 1.470908
v -0.111490 -0.926453 1.475723
v -0.084977 -0.918177 1.485847
v -0.084332 -0.927421 1.480888
v -0.135608 -0.933568 1.464579
v -0.137447 -0.915870 1.474649
v -0.162285 -0.922417 1.462938
v -0.136612 -0.924857 1.469709
v -0.159063 -0.939154 1.452372
v -0.134534 -0.941798 1.459219
v -0.027128 -0.945327 1.477657
v -0.026408 -0.898842 1.499758
v -0.057446 -0.909502 1.495093
v -0.026153 -0.909063 1.495242
v -0.028444 -0.878057 1.506299
v -0.057900 -0.888992 1.504937
v -0.027238 -0.888600 1.503808
v -0.085228 -0.897995 1.495668
v -0.084795 -0.875874 1.503681
v -0.114866 -0.886437 1.494834
v -0.085299 -0.887226 1.500001
v -0.113561 -0.907646 1.485608
v -0.085335 -0.908377 1.490803
v -0.397260 -0.790775 1.272784
v -0.392795 -0.795653 1.276506
v -0.392064 -0.801312 1.283937
v -0.388706 -0.796009 1.276025
v -0.391927 -0.790648 1.266019
v -0.393999 -0.790957 1.268899
v -0.391611 -0.793240 1.271733
v -0.383507 -0.810065 1.295497
v -0.386146 -0.802443 1.285907
v -0.388148 -0.805409 1.288996
v -0.380990 -0.803056 1.289117
v -0.385418 -0.796006 1.276719
v -0.385199 -0.799281 1.281813
v -0.395913 -0.789133 1.267478
v -0.381182 -0.788211 1.270714
v -0.369926 -0.795156 1.293193
v -0.362776 -0.794855 1.301057
v -0.375107 -0.787683 1.276454
v -0.372381 -0.791293 1.285222
v -0.344091 -0.804016 1.337008
v -0.355201 -0.794946 1.311073
v -0.354246 -0.804596 1.325076
v -0.354728 -0.799408 1.318341
v -0.343123 -0.815544 1.347763
v -0.322534 -0.832131 1.377861
v -0.334972 -0.817121 1.359478
v -0.333344 -0.823784 1.364204
v -0.294525 -0.850057 1.411945
v -0.309564 -0.832837 1.395608
v -0.307902 -0.840618 1.397563
v -0.276634 -0.868312 1.425870
v -0.259191 -0.866276 1.441301
v -0.277591 -0.849102 1.429048
v -0.277196 -0.858745 1.428053
v -0.237137 -0.882545 1.449636
v -0.216736 -0.876986 1.463893
v -0.240198 -0.861443 1.454822
v -0.238994 -0.872083 1.452737
v -0.189869 -0.891225 1.469477
v -0.166865 -0.882780 1.481004
v -0.192628 -0.869141 1.477689
v -0.191469 -0.880509 1.473769
v -0.138581 -0.873565 1.492004
v -0.139003 -0.895957 1.484137
v -0.139159 -0.885038 1.488299
v -0.213581 -0.897627 1.455532
v -0.187230 -0.910518 1.460095
v -0.164899 -0.903755 1.471766
v -0.188564 -0.901256 1.464841
v -0.138315 -0.906353 1.479548
v -0.114695 -0.862872 1.501388
v -0.137319 -0.848540 1.496180
v -0.167950 -0.858328 1.486073
v -0.137992 -0.861373 1.494493
v -0.220039 -0.853801 1.468964
v -0.194018 -0.843654 1.482667
v -0.193004 -0.856905 1.480928
v -0.112264 -0.837206 1.502540
v -0.134981 -0.822269 1.495096
v -0.165640 -0.833191 1.486136
v -0.136043 -0.835421 1.496442
v -0.221471 -0.828321 1.470749
v -0.194659 -0.816527 1.480679
v -0.194939 -0.830040 1.482410
v -0.261278 -0.846127 1.441977
v -0.242428 -0.840084 1.456647
v -0.241003 -0.850993 1.455957
v -0.297178 -0.833209 1.408614
v -0.276781 -0.831878 1.425383
v -0.276198 -0.839469 1.428634
v -0.244234 -0.815060 1.454694
v -0.261459 -0.826334 1.438846
v -0.244148 -0.827939 1.456299
v -0.276441 -0.812739 1.419638
v -0.276291 -0.822723 1.423191
v -0.258681 -0.804128 1.433390
v -0.220207 -0.801355 1.465348
v -0.243324 -0.802464 1.450361
v -0.275791 -0.802032 1.414581
v -0.255882 -0.885995 1.435661
v -0.274722 -0.877447 1.423704
v -0.235361 -0.892185 1.445996
v -0.322756 -0.818396 1.371325
v -0.311282 -0.825184 1.392254
v -0.335328 -0.810685 1.354410
v -0.358769 -0.804484 1.314455
v -0.352650 -0.815808 1.335299
v -0.353492 -0.810083 1.330729
v -0.375250 -0.795344 1.286814
v -0.366257 -0.803089 1.306744
v -0.368010 -0.798796 1.300046
v -0.385414 -0.788707 1.266757
v -0.389250 -0.785821 1.257997
v -0.389599 -0.789689 1.263681
v -0.388060 -0.789200 1.264462
v -0.393403 -0.786950 1.255893
v -0.390660 -0.790178 1.264246
v -0.382473 -0.795826 1.278673
v -0.386886 -0.792754 1.270653
v -0.393878 -0.788090 1.259428
v -0.376276 -0.803373 1.293597
v -0.372122 -0.803435 1.298964
v -0.379287 -0.795578 1.282001
v -0.377327 -0.799400 1.288296
v -0.364566 -0.812962 1.316611
v -0.356512 -0.814750 1.324208
v -0.365022 -0.807950 1.312379
v -0.356039 -0.824912 1.331041
v -0.371848 -0.813028 1.307749
v -0.364898 -0.818263 1.319607
v -0.376905 -0.811518 1.301050
v -0.376263 -0.807468 1.297792
v -0.350860 -0.827821 1.341320
v -0.351771 -0.821749 1.338798
v -0.382033 -0.791981 1.274791
v -0.367241 -0.787019 1.284130
v -0.356331 -0.790320 1.302863
v -0.377931 -0.784420 1.266969
v -0.378235 -0.815441 1.303277
v -0.349958 -0.833837 1.343030
v -0.161331 -0.807270 1.481964
v -0.189955 -0.792224 1.470982
v -0.192906 -0.803557 1.476656
v -0.108561 -0.812172 1.496356
v -0.131040 -0.798289 1.486001
v -0.133507 -0.809795 1.491233
v -0.083171 -0.827517 1.504828
v -0.052874 -0.817933 1.503193
v -0.078047 -0.804617 1.494215
v -0.080353 -0.815410 1.500110
v -0.027741 -0.831474 1.504701
v -0.025724 -0.811078 1.496098
v -0.026993 -0.820782 1.500506
v -0.023856 -0.797624 1.483827
v -0.048839 -0.798255 1.490275
v -0.024407 -0.803445 1.490433
v -0.073005 -0.784980 1.478955
v -0.101376 -0.791539 1.483267
v -0.075655 -0.793660 1.486754
v -0.094455 -0.778971 1.464817
v -0.046186 -0.785653 1.474609
v -0.068562 -0.775832 1.461607
v -0.070684 -0.782959 1.472898
v -0.044522 -0.777918 1.454718
v -0.118776 -0.770016 1.451844
v -0.021175 -0.782052 1.443880
v -0.022959 -0.789828 1.467867
v -0.021842 -0.785548 1.456091
v -0.124044 -0.782167 1.471083
v -0.120656 -0.777108 1.462585
v -0.155997 -0.785882 1.472679
v -0.127211 -0.789085 1.479148
v -0.023389 -0.793181 1.476396
v -0.029243 -0.855115 1.508620
v -0.056434 -0.841216 1.510152
v -0.028688 -0.843136 1.507373
v -0.056769 -0.865383 1.510361
v -0.083164 -0.851314 1.506658
v -0.082622 -0.863307 1.506080
v -0.029497 -0.867112 1.508076
v -0.084686 -0.839913 1.506225
v -0.186400 -0.783216 1.464021
v -0.184167 -0.927790 1.449936
v -0.185747 -0.919392 1.455127
v -0.182679 -0.935898 1.444597
vn 0.1389 -0.9108 0.3888
vn -0.0134 -0.9919 0.1264
vn -0.0131 -0.9919 0.1265
vn 0.2729 -0.9123 0.3054
vn 0.2306 0.7995 0.5547
vn 0.1952 0.8374 0.5105
vn 0.4511 0.6185 0.6434
vn 0.4958 0.7436 0.4486
vn 0.4388 0.8326 0.3379
vn 0.3286 0.8568 0.3973
vn 0.5192 0.7524 0.4054
vn 0.3636 0.8653 0.3452
vn 0.7581 0.3712 0.5362
vn 0.7013 0.4051 0.5866
vn 0.7043 0.4408 0.5564
vn 0.6442 0.5420 0.5397
vn 0.3174 0.8363 0.4471
vn 0.7436 0.4421 0.5016
vn 0.8077 0.2484 0.5347
vn 0.7403 0.4061 0.5358
vn 0.6141 0.4617 0.6401
vn 0.6524 0.3645 0.6645
vn 0.6580 0.5740 0.4874
vn 0.7077 0.3891 0.5897
vn 0.6334 0.6120 0.4736
vn 0.7993 -0.1107 0.5907
vn 0.7605 -0.1780 0.6245
vn 0.7887 -0.2375 0.5671
vn 0.5369 -0.4119 0.7363
vn 0.5801 -0.3888 0.7157
vn 0.6651 -0.3268 0.6714
vn 0.6492 -0.3004 0.6988
vn 0.7221 -0.1674 0.6712
vn 0.7661 -0.2400 0.5962
vn 0.7416 -0.2362 0.6278
vn 0.8008 -0.1497 0.5799
vn 0.7935 -0.1920 0.5775
vn 0.7626 -0.1212 0.6354
vn 0.7567 -0.0373 0.6527
vn 0.6260 0.0316 0.7792
vn 0.8567 -0.0949 0.5071
vn 0.8090 -0.1852 0.5579
vn 0.6772 -0.0696 0.7325
vn 0.8190 -0.0146 0.5736
vn 0.8105 -0.0902 0.5787
vn 0.7506 0.0525 0.6587
vn 0.7503 0.1144 0.6511
vn 0.0383 -0.4638 0.8851
vn 0.0245 -0.4459 0.8947
vn 0.0008 -0.4184 0.9083
vn 0.0068 -0.4460 0.8950
vn 0.1159 -0.5119 0.8512
vn 0.1182 -0.5495 0.8271
vn 0.1638 -0.5369 0.8276
vn 0.1725 -0.4938 0.8523
vn 0.0809 -0.4837 0.8715
vn 0.0991 -0.5030 0.8586
vn 0.1640 -0.5192 0.8387
vn 0.2951 -0.5251 0.7982
vn 0.2973 -0.4835 0.8233
vn 0.2217 -0.4862 0.8453
vn 0.2203 -0.5181 0.8265
vn 0.2953 -0.5583 0.7753
vn 0.2210 -0.5512 0.8046
vn 0.0488 -0.4862 0.8725
vn 0.0091 -0.4756 0.8796
vn 0.0075 -0.5419 0.8404
vn 0.0568 -0.5453 0.8363
vn 0.0062 -0.4091 0.9124
vn -0.0135 -0.3478 0.9375
vn -0.0142 -0.3244 0.9458
vn -0.0076 -0.3767 0.9263
vn -0.0194 -0.1915 0.9813
vn -0.0180 -0.2599 0.9655
vn -0.0324 -0.2817 0.9589
vn -0.0585 -0.2283 0.9718
vn 0.1941 -0.3419 0.9195
vn 0.1992 -0.2635 0.9439
vn 0.0290 -0.2664 0.9634
vn 0.0371 -0.3190 0.9470
vn 0.0529 -0.3868 0.9206
vn 0.0671 -0.4480 0.8915
vn 0.1819 -0.4559 0.8712
vn 0.1899 -0.4038 0.8949
vn 0.5166 0.6639 0.5406
vn 0.5170 0.6636 0.5406
vn 0.6819 0.4337 0.5890
vn 0.6963 0.4945 0.5202
vn 0.7030 0.4737 0.5306
vn 0.4962 0.7088 0.5013
vn 0.8107 0.0834 0.5795
vn 0.8011 0.0371 0.5973
vn 0.8275 -0.0275 0.5608
vn 0.7919 0.0435 0.6091
vn 0.8984 -0.1457 0.4143
vn 0.6615 -0.0140 0.7498
vn 0.7143 -0.0186 0.6996
vn 0.8860 -0.1526 0.4378
vn 0.6319 -0.1596 0.7585
vn 0.6590 -0.0938 0.7463
vn 0.6926 -0.1704 0.7009
vn 0.6987 -0.2205 0.6805
vn 0.6087 -0.1833 0.7720
vn 0.5571 -0.2255 0.7992
vn 0.5457 -0.2897 0.7864
vn 0.6036 -0.2442 0.7589
vn 0.4515 -0.2228 0.8640
vn 0.4191 -0.2299 0.8783
vn 0.3974 -0.3103 0.8636
vn 0.4703 -0.3035 0.8287
vn 0.2322 -0.3534 0.9062
vn 0.3176 -0.3447 0.8833
vn 0.3375 -0.2817 0.8982
vn 0.2250 -0.2814 0.9329
vn 0.3790 -0.3791 0.8441
vn 0.3715 -0.4474 0.8135
vn 0.4653 -0.4151 0.7818
vn 0.4775 -0.3482 0.8067
vn 0.3063 -0.3955 0.8659
vn 0.2324 -0.4024 0.8855
vn 0.2270 -0.4479 0.8648
vn 0.3011 -0.4418 0.8451
vn 0.3379 -0.1608 0.9273
vn 0.3022 -0.0625 0.9512
vn 0.2299 -0.0314 0.9727
vn 0.2254 -0.1517 0.9624
vn 0.4446 -0.1108 0.8889
vn 0.4397 -0.1171 0.8905
vn 0.4444 -0.1109 0.8889
vn 0.4395 -0.1175 0.8905
vn 0.4367 -0.1536 0.8864
vn 0.4410 -0.1638 0.8824
vn 0.4401 -0.1640 0.8829
vn 0.4374 -0.1530 0.8862
vn 0.2695 -0.0030 0.9630
vn 0.2487 0.1015 0.9632
vn 0.1963 0.1452 0.9697
vn 0.2245 0.0259 0.9741
vn 0.4777 0.0239 0.8782
vn 0.3794 0.0493 0.9239
vn 0.4201 -0.0232 0.9072
vn 0.4574 -0.0115 0.8892
vn 0.6295 -0.0766 0.7733
vn 0.5536 -0.1018 0.8266
vn 0.5594 -0.1514 0.8150
vn 0.6147 -0.1245 0.7789
vn 0.7326 0.0297 0.6800
vn 0.6627 -0.0479 0.7474
vn 0.6800 -0.1155 0.7241
vn 0.6938 -0.0357 0.7193
vn 0.6504 0.0167 0.7594
vn 0.6876 0.1069 0.7182
vn 0.5150 0.0453 0.8560
vn 0.5321 -0.0064 0.8467
vn 0.8015 0.2697 0.5337
vn 0.8038 0.2643 0.5330
vn 0.8010 0.2709 0.5339
vn 0.5934 0.2715 0.7578
vn 0.6318 0.0709 0.7719
vn 0.7784 0.1349 0.6131
vn 0.7119 0.2939 0.6379
vn 0.4976 0.3412 0.7974
vn 0.5069 0.1566 0.8477
vn 0.7220 0.1893 0.6655
vn 0.8043 0.2630 0.5328
vn 0.6532 0.5615 0.5079
vn 0.6682 0.4293 0.6076
vn 0.6174 0.3535 0.7028
vn 0.6219 -0.2329 0.7476
vn 0.6986 -0.2595 0.6668
vn 0.6892 -0.2932 0.6626
vn 0.6309 -0.2798 0.7237
vn 0.5370 -0.3644 0.7608
vn 0.5867 -0.3434 0.7334
vn 0.5958 -0.2992 0.7453
vn 0.5373 -0.3288 0.7767
vn 0.7569 0.0349 0.6526
vn 0.7769 0.2035 0.5958
vn 0.7882 0.0485 0.6135
vn 0.8441 -0.0633 0.5324
vn 0.7505 0.3226 0.5768
vn 0.6884 0.4754 0.5478
vn 0.6643 0.4667 0.5838
vn 0.7581 0.2347 0.6084
vn 0.6636 0.4907 0.5647
vn 0.7214 0.3205 0.6139
vn 0.7411 0.2320 0.6300
vn 0.7329 0.3048 0.6082
vn 0.5468 0.6648 0.5090
vn 0.6899 0.4333 0.5799
vn 0.5448 0.6356 0.5470
vn 0.6345 0.4850 0.6018
vn 0.6914 0.3731 0.6187
vn 0.7344 0.2834 0.6167
vn 0.7006 0.3817 0.6029
vn 0.7424 0.2833 0.6071
vn 0.7603 0.2139 0.6133
vn 0.7281 0.2728 0.6288
vn 0.7619 0.1692 0.6252
vn 0.7578 0.1238 0.6407
vn 0.6651 0.3880 0.6380
vn 0.6399 0.3890 0.6627
vn 0.7549 0.2141 0.6199
vn 0.7554 0.1609 0.6352
vn 0.7553 0.1612 0.6352
vn 0.7553 0.1613 0.6352
vn 0.7791 0.0742 0.6225
vn 0.7636 0.1375 0.6308
vn 0.6698 0.5140 0.5359
vn 0.7641 0.0743 0.6409
vn 0.7991 -0.0173 0.6010
vn 0.8032 -0.0742 0.5911
vn 0.7612 0.0209 0.6482
vn 0.4622 0.1598 0.8722
vn 0.4109 0.3353 0.8478
vn 0.2746 0.3731 0.8862
vn 0.3193 0.2106 0.9240
vn 0.1472 0.3111 0.9389
vn 0.2141 0.2520 0.9437
vn 0.1685 0.3906 0.9050
vn 0.1108 0.4128 0.9041
vn 0.1228 0.3436 0.9310
vn 0.0992 0.4399 0.8925
vn -0.0847 0.4212 0.9030
vn -0.0826 0.3488 0.9335
vn -0.1068 0.3564 0.9282
vn 0.0131 0.3520 0.9359
vn 0.0155 0.3655 0.9307
vn -0.1208 0.3709 0.9208
vn -0.1000 0.5058 0.8568
vn -0.1280 0.6460 0.7525
vn -0.0657 0.6970 0.7141
vn -0.0227 0.5429 0.8395
vn -0.0761 0.5250 0.8477
vn 0.0599 0.5517 0.8319
vn 0.0154 0.6727 0.7397
vn -0.0864 0.6480 0.7567
vn -0.0711 0.8110 0.5807
vn -0.0884 0.8267 0.5557
vn -0.0923 0.8444 0.5277
vn -0.0964 0.8664 0.4899
vn -0.1766 0.9398 0.2927
vn -0.3085 0.8774 0.3675
vn -0.3830 0.8792 0.2835
vn -0.1794 0.9456 0.2714
vn 0.0636 0.8276 0.5577
vn 0.0655 0.9026 0.4254
vn 0.0199 0.8428 0.5378
vn 0.0847 0.5694 0.8177
vn 0.1172 0.5758 0.8092
vn 0.0988 0.7564 0.6466
vn 0.0688 0.7086 0.7022
vn -0.2429 0.8644 0.4403
vn -0.1556 0.9070 0.3913
vn -0.1114 0.8215 0.5592
vn -0.1810 0.7704 0.6113
vn -0.1170 0.1194 0.9859
vn -0.1202 0.2360 0.9643
vn 0.0021 0.2205 0.9754
vn -0.0055 0.1272 0.9919
vn 0.1979 -0.1515 0.9684
vn 0.1892 -0.0379 0.9812
vn 0.0023 -0.0303 0.9995
vn 0.0197 -0.1261 0.9918
vn -0.1004 0.0086 0.9949
vn -0.0108 0.0237 0.9997
vn -0.0166 -0.1030 0.9945
vn -0.0837 -0.1044 0.9910
vn 0.1741 0.0585 0.9830
vn 0.1461 0.1972 0.9694
vn -0.0535 0.2215 0.9737
vn -0.0229 0.0893 0.9957
vn 0.1974 0.8142 0.5460
vn 0.2276 0.5620 0.7952
vn 0.3413 0.5452 0.7656
vn 0.1581 0.8579 0.4888
vn 0.4429 -0.4561 0.7719
vn 0.3740 -0.4808 0.7930
vn 0.3699 -0.5199 0.7700
vn 0.4342 -0.5155 0.7387
vn -0.4595 -0.8464 0.2692
vn -0.3721 -0.9057 0.2030
vn -0.3356 -0.9260 0.1729
vn -0.3947 -0.8893 0.2312
vn -0.3903 -0.9029 0.1802
vn -0.5214 -0.7983 0.3013
vn -0.4192 -0.8713 0.2552
vn -0.3809 -0.9069 0.1799
vn -0.1891 -0.8813 0.4332
vn -0.1623 -0.9309 0.3274
vn -0.5051 -0.7230 0.4713
vn -0.3534 -0.7660 0.5370
vn -0.1596 -0.8900 0.4271
vn -0.2894 -0.8594 0.4215
vn -0.1684 -0.9443 0.2827
vn -0.1223 0.8780 0.4628
vn -0.1424 0.8949 0.4230
vn -0.4544 0.6715 0.5853
vn -0.3553 0.8705 0.3406
vn -0.3782 0.8718 0.3114
vn -0.5755 0.6561 0.4882
vn -0.5634 0.6771 0.4734
vn -0.5179 0.7154 0.4690
vn -0.4548 0.8043 0.3824
vn -0.4174 0.8137 0.4047
vn -0.5196 0.7056 0.4817
vn -0.6275 0.6317 0.4552
vn -0.5936 0.6437 0.4831
vn -0.6380 0.5029 0.5832
vn -0.6511 0.5803 0.4892
vn -0.4547 0.7657 0.4549
vn -0.6037 0.6295 0.4891
vn -0.8177 0.3282 0.4729
vn -0.6014 0.4421 0.6655
vn -0.5308 0.5634 0.6331
vn -0.7331 0.4516 0.5085
vn -0.5191 0.6446 0.5614
vn -0.6796 0.5862 0.4411
vn -0.6372 0.6178 0.4607
vn -0.5502 0.5541 0.6247
vn -0.4366 -0.5122 0.7396
vn -0.4292 -0.5222 0.7370
vn -0.4360 -0.5129 0.7395
vn -0.4980 -0.4886 0.7164
vn -0.5835 -0.4514 0.6752
vn -0.6798 -0.3874 0.6227
vn -0.7809 -0.2176 0.5855
vn -0.6886 -0.3110 0.6550
vn -0.7829 -0.1168 0.6111
vn -0.7517 -0.0328 0.6587
vn -0.8014 -0.1060 0.5887
vn -0.7934 -0.1576 0.5880
vn -0.7080 -0.2495 0.6607
vn -0.7299 -0.1885 0.6570
vn -0.7891 -0.0501 0.6122
vn -0.7850 0.0552 0.6170
vn -0.7704 -0.0100 0.6375
vn -0.7954 -0.1012 0.5976
vn -0.0336 -0.4531 0.8908
vn -0.0668 -0.4245 0.9030
vn -0.0689 -0.4184 0.9057
vn -0.0689 -0.4185 0.9056
vn -0.0710 -0.4123 0.9083
vn -0.0055 -0.4515 0.8922
vn -0.0048 -0.4521 0.8920
vn -0.0043 -0.4526 0.8917
vn -0.1514 -0.5140 0.8443
vn -0.1896 -0.5269 0.8285
vn -0.1487 -0.5621 0.8136
vn -0.1781 -0.4802 0.8589
vn -0.1828 -0.5009 0.8460
vn -0.1520 -0.4924 0.8570
vn -0.1527 -0.4751 0.8666
vn -0.2693 -0.5256 0.8070
vn -0.2315 -0.5114 0.8276
vn -0.2327 -0.4852 0.8429
vn -0.2699 -0.4746 0.8378
vn -0.2758 -0.5557 0.7843
vn -0.2327 -0.5446 0.8058
vn -0.0581 -0.4874 0.8712
vn -0.0764 -0.5375 0.8398
vn -0.0436 -0.5292 0.8474
vn -0.0562 -0.4689 0.8815
vn 0.0043 -0.4461 0.8950
vn -0.0494 -0.4074 0.9119
vn -0.0101 -0.3645 0.9312
vn 0.0090 -0.4227 0.9062
vn 0.0700 -0.2074 0.9757
vn 0.0538 -0.2650 0.9628
vn 0.0267 -0.3970 0.9174
vn 0.0355 -0.3129 0.9491
vn -0.1715 -0.3739 0.9115
vn -0.1785 -0.3887 0.9039
vn -0.1827 -0.2844 0.9411
vn -0.1681 -0.3062 0.9370
vn -0.1616 -0.4344 0.8861
vn -0.1728 -0.4209 0.8905
vn -0.1750 -0.4551 0.8731
vn -0.1538 -0.4497 0.8798
vn 0.3337 0.8248 0.4564
vn 0.1341 0.8489 0.5113
vn 0.1317 0.8908 0.4349
vn 0.3449 0.8741 0.3420
vn -0.2499 0.7233 0.6438
vn -0.2496 0.7234 0.6437
vn -0.2497 0.7233 0.6438
vn -0.0564 0.7833 0.6191
vn -0.1081 0.8541 0.5087
vn -0.0751 0.8267 0.5576
vn -0.0753 0.8267 0.5576
vn -0.2779 0.7573 0.5910
vn -0.3284 0.7659 0.5528
vn 0.5093 0.8238 0.2489
vn 0.5176 0.7569 0.3990
vn -0.4858 0.7523 0.4450
vn -0.5643 0.6658 0.4882
vn -0.6077 0.5915 0.5299
vn -0.5501 0.6863 0.4758
vn -0.6458 0.5566 0.5226
vn -0.5996 0.6399 0.4806
vn -0.6085 0.6423 0.4660
vn -0.8098 0.3843 0.4434
vn -0.7623 0.3042 0.5713
vn -0.7924 0.1500 0.5913
vn -0.7557 0.0732 0.6508
vn -0.6807 0.2700 0.6810
vn -0.7412 -0.0926 0.6649
vn -0.7494 -0.0268 0.6616
vn -0.8042 0.0686 0.5904
vn -0.7965 -0.0047 0.6047
vn -0.7090 -0.1735 0.6835
vn -0.6296 -0.2303 0.7420
vn -0.6271 -0.1231 0.7691
vn -0.7065 -0.0750 0.7037
vn -0.5399 -0.1792 0.8224
vn -0.5191 -0.2922 0.8032
vn -0.4724 -0.3458 0.8107
vn -0.4929 -0.2594 0.8305
vn -0.3912 -0.3172 0.8639
vn -0.3772 -0.3807 0.8442
vn -0.2928 -0.3924 0.8719
vn -0.2752 -0.2976 0.9142
vn -0.2546 -0.3620 0.8967
vn -0.2701 -0.2963 0.9161
vn -0.2713 -0.2702 0.9238
vn -0.2747 -0.3697 0.8876
vn -0.2936 -0.4289 0.8543
vn -0.3699 -0.4272 0.8250
vn -0.3689 -0.4703 0.8017
vn -0.3059 -0.4437 0.8424
vn -0.2878 -0.4141 0.8635
vn -0.2834 -0.4394 0.8524
vn -0.2341 -0.4607 0.8561
vn -0.2410 -0.4141 0.8778
vn -0.2784 -0.1687 0.9455
vn -0.2836 -0.1912 0.9397
vn -0.2801 -0.0951 0.9552
vn -0.2957 -0.0590 0.9534
vn -0.4155 -0.1468 0.8977
vn -0.4072 -0.2239 0.8855
vn -0.2322 -0.2070 0.9504
vn -0.1718 -0.0772 0.9821
vn -0.3168 0.0358 0.9478
vn -0.2563 0.0243 0.9663
vn -0.2210 0.1446 0.9645
vn -0.3245 0.1441 0.9348
vn -0.3893 0.1155 0.9139
vn -0.4085 -0.0221 0.9125
vn -0.1282 0.0189 0.9916
vn -0.1083 0.1340 0.9850
vn -0.6089 -0.0253 0.7928
vn -0.5625 -0.0845 0.8224
vn -0.5203 -0.1744 0.8360
vn -0.5413 -0.1388 0.8293
vn -0.6233 0.2603 0.7374
vn -0.6665 0.1237 0.7351
vn -0.6251 0.0402 0.7795
vn -0.6457 0.1655 0.7454
vn -0.6739 0.0234 0.7385
vn -0.5420 -0.0408 0.8394
vn -0.5328 0.1024 0.8400
vn -0.7122 0.1148 0.6925
vn -0.6550 0.3938 0.6449
vn -0.6280 0.3074 0.7150
vn -0.6844 0.1691 0.7092
vn -0.7037 0.1913 0.6843
vn -0.6619 0.4848 0.5716
vn -0.7098 0.3021 0.6364
vn -0.5224 0.2933 0.8007
vn -0.4921 0.5225 0.6963
vn -0.7037 0.4180 0.5745
vn -0.6734 0.3437 0.6545
vn -0.6211 0.5034 0.6007
vn -0.6949 0.4944 0.5222
vn -0.7071 -0.2706 0.6533
vn -0.6961 -0.3334 0.6358
vn -0.6013 -0.3996 0.6920
vn -0.6210 -0.3369 0.7077
vn -0.4457 -0.4638 0.7657
vn -0.4574 -0.4049 0.7918
vn -0.5072 -0.3793 0.7739
vn -0.5040 -0.4455 0.7400
vn -0.8081 0.1960 0.5555
vn -0.7174 0.1176 0.6866
vn -0.6722 0.2660 0.6909
vn -0.8182 0.2873 0.4980
vn -0.7012 0.4543 0.5495
vn -0.6015 0.4389 0.6675
vn -0.5901 0.5041 0.6306
vn -0.6442 0.5595 0.5215
vn -0.8926 0.2385 0.3826
vn -0.9158 0.1726 0.3626
vn -0.7602 0.3029 0.5747
vn -0.7092 0.4328 0.5565
vn -0.6250 0.5960 0.5041
vn -0.7021 0.4969 0.5100
vn -0.5009 0.6244 0.5994
vn -0.5359 0.6328 0.5588
vn -0.5250 0.7078 0.4727
vn -0.4822 0.7195 0.4997
vn -0.4647 0.7199 0.5156
vn -0.1777 0.8843 0.4317
vn -0.1774 0.8844 0.4316
vn -0.1486 0.8705 0.4692
vn -0.3967 0.7504 0.5287
vn 0.1448 0.9257 0.3495
vn 0.1454 0.9257 0.3493
vn 0.1449 0.9257 0.3495
vn -0.6048 0.5946 0.5298
vn -0.6023 0.5947 0.5325
vn -0.6086 0.5952 0.5248
vn -0.5561 0.6256 0.5472
vn -0.6751 0.5147 0.5285
vn -0.6623 0.5336 0.5260
vn -0.6642 0.5308 0.5264
vn -0.6588 0.5387 0.5252
vn -0.6996 0.4592 0.5475
vn -0.5425 0.4814 0.6884
vn -0.5548 0.5150 0.6534
vn -0.7173 0.4636 0.5201
vn -0.7239 0.3453 0.5972
vn -0.6603 0.2841 0.6952
vn -0.5650 0.4398 0.6981
vn -0.7047 0.4142 0.5760
vn -0.4529 0.6467 0.6137
vn -0.6448 0.4799 0.5949
vn -0.6728 0.4962 0.5488
vn -0.6729 0.4960 0.5488
vn -0.6731 0.4958 0.5488
vn -0.5014 0.6478 0.5735
vn -0.9408 0.0610 0.3334
vn -0.9289 0.0736 0.3630
vn -0.9288 0.0738 0.3632
vn -0.8083 0.0763 0.5838
vn -0.7928 0.1793 0.5825
vn -0.5562 0.6650 0.4984
vn -0.6108 0.5953 0.5220
vn -0.6569 0.5415 0.5247
vn -0.6084 0.6084 0.5096
vn -0.5986 0.6551 0.4610
vn -0.5518 0.7004 0.4527
vn -0.4810 0.7659 0.4266
vn -0.4227 0.6168 0.6640
vn -0.8649 0.1513 0.4786
vn -0.8336 0.0789 0.5467
vn -0.8109 0.0170 0.5849
vn -0.3498 0.3058 0.8855
vn -0.1097 0.2618 0.9589
vn -0.1270 0.4158 0.9006
vn -0.3032 0.5066 0.8071
vn -0.1699 0.3287 0.9290
vn -0.1278 0.4517 0.8830
vn -0.2391 0.4108 0.8798
vn -0.2980 0.2765 0.9137
vn -0.0923 0.3599 0.9284
vn -0.0675 0.3712 0.9261
vn -0.0517 0.4893 0.8706
vn -0.0554 0.4730 0.8793
vn 0.1248 0.4309 0.8937
vn 0.1286 0.3424 0.9307
vn 0.1365 0.3511 0.9264
vn 0.1334 0.3463 0.9286
vn 0.1380 0.3500 0.9265
vn 0.1338 0.3863 0.9126
vn 0.1225 0.5850 0.8017
vn 0.1430 0.5732 0.8069
vn 0.1559 0.7247 0.6713
vn 0.1558 0.7276 0.6681
vn 0.1557 0.7274 0.6683
vn 0.1559 0.7215 0.6746
vn -0.0192 0.5885 0.8083
vn 0.0440 0.6934 0.7192
vn -0.0702 0.7420 0.6667
vn -0.0389 0.5997 0.7993
vn -0.0219 0.7975 0.6029
vn -0.0376 0.8979 0.4387
vn 0.0999 0.8707 0.4816
vn 0.0866 0.8609 0.5013
vn 0.2080 0.9228 0.3242
vn 0.2383 0.9316 0.2744
vn 0.3100 0.8999 0.3067
vn 0.0174 0.8647 0.5019
vn 0.0175 0.8548 0.5187
vn -0.0339 0.7916 0.6101
vn -0.0717 0.6287 0.7744
vn -0.0156 0.7783 0.6277
vn -0.0496 0.7230 0.6890
vn -0.1530 0.5637 0.8117
vn -0.1498 0.5662 0.8106
vn 0.2770 0.8648 0.4188
vn 0.2115 0.8127 0.5430
vn 0.1679 0.8391 0.5175
vn 0.1854 0.9130 0.3633
vn 0.0988 0.0839 0.9916
vn 0.1309 0.1090 0.9854
vn 0.1372 0.2092 0.9682
vn 0.1141 0.2075 0.9715
vn -0.1553 -0.1861 0.9702
vn -0.1750 -0.1519 0.9728
vn -0.1686 -0.0573 0.9840
vn -0.1382 -0.0732 0.9877
vn 0.0821 -0.0513 0.9953
vn 0.0742 -0.1501 0.9859
vn 0.0872 -0.1301 0.9877
vn 0.1106 -0.0163 0.9937
vn -0.1286 0.0242 0.9914
vn -0.1480 0.0500 0.9877
vn -0.1053 0.1750 0.9789
vn -0.1255 0.1450 0.9815
vn -0.1538 0.7586 0.6331
vn -0.1759 0.8280 0.5324
vn -0.2616 0.6636 0.7008
vn -0.1466 0.5686 0.8095
vn -0.3726 -0.5113 0.7744
vn -0.3748 -0.5356 0.7567
vn -0.3288 -0.5384 0.7759
vn -0.3235 -0.4839 0.8132
vn -0.3277 -0.5609 0.7603
vt 0.000000 0.000000
s 1
usemtl defaultMat
f 174/1/1 172/1/1 3/1/1 173/1/1
f 171/1/2 174/1/3 173/1/3 1/1/3
f 176/1/4 172/1/4 2/1/4 175/1/4
f 7/1/5 179/1/5 181/1/5 180/1/5
f 179/1/6 5/1/6 177/1/6 181/1/6
f 8/1/7 182/1/7 185/1/7 184/1/7
f 182/1/8 9/1/8 183/1/8 185/1/8
f 185/1/9 183/1/9 4/1/9 178/1/9
f 184/1/10 185/1/10 178/1/10 5/1/10
f 10/1/11 186/1/11 188/1/11 187/1/11
f 187/1/12 188/1/12 183/1/12 9/1/12
f 12/1/13 191/1/13 193/1/13 192/1/13
f 191/1/14 11/1/14 190/1/14 193/1/14
f 13/1/15 194/1/15 197/1/15 196/1/15
f 194/1/16 14/1/16 195/1/16 197/1/16
f 197/1/17 195/1/17 11/1/17 191/1/17
f 196/1/18 197/1/18 191/1/18 12/1/18
f 13/1/19 196/1/19 201/1/19 200/1/19
f 196/1/20 12/1/20 198/1/20 201/1/20
f 201/1/21 198/1/21 15/1/21 199/1/21
f 200/1/22 201/1/22 199/1/22 16/1/22
f 10/1/23 202/1/23 203/1/23 189/1/23
f 202/1/24 15/1/24 198/1/24 203/1/24
f 203/1/25 198/1/25 12/1/25 192/1/25
f 205/1/26 206/1/26 204/1/26 18/1/26
f 18/1/27 208/1/27 210/1/27 205/1/27
f 208/1/28 20/1/28 209/1/28 210/1/28
f 22/1/29 212/1/29 215/1/29 214/1/29
f 214/1/30 215/1/30 213/1/30 23/1/30
f 23/1/31 213/1/31 218/1/31 217/1/31
f 217/1/32 218/1/32 216/1/32 24/1/32
f 25/1/33 219/1/33 221/1/33 220/1/33
f 219/1/34 24/1/34 216/1/34 221/1/34
f 220/1/35 221/1/35 211/1/35 20/1/35
f 25/1/36 220/1/36 224/1/36 223/1/36
f 220/1/37 20/1/37 208/1/37 224/1/37
f 224/1/38 208/1/38 18/1/38 222/1/38
f 223/1/39 224/1/39 222/1/39 26/1/39
f 27/1/40 225/1/40 228/1/40 227/1/40
f 225/1/41 28/1/41 226/1/41 228/1/41
f 228/1/42 226/1/42 24/1/42 219/1/42
f 227/1/43 228/1/43 219/1/43 25/1/43
f 27/1/44 227/1/44 231/1/44 230/1/44
f 227/1/45 25/1/45 223/1/45 231/1/45
f 231/1/46 223/1/46 26/1/46 229/1/46
f 230/1/47 231/1/47 229/1/47 29/1/47
f 33/1/48 234/1/48 238/1/48 237/1/48
f 234/1/49 34/1/49 235/1/49 238/1/49
f 238/1/50 235/1/50 35/1/50 236/1/50
f 237/1/51 238/1/51 236/1/51 32/1/51
f 33/1/52 239/1/52 242/1/52 241/1/52
f 239/1/53 30/1/53 233/1/53 242/1/53
f 241/1/54 242/1/54 240/1/54 36/1/54
f 37/1/55 243/1/55 245/1/55 244/1/55
f 243/1/56 34/1/56 234/1/56 245/1/56
f 245/1/57 234/1/57 33/1/57 241/1/57
f 244/1/58 245/1/58 241/1/58 36/1/58
f 38/1/59 246/1/59 249/1/59 248/1/59
f 246/1/60 39/1/60 247/1/60 249/1/60
f 249/1/61 247/1/61 37/1/61 244/1/61
f 248/1/62 249/1/62 244/1/62 36/1/62
f 38/1/63 248/1/63 251/1/63 250/1/63
f 248/1/64 36/1/64 240/1/64 251/1/64
f 33/1/65 237/1/65 253/1/65 239/1/65
f 237/1/66 32/1/66 252/1/66 253/1/66
f 253/1/67 252/1/67 31/1/67 232/1/67
f 239/1/68 253/1/68 232/1/68 30/1/68
f 34/1/69 254/1/69 257/1/69 235/1/69
f 254/1/70 41/1/70 255/1/70 257/1/70
f 257/1/71 255/1/71 40/1/71 256/1/71
f 235/1/72 257/1/72 256/1/72 35/1/72
f 42/1/73 258/1/73 261/1/73 260/1/73
f 258/1/74 40/1/74 255/1/74 261/1/74
f 261/1/75 255/1/75 41/1/75 259/1/75
f 260/1/76 261/1/76 259/1/76 43/1/76
f 44/1/77 262/1/77 265/1/77 264/1/77
f 262/1/78 45/1/78 263/1/78 265/1/78
f 265/1/79 263/1/79 43/1/79 259/1/79
f 264/1/80 265/1/80 259/1/80 41/1/80
f 41/1/81 254/1/81 267/1/81 264/1/81
f 254/1/82 34/1/82 243/1/82 267/1/82
f 267/1/83 243/1/83 37/1/83 266/1/83
f 264/1/84 267/1/84 266/1/84 44/1/84
f 270/1/85 268/1/86 47/1/85 269/1/86
f 48/1/87 271/1/87 274/1/87 273/1/87
f 271/1/88 47/1/88 268/1/88 274/1/88
f 274/1/89 268/1/89 46/1/89 272/1/89
f 273/1/90 274/1/90 272/1/90 14/1/90
f 48/1/91 275/1/91 278/1/91 277/1/91
f 275/1/92 49/1/92 276/1/92 278/1/92
f 278/1/93 276/1/93 27/1/93 230/1/93
f 277/1/94 278/1/94 230/1/94 29/1/94
f 28/1/95 225/1/95 281/1/95 280/1/95
f 225/1/96 27/1/96 276/1/96 281/1/96
f 281/1/97 276/1/97 49/1/97 279/1/97
f 280/1/98 281/1/98 279/1/98 50/1/98
f 28/1/99 280/1/99 285/1/99 284/1/99
f 280/1/100 50/1/100 282/1/100 285/1/100
f 285/1/101 282/1/101 51/1/101 283/1/101
f 284/1/102 285/1/102 283/1/102 52/1/102
f 51/1/103 286/1/103 289/1/103 283/1/103
f 286/1/104 53/1/104 287/1/104 289/1/104
f 289/1/105 287/1/105 54/1/105 288/1/105
f 283/1/106 289/1/106 288/1/106 52/1/106
f 53/1/107 290/1/107 293/1/107 287/1/107
f 290/1/108 55/1/108 291/1/108 293/1/108
f 293/1/109 291/1/109 56/1/109 292/1/109
f 287/1/110 293/1/110 292/1/110 54/1/110
f 44/1/111 294/1/111 296/1/111 262/1/111
f 294/1/112 56/1/112 291/1/112 296/1/112
f 296/1/113 291/1/113 55/1/113 295/1/113
f 262/1/114 296/1/114 295/1/114 45/1/114
f 56/1/115 297/1/115 300/1/115 292/1/115
f 297/1/116 39/1/116 298/1/116 300/1/116
f 300/1/117 298/1/117 22/1/117 299/1/117
f 292/1/118 300/1/118 299/1/118 54/1/118
f 56/1/119 294/1/119 301/1/119 297/1/119
f 294/1/120 44/1/120 266/1/120 301/1/120
f 301/1/121 266/1/121 37/1/121 247/1/121
f 297/1/122 301/1/122 247/1/122 39/1/122
f 55/1/123 302/1/123 305/1/123 295/1/123
f 302/1/124 57/1/124 303/1/124 305/1/124
f 305/1/125 303/1/125 58/1/125 304/1/125
f 295/1/126 305/1/126 304/1/126 45/1/126
f 59/1/127 306/1/128 308/1/129 307/1/127
f 306/1/128 57/1/130 302/1/130 308/1/129
f 308/1/131 302/1/132 55/1/132 290/1/133
f 307/1/134 308/1/131 290/1/133 53/1/134
f 57/1/135 309/1/135 312/1/135 303/1/135
f 309/1/136 60/1/136 310/1/136 312/1/136
f 312/1/137 310/1/137 61/1/137 311/1/137
f 303/1/138 312/1/138 311/1/138 58/1/138
f 62/1/139 313/1/139 315/1/139 314/1/139
f 313/1/140 60/1/140 309/1/140 315/1/140
f 315/1/141 309/1/141 57/1/141 306/1/141
f 314/1/142 315/1/142 306/1/142 59/1/142
f 63/1/143 316/1/143 318/1/143 317/1/143
f 316/1/144 59/1/144 307/1/144 318/1/144
f 318/1/145 307/1/145 53/1/145 286/1/145
f 317/1/146 318/1/146 286/1/146 51/1/146
f 16/1/147 319/1/147 321/1/147 320/1/147
f 319/1/148 63/1/148 317/1/148 321/1/148
f 321/1/149 317/1/149 51/1/149 282/1/149
f 320/1/150 321/1/150 282/1/150 50/1/150
f 63/1/151 322/1/151 324/1/151 316/1/151
f 322/1/152 64/1/152 323/1/152 324/1/152
f 324/1/153 323/1/153 62/1/153 314/1/153
f 316/1/154 324/1/154 314/1/154 59/1/154
f 15/1/155 325/1/156 326/1/157 199/1/157
f 325/1/158 64/1/158 322/1/158 326/1/158
f 326/1/159 322/1/159 63/1/159 319/1/159
f 199/1/160 326/1/160 319/1/160 16/1/160
f 9/1/161 182/1/161 329/1/161 328/1/161
f 182/1/162 8/1/162 327/1/162 329/1/162
f 329/1/163 327/1/163 62/1/163 323/1/163
f 328/1/164 329/1/164 323/1/164 64/1/164
f 15/1/155 202/1/165 330/1/165 325/1/156
f 202/1/166 10/1/166 187/1/166 330/1/166
f 330/1/167 187/1/167 9/1/167 328/1/167
f 325/1/168 330/1/168 328/1/168 64/1/168
f 28/1/169 284/1/169 332/1/169 226/1/169
f 284/1/170 52/1/170 331/1/170 332/1/170
f 332/1/171 331/1/171 23/1/171 217/1/171
f 226/1/172 332/1/172 217/1/172 24/1/172
f 22/1/173 214/1/173 333/1/173 299/1/173
f 214/1/174 23/1/174 331/1/174 333/1/174
f 333/1/175 331/1/175 52/1/175 288/1/175
f 299/1/176 333/1/176 288/1/176 54/1/176
f 49/1/177 334/1/177 335/1/177 279/1/177
f 334/1/178 13/1/178 200/1/178 335/1/178
f 335/1/179 200/1/179 16/1/179 320/1/179
f 279/1/180 335/1/180 320/1/180 50/1/180
f 48/1/181 273/1/181 336/1/181 275/1/181
f 273/1/182 14/1/182 194/1/182 336/1/182
f 336/1/183 194/1/183 13/1/183 334/1/183
f 275/1/184 336/1/184 334/1/184 49/1/184
f 47/1/185 271/1/185 339/1/185 338/1/185
f 271/1/186 48/1/186 277/1/186 339/1/186
f 339/1/187 277/1/187 29/1/187 337/1/187
f 338/1/188 339/1/188 337/1/188 65/1/188
f 269/1/189 47/1/189 338/1/189 342/1/189
f 342/1/190 338/1/190 65/1/190 340/1/190
f 341/1/191 342/1/191 340/1/191 66/1/191
f 343/1/192 66/1/192 344/1/192 346/1/192
f 346/1/193 344/1/193 67/1/193 345/1/193
f 67/1/194 344/1/194 349/1/194 348/1/194
f 344/1/195 66/1/195 340/1/195 349/1/195
f 349/1/196 340/1/196 65/1/196 347/1/196
f 348/1/197 349/1/197 347/1/197 68/1/197
f 350/1/198 67/1/198 348/1/198 352/1/198
f 352/1/199 348/1/199 68/1/199 351/1/199
f 207/1/200 352/1/200 351/1/200 17/1/200
f 354/1/201 345/1/201 67/1/201 350/1/201
f 353/1/202 354/1/202 350/1/202 19/1/202
f 65/1/203 337/1/203 356/1/203 347/1/203
f 337/1/204 29/1/204 229/1/205 356/1/206
f 356/1/207 229/1/207 26/1/207 355/1/207
f 347/1/208 356/1/208 355/1/208 68/1/208
f 14/1/209 272/1/209 357/1/209 195/1/209
f 68/1/210 355/1/210 358/1/210 351/1/210
f 355/1/211 26/1/211 222/1/211 358/1/211
f 358/1/212 222/1/212 18/1/212 204/1/212
f 351/1/213 358/1/213 204/1/213 17/1/213
f 62/1/214 327/1/214 361/1/214 313/1/214
f 327/1/215 8/1/215 359/1/215 361/1/215
f 361/1/216 359/1/216 69/1/216 360/1/216
f 313/1/217 361/1/217 360/1/217 60/1/217
f 61/1/218 310/1/218 364/1/218 363/1/218
f 310/1/219 60/1/219 360/1/219 364/1/219
f 364/1/220 360/1/220 69/1/220 362/1/220
f 363/1/221 364/1/221 362/1/221 70/1/221
f 61/1/222 363/1/222 368/1/222 367/1/222
f 363/1/223 70/1/223 365/1/223 368/1/223
f 368/1/224 365/1/224 71/1/224 366/1/224
f 367/1/225 368/1/225 366/1/225 72/1/225
f 71/1/226 369/1/226 372/1/226 366/1/226
f 369/1/227 73/1/227 370/1/227 372/1/227
f 372/1/228 370/1/228 74/1/228 371/1/228
f 366/1/229 372/1/229 371/1/229 72/1/229
f 71/1/230 373/1/230 376/1/230 369/1/230
f 373/1/231 76/1/231 374/1/231 376/1/231
f 376/1/232 374/1/232 75/1/232 375/1/232
f 369/1/233 376/1/233 375/1/233 73/1/233
f 71/1/234 365/1/234 379/1/234 373/1/234
f 365/1/235 70/1/235 377/1/235 379/1/235
f 379/1/236 377/1/236 77/1/236 378/1/236
f 373/1/237 379/1/237 378/1/237 76/1/237
f 78/1/238 380/1/238 383/1/238 382/1/238
f 380/1/239 79/1/239 381/1/239 383/1/239
f 383/1/240 381/1/240 76/1/240 378/1/240
f 382/1/241 383/1/241 378/1/241 77/1/241
f 81/1/242 386/1/242 389/1/242 388/1/242
f 386/1/243 79/1/243 384/1/243 389/1/243
f 389/1/244 384/1/244 80/1/244 387/1/244
f 388/1/245 389/1/245 387/1/245 82/1/245
f 7/1/246 180/1/246 391/1/246 390/1/246
f 180/1/247 6/1/247 385/1/247 391/1/247
f 390/1/248 391/1/248 382/1/248 77/1/248
f 70/1/249 362/1/249 393/1/249 377/1/249
f 362/1/250 69/1/250 392/1/250 393/1/250
f 393/1/251 392/1/251 7/1/251 390/1/251
f 377/1/252 393/1/252 390/1/252 77/1/252
f 79/1/253 386/1/253 395/1/253 381/1/253
f 386/1/254 81/1/254 394/1/254 395/1/254
f 395/1/255 394/1/255 75/1/255 374/1/255
f 381/1/256 395/1/256 374/1/256 76/1/256
f 84/1/257 396/1/257 399/1/257 398/1/257
f 396/1/258 72/1/258 371/1/258 399/1/258
f 399/1/259 371/1/259 74/1/259 397/1/259
f 398/1/260 399/1/260 397/1/260 83/1/260
f 45/1/261 304/1/261 402/1/261 263/1/261
f 304/1/262 58/1/262 400/1/262 402/1/262
f 402/1/263 400/1/263 84/1/263 401/1/263
f 263/1/264 402/1/264 401/1/264 43/1/264
f 84/1/265 398/1/265 404/1/265 401/1/265
f 398/1/266 83/1/266 403/1/266 404/1/266
f 404/1/267 403/1/267 42/1/267 260/1/267
f 401/1/268 404/1/268 260/1/268 43/1/268
f 58/1/269 311/1/269 405/1/269 400/1/269
f 311/1/270 61/1/270 367/1/270 405/1/270
f 405/1/271 367/1/271 72/1/271 396/1/271
f 400/1/272 405/1/272 396/1/272 84/1/272
f 7/1/273 392/1/273 406/1/273 179/1/273
f 392/1/274 69/1/274 359/1/274 406/1/274
f 406/1/275 359/1/275 8/1/275 184/1/275
f 179/1/276 406/1/276 184/1/276 5/1/276
f 22/1/277 298/1/277 408/1/277 212/1/277
f 298/1/278 39/1/278 246/1/278 408/1/278
f 408/1/279 246/1/279 38/1/279 407/1/279
f 212/1/280 408/1/280 407/1/280 21/1/280
f 416/1/281 413/1/281 87/1/281 414/1/281
f 415/1/282 416/1/282 414/1/282 88/1/282
f 88/1/283 414/1/283 420/1/283 419/1/283
f 414/1/284 87/1/284 417/1/284 420/1/284
f 420/1/285 417/1/285 89/1/285 418/1/285
f 87/1/286 412/1/286 422/1/286 417/1/286
f 417/1/287 422/1/287 421/1/287 89/1/287
f 89/1/288 421/1/288 424/1/288 423/1/288
f 426/1/289 411/1/289 86/1/289 425/1/289
f 427/1/290 92/1/290 428/1/290 431/1/290
f 431/1/291 428/1/291 91/1/291 429/1/291
f 430/1/292 431/1/292 429/1/292 90/1/292
f 432/1/293 433/1/293 428/1/293 92/1/293
f 430/1/294 90/1/294 425/1/294 434/1/294
f 434/1/295 425/1/295 86/1/295 410/1/295
f 96/1/296 438/1/296 440/1/296 439/1/296
f 439/1/297 440/1/297 437/1/297 95/1/297
f 97/1/298 441/1/298 444/1/298 443/1/298
f 441/1/299 95/1/299 436/1/299 444/1/299
f 444/1/300 436/1/300 94/1/300 442/1/300
f 443/1/301 444/1/301 442/1/301 98/1/301
f 99/1/302 445/1/302 447/1/302 446/1/302
f 445/1/303 98/1/303 442/1/303 447/1/303
f 447/1/304 442/1/304 94/1/304 435/1/304
f 446/1/305 447/1/305 435/1/305 93/1/305
f 446/1/306 449/1/306 448/1/306 99/1/306
f 102/1/307 451/1/307 453/1/307 452/1/307
f 452/1/308 453/1/308 450/1/308 101/1/308
f 103/1/309 454/1/309 457/1/309 456/1/309
f 454/1/310 102/1/310 452/1/310 457/1/310
f 457/1/311 452/1/311 101/1/311 455/1/311
f 456/1/312 457/1/312 455/1/312 104/1/312
f 103/1/313 458/1/313 461/1/313 454/1/313
f 458/1/314 106/1/314 459/1/314 461/1/314
f 461/1/315 459/1/315 105/1/315 460/1/315
f 454/1/316 461/1/316 460/1/316 102/1/316
f 99/1/317 448/1/317 463/1/317 462/1/317
f 448/1/318 100/1/318 451/1/318 463/1/318
f 463/1/319 451/1/319 102/1/319 460/1/319
f 462/1/320 463/1/320 460/1/320 105/1/320
f 110/1/321 466/1/321 469/1/322 468/1/323
f 466/1/324 111/1/324 467/1/324 469/1/324
f 111/1/325 470/1/325 472/1/325 467/1/325
f 470/1/326 112/1/326 471/1/326 472/1/326
f 113/1/327 473/1/327 475/1/327 474/1/327
f 474/1/328 475/1/328 471/1/328 112/1/328
f 113/1/329 476/1/329 478/1/329 473/1/329
f 476/1/330 114/1/330 477/1/330 478/1/330
f 115/1/331 479/1/331 482/1/331 481/1/331
f 479/1/332 113/1/332 474/1/332 482/1/332
f 482/1/333 474/1/333 112/1/333 480/1/333
f 481/1/334 482/1/334 480/1/334 116/1/334
f 115/1/335 483/1/335 485/1/335 479/1/335
f 483/1/336 117/1/336 484/1/336 485/1/336
f 485/1/337 484/1/337 114/1/337 476/1/337
f 479/1/338 485/1/338 476/1/338 113/1/338
f 119/1/339 488/1/339 491/1/339 490/1/339
f 488/1/340 32/1/340 236/1/341 491/1/342
f 491/1/342 236/1/341 35/1/343 489/1/343
f 490/1/344 491/1/344 489/1/345 120/1/346
f 119/1/347 492/1/347 495/1/347 494/1/347
f 492/1/348 121/1/348 493/1/348 495/1/348
f 494/1/349 495/1/349 487/1/349 118/1/349
f 122/1/350 496/1/350 498/1/350 497/1/350
f 496/1/351 121/1/351 492/1/351 498/1/351
f 498/1/352 492/1/352 119/1/352 490/1/352
f 497/1/353 498/1/353 490/1/353 120/1/353
f 123/1/354 499/1/354 502/1/354 501/1/354
f 499/1/355 121/1/355 496/1/355 502/1/355
f 502/1/356 496/1/356 122/1/356 500/1/356
f 501/1/357 502/1/357 500/1/357 124/1/357
f 123/1/358 503/1/358 504/1/358 499/1/358
f 499/1/359 504/1/359 493/1/359 121/1/359
f 119/1/360 494/1/360 505/1/360 488/1/360
f 494/1/361 118/1/361 486/1/361 505/1/361
f 505/1/362 486/1/362 31/1/362 252/1/362
f 488/1/363 505/1/363 252/1/363 32/1/363
f 120/1/346 489/1/345 508/1/364 507/1/364
f 489/1/365 35/1/365 256/1/365 508/1/365
f 508/1/366 256/1/366 40/1/366 506/1/366
f 507/1/367 508/1/367 506/1/367 125/1/367
f 42/1/368 509/1/368 511/1/368 258/1/368
f 509/1/369 126/1/369 510/1/369 511/1/369
f 511/1/370 510/1/370 125/1/370 506/1/370
f 258/1/371 511/1/371 506/1/371 40/1/371
f 127/1/372 512/1/372 515/1/372 514/1/372
f 512/1/373 125/1/373 510/1/373 515/1/373
f 515/1/374 510/1/374 126/1/374 513/1/374
f 514/1/375 515/1/375 513/1/375 128/1/375
f 125/1/376 512/1/376 517/1/376 507/1/376
f 512/1/377 127/1/377 516/1/377 517/1/377
f 517/1/378 516/1/378 122/1/378 497/1/378
f 507/1/379 517/1/379 497/1/379 120/1/379
f 129/1/380 519/1/380 524/1/380 523/1/380
f 519/1/381 130/1/381 521/1/381 524/1/381
f 524/1/382 521/1/382 131/1/382 522/1/382
f 523/1/383 524/1/383 522/1/383 85/1/383
f 525/1/384 132/1/385 526/1/386 527/1/385
f 527/1/387 526/1/387 130/1/387 520/1/387
f 131/1/388 521/1/388 530/1/388 529/1/388
f 521/1/389 130/1/389 526/1/390 530/1/389
f 530/1/391 526/1/391 132/1/391 528/1/391
f 529/1/392 530/1/392 528/1/392 133/1/392
f 85/1/393 409/1/393 531/1/393 523/1/393
f 523/1/394 531/1/394 518/1/394 129/1/394
f 134/1/395 532/1/395 536/1/395 535/1/395
f 532/1/396 137/1/396 533/1/396 536/1/396
f 536/1/397 533/1/397 136/1/397 534/1/397
f 535/1/398 536/1/398 534/1/398 135/1/398
f 138/1/399 537/1/399 540/1/399 539/1/399
f 537/1/400 104/1/400 538/1/400 540/1/400
f 540/1/401 538/1/401 135/1/401 534/1/401
f 539/1/402 540/1/402 534/1/402 136/1/402
f 138/1/403 541/1/403 544/1/403 543/1/403
f 541/1/404 117/1/404 483/1/404 544/1/404
f 544/1/405 483/1/405 115/1/405 542/1/405
f 543/1/406 544/1/406 542/1/406 139/1/406
f 116/1/407 545/1/407 547/1/407 481/1/407
f 545/1/408 140/1/408 546/1/408 547/1/408
f 547/1/409 546/1/409 139/1/409 542/1/409
f 481/1/410 547/1/410 542/1/410 115/1/410
f 116/1/411 548/1/411 551/1/411 545/1/411
f 548/1/412 142/1/412 549/1/412 551/1/412
f 551/1/413 549/1/413 141/1/413 550/1/413
f 545/1/414 551/1/414 550/1/414 140/1/414
f 141/1/415 549/1/415 555/1/415 554/1/415
f 549/1/416 142/1/416 552/1/416 555/1/416
f 555/1/417 552/1/417 144/1/417 553/1/417
f 554/1/418 555/1/418 553/1/418 143/1/418
f 143/1/419 553/1/419 559/1/419 558/1/419
f 553/1/420 144/1/420 556/1/420 559/1/420
f 559/1/421 556/1/421 146/1/421 557/1/421
f 558/1/422 559/1/422 557/1/422 145/1/422
f 127/1/423 514/1/423 562/1/423 561/1/423
f 514/1/424 128/1/424 560/1/424 562/1/424
f 562/1/425 560/1/425 145/1/425 557/1/425
f 561/1/426 562/1/426 557/1/426 146/1/426
f 146/1/427 556/1/427 566/1/427 565/1/427
f 556/1/428 144/1/428 563/1/428 566/1/428
f 566/1/429 563/1/429 110/1/429 564/1/429
f 565/1/430 566/1/430 564/1/430 124/1/430
f 146/1/431 565/1/431 567/1/431 561/1/431
f 565/1/432 124/1/432 500/1/432 567/1/432
f 567/1/433 500/1/433 122/1/433 516/1/433
f 561/1/434 567/1/434 516/1/434 127/1/434
f 145/1/435 560/1/435 571/1/435 570/1/435
f 560/1/436 128/1/436 568/1/436 571/1/436
f 571/1/437 568/1/437 148/1/437 569/1/437
f 570/1/438 571/1/438 569/1/438 147/1/438
f 149/1/439 572/1/439 574/1/439 573/1/439
f 572/1/440 143/1/440 558/1/440 574/1/440
f 574/1/441 558/1/441 145/1/441 570/1/441
f 573/1/442 574/1/442 570/1/442 147/1/442
f 147/1/443 569/1/443 578/1/443 577/1/443
f 569/1/444 148/1/444 575/1/444 578/1/444
f 578/1/445 575/1/445 151/1/445 576/1/445
f 577/1/446 578/1/446 576/1/446 150/1/446
f 152/1/447 579/1/447 581/1/447 580/1/447
f 579/1/448 149/1/448 573/1/448 581/1/448
f 581/1/449 573/1/449 147/1/449 577/1/449
f 580/1/450 581/1/450 577/1/450 150/1/450
f 153/1/451 582/1/451 584/1/451 583/1/451
f 582/1/452 141/1/452 554/1/452 584/1/452
f 584/1/453 554/1/453 143/1/453 572/1/453
f 583/1/454 584/1/454 572/1/454 149/1/454
f 106/1/455 585/1/455 587/1/455 586/1/455
f 585/1/456 140/1/456 550/1/456 587/1/456
f 587/1/457 550/1/457 141/1/457 582/1/457
f 586/1/458 587/1/458 582/1/458 153/1/458
f 153/1/459 583/1/459 590/1/459 589/1/459
f 583/1/460 149/1/460 579/1/460 590/1/460
f 590/1/461 579/1/461 152/1/461 588/1/461
f 589/1/462 590/1/462 588/1/462 154/1/462
f 105/1/463 459/1/463 592/1/463 591/1/463
f 459/1/464 106/1/464 586/1/464 592/1/464
f 592/1/465 586/1/465 153/1/465 589/1/465
f 591/1/466 592/1/466 589/1/466 154/1/466
f 98/1/467 593/1/467 595/1/467 443/1/467
f 593/1/468 154/1/468 588/1/468 595/1/468
f 595/1/469 588/1/469 152/1/469 594/1/469
f 443/1/470 595/1/470 594/1/470 97/1/470
f 105/1/471 591/1/471 596/1/471 462/1/471
f 591/1/472 154/1/472 593/1/472 596/1/472
f 596/1/473 593/1/473 98/1/473 445/1/473
f 462/1/474 596/1/474 445/1/474 99/1/474
f 116/1/475 480/1/475 598/1/475 548/1/475
f 480/1/476 112/1/476 470/1/476 598/1/476
f 598/1/477 470/1/477 111/1/477 597/1/477
f 548/1/478 598/1/478 597/1/478 142/1/478
f 110/1/479 563/1/479 599/1/479 466/1/479
f 563/1/480 144/1/480 552/1/480 599/1/480
f 599/1/481 552/1/481 142/1/481 597/1/481
f 466/1/482 599/1/482 597/1/482 111/1/482
f 139/1/483 546/1/483 601/1/483 600/1/483
f 546/1/484 140/1/484 585/1/484 601/1/484
f 601/1/485 585/1/485 106/1/485 458/1/485
f 600/1/486 601/1/486 458/1/486 103/1/486
f 138/1/487 543/1/487 602/1/487 537/1/487
f 543/1/488 139/1/488 600/1/488 602/1/488
f 602/1/489 600/1/489 103/1/489 456/1/489
f 537/1/490 602/1/490 456/1/490 104/1/490
f 136/1/491 603/1/491 605/1/491 539/1/491
f 603/1/492 155/1/492 604/1/492 605/1/492
f 605/1/493 604/1/493 117/1/493 541/1/493
f 539/1/494 605/1/494 541/1/494 138/1/494
f 137/1/495 606/1/495 608/1/495 533/1/495
f 606/1/496 156/1/496 607/1/496 608/1/496
f 608/1/497 607/1/497 155/1/497 603/1/497
f 533/1/498 608/1/498 603/1/498 136/1/498
f 609/1/499 137/1/499 532/1/499 610/1/499
f 613/1/500 611/1/500 158/1/500 612/1/500
f 158/1/501 611/1/501 616/1/501 615/1/501
f 611/1/502 159/1/503 614/1/502 616/1/502
f 616/1/504 614/1/504 131/1/504 529/1/504
f 615/1/505 616/1/505 529/1/505 133/1/505
f 614/1/506 617/1/507 522/1/508 131/1/506
f 158/1/509 615/1/510 621/1/510 620/1/511
f 615/1/512 133/1/512 618/1/512 621/1/512
f 621/1/513 618/1/513 160/1/513 619/1/513
f 620/1/514 621/1/515 619/1/515 156/1/516
f 160/1/517 622/1/517 624/1/517 619/1/517
f 622/1/518 161/1/518 623/1/518 624/1/518
f 624/1/519 623/1/519 155/1/519 607/1/519
f 619/1/520 624/1/520 607/1/520 156/1/520
f 108/1/521 465/1/521 627/1/521 626/1/521
f 465/1/522 107/1/522 625/1/522 627/1/522
f 627/1/523 625/1/523 161/1/523 622/1/523
f 626/1/524 627/1/524 622/1/524 160/1/524
f 132/1/525 628/1/525 629/1/525 528/1/525
f 628/1/526 108/1/526 626/1/526 629/1/526
f 629/1/527 626/1/528 160/1/529 618/1/527
f 528/1/530 629/1/530 618/1/530 133/1/530
f 155/1/531 623/1/531 631/1/531 604/1/531
f 623/1/532 161/1/533 630/1/533 631/1/533
f 631/1/534 630/1/534 114/1/534 484/1/534
f 604/1/535 631/1/535 484/1/535 117/1/535
f 157/1/536 612/1/536 632/1/536 609/1/536
f 612/1/537 158/1/509 620/1/511 632/1/537
f 632/1/538 620/1/514 156/1/516 606/1/538
f 609/1/539 632/1/539 606/1/539 137/1/539
f 104/1/540 455/1/540 634/1/540 538/1/540
f 538/1/541 634/1/541 633/1/541 135/1/541
f 635/1/542 535/1/542 135/1/542 633/1/542
f 132/1/543 525/1/543 636/1/543 628/1/543
f 161/1/544 625/1/544 637/1/544 630/1/544
f 625/1/545 107/1/545 464/1/545 637/1/545
f 630/1/546 637/1/546 477/1/546 114/1/546
f 152/1/547 580/1/547 640/1/547 594/1/547
f 580/1/548 150/1/548 638/1/548 640/1/548
f 640/1/549 638/1/549 162/1/549 639/1/549
f 594/1/550 640/1/550 639/1/550 97/1/550
f 151/1/551 641/1/551 643/1/551 576/1/551
f 641/1/552 163/1/552 642/1/552 643/1/552
f 643/1/553 642/1/553 162/1/553 638/1/553
f 576/1/554 643/1/554 638/1/554 150/1/554
f 151/1/555 644/1/555 647/1/555 641/1/555
f 644/1/556 165/1/556 645/1/556 647/1/556
f 647/1/557 645/1/557 164/1/557 646/1/557
f 641/1/558 647/1/558 646/1/558 163/1/558
f 164/1/559 645/1/559 650/1/559 649/1/559
f 645/1/560 165/1/560 648/1/561 650/1/562
f 650/1/562 648/1/561 74/1/563 370/1/563
f 649/1/564 650/1/564 370/1/564 73/1/564
f 164/1/565 649/1/565 653/1/565 652/1/565
f 649/1/566 73/1/566 375/1/566 653/1/566
f 653/1/567 375/1/568 75/1/568 651/1/569
f 652/1/570 653/1/567 651/1/569 166/1/570
f 164/1/571 652/1/571 656/1/571 646/1/571
f 652/1/572 166/1/572 654/1/572 656/1/572
f 656/1/573 654/1/573 167/1/573 655/1/573
f 646/1/574 656/1/574 655/1/574 163/1/574
f 168/1/575 657/1/575 660/1/575 659/1/575
f 657/1/576 167/1/576 654/1/576 660/1/576
f 660/1/577 654/1/577 166/1/577 658/1/577
f 659/1/578 660/1/578 658/1/578 169/1/578
f 81/1/579 388/1/579 665/1/579 664/1/579
f 388/1/580 82/1/580 663/1/580 665/1/580
f 664/1/581 665/1/581 661/1/581 169/1/581
f 96/1/582 666/1/582 667/1/582 438/1/582
f 666/1/583 167/1/583 657/1/583 667/1/583
f 667/1/584 657/1/584 168/1/584 662/1/584
f 163/1/585 655/1/585 669/1/585 642/1/585
f 655/1/586 167/1/586 666/1/586 669/1/586
f 669/1/587 666/1/587 96/1/587 668/1/587
f 642/1/588 669/1/588 668/1/589 162/1/589
f 169/1/590 658/1/590 670/1/590 664/1/590
f 658/1/591 166/1/591 651/1/591 670/1/591
f 670/1/592 651/1/592 75/1/592 394/1/592
f 664/1/593 670/1/593 394/1/593 81/1/593
f 170/1/594 671/1/594 673/1/594 672/1/594
f 671/1/595 83/1/595 397/1/595 673/1/595
f 673/1/596 397/1/596 74/1/596 648/1/596
f 672/1/597 673/1/597 648/1/597 165/1/597
f 128/1/598 513/1/598 676/1/598 568/1/598
f 513/1/599 126/1/599 674/1/599 676/1/599
f 676/1/600 674/1/600 170/1/600 675/1/600
f 568/1/601 676/1/601 675/1/601 148/1/601
f 170/1/602 674/1/602 677/1/602 671/1/602
f 674/1/603 126/1/603 509/1/603 677/1/603
f 677/1/604 509/1/604 42/1/604 403/1/604
f 671/1/605 677/1/605 403/1/605 83/1/605
f 148/1/606 675/1/606 678/1/606 575/1/606
f 675/1/607 170/1/607 672/1/607 678/1/607
f 678/1/608 672/1/608 165/1/608 644/1/608
f 575/1/609 678/1/609 644/1/609 151/1/609
f 96/1/610 439/1/610 679/1/610 668/1/610
f 439/1/611 95/1/611 441/1/611 679/1/611
f 679/1/612 441/1/612 97/1/612 639/1/612
f 668/1/589 679/1/613 639/1/613 162/1/589
f 110/1/614 468/1/614 681/1/614 564/1/614
f 468/1/615 109/1/615 680/1/615 681/1/615
f 681/1/616 680/1/616 123/1/616 501/1/616
f 564/1/617 681/1/617 501/1/617 124/1/617
f 503/1/618 123/1/618 680/1/618 682/1/618
