# Blender 5.1.0
# www.blender.org
mtllib Lower Left eyelid.mtl
o Lower_Left_eyelid
v 0.308873 0.346738 1.162796
v 0.321160 0.351166 1.161065
v 0.312549 0.343756 1.169102
v 0.327024 0.350816 1.165215
v 0.302439 0.335308 1.175507
v 0.291927 0.325583 1.180644
v 0.319071 0.332982 1.169908
v 0.307467 0.320079 1.173549
v 0.342398 0.327886 1.167812
v 0.353315 0.340113 1.166928
v 0.330394 0.343299 1.168154
v 0.331755 0.313008 1.170026
v 0.297322 0.304223 1.180987
v 0.287203 0.287889 1.191109
v 0.341308 0.351525 1.166819
v 0.363434 0.350337 1.166395
v 0.370838 0.359006 1.166008
v 0.389031 0.346457 1.167621
v 0.395225 0.357734 1.167702
v 0.418283 0.339217 1.172292
v 0.421775 0.352831 1.172636
v 0.450982 0.330374 1.177504
v 0.452278 0.345562 1.178372
v 0.413064 0.324137 1.172539
v 0.447982 0.313696 1.176964
v 0.381184 0.333543 1.168186
v 0.399368 0.367393 1.167958
v 0.375334 0.366314 1.164924
v 0.423343 0.364974 1.173179
v 0.377969 0.372302 1.162354
v 0.380039 0.376965 1.158086
v 0.562136 0.362892 1.185764
v 0.603351 0.364265 1.181586
v 0.424568 0.381539 1.172023
v 0.448027 0.377966 1.179608
v 0.449358 0.370103 1.179972
v 0.423872 0.374733 1.173621
v 0.484109 0.363512 1.184835
v 0.481896 0.371832 1.185179
v 0.486492 0.352067 1.183773
v 0.451454 0.359137 1.179186
v 0.487443 0.338261 1.182351
v 0.401907 0.375333 1.167341
v 0.403660 0.381642 1.164569
v 0.486827 0.322525 1.180760
v 0.484830 0.304923 1.179451
v 0.481818 0.285384 1.179094
v 0.520607 0.278006 1.178567
v 0.522714 0.298178 1.179505
v 0.443861 0.295167 1.177416
v 0.524120 0.316461 1.181330
v 0.524692 0.332656 1.183430
v 0.563627 0.328952 1.181323
v 0.563815 0.343196 1.183520
v 0.524130 0.346617 1.185293
v 0.562718 0.312250 1.178814
v 0.522529 0.357939 1.186484
v 0.520978 0.366336 1.186703
v 0.563227 0.354345 1.185061
v 0.604009 0.355204 1.180086
v 0.603516 0.343413 1.178022
v 0.866550 0.397575 1.009183
v 0.857264 0.401858 1.021384
v 0.861210 0.386104 1.014744
v 0.873075 0.382051 0.999346
v 0.876784 0.393604 0.996133
v 0.887804 0.392696 0.982594
v 0.885874 0.380200 0.983331
v 0.882205 0.366104 0.986823
v 0.867395 0.368738 1.005545
v 0.876300 0.351103 0.993630
v 0.894115 0.350185 0.971544
v 0.897692 0.366676 0.967862
v 0.912138 0.353898 0.949713
v 0.908860 0.334701 0.953446
v 0.888297 0.333014 0.978849
v 0.903226 0.315062 0.961311
v 0.859213 0.354871 1.014879
v 0.867887 0.335721 1.003636
v 0.856681 0.320389 1.016531
v 0.848213 0.340951 1.026996
v 0.853474 0.373267 1.023456
v 0.842931 0.360361 1.034988
v 0.850301 0.390822 1.029412
v 0.840068 0.395681 1.043617
v 0.840444 0.378815 1.040438
v 0.827772 0.383969 1.056838
v 0.827361 0.366746 1.053860
v 0.811891 0.372691 1.071815
v 0.814420 0.387958 1.072916
v 0.810904 0.355134 1.068887
v 0.829295 0.347835 1.048704
v 0.816579 0.315108 1.057568
v 0.834166 0.327486 1.041330
v 0.812363 0.335825 1.064067
v 0.307970 0.250262 1.199769
v 0.279225 0.275270 1.205246
v 0.508280 0.178590 1.188703
v 0.642284 0.197160 1.156107
v 0.599014 0.197892 1.168823
v 0.679641 0.227291 1.140309
v 0.639932 0.225034 1.155391
v 0.717212 0.231511 1.122595
v 0.598782 0.224861 1.167267
v 0.555267 0.200686 1.178032
v 0.511850 0.205610 1.183984
v 0.556899 0.226988 1.175762
v 0.515046 0.231749 1.180859
v 0.794545 0.216511 1.076634
v 0.823754 0.227762 1.052856
v 0.783560 0.245705 1.082031
v 0.752025 0.237531 1.102958
v 0.811187 0.255983 1.060753
v 0.848347 0.241610 1.029374
v 0.834499 0.268241 1.039988
v 0.853353 0.282781 1.020828
v 0.868052 0.257959 1.007746
v 0.799088 0.392448 1.088457
v 0.322577 0.294164 1.176692
v 0.356707 0.280047 1.178034
v 0.364143 0.300983 1.172791
v 0.390585 0.237815 1.189346
v 0.395039 0.263974 1.182004
v 0.352396 0.253619 1.188019
v 0.429561 0.224268 1.189227
v 0.434126 0.250578 1.183585
v 0.400662 0.287358 1.176831
v 0.439050 0.274320 1.179537
v 0.406968 0.307073 1.173871
v 0.372426 0.318555 1.169770
v 0.474106 0.239713 1.183084
v 0.478162 0.263734 1.180251
v 0.469875 0.213570 1.187316
v 0.465227 0.187129 1.193322
v 0.518010 0.255922 1.178957
v 0.558454 0.251148 1.174700
v 0.559958 0.273211 1.174969
v 0.315781 0.271068 1.187712
v 0.930651 0.363894 0.928843
v 0.929650 0.341553 0.927968
v 0.913441 0.372489 0.949894
v 0.913139 0.390531 0.953677
v 0.745337 0.264602 1.107125
v 0.712183 0.258220 1.125345
v 0.775248 0.272215 1.087971
v 0.801541 0.281491 1.068506
v 0.795080 0.304648 1.075285
v 0.769684 0.296038 1.093610
v 0.823804 0.292816 1.049622
v 0.791530 0.325926 1.080968
v 0.766856 0.317667 1.098488
v 0.790661 0.345403 1.085325
v 0.766392 0.337536 1.102479
v 0.792063 0.363169 1.088111
v 0.767896 0.355750 1.105329
v 0.795125 0.379017 1.089095
v 0.771000 0.372156 1.106717
v 0.742773 0.364981 1.124697
v 0.739877 0.348433 1.122740
v 0.711308 0.357719 1.141488
v 0.708982 0.341050 1.139179
v 0.746596 0.379536 1.125329
v 0.714309 0.372084 1.142754
v 0.775225 0.386257 1.106544
v 0.738419 0.330204 1.119692
v 0.738571 0.310383 1.115901
v 0.740822 0.288718 1.111647
v 0.707301 0.303247 1.132470
v 0.708812 0.281918 1.128777
v 0.673557 0.297570 1.147345
v 0.674219 0.276446 1.144299
v 0.637682 0.294064 1.159975
v 0.637491 0.273006 1.157475
v 0.600087 0.292365 1.169845
v 0.638647 0.313263 1.163116
v 0.601246 0.311258 1.172709
v 0.674174 0.316965 1.150670
v 0.599181 0.271761 1.167824
v 0.676321 0.253294 1.141873
v 0.638308 0.250211 1.155934
v 0.707581 0.322906 1.136009
v 0.675636 0.334831 1.153882
v 0.842182 0.305742 1.031967
v 0.868331 0.298837 1.003822
v 0.879844 0.315696 0.989697
v 0.894850 0.295386 0.973220
v 0.921557 0.296561 0.940356
v 0.883319 0.276119 0.988866
v 0.926779 0.319121 0.931743
v 0.598800 0.249412 1.166978
v 0.561399 0.293570 1.176487
v 0.602380 0.328431 1.175551
v 0.640065 0.330651 1.166244
v 0.641785 0.346226 1.168855
v 0.677856 0.350851 1.156433
v 0.680307 0.364512 1.158119
v 0.643442 0.359003 1.170919
v 0.717029 0.383327 1.143211
v 0.751111 0.399068 1.124129
v 0.750207 0.391248 1.124985
v 0.779172 0.397581 1.105532
v 0.899283 0.382240 0.967573
v 0.315085 0.348672 1.161759
v 0.310340 0.345794 1.166003
v 0.321171 0.347620 1.166483
v 0.323323 0.350838 1.163412
v 0.317251 0.348106 1.164472
v 0.303074 0.342895 1.171210
v 0.303647 0.344655 1.167596
v 0.307473 0.339474 1.172709
v 0.296525 0.337033 1.177986
v 0.300467 0.340276 1.174792
v 0.297208 0.330633 1.178045
v 0.291929 0.333361 1.180770
v 0.310070 0.334090 1.172629
v 0.298727 0.322581 1.177181
v 0.313185 0.326908 1.171315
v 0.304266 0.328654 1.174682
v 0.329682 0.331234 1.168069
v 0.347792 0.334286 1.167304
v 0.340938 0.342344 1.167361
v 0.324824 0.338410 1.168934
v 0.335249 0.337160 1.167607
v 0.318428 0.317164 1.170819
v 0.337059 0.320842 1.168609
v 0.323974 0.324628 1.168953
v 0.321570 0.343462 1.168883
v 0.315765 0.338958 1.170724
v 0.287883 0.309327 1.184009
v 0.302323 0.312449 1.176871
v 0.293421 0.316055 1.180312
v 0.277200 0.296823 1.194025
v 0.292171 0.295837 1.185652
v 0.282317 0.302759 1.188474
v 0.332895 0.351174 1.166366
v 0.335981 0.347652 1.167490
v 0.327497 0.347580 1.167406
v 0.351748 0.351303 1.166645
v 0.367535 0.354843 1.166222
v 0.359488 0.358742 1.165701
v 0.356091 0.355212 1.166253
v 0.375841 0.348725 1.166608
v 0.392382 0.352292 1.167606
v 0.382766 0.358725 1.166527
v 0.379599 0.353904 1.166542
v 0.403246 0.343179 1.169669
v 0.420282 0.346174 1.172425
v 0.408173 0.355664 1.169849
v 0.405946 0.349601 1.169702
v 0.451867 0.338146 1.177931
v 0.436318 0.349443 1.175555
v 0.434045 0.334886 1.175009
v 0.435436 0.342335 1.175261
v 0.415849 0.331897 1.172309
v 0.430140 0.318829 1.174936
v 0.449672 0.322239 1.177160
v 0.432267 0.327059 1.174882
v 0.396706 0.329132 1.170147
v 0.385270 0.340220 1.167800
v 0.400127 0.336365 1.169803
v 0.397540 0.362775 1.167853
v 0.387334 0.367243 1.166240
v 0.373395 0.362821 1.165622
v 0.385327 0.363179 1.166473
v 0.422761 0.359135 1.172874
v 0.411252 0.366613 1.170324
v 0.409918 0.361356 1.170064
v 0.366753 0.337158 1.167124
v 0.358625 0.345442 1.166621
v 0.371525 0.343159 1.166790
v 0.346592 0.347018 1.167027
v 0.378994 0.374806 1.160432
v 0.365864 0.369649 1.160347
v 0.366737 0.371632 1.158161
v 0.363702 0.364795 1.163719
v 0.376805 0.369477 1.163845
v 0.364924 0.367373 1.162206
v 0.361968 0.361921 1.164875
v 0.582743 0.363054 1.184217
v 0.561387 0.366538 1.185572
v 0.581983 0.366764 1.184217
v 0.624027 0.366270 1.177620
v 0.425210 0.384054 1.170232
v 0.435361 0.380000 1.175764
v 0.448375 0.374440 1.180057
v 0.424131 0.378457 1.173165
v 0.435578 0.372720 1.176725
v 0.435287 0.376692 1.176531
v 0.482833 0.368055 1.185166
v 0.464175 0.375203 1.183090
v 0.466091 0.366914 1.182937
v 0.464831 0.371495 1.183271
v 0.485411 0.358137 1.184352
v 0.450467 0.364991 1.179627
v 0.468639 0.355452 1.181839
v 0.467468 0.361513 1.182409
v 0.452121 0.352607 1.178770
v 0.469651 0.341698 1.180703
v 0.487178 0.345421 1.183102
v 0.469398 0.348823 1.181276
v 0.436482 0.362418 1.176159
v 0.436632 0.356192 1.175834
v 0.423663 0.370215 1.173517
v 0.436054 0.367959 1.176524
v 0.413043 0.375533 1.170419
v 0.400785 0.371572 1.167855
v 0.412263 0.371354 1.170531
v 0.390143 0.374248 1.164659
v 0.402843 0.378696 1.166271
v 0.392199 0.379877 1.161037
v 0.391204 0.377249 1.163125
v 0.414286 0.382181 1.168354
v 0.413694 0.379135 1.169737
v 0.388895 0.370919 1.165674
v 0.487325 0.330625 1.181552
v 0.468727 0.326171 1.179458
v 0.469407 0.334139 1.180079
v 0.485984 0.313962 1.180032
v 0.466288 0.309010 1.178497
v 0.467660 0.317807 1.178906
v 0.483422 0.295400 1.179111
v 0.501112 0.281406 1.179147
v 0.521733 0.288330 1.178888
v 0.503647 0.301329 1.179808
v 0.502467 0.291610 1.179323
v 0.446038 0.304691 1.177020
v 0.462738 0.289960 1.178497
v 0.464629 0.299745 1.178326
v 0.523520 0.307556 1.180346
v 0.505301 0.319366 1.181392
v 0.504610 0.310579 1.180525
v 0.524520 0.324844 1.182379
v 0.505784 0.335362 1.183259
v 0.505704 0.327640 1.182321
v 0.544026 0.330317 1.182806
v 0.563827 0.336431 1.182486
v 0.543803 0.344355 1.184849
v 0.524570 0.339929 1.184423
v 0.544048 0.337665 1.183890
v 0.563241 0.320876 1.180082
v 0.543300 0.313925 1.180487
v 0.543761 0.322386 1.181651
v 0.504902 0.349196 1.184920
v 0.505526 0.342549 1.184147
v 0.502827 0.360542 1.185991
v 0.523390 0.352646 1.185987
v 0.503942 0.355232 1.185537
v 0.521731 0.362462 1.186743
v 0.500828 0.368833 1.186227
v 0.501740 0.365042 1.186254
v 0.562745 0.358868 1.185557
v 0.541489 0.364025 1.186587
v 0.542710 0.355545 1.186202
v 0.542117 0.360067 1.186546
v 0.583720 0.354321 1.183043
v 0.603815 0.360008 1.180986
v 0.583334 0.358939 1.183767
v 0.603890 0.349710 1.179088
v 0.563601 0.349154 1.184376
v 0.583795 0.342948 1.181230
v 0.583864 0.349031 1.182194
v 0.543314 0.350319 1.185625
v 0.520247 0.369698 1.186251
v 0.540749 0.367581 1.186244
v 0.414937 0.384591 1.166249
v 0.859042 0.394454 1.018329
v 0.864137 0.392175 1.011580
v 0.861803 0.399660 1.015352
v 0.869516 0.390083 1.004606
v 0.875130 0.388126 0.997422
v 0.873223 0.399968 1.001523
v 0.871571 0.395396 1.002768
v 0.883145 0.397820 0.989117
v 0.886993 0.386737 0.982705
v 0.878069 0.398508 0.995396
v 0.880963 0.386996 0.990090
v 0.882200 0.392723 0.989380
v 0.877307 0.374033 0.993414
v 0.870529 0.375517 1.002038
v 0.871499 0.359964 0.999934
v 0.879551 0.358686 0.989813
v 0.874699 0.367089 0.996266
v 0.884306 0.373290 0.984671
v 0.879367 0.380713 0.991385
v 0.887779 0.358178 0.979546
v 0.896168 0.358541 0.969262
v 0.891470 0.373411 0.975918
v 0.889895 0.365919 0.977311
v 0.904592 0.360100 0.959125
v 0.901169 0.342288 0.962834
v 0.910774 0.344372 0.951068
v 0.903149 0.351288 0.960506
v 0.895427 0.323948 0.970410
v 0.906353 0.324921 0.956859
v 0.891507 0.341653 0.974735
v 0.898613 0.333145 0.966124
v 0.881887 0.342132 0.986609
v 0.885124 0.350227 0.982648
v 0.863634 0.361839 1.009837
v 0.863159 0.345423 1.009593
v 0.872422 0.343428 0.998248
v 0.867665 0.352725 1.004386
v 0.862655 0.328042 1.009748
v 0.854086 0.347881 1.020621
v 0.852035 0.330829 1.022072
v 0.857960 0.338112 1.015510
v 0.855987 0.364135 1.019505
v 0.848570 0.366779 1.028905
v 0.845206 0.350795 1.031305
v 0.850972 0.357431 1.025090
v 0.863975 0.377467 1.010484
v 0.857678 0.379747 1.018710
v 0.860309 0.370829 1.014616
v 0.867015 0.383993 1.007151
v 0.849317 0.398611 1.031626
v 0.854115 0.396664 1.024994
v 0.845762 0.384847 1.034577
v 0.840113 0.387665 1.042216
v 0.845138 0.393307 1.036533
v 0.834390 0.389931 1.049920
v 0.827325 0.375625 1.055601
v 0.834307 0.372754 1.046905
v 0.834150 0.381676 1.048637
v 0.820280 0.378221 1.064173
v 0.828522 0.391600 1.057673
v 0.822397 0.393168 1.065376
v 0.813030 0.380660 1.072568
v 0.821262 0.386066 1.064930
v 0.834768 0.397151 1.050946
v 0.819570 0.360871 1.061217
v 0.811135 0.364156 1.070596
v 0.819674 0.369796 1.062952
v 0.851623 0.382254 1.026734
v 0.841353 0.369687 1.038040
v 0.846860 0.375942 1.032061
v 0.828000 0.357475 1.051563
v 0.836517 0.354053 1.041617
v 0.835077 0.363536 1.044570
v 0.825879 0.321053 1.049192
v 0.831335 0.337845 1.045290
v 0.821264 0.341740 1.056201
v 0.814118 0.325618 1.061004
v 0.823193 0.331585 1.052932
v 0.811298 0.345681 1.066706
v 0.820069 0.351508 1.058966
v 0.841583 0.334153 1.033925
v 0.838654 0.344266 1.038068
v 0.855673 0.388532 1.022131
v 0.291757 0.262452 1.201942
v 0.326980 0.239432 1.199328
v 0.282863 0.280951 1.197644
v 0.272801 0.291854 1.200737
v 0.620756 0.197267 1.162907
v 0.681776 0.213223 1.139962
v 0.660017 0.225935 1.148222
v 0.641021 0.211435 1.155561
v 0.661622 0.212084 1.148144
v 0.720420 0.217077 1.121619
v 0.698732 0.229155 1.131736
v 0.701409 0.214896 1.131091
v 0.619491 0.224668 1.161750
v 0.598875 0.211672 1.167867
v 0.620072 0.211289 1.162146
v 0.577152 0.199037 1.173860
v 0.533454 0.202847 1.181391
v 0.510139 0.192195 1.186045
v 0.532116 0.189256 1.183260
v 0.556101 0.214082 1.176734
v 0.535910 0.229001 1.178725
v 0.513479 0.218858 1.182276
v 0.534710 0.216128 1.179905
v 0.577886 0.225618 1.171944
v 0.577520 0.212598 1.172730
v 0.809710 0.221807 1.064781
v 0.788692 0.231388 1.079244
v 0.768240 0.241340 1.092604
v 0.756249 0.223026 1.101166
v 0.772933 0.226904 1.090338
v 0.817119 0.242125 1.056755
v 0.797903 0.250597 1.071374
v 0.803446 0.236476 1.068010
v 0.836648 0.234364 1.040989
v 0.823411 0.261826 1.050231
v 0.841107 0.255111 1.034657
v 0.829688 0.248329 1.045579
v 0.844451 0.275242 1.030167
v 0.858804 0.249498 1.018247
v 0.860310 0.270614 1.014426
v 0.851295 0.262571 1.024240
v 0.800742 0.398160 1.088055
v 0.808827 0.396098 1.080370
v 0.308871 0.299426 1.178368
v 0.326813 0.304198 1.172622
v 0.313324 0.308818 1.173938
v 0.338647 0.287790 1.176537
v 0.360163 0.291098 1.174991
v 0.347235 0.307404 1.171028
v 0.342604 0.298235 1.173147
v 0.392750 0.251021 1.185396
v 0.375816 0.271651 1.180236
v 0.354541 0.266886 1.182681
v 0.371432 0.245418 1.188710
v 0.373539 0.258673 1.184111
v 0.409942 0.230730 1.189550
v 0.431834 0.237585 1.186201
v 0.414471 0.256990 1.183115
v 0.412172 0.243964 1.186106
v 0.397734 0.276091 1.179160
v 0.436553 0.262842 1.181346
v 0.419775 0.280570 1.178485
v 0.417035 0.269226 1.180560
v 0.382068 0.294187 1.174803
v 0.378596 0.283642 1.177105
v 0.389309 0.312983 1.171708
v 0.368212 0.310125 1.171067
v 0.403783 0.297645 1.175088
v 0.385662 0.303929 1.173039
v 0.441502 0.285072 1.178236
v 0.425151 0.301020 1.175867
v 0.422503 0.291146 1.176936
v 0.476164 0.252041 1.181478
v 0.458514 0.268668 1.180120
v 0.453999 0.244791 1.183543
v 0.456259 0.257080 1.181632
v 0.472016 0.226797 1.185031
v 0.490654 0.209215 1.185872
v 0.494447 0.235346 1.182232
v 0.492579 0.222437 1.183897
v 0.467641 0.200292 1.189998
v 0.449517 0.218586 1.188442
v 0.427144 0.211203 1.192726
v 0.447154 0.205354 1.191520
v 0.451770 0.231855 1.185807
v 0.486467 0.182506 1.191173
v 0.488641 0.195894 1.188210
v 0.497997 0.259494 1.179894
v 0.516563 0.244111 1.179737
v 0.496261 0.247711 1.180883
v 0.557682 0.239345 1.175080
v 0.538190 0.253123 1.177265
v 0.537074 0.241345 1.177832
v 0.519362 0.267212 1.178578
v 0.480054 0.274840 1.179461
v 0.499618 0.270713 1.179325
v 0.559213 0.262413 1.174668
v 0.540248 0.275213 1.177213
v 0.539250 0.264393 1.177071
v 0.460686 0.279614 1.179081
v 0.376839 0.326350 1.168820
v 0.410072 0.315875 1.173044
v 0.393071 0.321402 1.170745
v 0.356751 0.323531 1.168454
v 0.361750 0.330635 1.167667
v 0.351971 0.315814 1.169528
v 0.427750 0.310180 1.175232
v 0.407510 0.217822 1.193515
v 0.349720 0.241025 1.193516
v 0.333636 0.262378 1.187603
v 0.311910 0.260077 1.193454
v 0.330545 0.250363 1.193335
v 0.319255 0.282691 1.182082
v 0.299909 0.279372 1.188760
v 0.304487 0.289375 1.183399
v 0.336126 0.275196 1.181820
v 0.295485 0.270174 1.194777
v 0.930546 0.375057 0.930934
v 0.940702 0.359882 0.916540
v 0.939785 0.335429 0.915317
v 0.930344 0.352717 0.927856
v 0.940434 0.347616 0.915313
v 0.920454 0.347749 0.939395
v 0.921585 0.368126 0.939912
v 0.913005 0.363261 0.949347
v 0.921226 0.357969 0.939156
v 0.913461 0.381580 0.951349
v 0.921542 0.378211 0.941657
v 0.734996 0.234274 1.112978
v 0.738722 0.219756 1.111623
v 0.748410 0.251410 1.104956
v 0.729129 0.261254 1.116397
v 0.714477 0.245212 1.123857
v 0.731813 0.248127 1.114583
v 0.779082 0.259331 1.084972
v 0.760732 0.268199 1.097627
v 0.764195 0.255130 1.095049
v 0.788855 0.276654 1.078240
v 0.797925 0.293319 1.072031
v 0.782868 0.300073 1.084417
v 0.772112 0.284431 1.090876
v 0.785479 0.288659 1.081448
v 0.813195 0.286908 1.058935
v 0.819776 0.304234 1.053794
v 0.806281 0.309699 1.066335
v 0.809336 0.298555 1.062804
v 0.779722 0.321499 1.089662
v 0.767948 0.307098 1.096151
v 0.792955 0.315519 1.078276
v 0.780969 0.311000 1.087153
v 0.790778 0.335882 1.083331
v 0.779045 0.341276 1.093870
v 0.766351 0.327805 1.100610
v 0.779092 0.331587 1.091917
v 0.780502 0.359402 1.096692
v 0.766931 0.346849 1.104067
v 0.791118 0.354507 1.086927
v 0.779538 0.350569 1.095472
v 0.805393 0.383109 1.080811
v 0.793415 0.371360 1.088845
v 0.802519 0.367514 1.079770
v 0.803792 0.375613 1.080527
v 0.783591 0.375543 1.097834
v 0.769252 0.364217 1.106222
v 0.781857 0.367741 1.097492
v 0.757349 0.368697 1.115760
v 0.741145 0.356963 1.123867
v 0.754259 0.352213 1.114095
v 0.755615 0.360724 1.115096
v 0.727410 0.361328 1.133298
v 0.710042 0.349620 1.140459
v 0.724787 0.344662 1.131138
v 0.725953 0.353245 1.132350
v 0.744611 0.372531 1.125174
v 0.730785 0.375922 1.134273
v 0.712760 0.365232 1.142242
v 0.729041 0.368921 1.133928
v 0.773029 0.379522 1.106795
v 0.761472 0.383047 1.115982
v 0.759323 0.376157 1.116042
v 0.738977 0.339499 1.121335
v 0.752744 0.333933 1.111167
v 0.753298 0.343260 1.112775
v 0.787780 0.389333 1.097311
v 0.797106 0.386060 1.088883
v 0.785631 0.382763 1.097712
v 0.815891 0.394510 1.072950
v 0.807175 0.389936 1.080672
v 0.801322 0.349826 1.076896
v 0.801666 0.358895 1.078553
v 0.802437 0.330561 1.072365
v 0.801567 0.340373 1.074822
v 0.753115 0.314014 1.107274
v 0.739417 0.299789 1.113837
v 0.755677 0.292332 1.102695
v 0.754100 0.303420 1.105063
v 0.723272 0.306769 1.124349
v 0.707793 0.292825 1.130620
v 0.725170 0.285222 1.120371
v 0.723935 0.296247 1.122393
v 0.673693 0.287206 1.145759
v 0.691807 0.278941 1.136783
v 0.690707 0.300107 1.140146
v 0.691029 0.289739 1.138429
v 0.637451 0.283729 1.158599
v 0.656092 0.274448 1.151208
v 0.655877 0.295555 1.153969
v 0.655816 0.285196 1.152496
v 0.619079 0.293032 1.165288
v 0.638092 0.303880 1.161514
v 0.620099 0.312021 1.168335
v 0.600676 0.302031 1.171242
v 0.619566 0.302717 1.166791
v 0.673742 0.307435 1.148997
v 0.656707 0.314895 1.157205
v 0.656195 0.305442 1.155555
v 0.599563 0.282268 1.168680
v 0.618499 0.272112 1.163031
v 0.618683 0.282765 1.164013
v 0.694558 0.255566 1.133871
v 0.710303 0.270469 1.126999
v 0.675107 0.265196 1.142995
v 0.693010 0.267637 1.135252
v 0.637786 0.261873 1.156589
v 0.657542 0.251484 1.149253
v 0.656678 0.263252 1.150128
v 0.707266 0.313258 1.134273
v 0.691144 0.319657 1.143577
v 0.690784 0.310067 1.141869
v 0.708158 0.332156 1.137671
v 0.692529 0.337722 1.146778
v 0.674820 0.326103 1.152330
v 0.691725 0.328875 1.145243
v 0.723344 0.326446 1.128021
v 0.723912 0.335716 1.129679
v 0.738257 0.320508 1.117867
v 0.723113 0.316810 1.126232
v 0.742804 0.277043 1.109382
v 0.726918 0.273629 1.118344
v 0.757887 0.280610 1.100203
v 0.752673 0.324206 1.109316
v 0.803988 0.320359 1.069535
v 0.847326 0.294465 1.026674
v 0.833465 0.299077 1.040591
v 0.828716 0.280833 1.045016
v 0.838502 0.287440 1.035646
v 0.837798 0.316767 1.036856
v 0.849897 0.312896 1.023935
v 0.845334 0.323701 1.029203
v 0.862131 0.309666 1.010411
v 0.861293 0.290698 1.012018
v 0.855201 0.301866 1.018214
v 0.874504 0.307179 0.996354
v 0.873462 0.325793 0.996995
v 0.868186 0.317683 1.003338
v 0.884424 0.324340 0.983848
v 0.878013 0.333967 0.991404
v 0.886939 0.305656 0.981821
v 0.899407 0.305204 0.966774
v 0.891548 0.314773 0.975658
v 0.917903 0.285277 0.946449
v 0.911912 0.305949 0.951305
v 0.903673 0.284791 0.963821
v 0.908170 0.295360 0.957023
v 0.889513 0.285661 0.980604
v 0.876196 0.266859 0.997927
v 0.875365 0.287750 0.996671
v 0.868304 0.279049 1.005219
v 0.881560 0.296640 0.988846
v 0.932187 0.287061 0.928464
v 0.917371 0.327008 0.943128
v 0.924483 0.307858 0.935450
v 0.914948 0.316524 0.946666
v 0.937131 0.311202 0.919225
v 0.934992 0.299123 0.923178
v 0.829306 0.310209 1.045058
v 0.805963 0.269094 1.064722
v 0.817889 0.274694 1.054730
v 0.793014 0.263999 1.074836
v 0.598754 0.237435 1.166982
v 0.578687 0.249931 1.171269
v 0.578273 0.238060 1.171462
v 0.618704 0.249519 1.161859
v 0.598933 0.260833 1.167260
v 0.618517 0.261069 1.162316
v 0.639029 0.237953 1.155529
v 0.619031 0.237401 1.161667
v 0.579629 0.272072 1.171820
v 0.579136 0.261253 1.171389
v 0.677831 0.240667 1.140965
v 0.658658 0.239065 1.148609
v 0.696459 0.242723 1.132682
v 0.560684 0.283588 1.175596
v 0.541989 0.295525 1.178424
v 0.541163 0.285598 1.177677
v 0.562089 0.303135 1.177583
v 0.542708 0.304977 1.179384
v 0.580814 0.292447 1.173620
v 0.582120 0.311347 1.176219
v 0.581483 0.302103 1.174869
v 0.580184 0.282441 1.172571
v 0.601797 0.320076 1.174158
v 0.583163 0.328332 1.178898
v 0.582677 0.320100 1.177580
v 0.621375 0.329338 1.171316
v 0.640890 0.338725 1.167627
v 0.622831 0.344641 1.173878
v 0.602982 0.336265 1.176844
v 0.622113 0.337294 1.172665
v 0.658207 0.332506 1.160403
v 0.676675 0.343115 1.155257
v 0.660237 0.348254 1.163015
v 0.659170 0.340666 1.161796
v 0.662348 0.361458 1.164913
v 0.642660 0.353005 1.169930
v 0.679081 0.358027 1.157367
v 0.661310 0.355220 1.164030
v 0.644062 0.364177 1.171829
v 0.681477 0.370174 1.158723
v 0.663283 0.366843 1.165687
v 0.699886 0.379072 1.151454
v 0.717681 0.387425 1.143225
v 0.734737 0.395008 1.133747
v 0.733901 0.387482 1.134355
v 0.750995 0.395609 1.124717
v 0.734607 0.391701 1.134242
v 0.766507 0.402581 1.114147
v 0.780093 0.402083 1.104998
v 0.765449 0.394598 1.115228
v 0.766350 0.399019 1.114813
v 0.777417 0.392286 1.106078
v 0.748612 0.385845 1.125214
v 0.763674 0.389235 1.115655
v 0.715829 0.378179 1.143051
v 0.732525 0.382174 1.134377
v 0.791310 0.400407 1.096273
v 0.789787 0.395209 1.096811
v 0.697522 0.368241 1.150694
v 0.698844 0.374129 1.151151
v 0.623907 0.356963 1.175997
v 0.623447 0.351194 1.174970
v 0.624119 0.361952 1.176955
v 0.694843 0.354136 1.149220
v 0.696169 0.361536 1.150063
v 0.693588 0.346185 1.148112
v 0.639318 0.322167 1.164716
v 0.657397 0.323899 1.158851
v 0.620695 0.320904 1.169854
v 0.583550 0.336000 1.180125
v 0.928487 0.330356 0.929252
v 0.938705 0.323297 0.916611
v 0.919191 0.337426 0.940707
v 0.906046 0.377133 0.959050
v 0.898722 0.374571 0.967320
v 0.905543 0.368706 0.958661
v 0.893154 0.387532 0.975447
v 0.899451 0.389599 0.968543
v 0.893515 0.393856 0.976071
v 0.905940 0.393323 0.962208
v 0.906128 0.385368 0.960270
v 0.892527 0.380640 0.975334
vn -0.2208 0.9040 0.3661
vn -0.1600 0.7953 0.5847
vn -0.2546 0.7513 0.6089
vn -0.3083 0.8560 0.4150
vn 0.0048 0.8708 0.4915
vn 0.3674 0.2738 0.8889
vn 0.1962 0.5942 0.7800
vn 0.4389 0.0551 0.8968
vn 0.3163 -0.0363 0.9480
vn 0.3897 -0.0072 0.9209
vn 0.4378 -0.0139 0.8990
vn 0.3718 0.0161 0.9282
vn 0.1460 -0.0204 0.9891
vn 0.0340 0.0483 0.9983
vn 0.0340 0.0218 0.9992
vn 0.0346 0.0219 0.9992
vn 0.0371 0.0223 0.9991
vn 0.0996 -0.0099 0.9950
vn 0.0466 0.0848 0.9953
vn 0.1928 0.0010 0.9812
vn 0.2460 0.0832 0.9657
vn 0.0873 0.1494 0.9849
vn 0.1427 0.1019 0.9845
vn 0.1342 0.3969 0.9080
vn 0.3026 0.1320 0.9439
vn 0.2425 0.0016 0.9702
vn 0.4038 0.1156 0.9075
vn 0.4033 0.1841 0.8964
vn 0.4148 0.2388 0.8780
vn 0.4802 0.3036 0.8229
vn -0.0289 0.4976 0.8669
vn 0.0375 0.1966 0.9798
vn -0.0374 0.2740 0.9610
vn -0.1549 0.5383 0.8284
vn 0.0151 0.0518 0.9985
vn -0.0115 0.1090 0.9940
vn -0.0162 0.0401 0.9991
vn -0.0094 0.0450 0.9989
vn -0.0177 0.0390 0.9991
vn -0.0716 0.0536 0.9960
vn -0.0840 0.0414 0.9956
vn -0.0324 0.0488 0.9983
vn -0.1337 0.0645 0.9889
vn -0.1675 0.0466 0.9848
vn -0.1875 0.0272 0.9819
vn -0.1499 0.0452 0.9877
vn -0.1581 -0.0204 0.9872
vn -0.1752 -0.0342 0.9839
vn -0.1910 -0.0031 0.9816
vn -0.1731 0.0144 0.9848
vn -0.1523 0.0352 0.9877
vn -0.1295 0.0574 0.9899
vn -0.1162 0.0180 0.9931
vn -0.1383 -0.0024 0.9904
vn -0.1002 0.1060 0.9893
vn -0.1245 0.0894 0.9882
vn -0.1460 0.0679 0.9870
vn -0.1169 0.0854 0.9895
vn -0.0574 0.0884 0.9944
vn -0.1006 0.0415 0.9941
vn -0.1257 0.0701 0.9896
vn -0.0980 0.1720 0.9802
vn -0.2053 0.0098 0.9787
vn -0.2232 -0.0111 0.9747
vn -0.1834 0.0224 0.9828
vn -0.1656 0.0291 0.9858
vn -0.0022 0.0584 0.9983
vn -0.0030 0.0567 0.9984
vn -0.0070 0.0479 0.9988
vn -0.0516 0.0925 0.9944
vn -0.0608 0.0721 0.9955
vn 0.0616 0.0330 0.9976
vn 0.0616 0.0331 0.9976
vn 0.0367 0.0240 0.9990
vn 0.0322 0.0305 0.9990
vn 0.0311 0.0324 0.9990
vn 0.0336 0.0853 0.9958
vn -0.2831 0.7100 0.6448
vn -0.1773 0.4729 0.8631
vn -0.2352 0.5995 0.7651
vn -0.0559 0.2094 0.9762
vn -0.1145 0.3380 0.9341
vn 0.0698 0.0403 0.9967
vn -0.2487 -0.0254 0.9682
vn -0.2468 0.1602 0.9557
vn -0.2538 0.2955 0.9210
vn -0.2591 0.0802 0.9625
vn -0.1241 -0.1061 0.9866
vn -0.1241 -0.1064 0.9866
vn -0.1111 -0.0013 0.9938
vn -0.1909 0.0588 0.9798
vn -0.1993 -0.0959 0.9752
vn -0.1283 -0.1162 0.9849
vn -0.1286 -0.1234 0.9840
vn -0.1288 -0.1180 0.9846
vn -0.1245 -0.1064 0.9865
vn -0.1285 -0.1242 0.9839
vn -0.1907 -0.1260 0.9735
vn -0.1795 -0.1154 0.9770
vn -0.1155 -0.0967 0.9886
vn -0.1233 -0.1046 0.9868
vn -0.1667 -0.0911 0.9818
vn -0.1535 -0.0720 0.9855
vn -0.1045 -0.0910 0.9904
vn -0.1142 -0.0959 0.9888
vn -0.1903 -0.0459 0.9807
vn -0.2068 -0.0699 0.9759
vn -0.2229 -0.0429 0.9739
vn -0.2065 -0.0182 0.9783
vn -0.2395 -0.0656 0.9687
vn -0.2228 -0.0963 0.9701
vn -0.2360 -0.0914 0.9674
vn -0.2521 -0.0391 0.9669
vn -0.2089 0.0455 0.9769
vn -0.2435 -0.0205 0.9697
vn -0.2655 0.0311 0.9636
vn -0.2443 0.1342 0.9604
vn -0.3031 0.7139 0.6313
vn -0.2625 0.5825 0.7693
vn -0.2616 0.4347 0.8617
vn -0.2980 0.6011 0.7416
vn -0.2805 0.2938 0.9138
vn -0.2812 0.1813 0.9424
vn -0.2730 0.4053 0.8725
vn -0.2986 0.4914 0.8181
vn -0.2101 0.4382 0.8740
vn -0.1522 0.2944 0.9435
vn -0.1639 0.1452 0.9757
vn -0.2129 0.2735 0.9380
vn -0.0925 -0.0805 0.9925
vn -0.1041 -0.0903 0.9905
vn -0.1412 -0.0641 0.9879
vn -0.1275 -0.0533 0.9904
vn -0.0661 -0.0460 0.9968
vn -0.0799 -0.0662 0.9946
vn -0.1120 -0.0378 0.9930
vn -0.0945 -0.0180 0.9954
vn -0.0228 -0.0398 0.9989
vn -0.0086 -0.0083 0.9999
vn 0.0216 -0.0268 0.9994
vn 0.0096 -0.0573 0.9983
vn -0.0508 -0.0189 0.9985
vn -0.0745 0.0084 0.9972
vn -0.0526 0.0404 0.9978
vn -0.0333 0.0136 0.9994
vn -0.0009 -0.0833 0.9965
vn -0.0099 -0.1033 0.9946
vn -0.0456 -0.0875 0.9951
vn -0.0351 -0.0667 0.9972
vn -0.0635 -0.1116 0.9917
vn -0.0552 -0.1015 0.9933
vn -0.0631 -0.1108 0.9918
vn -0.0706 -0.1156 0.9908
vn -0.0547 -0.1014 0.9933
vn -0.0177 -0.1175 0.9929
vn -0.0176 -0.1171 0.9930
vn -0.0240 -0.1264 0.9917
vn -0.0248 -0.1266 0.9916
vn -0.0297 -0.1295 0.9911
vn 0.0173 -0.1396 0.9901
vn 0.0132 -0.1409 0.9899
vn 0.0092 -0.1352 0.9908
vn 0.0127 -0.1403 0.9900
vn 0.0641 -0.1504 0.9865
vn 0.0642 -0.1504 0.9865
vn 0.0592 -0.1454 0.9876
vn 0.0623 -0.1503 0.9867
vn 0.0557 -0.1325 0.9896
vn 0.0589 -0.1447 0.9877
vn 0.0091 -0.1350 0.9908
vn 0.0735 -0.1386 0.9876
vn 0.0683 -0.1474 0.9867
vn 0.0681 -0.1475 0.9867
vn 0.0749 -0.1325 0.9884
vn 0.0179 -0.1393 0.9901
vn 0.0235 -0.1318 0.9910
vn 0.0234 -0.1314 0.9911
vn -0.0766 -0.1151 0.9904
vn -0.0714 -0.1156 0.9907
vn -0.0337 -0.1253 0.9916
vn -0.0303 -0.1295 0.9911
vn -0.0360 -0.1137 0.9929
vn -0.0339 -0.1239 0.9917
vn -0.0798 -0.1118 0.9905
vn -0.0775 -0.1149 0.9903
vn -0.0367 -0.0961 0.9947
vn -0.0788 -0.1048 0.9914
vn -0.0799 -0.1107 0.9906
vn -0.0790 -0.1053 0.9913
vn -0.0362 -0.1130 0.9929
vn -0.0331 -0.0646 0.9974
vn -0.0236 0.0036 0.9997
vn -0.0583 -0.0124 0.9982
vn -0.0727 -0.0843 0.9938
vn 0.0465 -0.0869 0.9951
vn 0.0425 -0.0245 0.9988
vn 0.0078 0.0013 1.0000
vn 0.0040 -0.0659 0.9978
vn 0.0917 -0.1232 0.9881
vn 0.1533 -0.1659 0.9742
vn 0.1490 -0.1629 0.9753
vn 0.1451 -0.1594 0.9765
vn 0.1356 -0.1064 0.9850
vn 0.0809 -0.0683 0.9944
vn 0.1641 -0.1661 0.9724
vn 0.1590 -0.1646 0.9734
vn 0.1562 -0.1659 0.9737
vn 0.1618 -0.1659 0.9728
vn 0.1045 -0.1433 0.9841
vn 0.1010 -0.1392 0.9851
vn 0.1076 -0.1473 0.9832
vn 0.1101 -0.1512 0.9824
vn 0.1119 -0.1551 0.9815
vn 0.0062 -0.1210 0.9926
vn 0.0557 -0.1322 0.9897
vn 0.0514 -0.1154 0.9920
vn 0.0041 -0.1010 0.9949
vn 0.0157 0.1174 0.9930
vn 0.0404 0.0823 0.9958
vn -0.2355 0.6403 0.7312
vn 0.7780 -0.0693 0.6244
vn 0.7864 -0.0623 0.6145
vn 0.7857 -0.0620 0.6155
vn 0.7849 -0.0593 0.6168
vn 0.7761 -0.0732 0.6264
vn 0.7703 -0.0944 0.6307
vn 0.7708 -0.0792 0.6321
vn 0.7670 -0.1004 0.6338
vn 0.7702 -0.0969 0.6304
vn 0.7798 -0.0220 0.6257
vn 0.7808 -0.0332 0.6239
vn 0.7817 -0.0421 0.6222
vn 0.7799 -0.0298 0.6252
vn 0.7818 -0.0444 0.6219
vn 0.7819 -0.0538 0.6211
vn 0.7809 -0.0255 0.6241
vn 0.7824 -0.0362 0.6218
vn 0.7839 -0.0447 0.6193
vn 0.7802 -0.0281 0.6249
vn 0.7800 -0.0232 0.6254
vn 0.7785 -0.0575 0.6250
vn 0.7785 -0.0561 0.6251
vn 0.7781 -0.0457 0.6264
vn 0.7778 -0.0435 0.6270
vn 0.7768 -0.0356 0.6287
vn 0.7746 -0.0600 0.6296
vn 0.7745 -0.0585 0.6298
vn 0.7735 -0.0500 0.6318
vn 0.7745 -0.0761 0.6279
vn 0.7731 -0.0478 0.6324
vn 0.7724 -0.0408 0.6339
vn 0.7767 -0.0336 0.6290
vn 0.7752 -0.0245 0.6312
vn 0.7751 -0.0226 0.6314
vn 0.7745 -0.0127 0.6324
vn 0.7721 -0.0388 0.6343
vn 0.7711 -0.0314 0.6359
vn 0.7718 -0.0173 0.6356
vn 0.7709 -0.0236 0.6365
vn 0.7710 -0.0300 0.6361
vn 0.7709 -0.0224 0.6366
vn 0.7750 -0.0030 0.6320
vn 0.7746 -0.0111 0.6324
vn 0.7761 0.0058 0.6306
vn 0.7751 -0.0017 0.6319
vn 0.7770 0.0051 0.6295
vn 0.7759 0.0209 0.6305
vn 0.7769 0.0305 0.6289
vn 0.7765 0.0176 0.6298
vn 0.7764 0.0343 0.6293
vn 0.7777 0.0440 0.6270
vn 0.7763 0.0050 0.6303
vn 0.7769 0.0157 0.6294
vn 0.7778 0.0258 0.6279
vn 0.7768 0.0147 0.6296
vn 0.7773 -0.0070 0.6291
vn 0.7766 0.0037 0.6300
vn 0.7771 0.0043 0.6294
vn 0.7776 -0.0086 0.6288
vn 0.7794 -0.0183 0.6263
vn 0.7787 -0.0110 0.6273
vn 0.7796 -0.0313 0.6254
vn 0.7781 -0.0206 0.6278
vn 0.7801 -0.0327 0.6247
vn 0.7825 -0.0417 0.6212
vn 0.7752 -0.0318 0.6309
vn 0.7685 -0.0334 0.6390
vn 0.7748 -0.0320 0.6313
vn 0.7729 -0.0179 0.6342
vn 0.7657 -0.0169 0.6430
vn 0.7726 -0.0181 0.6347
vn 0.7555 -0.0168 0.6549
vn 0.7655 -0.0165 0.6433
vn 0.7681 -0.0334 0.6394
vn 0.7576 -0.0357 0.6517
vn 0.7781 -0.0436 0.6266
vn 0.7722 -0.0466 0.6337
vn 0.7716 -0.0467 0.6344
vn 0.7822 -0.0534 0.6208
vn 0.7864 -0.0555 0.6152
vn 0.7805 -0.0660 0.6217
vn 0.7758 -0.0577 0.6284
vn 0.7651 -0.0648 0.6407
vn 0.7609 -0.0526 0.6468
vn 0.7786 -0.0432 0.6261
vn 0.7834 -0.0534 0.6192
vn 0.7863 -0.0513 0.6157
vn 0.7866 -0.0556 0.6150
vn 0.7802 -0.0671 0.6220
vn 0.7796 -0.0607 0.6233
vn 0.7818 -0.0564 0.6210
vn 0.7849 -0.0890 0.6132
vn 0.7935 -0.0756 0.6038
vn 0.7937 -0.0612 0.6052
vn 0.8023 -0.0748 0.5922
vn 0.7945 -0.0760 0.6025
vn 0.7714 -0.1028 0.6280
vn 0.7820 -0.1106 0.6134
vn 0.7654 -0.1274 0.6309
vn 0.7550 -0.1177 0.6451
vn 0.7225 -0.1604 0.6725
vn 0.7174 -0.1560 0.6790
vn 0.7242 -0.1615 0.6704
vn 0.7286 -0.1640 0.6650
vn 0.7509 -0.1502 0.6431
vn 0.7519 -0.1505 0.6419
vn 0.7570 -0.1531 0.6352
vn 0.7301 -0.1641 0.6634
vn 0.7336 -0.1617 0.6601
vn 0.7756 -0.1361 0.6163
vn 0.7767 -0.1362 0.6150
vn 0.7828 -0.1372 0.6069
vn 0.7097 -0.1455 0.6893
vn 0.7345 -0.1327 0.6655
vn 0.7431 -0.1425 0.6539
vn 0.7166 -0.1554 0.6800
vn 0.7706 -0.0754 0.6328
vn 0.7712 -0.0762 0.6320
vn 0.7764 -0.0827 0.6247
vn 0.7912 -0.0603 0.6086
vn 0.7865 -0.0724 0.6134
vn 0.7771 -0.0835 0.6238
vn 0.7462 -0.1077 0.6570
vn 0.7393 -0.0968 0.6664
vn 0.7565 -0.0856 0.6484
vn 0.7630 -0.0951 0.6393
vn 0.6918 -0.0757 0.7181
vn 0.7125 -0.0692 0.6983
vn 0.7160 -0.0887 0.6925
vn 0.6951 -0.0958 0.7125
vn 0.7202 -0.1062 0.6855
vn 0.7263 -0.1208 0.6767
vn 0.7039 -0.1310 0.6981
vn 0.6991 -0.1139 0.7059
vn 0.7510 -0.0740 0.6562
vn 0.7344 -0.0821 0.6738
vn 0.7308 -0.0634 0.6796
vn 0.7469 -0.0583 0.6623
vn 0.7882 -0.0605 0.6124
vn 0.7875 -0.0563 0.6137
vn 0.7931 -0.0604 0.6061
vn 0.5845 0.3729 0.7207
vn 0.3729 0.0358 0.9272
vn 0.3360 0.0361 0.9412
vn 0.4076 0.0373 0.9124
vn 0.4405 0.0397 0.8969
vn 0.2625 0.0672 0.9626
vn 0.2999 0.0646 0.9518
vn 0.2978 0.0385 0.9538
vn 0.2593 0.0427 0.9648
vn 0.1379 0.1274 0.9822
vn 0.1574 0.0903 0.9834
vn 0.1495 0.0707 0.9862
vn 0.1172 0.0871 0.9893
vn 0.1277 0.1048 0.9863
vn 0.2260 0.0722 0.9714
vn 0.2218 0.0492 0.9738
vn 0.1849 0.0582 0.9810
vn 0.1905 0.0796 0.9785
vn 0.5622 0.0470 0.8256
vn 0.5332 0.0458 0.8448
vn 0.5905 0.0835 0.8027
vn 0.6186 0.0830 0.7813
vn 0.6178 0.0468 0.7849
vn 0.5901 0.0472 0.8059
vn 0.6698 0.0463 0.7411
vn 0.6449 0.0466 0.7628
vn 0.6456 0.0823 0.7592
vn 0.6701 0.0812 0.7379
vn 0.7105 0.0462 0.7022
vn 0.6915 0.0459 0.7209
vn 0.6911 0.0788 0.7184
vn 0.7100 0.0760 0.7001
vn 0.1513 0.2315 0.9610
vn 0.2971 0.1869 0.9364
vn 0.3233 0.2669 0.9079
vn 0.2144 0.3095 0.9264
vn 0.0391 0.2340 0.9715
vn 0.1062 0.3026 0.9472
vn 0.0262 0.2783 0.9601
vn -0.0128 0.2265 0.9739
vn -0.0180 0.2248 0.9742
vn -0.0180 0.2249 0.9742
vn 0.0702 0.2964 0.9525
vn 0.0291 0.2650 0.9638
vn 0.0415 0.3033 0.9520
vn 0.0929 0.3363 0.9372
vn 0.0383 0.2320 0.9720
vn 0.0712 0.2576 0.9636
vn 0.0787 0.2234 0.9715
vn 0.0516 0.2017 0.9781
vn -0.0093 0.1934 0.9811
vn 0.0131 0.2137 0.9768
vn 0.0293 0.1862 0.9821
vn 0.0074 0.1661 0.9861
vn -0.0016 0.2592 0.9658
vn -0.0011 0.2408 0.9706
vn -0.0233 0.2230 0.9745
vn -0.0240 0.2144 0.9765
vn -0.0243 0.2146 0.9764
vn -0.0619 0.1587 0.9854
vn -0.0532 0.1718 0.9837
vn -0.0404 0.1913 0.9807
vn -0.0270 0.1946 0.9805
vn -0.0375 0.1978 0.9795
vn -0.0404 0.1912 0.9807
vn -0.0425 0.1861 0.9816
vn -0.0573 0.1345 0.9893
vn -0.0333 0.1649 0.9857
vn -0.0169 0.1365 0.9905
vn -0.0420 0.1045 0.9936
vn 0.0488 0.1329 0.9899
vn 0.0287 0.1116 0.9933
vn 0.0185 0.1388 0.9902
vn 0.0403 0.1590 0.9864
vn 0.0751 0.1268 0.9891
vn 0.0919 0.1446 0.9852
vn 0.1033 0.1234 0.9870
vn 0.0898 0.1063 0.9903
vn 0.1107 0.1926 0.9750
vn 0.1123 0.2218 0.9686
vn 0.0677 0.1494 0.9865
vn 0.0612 0.1743 0.9828
vn 0.0843 0.1938 0.9774
vn 0.0876 0.1678 0.9819
vn 0.1363 0.1824 0.9737
vn 0.1181 0.1452 0.9823
vn 0.1108 0.1672 0.9797
vn 0.1344 0.2063 0.9692
vn 0.0632 0.0661 0.9958
vn 0.0424 0.0872 0.9953
vn 0.0590 0.1095 0.9922
vn 0.0768 0.0889 0.9931
vn 0.0943 0.0465 0.9945
vn 0.1061 0.0694 0.9919
vn 0.1408 0.0519 0.9887
vn 0.1317 0.0292 0.9909
vn 0.0246 0.0569 0.9981
vn 0.0486 0.0356 0.9982
vn 0.0346 0.0044 0.9994
vn 0.0073 0.0245 0.9997
vn 0.1226 0.0001 0.9925
vn 0.1134 -0.0295 0.9931
vn 0.0703 -0.0133 0.9974
vn 0.0819 0.0166 0.9965
vn 0.0072 0.0813 0.9967
vn -0.0137 0.0480 0.9988
vn -0.0295 0.0748 0.9968
vn -0.0056 0.1084 0.9941
vn -0.0837 0.1264 0.9884
vn -0.0673 0.1503 0.9863
vn -0.0824 0.1355 0.9873
vn -0.1039 0.1112 0.9883
vn -0.0020 0.0759 0.9971
vn -0.0068 0.1007 0.9949
vn -0.0375 0.1391 0.9896
vn -0.0437 0.1150 0.9924
vn -0.0103 0.1327 0.9911
vn -0.0003 0.1769 0.9842
vn -0.0269 0.1937 0.9807
vn -0.0336 0.1635 0.9860
vn -0.1053 0.0805 0.9912
vn -0.0808 0.1063 0.9910
vn -0.0676 0.0722 0.9951
vn -0.0926 0.0425 0.9948
vn 0.1122 0.2550 0.9604
vn 0.2461 0.4272 0.8700
vn 0.1655 0.3770 0.9113
vn 0.2012 0.3878 0.8995
vn 0.2474 0.3642 0.8979
vn 0.2424 0.3511 0.9044
vn 0.3257 0.3026 0.8957
vn 0.3600 0.3336 0.8713
vn 0.0909 0.3438 0.9346
vn 0.1657 0.3659 0.9158
vn 0.1859 0.3781 0.9069
vn 0.1373 0.3677 0.9197
vn 0.3914 0.4471 0.8043
vn 0.2871 0.3913 0.8743
vn 0.4550 0.3795 0.8056
vn 0.5797 0.4383 0.6870
vn 0.7678 -0.0421 0.6393
vn 0.7706 -0.0412 0.6360
vn 0.7750 -0.0403 0.6307
vn 0.7699 -0.0414 0.6368
vn 0.7578 -0.0770 0.6480
vn 0.7605 -0.0797 0.6444
vn 0.7658 -0.0810 0.6379
vn 0.7595 -0.0792 0.6456
vn 0.7648 -0.0473 0.6426
vn 0.7657 -0.0440 0.6417
vn 0.7672 -0.0423 0.6400
vn 0.7654 -0.0445 0.6420
vn 0.7567 -0.0750 0.6495
vn 0.7573 -0.0765 0.6485
vn 0.7567 -0.0747 0.6495
vn 0.7460 -0.1138 0.6562
vn 0.7483 -0.1174 0.6528
vn 0.7455 -0.1128 0.6568
vn 0.7455 -0.1094 0.6575
vn 0.7456 -0.1084 0.6576
vn 0.7460 -0.1062 0.6574
vn 0.5031 0.0442 0.8631
vn 0.4722 0.0422 0.8805
vn 0.4725 0.0098 0.8813
vn 0.5029 0.0110 0.8643
vn 0.5023 -0.0210 0.8645
vn 0.4721 -0.0214 0.8813
vn 0.5318 -0.0207 0.8466
vn 0.5329 0.0117 0.8461
vn 0.5619 0.0122 0.8271
vn 0.5610 -0.0201 0.8276
vn 0.5882 -0.0456 0.8074
vn 0.6155 -0.0418 0.7870
vn 0.6157 -0.0671 0.7851
vn 0.5875 -0.0711 0.8061
vn 0.6423 -0.0620 0.7639
vn 0.6415 -0.0370 0.7662
vn 0.6662 -0.0320 0.7451
vn 0.6672 -0.0570 0.7427
vn 0.6177 -0.1146 0.7781
vn 0.5870 -0.1190 0.8008
vn 0.5871 -0.0959 0.8039
vn 0.6165 -0.0917 0.7820
vn 0.6192 -0.1355 0.7735
vn 0.6206 -0.1527 0.7691
vn 0.6206 -0.1534 0.7689
vn 0.6215 -0.1647 0.7659
vn 0.5873 -0.1561 0.7942
vn 0.5873 -0.1566 0.7941
vn 0.5882 -0.1677 0.7911
vn 0.5871 -0.1396 0.7974
vn 0.6230 -0.1728 0.7629
vn 0.6229 -0.1728 0.7630
vn 0.6225 -0.1722 0.7634
vn 0.6218 -0.1659 0.7654
vn 0.5901 -0.1744 0.7883
vn 0.5916 -0.1746 0.7871
vn 0.5899 -0.1739 0.7885
vn 0.5886 -0.1686 0.7906
vn 0.6885 -0.1657 0.7060
vn 0.6933 -0.1699 0.7004
vn 0.6964 -0.1705 0.6971
vn 0.6920 -0.1694 0.7017
vn 0.6973 -0.1697 0.6964
vn 0.6991 -0.1655 0.6956
vn 0.6577 -0.1727 0.7332
vn 0.6583 -0.1686 0.7336
vn 0.6587 -0.1614 0.7348
vn 0.6582 -0.1701 0.7334
vn 0.6562 -0.1707 0.7350
vn 0.6575 -0.1727 0.7334
vn 0.6257 -0.1674 0.7619
vn 0.6279 -0.1604 0.7615
vn 0.6252 -0.1689 0.7619
vn 0.6238 -0.1722 0.7624
vn 0.5964 -0.1726 0.7839
vn 0.6005 -0.1662 0.7821
vn 0.5954 -0.1736 0.7845
vn 0.5921 -0.1746 0.7867
vn 0.5724 -0.1825 0.7994
vn 0.5765 -0.1762 0.7979
vn 0.5713 -0.1832 0.8001
vn 0.5670 -0.1806 0.8037
vn 0.5465 -0.1899 0.8157
vn 0.5484 -0.1817 0.8162
vn 0.5460 -0.1906 0.8158
vn 0.5432 -0.1864 0.8186
vn 0.5427 -0.1856 0.8192
vn 0.5404 -0.1818 0.8216
vn 0.5662 -0.1801 0.8044
vn 0.5636 -0.1778 0.8067
vn 0.5123 -0.1856 0.8385
vn 0.5133 -0.1879 0.8374
vn 0.5136 -0.1904 0.8366
vn 0.5130 -0.1871 0.8377
vn 0.5136 -0.1895 0.8368
vn 0.5130 -0.1801 0.8393
vn 0.4790 -0.1860 0.8579
vn 0.4787 -0.1845 0.8584
vn 0.4783 -0.1772 0.8602
vn 0.4787 -0.1852 0.8582
vn 0.4790 -0.1874 0.8576
vn 0.4788 -0.1876 0.8576
vn 0.4784 -0.1756 0.8604
vn 0.4798 -0.1684 0.8611
vn 0.5131 -0.1776 0.8398
vn 0.5132 -0.1680 0.8417
vn 0.5134 -0.1650 0.8421
vn 0.5141 -0.1545 0.8437
vn 0.4803 -0.1660 0.8613
vn 0.4822 -0.1568 0.8619
vn 0.5775 -0.1742 0.7975
vn 0.5812 -0.1682 0.7962
vn 0.5822 -0.1662 0.7959
vn 0.5852 -0.1601 0.7949
vn 0.5490 -0.1794 0.8163
vn 0.5513 -0.1681 0.8172
vn 0.5527 -0.1591 0.8180
vn 0.5508 -0.1708 0.8170
vn 0.5634 -0.1771 0.8070
vn 0.5616 -0.1721 0.8093
vn 0.5402 -0.1810 0.8219
vn 0.5381 -0.1766 0.8242
vn 0.5378 -0.1753 0.8246
vn 0.5351 -0.1639 0.8287
vn 0.5616 -0.1710 0.8095
vn 0.5600 -0.1592 0.8131
vn 0.6333 -0.1519 0.7589
vn 0.6371 -0.1441 0.7572
vn 0.6319 -0.1540 0.7596
vn 0.6289 -0.1585 0.7611
vn 0.6078 -0.1593 0.7780
vn 0.6118 -0.1542 0.7758
vn 0.6063 -0.1608 0.7788
vn 0.6019 -0.1647 0.7814
vn 0.6995 -0.1646 0.6954
vn 0.6593 -0.1586 0.7350
vn 0.6614 -0.1489 0.7351
vn 0.6610 -0.1505 0.7351
vn 0.6835 -0.1545 0.7134
vn 0.6838 -0.1555 0.7129
vn 0.6876 -0.1640 0.7073
vn 0.6534 -0.1622 0.7394
vn 0.6557 -0.1697 0.7357
vn 0.6532 -0.1615 0.7398
vn 0.6472 -0.1301 0.7512
vn 0.6741 -0.1224 0.7284
vn 0.6787 -0.1394 0.7211
vn 0.6500 -0.1474 0.7455
vn 0.5586 -0.1215 0.8205
vn 0.5301 -0.1235 0.8389
vn 0.5301 -0.1018 0.8418
vn 0.5584 -0.0990 0.8236
vn 0.5021 -0.1270 0.8554
vn 0.4723 -0.1323 0.8715
vn 0.4703 -0.1061 0.8761
vn 0.5005 -0.1040 0.8594
vn 0.4015 -0.1354 0.9058
vn 0.4020 -0.1067 0.9094
vn 0.4374 -0.1073 0.8928
vn 0.4379 -0.1353 0.8888
vn 0.3213 -0.1336 0.9375
vn 0.3228 -0.1010 0.9410
vn 0.3626 -0.1048 0.9260
vn 0.3619 -0.1348 0.9224
vn 0.2338 -0.1568 0.9596
vn 0.2350 -0.1574 0.9592
vn 0.2315 -0.1694 0.9580
vn 0.2795 -0.1605 0.9466
vn 0.2787 -0.1752 0.9443
vn 0.2782 -0.1754 0.9444
vn 0.2750 -0.1846 0.9435
vn 0.2290 -0.1725 0.9580
vn 0.2287 -0.1756 0.9575
vn 0.3211 -0.1599 0.9334
vn 0.3619 -0.1598 0.9184
vn 0.3627 -0.1782 0.9147
vn 0.3211 -0.1788 0.9300
vn 0.3216 -0.1791 0.9298
vn 0.3208 -0.1921 0.9275
vn 0.2800 -0.1309 0.9510
vn 0.2370 -0.1261 0.9633
vn 0.2399 -0.0904 0.9666
vn 0.2820 -0.0959 0.9546
vn 0.4043 -0.0488 0.9133
vn 0.4390 -0.0501 0.8971
vn 0.4378 -0.0784 0.8956
vn 0.4029 -0.0773 0.9120
vn 0.3670 -0.0462 0.9291
vn 0.3646 -0.0746 0.9282
vn 0.3254 -0.0702 0.9430
vn 0.3282 -0.0422 0.9437
vn 0.4386 -0.1572 0.8848
vn 0.4398 -0.1732 0.8812
vn 0.4399 -0.1738 0.8811
vn 0.4412 -0.1853 0.8781
vn 0.4030 -0.1755 0.8982
vn 0.4030 -0.1761 0.8981
vn 0.4048 -0.1886 0.8948
vn 0.4019 -0.1588 0.9018
vn 0.4414 -0.1861 0.8778
vn 0.4425 -0.1905 0.8763
vn 0.4427 -0.1905 0.8762
vn 0.4445 -0.1895 0.8755
vn 0.4054 -0.1892 0.8944
vn 0.4074 -0.1944 0.8923
vn 0.4099 -0.1955 0.8909
vn 0.4075 -0.1938 0.8924
vn 0.5080 -0.1690 0.8446
vn 0.5104 -0.1807 0.8407
vn 0.5119 -0.1849 0.8389
vn 0.5099 -0.1799 0.8412
vn 0.4769 -0.1841 0.8595
vn 0.4782 -0.1881 0.8579
vn 0.4758 -0.1718 0.8626
vn 0.4770 -0.1830 0.8597
vn 0.4745 -0.1547 0.8665
vn 0.5054 -0.1503 0.8497
vn 0.5081 -0.1682 0.8447
vn 0.4759 -0.1712 0.8627
vn 0.5014 -0.0505 0.8638
vn 0.5007 -0.0788 0.8620
vn 0.4703 -0.0790 0.8790
vn 0.4712 -0.0505 0.8806
vn 0.5299 -0.0768 0.8446
vn 0.5303 -0.0498 0.8463
vn 0.5596 -0.0482 0.8274
vn 0.5585 -0.0740 0.8262
vn 0.5348 -0.1633 0.8291
vn 0.5316 -0.1448 0.8345
vn 0.5587 -0.1414 0.8172
vn 0.5596 -0.1587 0.8134
vn 0.6706 -0.1035 0.7345
vn 0.6451 -0.1095 0.7562
vn 0.6436 -0.0866 0.7605
vn 0.6685 -0.0816 0.7392
vn 0.7096 0.0218 0.7043
vn 0.7084 -0.0006 0.7058
vn 0.6884 -0.0033 0.7253
vn 0.6899 0.0198 0.7236
vn 0.7424 -0.0189 0.6697
vn 0.7441 -0.0388 0.6670
vn 0.7281 -0.0432 0.6841
vn 0.7265 -0.0218 0.6868
vn 0.7411 0.0241 0.6710
vn 0.7418 0.0017 0.6706
vn 0.7263 0.0008 0.6873
vn 0.7267 0.0237 0.6865
vn 0.7539 0.0022 0.6570
vn 0.7628 0.0010 0.6466
vn 0.7541 0.0009 0.6568
vn 0.7524 0.0227 0.6583
vn 0.7569 0.0215 0.6531
vn 0.7570 0.0215 0.6530
vn 0.7686 0.0169 0.6395
vn 0.7615 0.0194 0.6478
vn 0.7700 -0.0006 0.6381
vn 0.7632 0.0010 0.6462
vn 0.7689 0.0173 0.6392
vn 0.7740 0.0121 0.6331
vn 0.7753 -0.0046 0.6316
vn 0.7704 -0.0004 0.6376
vn 0.7650 0.0369 0.6429
vn 0.7650 0.0370 0.6430
vn 0.7687 0.0342 0.6386
vn 0.7662 0.0551 0.6402
vn 0.7663 0.0551 0.6402
vn 0.7698 0.0511 0.6363
vn 0.7745 0.0420 0.6312
vn 0.7738 0.0272 0.6328
vn 0.7746 0.0770 0.6277
vn 0.7749 0.0576 0.6295
vn 0.7775 0.0446 0.6274
vn 0.7728 0.0634 0.6314
vn 0.7706 0.0694 0.6336
vn 0.7407 0.0463 0.6703
vn 0.7269 0.0466 0.6851
vn 0.7267 0.0732 0.6830
vn 0.7519 0.0441 0.6578
vn 0.7531 0.0652 0.6547
vn 0.7628 0.0590 0.6440
vn 0.7613 0.0396 0.6472
vn 0.7797 0.0390 0.6249
vn 0.7797 0.0384 0.6249
vn 0.7779 0.0268 0.6278
vn 0.7778 0.0444 0.6270
vn 0.7786 0.0603 0.6246
vn 0.7819 0.0552 0.6209
vn 0.7794 0.0799 0.6215
vn 0.7099 -0.0481 0.7026
vn 0.6896 -0.0526 0.7222
vn 0.6885 -0.0277 0.7247
vn 0.7085 -0.0246 0.7053
vn 0.6416 -0.0113 0.7670
vn 0.6428 0.0163 0.7658
vn 0.6676 0.0179 0.7443
vn 0.6661 -0.0072 0.7459
vn 0.6158 -0.0151 0.7878
vn 0.5889 -0.0183 0.8080
vn 0.5895 0.0130 0.8076
vn 0.6165 0.0145 0.7872
vn 0.1783 0.0377 0.9833
vn 0.2169 0.0268 0.9758
vn 0.2113 0.0040 0.9774
vn 0.1710 0.0153 0.9851
vn 0.2471 -0.0306 0.9685
vn 0.2882 -0.0370 0.9568
vn 0.2849 -0.0650 0.9563
vn 0.2432 -0.0589 0.9682
vn 0.2949 0.0136 0.9554
vn 0.2917 -0.0109 0.9565
vn 0.2513 -0.0046 0.9679
vn 0.2556 0.0190 0.9666
vn 0.2010 -0.0516 0.9782
vn 0.1577 -0.0424 0.9866
vn 0.1641 -0.0126 0.9864
vn 0.2059 -0.0226 0.9783
vn 0.3716 0.0079 0.9283
vn 0.3695 -0.0188 0.9290
vn 0.3311 -0.0154 0.9435
vn 0.3339 0.0100 0.9426
vn 0.4060 -0.0208 0.9136
vn 0.4073 0.0074 0.9132
vn 0.4407 0.0083 0.8976
vn 0.4401 -0.0215 0.8977
vn 0.1033 -0.0603 0.9928
vn 0.0933 -0.0888 0.9917
vn 0.0488 -0.0732 0.9961
vn 0.0593 -0.0436 0.9973
vn 0.0394 -0.0983 0.9944
vn 0.0843 -0.1133 0.9900
vn 0.0764 -0.1329 0.9882
vn 0.0309 -0.1181 0.9925
vn 0.1341 -0.1293 0.9825
vn 0.1864 -0.1452 0.9717
vn 0.1801 -0.1598 0.9706
vn 0.1777 -0.1631 0.9705
vn 0.1778 -0.1630 0.9705
vn 0.1269 -0.1467 0.9810
vn 0.1244 -0.1513 0.9806
vn 0.1429 -0.1051 0.9841
vn 0.1510 -0.0748 0.9857
vn 0.1968 -0.0840 0.9768
vn 0.1924 -0.1183 0.9742
vn 0.1735 -0.1680 0.9704
vn 0.1736 -0.1679 0.9704
vn 0.1699 -0.1691 0.9708
vn 0.1200 -0.1580 0.9801
vn 0.1167 -0.1596 0.9803
vn 0.2225 -0.1795 0.9583
vn 0.2240 -0.1798 0.9579
vn 0.2207 -0.1789 0.9588
vn 0.2195 -0.1782 0.9592
vn 0.2701 -0.1885 0.9442
vn 0.2711 -0.1895 0.9437
vn 0.2677 -0.1857 0.9454
vn 0.2674 -0.1846 0.9457
vn 0.2664 -0.1840 0.9462
vn 0.2665 -0.1841 0.9461
vn 0.2182 -0.1775 0.9596
vn 0.2174 -0.1775 0.9598
vn 0.3182 -0.1937 0.9280
vn 0.3183 -0.1948 0.9278
vn 0.3176 -0.1931 0.9283
vn 0.3165 -0.1916 0.9290
vn 0.3664 -0.1974 0.9093
vn 0.3665 -0.1975 0.9092
vn 0.3674 -0.1976 0.9088
vn 0.3680 -0.1963 0.9089
vn 0.3681 -0.1953 0.9090
vn 0.3694 -0.1862 0.9104
vn 0.3161 -0.1913 0.9292
vn 0.3159 -0.1866 0.9303
vn 0.3732 -0.1834 0.9094
vn 0.3775 -0.1850 0.9074
vn 0.3723 -0.1837 0.9097
vn 0.3696 -0.1855 0.9105
vn 0.3184 -0.1898 0.9288
vn 0.3214 -0.1948 0.9267
vn 0.3176 -0.1893 0.9291
vn 0.3157 -0.1867 0.9303
vn 0.3214 -0.1951 0.9266
vn 0.3779 -0.1852 0.9071
vn 0.4785 0.1218 0.8696
vn 0.4789 -0.0678 0.8753
vn 0.5086 -0.0504 0.8595
vn 0.5836 -0.0329 0.8114
vn 0.5174 0.1309 0.8457
vn 0.5464 -0.0400 0.8366
vn 0.5858 -0.1591 0.7947
vn 0.5879 -0.1217 0.7997
vn 0.5527 -0.1228 0.8243
vn 0.5530 -0.1577 0.8181
vn 0.5139 -0.1226 0.8490
vn 0.4837 -0.1306 0.8655
vn 0.4825 -0.1554 0.8620
vn 0.5140 -0.1530 0.8440
vn 0.6376 -0.1425 0.7570
vn 0.6158 -0.1118 0.7799
vn 0.6125 -0.1531 0.7755
vn 0.4236 -0.1733 0.8891
vn 0.4198 -0.1751 0.8905
vn 0.4240 -0.1731 0.8890
vn 0.4539 -0.1636 0.8759
vn 0.4522 -0.1698 0.8756
vn 0.4541 -0.1628 0.8760
vn 0.4554 -0.1415 0.8790
vn 0.2165 -0.1781 0.9599
vn 0.2148 -0.1834 0.9593
vn 0.2662 -0.1839 0.9462
vn 0.2660 -0.1897 0.9451
vn 0.2656 -0.1905 0.9451
vn 0.2651 -0.1950 0.9443
vn 0.2145 -0.1828 0.9595
vn 0.2128 -0.1831 0.9598
vn 0.2020 -0.1301 0.9707
vn 0.2108 -0.1826 0.9603
vn 0.2652 -0.1953 0.9442
vn 0.4155 -0.1824 0.8911
vn 0.4133 -0.1927 0.8900
vn 0.4163 -0.1808 0.8911
vn 0.4192 -0.1760 0.8907
vn 0.4504 -0.1784 0.8748
vn 0.4484 -0.1860 0.8743
vn 0.4509 -0.1769 0.8749
vn 0.4519 -0.1712 0.8755
vn 0.4449 -0.1892 0.8754
vn 0.4476 -0.1871 0.8744
vn 0.4102 -0.1955 0.8908
vn 0.4126 -0.1941 0.8900
vn 0.3194 -0.1959 0.9272
vn 0.3202 -0.1929 0.9275
vn 0.3660 -0.1969 0.9095
vn 0.3645 -0.1929 0.9110
vn 0.3647 -0.1930 0.9109
vn 0.2283 -0.1766 0.9574
vn 0.2251 -0.1802 0.9575
vn 0.2751 -0.1851 0.9434
vn 0.2713 -0.1895 0.9437
vn 0.1661 -0.1675 0.9718
vn 0.1662 -0.1676 0.9717
vn 0.1138 -0.1571 0.9810
vn 0.7780 -0.0048 0.6283
vn 0.7819 0.0012 0.6234
vn 0.7774 -0.0056 0.6289
vn 0.7748 -0.0105 0.6321
vn 0.7816 0.0264 0.6233
vn 0.7814 0.0259 0.6235
vn 0.7787 0.0162 0.6272
vn 0.7743 -0.0114 0.6328
vn 0.7722 -0.0162 0.6352
vn 0.7784 0.0150 0.6276
vn 0.7762 0.0070 0.6305
vn 0.7668 -0.0575 0.6393
vn 0.7653 -0.0521 0.6416
vn 0.7648 -0.0483 0.6425
vn 0.7656 -0.0535 0.6410
vn 0.7579 -0.0757 0.6480
vn 0.7569 -0.0747 0.6492
vn 0.7595 -0.0776 0.6459
vn 0.7584 -0.0762 0.6474
vn 0.7563 -0.1099 0.6449
vn 0.7497 -0.1049 0.6533
vn 0.7479 -0.1043 0.6556
vn 0.7511 -0.1058 0.6517
vn 0.7470 -0.1048 0.6566
vn 0.7463 -0.1057 0.6572
vn 0.7326 -0.1454 0.6650
vn 0.7326 -0.1457 0.6649
vn 0.7327 -0.1461 0.6647
vn 0.7328 -0.1470 0.6643
vn 0.7642 -0.0856 0.6393
vn 0.7636 -0.0845 0.6402
vn 0.7604 -0.0791 0.6446
vn 0.7689 -0.0656 0.6360
vn 0.7686 -0.0647 0.6365
vn 0.7672 -0.0592 0.6387
vt 0.000000 0.000000
s 1
usemtl defaultMat
f 1/1/1 204/1/1 207/1/1 203/1/1
f 204/1/2 3/1/2 205/1/2 207/1/2
f 207/1/3 205/1/3 4/1/3 206/1/3
f 203/1/4 207/1/4 206/1/4 2/1/4
f 208/1/5 3/1/5 204/1/5 209/1/5
f 5/1/6 210/1/6 212/1/6 211/1/6
f 210/1/7 3/1/7 208/1/7 212/1/7
f 5/1/8 211/1/8 214/1/8 213/1/8
f 7/1/9 215/1/9 218/1/9 217/1/9
f 215/1/10 5/1/10 213/1/10 218/1/10
f 218/1/11 213/1/11 6/1/11 216/1/11
f 217/1/12 218/1/12 216/1/12 8/1/12
f 7/1/13 219/1/13 223/1/13 222/1/13
f 219/1/14 9/1/14 220/1/14 223/1/14
f 223/1/15 220/1/15 10/1/16 221/1/17
f 222/1/18 223/1/18 221/1/18 11/1/18
f 9/1/19 219/1/19 226/1/19 225/1/19
f 219/1/20 7/1/20 217/1/20 226/1/20
f 226/1/21 217/1/21 8/1/21 224/1/21
f 225/1/22 226/1/22 224/1/22 12/1/22
f 11/1/23 227/1/23 228/1/23 222/1/23
f 227/1/24 3/1/24 210/1/24 228/1/24
f 228/1/25 210/1/25 5/1/25 215/1/25
f 222/1/26 228/1/26 215/1/26 7/1/26
f 8/1/27 216/1/27 231/1/27 230/1/27
f 230/1/28 231/1/28 229/1/28 13/1/28
f 13/1/29 229/1/29 234/1/29 233/1/29
f 233/1/30 234/1/30 232/1/30 14/1/30
f 3/1/31 227/1/31 237/1/31 205/1/31
f 227/1/32 11/1/32 236/1/32 237/1/32
f 237/1/33 236/1/33 15/1/33 235/1/33
f 205/1/34 237/1/34 235/1/34 4/1/34
f 238/1/35 16/1/35 239/1/35 241/1/35
f 241/1/36 239/1/36 17/1/36 240/1/36
f 16/1/37 242/1/38 245/1/39 239/1/39
f 242/1/40 18/1/40 243/1/40 245/1/40
f 245/1/41 243/1/41 19/1/41 244/1/41
f 239/1/42 245/1/42 244/1/42 17/1/42
f 18/1/43 246/1/43 249/1/43 243/1/43
f 246/1/44 20/1/44 247/1/44 249/1/44
f 249/1/45 247/1/45 21/1/45 248/1/45
f 243/1/46 249/1/46 248/1/46 19/1/46
f 22/1/47 250/1/47 253/1/47 252/1/47
f 250/1/48 23/1/48 251/1/48 253/1/48
f 253/1/49 251/1/49 21/1/49 247/1/49
f 252/1/50 253/1/50 247/1/50 20/1/50
f 20/1/51 254/1/51 257/1/51 252/1/51
f 254/1/52 24/1/52 255/1/52 257/1/52
f 257/1/53 255/1/53 25/1/53 256/1/53
f 252/1/54 257/1/54 256/1/54 22/1/54
f 26/1/55 258/1/55 260/1/55 259/1/55
f 258/1/56 24/1/56 254/1/56 260/1/56
f 260/1/57 254/1/57 20/1/57 246/1/57
f 259/1/58 260/1/58 246/1/58 18/1/58
f 17/1/59 244/1/59 264/1/59 263/1/59
f 244/1/60 19/1/60 261/1/60 264/1/60
f 264/1/61 261/1/61 27/1/61 262/1/61
f 263/1/62 264/1/62 262/1/62 28/1/62
f 21/1/63 265/1/63 267/1/63 248/1/63
f 265/1/64 29/1/64 266/1/64 267/1/64
f 267/1/65 266/1/65 27/1/65 261/1/65
f 248/1/66 267/1/66 261/1/66 19/1/66
f 10/1/67 268/1/67 270/1/68 269/1/69
f 268/1/70 26/1/70 259/1/70 270/1/70
f 270/1/71 259/1/71 18/1/71 242/1/71
f 269/1/69 270/1/68 242/1/38 16/1/37
f 11/1/72 221/1/72 271/1/73 236/1/73
f 221/1/17 10/1/16 269/1/74 271/1/75
f 271/1/75 269/1/74 16/1/76 238/1/76
f 236/1/77 271/1/77 238/1/77 15/1/77
f 30/1/78 272/1/78 274/1/78 273/1/78
f 277/1/79 275/1/79 28/1/79 276/1/79
f 273/1/80 277/1/80 276/1/80 30/1/80
f 240/1/81 17/1/81 263/1/81 278/1/81
f 278/1/82 263/1/82 28/1/82 275/1/82
f 32/1/83 279/1/83 281/1/83 280/1/83
f 36/1/84 285/1/84 288/1/84 287/1/84
f 285/1/85 35/1/85 284/1/85 288/1/85
f 288/1/86 284/1/86 34/1/86 286/1/86
f 287/1/87 288/1/87 286/1/87 37/1/87
f 38/1/88 289/1/88 292/1/88 291/1/89
f 289/1/90 39/1/90 290/1/90 292/1/90
f 292/1/91 290/1/91 35/1/91 285/1/91
f 291/1/92 292/1/92 285/1/92 36/1/92
f 40/1/93 293/1/94 296/1/95 295/1/96
f 293/1/94 38/1/97 291/1/97 296/1/95
f 296/1/98 291/1/98 36/1/98 294/1/98
f 295/1/99 296/1/99 294/1/99 41/1/99
f 40/1/93 295/1/96 300/1/100 299/1/101
f 295/1/102 41/1/102 297/1/102 300/1/102
f 300/1/103 297/1/103 23/1/103 298/1/103
f 299/1/101 300/1/100 298/1/104 42/1/105
f 23/1/106 297/1/106 302/1/106 251/1/106
f 297/1/107 41/1/107 301/1/107 302/1/107
f 302/1/108 301/1/108 29/1/108 265/1/108
f 251/1/109 302/1/109 265/1/109 21/1/109
f 29/1/110 301/1/110 304/1/110 303/1/110
f 301/1/111 41/1/111 294/1/111 304/1/111
f 304/1/112 294/1/112 36/1/112 287/1/112
f 303/1/113 304/1/113 287/1/113 37/1/113
f 27/1/114 266/1/114 307/1/114 306/1/114
f 266/1/115 29/1/115 303/1/115 307/1/115
f 307/1/116 303/1/116 37/1/116 305/1/116
f 306/1/117 307/1/117 305/1/117 43/1/117
f 31/1/118 272/1/118 311/1/118 310/1/118
f 272/1/119 30/1/119 308/1/119 311/1/119
f 311/1/120 308/1/120 43/1/120 309/1/120
f 310/1/121 311/1/121 309/1/121 44/1/121
f 43/1/122 305/1/122 313/1/122 309/1/122
f 305/1/123 37/1/123 286/1/123 313/1/123
f 313/1/124 286/1/124 34/1/124 312/1/124
f 309/1/125 313/1/125 312/1/125 44/1/125
f 30/1/126 276/1/126 314/1/126 308/1/126
f 276/1/127 28/1/127 262/1/127 314/1/127
f 314/1/128 262/1/128 27/1/128 306/1/128
f 308/1/129 314/1/129 306/1/129 43/1/129
f 45/1/130 315/1/130 317/1/130 316/1/130
f 315/1/131 42/1/105 298/1/104 317/1/131
f 317/1/132 298/1/132 23/1/132 250/1/132
f 316/1/133 317/1/133 250/1/133 22/1/133
f 46/1/134 318/1/134 320/1/134 319/1/134
f 318/1/135 45/1/135 316/1/135 320/1/135
f 320/1/136 316/1/136 22/1/136 256/1/136
f 319/1/137 320/1/137 256/1/137 25/1/137
f 46/1/138 321/1/138 325/1/138 324/1/138
f 321/1/139 47/1/139 322/1/139 325/1/139
f 325/1/140 322/1/140 48/1/140 323/1/140
f 324/1/141 325/1/141 323/1/141 49/1/141
f 46/1/142 319/1/142 328/1/142 321/1/142
f 319/1/143 25/1/143 326/1/143 328/1/143
f 328/1/144 326/1/144 50/1/144 327/1/144
f 321/1/145 328/1/145 327/1/145 47/1/145
f 49/1/146 329/1/146 331/1/146 324/1/146
f 329/1/147 51/1/147 330/1/147 331/1/147
f 331/1/148 330/1/148 45/1/148 318/1/148
f 324/1/149 331/1/149 318/1/149 46/1/149
f 42/1/150 315/1/151 334/1/152 333/1/153
f 315/1/151 45/1/154 330/1/154 334/1/152
f 334/1/155 330/1/156 51/1/156 332/1/157
f 333/1/158 334/1/155 332/1/157 52/1/159
f 52/1/160 335/1/161 339/1/162 338/1/163
f 335/1/164 53/1/165 336/1/166 339/1/167
f 339/1/167 336/1/166 54/1/168 337/1/169
f 338/1/163 339/1/162 337/1/170 55/1/170
f 56/1/171 340/1/172 342/1/173 341/1/174
f 340/1/172 53/1/165 335/1/164 342/1/173
f 342/1/175 335/1/161 52/1/160 332/1/176
f 341/1/177 342/1/175 332/1/176 51/1/177
f 42/1/150 333/1/153 344/1/178 299/1/179
f 333/1/158 52/1/159 338/1/180 344/1/181
f 344/1/181 338/1/180 55/1/182 343/1/183
f 299/1/179 344/1/178 343/1/184 40/1/185
f 57/1/186 345/1/186 347/1/186 346/1/186
f 345/1/187 38/1/187 293/1/188 347/1/189
f 347/1/189 293/1/188 40/1/185 343/1/184
f 346/1/190 347/1/190 343/1/183 55/1/182
f 57/1/191 348/1/191 350/1/191 345/1/191
f 348/1/192 58/1/192 349/1/192 350/1/192
f 350/1/193 349/1/193 39/1/193 289/1/193
f 345/1/194 350/1/194 289/1/194 38/1/194
f 59/1/195 351/1/195 354/1/195 353/1/195
f 351/1/196 32/1/196 352/1/196 354/1/196
f 354/1/197 352/1/197 58/1/197 348/1/197
f 353/1/198 354/1/198 348/1/198 57/1/198
f 59/1/199 355/1/199 357/1/199 351/1/199
f 355/1/200 60/1/201 356/1/202 357/1/202
f 357/1/203 356/1/203 33/1/203 279/1/203
f 351/1/204 357/1/204 279/1/204 32/1/204
f 61/1/205 358/1/206 361/1/207 360/1/208
f 358/1/206 60/1/201 355/1/200 361/1/207
f 361/1/209 355/1/210 59/1/210 359/1/211
f 360/1/212 361/1/209 359/1/211 54/1/213
f 55/1/214 337/1/214 362/1/214 346/1/214
f 337/1/169 54/1/168 359/1/215 362/1/215
f 362/1/216 359/1/216 59/1/216 353/1/216
f 346/1/217 362/1/217 353/1/217 57/1/217
f 58/1/218 352/1/218 364/1/218 363/1/218
f 352/1/219 32/1/219 280/1/219 364/1/219
f 312/1/220 34/1/220 283/1/220 365/1/220
f 367/1/221 368/1/222 366/1/223 64/1/224
f 372/1/225 369/1/225 65/1/225 370/1/225
f 371/1/226 372/1/226 370/1/226 66/1/226
f 68/1/227 374/1/227 377/1/227 376/1/227
f 374/1/228 67/1/228 373/1/228 377/1/228
f 376/1/229 377/1/229 375/1/229 66/1/229
f 69/1/230 378/1/231 382/1/232 381/1/233
f 378/1/231 65/1/234 379/1/235 382/1/232
f 382/1/236 379/1/237 70/1/238 380/1/239
f 381/1/233 382/1/236 380/1/239 71/1/240
f 65/1/241 378/1/242 384/1/243 370/1/241
f 378/1/242 69/1/244 383/1/245 384/1/243
f 384/1/246 383/1/247 68/1/248 376/1/246
f 370/1/249 384/1/249 376/1/249 66/1/249
f 68/1/248 383/1/247 388/1/250 387/1/251
f 383/1/245 69/1/244 385/1/252 388/1/253
f 388/1/253 385/1/252 72/1/254 386/1/255
f 387/1/251 388/1/250 386/1/256 73/1/257
f 74/1/258 389/1/259 392/1/260 391/1/261
f 389/1/259 73/1/257 386/1/256 392/1/260
f 392/1/262 386/1/255 72/1/254 390/1/263
f 391/1/264 392/1/262 390/1/263 75/1/265
f 76/1/266 393/1/267 396/1/268 395/1/269
f 393/1/267 77/1/270 394/1/271 396/1/268
f 396/1/272 394/1/273 75/1/274 390/1/275
f 395/1/276 396/1/272 390/1/275 72/1/277
f 76/1/266 395/1/269 398/1/278 397/1/278
f 395/1/276 72/1/277 385/1/279 398/1/280
f 398/1/280 385/1/279 69/1/230 381/1/233
f 397/1/281 398/1/280 381/1/233 71/1/240
f 71/1/240 380/1/239 402/1/282 401/1/283
f 380/1/239 70/1/284 399/1/285 402/1/282
f 402/1/286 399/1/286 78/1/287 400/1/288
f 401/1/289 402/1/289 400/1/290 79/1/291
f 80/1/292 403/1/292 406/1/292 405/1/292
f 403/1/293 79/1/291 400/1/290 406/1/293
f 406/1/294 400/1/288 78/1/287 404/1/294
f 405/1/295 406/1/295 404/1/295 81/1/295
f 78/1/296 407/1/297 410/1/298 404/1/298
f 407/1/299 82/1/300 408/1/301 410/1/302
f 410/1/303 408/1/303 83/1/303 409/1/303
f 404/1/304 410/1/304 409/1/304 81/1/304
f 78/1/296 399/1/305 413/1/305 407/1/297
f 399/1/285 70/1/284 411/1/306 413/1/307
f 413/1/307 411/1/306 64/1/224 412/1/308
f 407/1/299 413/1/307 412/1/308 82/1/300
f 62/1/309 367/1/221 414/1/310 369/1/311
f 367/1/221 64/1/224 411/1/306 414/1/310
f 414/1/310 411/1/306 70/1/238 379/1/237
f 369/1/311 414/1/310 379/1/235 65/1/234
f 86/1/312 417/1/312 419/1/312 418/1/312
f 417/1/313 84/1/314 415/1/315 419/1/316
f 86/1/317 418/1/317 423/1/317 422/1/317
f 418/1/318 85/1/318 420/1/318 423/1/318
f 423/1/319 420/1/319 87/1/319 421/1/319
f 422/1/320 423/1/320 421/1/320 88/1/320
f 89/1/321 424/1/322 428/1/323 427/1/324
f 424/1/325 87/1/325 425/1/326 428/1/327
f 427/1/324 428/1/323 426/1/328 90/1/329
f 87/1/330 420/1/330 429/1/331 425/1/332
f 91/1/333 430/1/333 432/1/333 431/1/333
f 430/1/334 88/1/334 421/1/334 432/1/334
f 432/1/335 421/1/335 87/1/335 424/1/335
f 431/1/336 432/1/336 424/1/322 89/1/321
f 83/1/337 408/1/337 435/1/338 434/1/339
f 408/1/301 82/1/300 433/1/340 435/1/341
f 435/1/341 433/1/340 84/1/314 417/1/313
f 434/1/339 435/1/338 417/1/342 86/1/342
f 88/1/343 436/1/343 438/1/343 422/1/343
f 436/1/344 92/1/344 437/1/344 438/1/344
f 438/1/345 437/1/345 83/1/345 434/1/345
f 422/1/346 438/1/346 434/1/346 86/1/346
f 93/1/347 439/1/347 443/1/347 442/1/347
f 439/1/348 94/1/348 440/1/348 443/1/348
f 443/1/349 440/1/349 92/1/349 441/1/349
f 442/1/350 443/1/350 441/1/350 95/1/350
f 92/1/351 436/1/351 445/1/351 441/1/351
f 436/1/352 88/1/352 430/1/352 445/1/352
f 445/1/353 430/1/353 91/1/353 444/1/353
f 441/1/354 445/1/354 444/1/354 95/1/354
f 83/1/355 437/1/355 447/1/355 409/1/355
f 437/1/356 92/1/356 440/1/356 447/1/356
f 447/1/357 440/1/357 94/1/357 446/1/357
f 409/1/358 447/1/358 446/1/358 81/1/358
f 82/1/300 412/1/308 448/1/359 433/1/340
f 412/1/308 64/1/224 366/1/223 448/1/359
f 448/1/359 366/1/223 63/1/360 416/1/361
f 433/1/340 448/1/359 416/1/361 84/1/314
f 452/1/362 451/1/362 14/1/362 232/1/362
f 454/1/363 101/1/363 455/1/363 457/1/363
f 457/1/364 455/1/364 102/1/364 456/1/364
f 101/1/365 454/1/365 460/1/365 459/1/365
f 459/1/366 460/1/366 458/1/366 103/1/366
f 100/1/367 453/1/367 463/1/367 462/1/367
f 453/1/368 99/1/368 456/1/368 463/1/368
f 463/1/369 456/1/369 102/1/369 461/1/369
f 462/1/370 463/1/370 461/1/370 104/1/370
f 465/1/371 106/1/371 466/1/371 467/1/371
f 105/1/372 468/1/372 471/1/372 465/1/372
f 468/1/373 107/1/373 469/1/373 471/1/373
f 471/1/374 469/1/374 108/1/374 470/1/374
f 465/1/375 471/1/375 470/1/375 106/1/375
f 100/1/376 462/1/376 473/1/376 464/1/376
f 462/1/377 104/1/377 472/1/377 473/1/377
f 473/1/378 472/1/378 107/1/378 468/1/378
f 464/1/379 473/1/379 468/1/379 105/1/379
f 475/1/380 111/1/380 476/1/380 478/1/380
f 478/1/381 476/1/381 112/1/381 477/1/381
f 109/1/382 474/1/382 481/1/382 475/1/382
f 474/1/383 110/1/383 479/1/383 481/1/383
f 481/1/384 479/1/384 113/1/384 480/1/384
f 475/1/385 481/1/385 480/1/385 111/1/385
f 115/1/386 483/1/386 485/1/386 484/1/386
f 483/1/387 113/1/387 479/1/387 485/1/387
f 485/1/388 479/1/388 110/1/388 482/1/388
f 484/1/389 485/1/389 482/1/389 114/1/389
f 116/1/390 486/1/390 489/1/390 488/1/390
f 486/1/391 115/1/391 484/1/391 489/1/391
f 489/1/392 484/1/392 114/1/392 487/1/392
f 488/1/393 489/1/393 487/1/393 117/1/393
f 12/1/394 224/1/394 494/1/394 493/1/394
f 224/1/395 8/1/395 230/1/395 494/1/395
f 494/1/396 230/1/396 13/1/396 492/1/396
f 493/1/397 494/1/397 492/1/397 119/1/397
f 12/1/398 493/1/398 498/1/398 497/1/398
f 493/1/399 119/1/399 495/1/399 498/1/399
f 498/1/400 495/1/400 120/1/400 496/1/400
f 497/1/401 498/1/401 496/1/402 121/1/403
f 122/1/404 499/1/404 503/1/404 502/1/404
f 499/1/405 123/1/405 500/1/405 503/1/405
f 503/1/406 500/1/406 120/1/406 501/1/406
f 502/1/407 503/1/407 501/1/407 124/1/407
f 123/1/408 499/1/408 507/1/408 506/1/408
f 499/1/409 122/1/409 504/1/409 507/1/409
f 507/1/410 504/1/410 125/1/410 505/1/410
f 506/1/411 507/1/411 505/1/411 126/1/411
f 127/1/412 508/1/412 511/1/412 510/1/412
f 508/1/413 123/1/413 506/1/413 511/1/413
f 511/1/414 506/1/414 126/1/414 509/1/414
f 510/1/415 511/1/415 509/1/415 128/1/415
f 120/1/416 500/1/416 513/1/416 496/1/416
f 500/1/417 123/1/417 508/1/417 513/1/417
f 513/1/418 508/1/419 127/1/419 512/1/420
f 496/1/402 513/1/418 512/1/420 121/1/403
f 129/1/421 514/1/421 517/1/421 516/1/421
f 514/1/422 130/1/422 515/1/422 517/1/422
f 517/1/423 515/1/424 121/1/425 512/1/426
f 516/1/427 517/1/423 512/1/426 127/1/427
f 129/1/428 516/1/428 520/1/428 519/1/428
f 516/1/429 127/1/429 510/1/429 520/1/429
f 520/1/430 510/1/430 128/1/430 518/1/430
f 519/1/431 520/1/431 518/1/431 50/1/431
f 131/1/432 521/1/432 524/1/432 523/1/432
f 521/1/433 132/1/433 522/1/433 524/1/433
f 524/1/434 522/1/434 128/1/434 509/1/434
f 523/1/435 524/1/435 509/1/435 126/1/435
f 131/1/436 525/1/436 528/1/436 527/1/436
f 525/1/437 133/1/437 526/1/437 528/1/437
f 528/1/438 526/1/438 106/1/438 470/1/438
f 527/1/439 528/1/439 470/1/439 108/1/439
f 532/1/440 529/1/440 133/1/440 530/1/440
f 531/1/441 532/1/441 530/1/441 125/1/441
f 131/1/442 523/1/442 533/1/442 525/1/442
f 523/1/443 126/1/443 505/1/443 533/1/443
f 533/1/444 505/1/444 125/1/444 530/1/444
f 525/1/445 533/1/445 530/1/445 133/1/445
f 98/1/446 466/1/446 535/1/446 534/1/446
f 466/1/447 106/1/447 526/1/447 535/1/447
f 535/1/448 526/1/448 133/1/448 529/1/448
f 534/1/449 535/1/449 529/1/449 134/1/449
f 135/1/450 536/1/450 538/1/450 537/1/450
f 536/1/451 132/1/451 521/1/451 538/1/451
f 538/1/452 521/1/452 131/1/452 527/1/452
f 537/1/453 538/1/453 527/1/453 108/1/453
f 135/1/454 537/1/454 541/1/454 540/1/454
f 537/1/455 108/1/455 469/1/455 541/1/455
f 541/1/456 469/1/456 107/1/456 539/1/456
f 540/1/457 541/1/457 539/1/457 136/1/457
f 132/1/458 536/1/458 544/1/458 543/1/458
f 536/1/459 135/1/459 542/1/459 544/1/459
f 544/1/460 542/1/460 48/1/460 322/1/460
f 543/1/461 544/1/461 322/1/461 47/1/461
f 136/1/462 545/1/462 547/1/462 540/1/462
f 545/1/463 137/1/463 546/1/463 547/1/463
f 547/1/464 546/1/464 48/1/464 542/1/464
f 540/1/465 547/1/465 542/1/465 135/1/465
f 132/1/466 543/1/466 548/1/466 522/1/466
f 543/1/467 47/1/467 327/1/467 548/1/467
f 548/1/468 327/1/468 50/1/468 518/1/468
f 522/1/469 548/1/469 518/1/469 128/1/469
f 26/1/470 549/1/470 551/1/470 258/1/470
f 549/1/471 130/1/471 514/1/471 551/1/471
f 551/1/472 514/1/472 129/1/472 550/1/472
f 258/1/473 551/1/473 550/1/473 24/1/473
f 10/1/474 220/1/474 553/1/474 268/1/474
f 220/1/475 9/1/475 552/1/475 553/1/475
f 553/1/476 552/1/476 130/1/476 549/1/476
f 268/1/477 553/1/477 549/1/477 26/1/477
f 9/1/478 225/1/478 554/1/478 552/1/478
f 225/1/479 12/1/479 497/1/479 554/1/479
f 554/1/480 497/1/480 121/1/425 515/1/424
f 552/1/481 554/1/481 515/1/481 130/1/481
f 24/1/482 550/1/482 555/1/482 255/1/482
f 550/1/483 129/1/483 519/1/483 555/1/483
f 555/1/484 519/1/484 50/1/484 326/1/484
f 255/1/485 555/1/485 326/1/485 25/1/485
f 504/1/486 556/1/486 531/1/486 125/1/486
f 96/1/487 450/1/487 560/1/487 559/1/487
f 560/1/488 557/1/488 124/1/488 558/1/488
f 559/1/489 560/1/489 558/1/489 138/1/489
f 138/1/490 561/1/490 563/1/490 562/1/490
f 561/1/491 119/1/491 492/1/491 563/1/491
f 563/1/492 492/1/492 13/1/492 233/1/492
f 562/1/493 563/1/493 233/1/493 14/1/493
f 120/1/494 495/1/494 564/1/494 501/1/494
f 495/1/495 119/1/495 561/1/495 564/1/495
f 564/1/496 561/1/496 138/1/496 558/1/496
f 501/1/497 564/1/497 558/1/497 124/1/497
f 96/1/498 559/1/498 565/1/498 449/1/498
f 559/1/499 138/1/499 562/1/499 565/1/499
f 565/1/500 562/1/500 14/1/500 451/1/500
f 449/1/501 565/1/501 451/1/501 97/1/501
f 140/1/502 568/1/503 570/1/504 569/1/505
f 569/1/506 570/1/507 567/1/508 139/1/509
f 74/1/510 571/1/511 574/1/512 573/1/513
f 571/1/511 140/1/502 569/1/505 574/1/512
f 574/1/514 569/1/506 139/1/509 572/1/515
f 573/1/516 574/1/514 572/1/515 141/1/516
f 139/1/517 566/1/518 576/1/519 572/1/520
f 572/1/520 576/1/519 575/1/521 141/1/522
f 112/1/523 577/1/523 578/1/523 477/1/523
f 577/1/524 103/1/524 458/1/524 578/1/524
f 103/1/525 577/1/525 582/1/525 581/1/525
f 577/1/526 112/1/526 579/1/526 582/1/526
f 582/1/527 579/1/527 143/1/527 580/1/527
f 581/1/528 582/1/528 580/1/528 144/1/528
f 143/1/529 579/1/529 585/1/529 584/1/529
f 579/1/530 112/1/530 476/1/530 585/1/530
f 585/1/531 476/1/531 111/1/531 583/1/531
f 584/1/532 585/1/532 583/1/532 145/1/532
f 145/1/533 586/1/533 590/1/533 589/1/533
f 586/1/534 146/1/534 587/1/534 590/1/534
f 590/1/535 587/1/535 147/1/535 588/1/535
f 589/1/536 590/1/536 588/1/536 148/1/536
f 147/1/537 587/1/537 594/1/537 593/1/537
f 587/1/538 146/1/538 591/1/538 594/1/538
f 594/1/539 591/1/539 149/1/539 592/1/539
f 593/1/540 594/1/540 592/1/540 93/1/540
f 150/1/541 595/1/541 598/1/541 597/1/541
f 595/1/542 151/1/542 596/1/542 598/1/542
f 598/1/543 596/1/543 148/1/543 588/1/543
f 597/1/544 598/1/544 588/1/544 147/1/544
f 150/1/545 599/1/545 602/1/545 595/1/545
f 599/1/546 152/1/547 600/1/548 602/1/546
f 602/1/549 600/1/550 153/1/551 601/1/549
f 595/1/552 602/1/552 601/1/552 151/1/552
f 154/1/553 603/1/554 606/1/555 605/1/556
f 603/1/557 155/1/558 604/1/559 606/1/560
f 606/1/560 604/1/559 153/1/551 600/1/550
f 605/1/556 606/1/555 600/1/548 152/1/547
f 89/1/561 427/1/562 610/1/563 609/1/564
f 427/1/562 90/1/565 607/1/566 610/1/563
f 610/1/567 607/1/568 156/1/569 608/1/570
f 609/1/571 610/1/567 608/1/570 154/1/572
f 156/1/573 611/1/574 613/1/575 608/1/576
f 611/1/577 157/1/578 612/1/579 613/1/580
f 613/1/580 612/1/579 155/1/558 603/1/557
f 608/1/576 613/1/575 603/1/554 154/1/553
f 157/1/581 614/1/582 617/1/583 612/1/584
f 614/1/585 158/1/586 615/1/587 617/1/588
f 617/1/588 615/1/587 159/1/589 616/1/590
f 612/1/584 617/1/583 616/1/591 155/1/592
f 159/1/593 615/1/594 621/1/595 620/1/596
f 615/1/594 158/1/597 618/1/598 621/1/595
f 621/1/599 618/1/600 160/1/601 619/1/602
f 620/1/603 621/1/599 619/1/602 161/1/604
f 160/1/601 618/1/600 625/1/605 624/1/606
f 618/1/598 158/1/597 622/1/607 625/1/608
f 625/1/608 622/1/607 162/1/609 623/1/610
f 624/1/606 625/1/605 623/1/611 163/1/612
f 157/1/581 626/1/613 628/1/614 614/1/582
f 626/1/613 164/1/615 627/1/616 628/1/614
f 628/1/617 627/1/618 162/1/619 622/1/620
f 614/1/585 628/1/617 622/1/620 158/1/586
f 155/1/592 616/1/591 631/1/621 604/1/622
f 616/1/590 159/1/589 629/1/623 631/1/624
f 631/1/624 629/1/623 165/1/625 630/1/626
f 604/1/622 631/1/621 630/1/627 153/1/628
f 118/1/629 632/1/630 634/1/631 633/1/632
f 632/1/633 164/1/634 626/1/635 634/1/636
f 634/1/636 626/1/635 157/1/578 611/1/577
f 633/1/632 634/1/631 611/1/574 156/1/573
f 90/1/565 635/1/637 636/1/637 607/1/566
f 636/1/638 491/1/639 118/1/639 633/1/640
f 607/1/568 636/1/638 633/1/640 156/1/569
f 91/1/641 431/1/642 638/1/643 637/1/641
f 431/1/642 89/1/561 609/1/564 638/1/643
f 638/1/644 609/1/571 154/1/572 605/1/645
f 637/1/646 638/1/644 605/1/645 152/1/646
f 150/1/647 639/1/647 640/1/647 599/1/647
f 639/1/648 95/1/648 444/1/648 640/1/648
f 640/1/649 444/1/649 91/1/649 637/1/649
f 599/1/650 640/1/650 637/1/650 152/1/650
f 151/1/651 641/1/651 644/1/651 596/1/651
f 641/1/652 166/1/652 642/1/652 644/1/652
f 644/1/653 642/1/653 167/1/653 643/1/653
f 596/1/654 644/1/654 643/1/654 148/1/654
f 166/1/655 645/1/655 648/1/655 642/1/655
f 645/1/656 168/1/656 646/1/656 648/1/656
f 648/1/657 646/1/657 169/1/657 647/1/657
f 642/1/658 648/1/658 647/1/658 167/1/658
f 170/1/659 649/1/659 652/1/659 651/1/659
f 649/1/660 171/1/660 650/1/660 652/1/660
f 652/1/661 650/1/661 169/1/661 646/1/661
f 651/1/662 652/1/662 646/1/662 168/1/662
f 172/1/663 653/1/663 656/1/663 655/1/663
f 653/1/664 173/1/664 654/1/664 656/1/664
f 656/1/665 654/1/665 171/1/665 649/1/665
f 655/1/666 656/1/666 649/1/666 170/1/666
f 174/1/667 657/1/667 661/1/668 660/1/669
f 657/1/670 172/1/670 658/1/670 661/1/670
f 661/1/671 658/1/671 175/1/672 659/1/673
f 660/1/669 661/1/668 659/1/674 176/1/675
f 172/1/676 655/1/676 664/1/676 658/1/676
f 655/1/677 170/1/677 662/1/677 664/1/677
f 664/1/678 662/1/678 177/1/678 663/1/678
f 658/1/679 664/1/679 663/1/680 175/1/681
f 172/1/682 657/1/682 667/1/682 653/1/682
f 657/1/683 174/1/683 665/1/683 667/1/683
f 667/1/684 665/1/684 178/1/684 666/1/684
f 653/1/685 667/1/685 666/1/685 173/1/685
f 179/1/686 668/1/686 671/1/686 670/1/686
f 668/1/687 144/1/687 669/1/687 671/1/687
f 671/1/688 669/1/688 169/1/688 650/1/688
f 670/1/689 671/1/689 650/1/689 171/1/689
f 179/1/690 670/1/690 674/1/690 673/1/690
f 670/1/691 171/1/691 654/1/691 674/1/691
f 674/1/692 654/1/692 173/1/692 672/1/692
f 673/1/693 674/1/693 672/1/693 180/1/693
f 168/1/694 675/1/694 677/1/694 651/1/694
f 675/1/695 181/1/696 676/1/697 677/1/695
f 677/1/698 676/1/699 177/1/700 662/1/698
f 651/1/701 677/1/701 662/1/701 170/1/701
f 181/1/696 678/1/702 681/1/703 676/1/697
f 678/1/702 161/1/704 679/1/705 681/1/703
f 681/1/706 679/1/707 182/1/708 680/1/709
f 676/1/699 681/1/706 680/1/709 177/1/700
f 165/1/710 629/1/711 683/1/712 682/1/713
f 629/1/711 159/1/593 620/1/596 683/1/712
f 683/1/714 620/1/603 161/1/604 678/1/715
f 682/1/716 683/1/714 678/1/715 181/1/717
f 168/1/718 645/1/718 685/1/718 675/1/718
f 645/1/719 166/1/719 684/1/719 685/1/719
f 685/1/720 684/1/720 165/1/710 682/1/713
f 675/1/721 685/1/721 682/1/716 181/1/717
f 143/1/722 686/1/722 687/1/722 580/1/722
f 686/1/723 167/1/723 647/1/723 687/1/723
f 687/1/724 647/1/724 169/1/724 669/1/724
f 580/1/725 687/1/725 669/1/725 144/1/725
f 167/1/726 686/1/726 688/1/726 643/1/726
f 686/1/727 143/1/727 584/1/727 688/1/727
f 688/1/728 584/1/728 145/1/728 589/1/728
f 643/1/729 688/1/729 589/1/729 148/1/729
f 165/1/625 684/1/730 689/1/730 630/1/626
f 684/1/731 166/1/731 641/1/731 689/1/731
f 689/1/732 641/1/732 151/1/732 601/1/732
f 630/1/627 689/1/733 601/1/733 153/1/628
f 95/1/734 639/1/734 690/1/734 442/1/734
f 639/1/735 150/1/735 597/1/735 690/1/735
f 690/1/736 597/1/736 147/1/736 593/1/736
f 442/1/737 690/1/737 593/1/737 93/1/737
f 116/1/738 691/1/738 694/1/738 486/1/738
f 691/1/739 183/1/739 692/1/739 694/1/739
f 694/1/740 692/1/740 149/1/740 693/1/740
f 486/1/741 694/1/741 693/1/741 115/1/741
f 80/1/742 405/1/742 697/1/742 696/1/742
f 405/1/743 81/1/743 446/1/743 697/1/743
f 697/1/744 446/1/744 94/1/744 695/1/744
f 696/1/745 697/1/745 695/1/745 183/1/745
f 184/1/746 698/1/746 700/1/746 699/1/746
f 698/1/747 80/1/747 696/1/747 700/1/747
f 700/1/748 696/1/748 183/1/748 691/1/748
f 699/1/749 700/1/749 691/1/749 116/1/749
f 80/1/750 698/1/750 703/1/751 403/1/752
f 698/1/753 184/1/753 701/1/754 703/1/755
f 703/1/755 701/1/754 185/1/756 702/1/757
f 403/1/752 703/1/751 702/1/758 79/1/759
f 185/1/756 704/1/760 705/1/760 702/1/757
f 704/1/761 76/1/761 397/1/761 705/1/761
f 705/1/762 397/1/281 71/1/240 401/1/763
f 702/1/758 705/1/762 401/1/763 79/1/759
f 185/1/764 706/1/765 708/1/766 704/1/766
f 706/1/767 186/1/768 707/1/769 708/1/769
f 708/1/770 707/1/770 77/1/270 393/1/267
f 704/1/771 708/1/771 393/1/771 76/1/771
f 709/1/772 187/1/772 710/1/772 712/1/772
f 712/1/773 710/1/774 77/1/270 707/1/775
f 711/1/776 712/1/773 707/1/775 186/1/776
f 715/1/777 184/1/777 699/1/777 716/1/777
f 716/1/778 699/1/778 116/1/778 488/1/778
f 714/1/779 716/1/779 488/1/779 117/1/779
f 184/1/780 715/1/780 717/1/780 701/1/780
f 715/1/781 188/1/781 713/1/781 717/1/781
f 717/1/782 713/1/782 186/1/768 706/1/767
f 701/1/783 717/1/783 706/1/765 185/1/764
f 189/1/784 719/1/785 721/1/786 720/1/784
f 719/1/785 75/1/274 394/1/273 721/1/786
f 721/1/787 394/1/271 77/1/270 710/1/774
f 720/1/788 721/1/788 710/1/788 187/1/788
f 189/1/789 720/1/789 723/1/789 722/1/789
f 720/1/790 187/1/790 718/1/790 723/1/790
f 94/1/791 439/1/791 724/1/791 695/1/791
f 439/1/792 93/1/792 592/1/792 724/1/792
f 724/1/793 592/1/793 149/1/793 692/1/793
f 695/1/794 724/1/794 692/1/794 183/1/794
f 146/1/795 725/1/795 726/1/795 591/1/795
f 725/1/796 113/1/796 483/1/796 726/1/796
f 726/1/797 483/1/797 115/1/797 693/1/797
f 591/1/798 726/1/798 693/1/798 149/1/798
f 146/1/799 586/1/799 727/1/799 725/1/799
f 586/1/800 145/1/800 583/1/800 727/1/800
f 727/1/801 583/1/801 111/1/801 480/1/801
f 725/1/802 727/1/802 480/1/802 113/1/802
f 107/1/803 472/1/803 730/1/803 539/1/803
f 472/1/804 104/1/804 728/1/804 730/1/804
f 730/1/805 728/1/805 190/1/805 729/1/805
f 539/1/806 730/1/806 729/1/806 136/1/806
f 190/1/807 731/1/807 733/1/807 732/1/807
f 731/1/808 180/1/808 672/1/808 733/1/808
f 733/1/809 672/1/809 173/1/809 666/1/809
f 732/1/810 733/1/810 666/1/810 178/1/810
f 102/1/811 734/1/811 735/1/811 461/1/811
f 734/1/812 180/1/812 731/1/812 735/1/812
f 735/1/813 731/1/813 190/1/813 728/1/813
f 461/1/814 735/1/814 728/1/814 104/1/814
f 178/1/815 736/1/815 737/1/815 732/1/815
f 736/1/816 137/1/816 545/1/816 737/1/816
f 737/1/817 545/1/817 136/1/817 729/1/817
f 732/1/818 737/1/818 729/1/818 190/1/818
f 101/1/819 738/1/819 739/1/819 455/1/819
f 738/1/820 179/1/820 673/1/820 739/1/820
f 739/1/821 673/1/821 180/1/821 734/1/821
f 455/1/822 739/1/822 734/1/822 102/1/822
f 179/1/823 738/1/823 740/1/823 668/1/823
f 738/1/824 101/1/824 459/1/824 740/1/824
f 740/1/825 459/1/825 103/1/825 581/1/825
f 668/1/826 740/1/826 581/1/826 144/1/826
f 137/1/827 741/1/827 743/1/827 546/1/827
f 741/1/828 191/1/828 742/1/828 743/1/828
f 743/1/829 742/1/829 49/1/829 323/1/829
f 546/1/830 743/1/830 323/1/830 48/1/830
f 49/1/831 742/1/831 745/1/831 329/1/831
f 742/1/832 191/1/832 744/1/832 745/1/832
f 745/1/833 744/1/833 56/1/171 341/1/174
f 329/1/834 745/1/834 341/1/834 51/1/834
f 191/1/835 746/1/835 748/1/835 744/1/835
f 746/1/836 174/1/836 660/1/836 748/1/836
f 748/1/837 660/1/837 176/1/838 747/1/839
f 744/1/840 748/1/840 747/1/841 56/1/841
f 191/1/842 741/1/842 749/1/842 746/1/842
f 741/1/843 137/1/843 736/1/843 749/1/843
f 749/1/844 736/1/844 178/1/844 665/1/844
f 746/1/845 749/1/845 665/1/845 174/1/845
f 176/1/838 750/1/846 752/1/847 747/1/839
f 750/1/846 192/1/848 751/1/848 752/1/847
f 752/1/849 751/1/850 53/1/850 340/1/849
f 747/1/841 752/1/849 340/1/849 56/1/841
f 192/1/851 753/1/852 757/1/853 756/1/854
f 753/1/855 193/1/856 754/1/857 757/1/858
f 757/1/858 754/1/857 194/1/859 755/1/860
f 756/1/854 757/1/853 755/1/861 61/1/862
f 193/1/863 758/1/864 761/1/865 754/1/866
f 758/1/867 182/1/868 759/1/869 761/1/870
f 761/1/870 759/1/869 195/1/871 760/1/872
f 754/1/866 761/1/865 760/1/873 194/1/874
f 196/1/875 762/1/876 765/1/877 764/1/878
f 762/1/879 197/1/880 763/1/881 765/1/882
f 765/1/882 763/1/881 194/1/874 760/1/873
f 764/1/878 765/1/877 760/1/872 195/1/871
f 768/1/883 766/1/883 197/1/880 762/1/879
f 767/1/884 768/1/884 762/1/876 196/1/875
f 199/1/885 771/1/885 774/1/885 773/1/885
f 774/1/886 770/1/886 198/1/886 772/1/886
f 773/1/887 774/1/887 772/1/887 200/1/887
f 201/1/888 776/1/888 778/1/888 777/1/888
f 778/1/889 775/1/889 199/1/889 773/1/889
f 777/1/890 778/1/890 773/1/890 200/1/890
f 164/1/615 779/1/891 781/1/891 627/1/616
f 779/1/892 201/1/892 777/1/892 781/1/892
f 781/1/893 777/1/893 200/1/893 780/1/893
f 627/1/618 781/1/894 780/1/894 162/1/619
f 200/1/895 772/1/895 783/1/895 780/1/895
f 772/1/896 198/1/896 782/1/896 783/1/896
f 783/1/897 782/1/897 163/1/612 623/1/611
f 780/1/898 783/1/898 623/1/610 162/1/609
f 118/1/629 490/1/899 785/1/899 632/1/630
f 785/1/900 784/1/900 201/1/900 779/1/900
f 632/1/633 785/1/901 779/1/901 164/1/634
f 196/1/902 786/1/903 787/1/904 767/1/904
f 786/1/905 163/1/906 782/1/907 787/1/907
f 787/1/908 782/1/908 198/1/908 769/1/908
f 61/1/862 755/1/861 789/1/909 358/1/910
f 755/1/860 194/1/859 763/1/911 789/1/912
f 789/1/912 763/1/911 197/1/913 788/1/914
f 358/1/910 789/1/909 788/1/915 60/1/916
f 282/1/917 33/1/917 356/1/917 790/1/917
f 790/1/918 356/1/918 60/1/916 788/1/915
f 766/1/919 790/1/919 788/1/914 197/1/913
f 195/1/920 791/1/921 792/1/922 764/1/923
f 791/1/924 160/1/925 624/1/926 792/1/927
f 792/1/927 624/1/926 163/1/906 786/1/905
f 764/1/923 792/1/922 786/1/903 196/1/902
f 161/1/704 619/1/928 793/1/929 679/1/705
f 619/1/928 160/1/925 791/1/924 793/1/929
f 793/1/930 791/1/921 195/1/920 759/1/931
f 679/1/707 793/1/930 759/1/931 182/1/708
f 193/1/863 794/1/932 795/1/933 758/1/864
f 794/1/932 175/1/681 663/1/680 795/1/933
f 795/1/934 663/1/935 177/1/935 680/1/936
f 758/1/867 795/1/934 680/1/936 182/1/868
f 176/1/675 659/1/674 796/1/937 750/1/938
f 659/1/673 175/1/672 794/1/939 796/1/940
f 796/1/940 794/1/939 193/1/856 753/1/855
f 750/1/938 796/1/937 753/1/852 192/1/851
f 192/1/848 756/1/941 797/1/942 751/1/848
f 756/1/941 61/1/205 360/1/208 797/1/942
f 797/1/943 360/1/212 54/1/213 336/1/943
f 751/1/850 797/1/943 336/1/943 53/1/850
f 799/1/944 568/1/945 140/1/946 798/1/947
f 722/1/948 799/1/948 798/1/949 189/1/950
f 140/1/946 571/1/951 800/1/952 798/1/947
f 571/1/951 74/1/258 391/1/261 800/1/952
f 800/1/953 391/1/264 75/1/265 719/1/954
f 798/1/949 800/1/953 719/1/954 189/1/950
f 73/1/955 389/1/956 803/1/957 802/1/958
f 389/1/956 74/1/510 573/1/513 803/1/957
f 803/1/959 573/1/516 141/1/516 801/1/960
f 802/1/961 803/1/959 801/1/960 202/1/962
f 804/1/963 202/1/964 805/1/965 806/1/966
f 805/1/965 202/1/964 801/1/967 808/1/968
f 808/1/968 801/1/967 141/1/522 575/1/521
f 807/1/969 808/1/970 575/1/971 142/1/972
f 67/1/973 374/1/973 809/1/974 804/1/975
f 374/1/976 68/1/976 387/1/977 809/1/978
f 809/1/978 387/1/977 73/1/955 802/1/958
f 804/1/975 809/1/974 802/1/961 202/1/962
