# Blender 5.1.0
# www.blender.org
mtllib Lower Right eyelid.mtl
o Lower_Right_eyelid
v -0.304801 0.360365 1.151603
v -0.315694 0.369313 1.148393
v -0.306321 0.358864 1.157928
v -0.318692 0.371553 1.152527
v -0.302424 0.371226 1.164126
v -0.298946 0.376309 1.172457
v -0.301373 0.372689 1.169183
v -0.306546 0.402536 1.167830
v -0.310306 0.393761 1.165541
v -0.299302 0.342628 1.165319
v -0.314495 0.346894 1.158158
v -0.306861 0.326095 1.163944
v -0.339548 0.342667 1.155226
v -0.342860 0.360182 1.153464
v -0.321981 0.363353 1.155369
v -0.335369 0.320380 1.159578
v -0.300245 0.306456 1.171993
v -0.325614 0.376676 1.150228
v -0.328664 0.374264 1.153563
v -0.333658 0.380074 1.151388
v -0.345738 0.373092 1.153405
v -0.349145 0.380994 1.152804
v -0.372668 0.366842 1.156191
v -0.375435 0.376959 1.155872
v -0.413295 0.351062 1.164062
v -0.415979 0.363555 1.164539
v -0.456218 0.333718 1.171373
v -0.459061 0.347331 1.172633
v -0.411888 0.333802 1.163923
v -0.453165 0.316812 1.169896
v -0.371922 0.350194 1.157095
v -0.379592 0.382531 1.155533
v -0.352966 0.385401 1.150857
v -0.419492 0.372053 1.164460
v -0.336943 0.382767 1.148170
v -0.339966 0.383945 1.144060
v -0.356993 0.387938 1.148106
v -0.361588 0.389271 1.144542
v -0.299083 0.354612 1.142525
v -0.308549 0.359581 1.138933
v -0.298635 0.358049 1.141473
v -0.302339 0.364542 1.137769
v -0.312410 0.378481 1.137482
v -0.312835 0.375621 1.130470
v -0.311949 0.382011 1.146070
v -0.326830 0.398258 1.132990
v -0.325231 0.403305 1.143794
v -0.330408 0.392559 1.119583
v -0.313640 0.374182 1.127301
v -0.306227 0.366260 1.134543
v -0.312813 0.369267 1.132130
v -0.319624 0.374411 1.126460
v -0.327157 0.382804 1.118830
v -0.327777 0.380043 1.120377
v -0.305708 0.361927 1.138096
v -0.317298 0.368329 1.133526
v -0.347593 0.377975 1.119639
v -0.330088 0.374997 1.126381
v -0.337543 0.380284 1.118982
v -0.434841 0.386250 1.156642
v -0.475716 0.379307 1.162340
v -0.472968 0.378470 1.166511
v -0.593398 0.360093 1.176214
v -0.633076 0.362866 1.169739
v -0.553217 0.364895 1.174435
v -0.551856 0.361011 1.178337
v -0.591569 0.353141 1.178502
v -0.631048 0.355282 1.172120
v -0.667074 0.361100 1.161529
v -0.513834 0.370715 1.167986
v -0.512060 0.369963 1.172594
v -0.510192 0.366459 1.175986
v -0.470355 0.375687 1.169857
v -0.430559 0.384606 1.160488
v -0.426668 0.381738 1.162957
v -0.467811 0.371249 1.171954
v -0.465080 0.365364 1.172842
v -0.423063 0.377657 1.163959
v -0.506052 0.353039 1.178583
v -0.508237 0.360614 1.178000
v -0.503425 0.344325 1.178102
v -0.462036 0.357698 1.173088
v -0.500375 0.333247 1.176886
v -0.383615 0.386326 1.154607
v -0.497139 0.319431 1.175004
v -0.493640 0.303031 1.172865
v -0.489815 0.284069 1.171286
v -0.530432 0.274401 1.170933
v -0.534187 0.293250 1.173168
v -0.449424 0.297032 1.169128
v -0.537876 0.309806 1.175858
v -0.541401 0.324261 1.178339
v -0.581468 0.319276 1.176269
v -0.585097 0.332713 1.178285
v -0.544752 0.336461 1.180108
v -0.577769 0.304026 1.173418
v -0.547735 0.346436 1.180869
v -0.550117 0.354530 1.180466
v -0.588586 0.344046 1.179062
v -0.627434 0.345229 1.172990
v -0.623604 0.332646 1.172428
v -0.351272 0.383441 1.110834
v -0.351430 0.379408 1.114698
v -0.338286 0.393671 1.110975
v -0.339445 0.387855 1.112369
v -0.342113 0.393874 1.108975
v -0.339622 0.383116 1.114564
v -0.324571 0.408825 1.152646
v -0.311844 0.385323 1.154573
v -0.311791 0.388947 1.161488
v -0.858306 0.382223 1.002707
v -0.847666 0.387802 1.015351
v -0.854934 0.371110 1.008750
v -0.868356 0.367222 0.993038
v -0.869968 0.379361 0.989303
v -0.882599 0.366928 0.977215
v -0.880878 0.352673 0.981228
v -0.864670 0.354376 0.999692
v -0.876892 0.337818 0.988483
v -0.895652 0.338788 0.967428
v -0.891310 0.321677 0.975341
v -0.858405 0.341206 1.009367
v -0.870098 0.322886 0.999045
v -0.860062 0.308331 1.012535
v -0.849131 0.328155 1.021897
v -0.849171 0.359485 1.017721
v -0.840570 0.347815 1.029538
v -0.837500 0.395378 1.027267
v -0.842330 0.377754 1.023789
v -0.826525 0.404303 1.039462
v -0.829796 0.386614 1.038370
v -0.834230 0.367395 1.035150
v -0.819210 0.377342 1.052142
v -0.823163 0.357010 1.048987
v -0.805892 0.367522 1.067823
v -0.816230 0.396824 1.053127
v -0.803626 0.387626 1.068934
v -0.808883 0.346744 1.064734
v -0.828789 0.336416 1.043785
v -0.820081 0.304016 1.053661
v -0.836554 0.315554 1.036810
v -0.813479 0.325609 1.059886
v -0.647616 0.190503 1.147663
v -0.604360 0.192862 1.159239
v -0.689770 0.191071 1.133383
v -0.729974 0.194514 1.116438
v -0.767243 0.200874 1.097029
v -0.686474 0.218235 1.133504
v -0.646942 0.217181 1.146971
v -0.723917 0.221915 1.117566
v -0.605960 0.218868 1.157785
v -0.560817 0.197949 1.168091
v -0.564204 0.223278 1.165730
v -0.522274 0.230226 1.170797
v -0.800756 0.209929 1.075557
v -0.829975 0.221431 1.052943
v -0.789884 0.236351 1.079805
v -0.758616 0.227972 1.099507
v -0.817251 0.246764 1.059159
v -0.854336 0.235253 1.030448
v -0.840327 0.259051 1.038541
v -0.858695 0.273218 1.019371
v -0.873811 0.251112 1.009137
v -0.787944 0.395540 1.085255
v -0.545945 0.317028 0.647623
v -0.328694 0.296929 1.166614
v -0.363553 0.281509 1.167740
v -0.369508 0.305537 1.162537
v -0.394990 0.239700 1.178352
v -0.400765 0.265193 1.170788
v -0.357221 0.256092 1.176674
v -0.434088 0.226299 1.179151
v -0.439907 0.251233 1.172927
v -0.406016 0.289735 1.166580
v -0.445029 0.275038 1.169861
v -0.410237 0.312853 1.164678
v -0.371973 0.328947 1.159110
v -0.480666 0.239537 1.173151
v -0.485525 0.262775 1.171151
v -0.475157 0.214983 1.177905
v -0.526510 0.253335 1.169897
v -0.567455 0.246623 1.165756
v -0.570722 0.267868 1.167507
v -0.320091 0.274344 1.177476
v -0.752322 0.253068 1.103143
v -0.719832 0.246965 1.120264
v -0.781585 0.261036 1.084677
v -0.807205 0.270733 1.065504
v -0.799720 0.293608 1.071622
v -0.775697 0.284316 1.089786
v -0.828876 0.281951 1.046468
v -0.794478 0.315590 1.077120
v -0.771909 0.306449 1.094654
v -0.791176 0.336886 1.081567
v -0.769946 0.327609 1.098781
v -0.789376 0.357625 1.084568
v -0.769469 0.347956 1.101624
v -0.788557 0.377600 1.085710
v -0.770181 0.367351 1.102678
v -0.747836 0.357657 1.119603
v -0.746052 0.338911 1.118477
v -0.721802 0.348877 1.135756
v -0.719195 0.330955 1.134442
v -0.750338 0.374953 1.118582
v -0.724911 0.365362 1.135062
v -0.771606 0.385095 1.101525
v -0.745335 0.319129 1.115699
v -0.745964 0.298343 1.111823
v -0.748183 0.276407 1.107450
v -0.716771 0.291672 1.127966
v -0.717509 0.270115 1.123939
v -0.684660 0.286804 1.142423
v -0.683986 0.265820 1.138684
v -0.649945 0.284110 1.154619
v -0.648068 0.263790 1.151123
v -0.612945 0.284022 1.164045
v -0.652643 0.302758 1.158163
v -0.616258 0.301830 1.167454
v -0.686432 0.306295 1.146033
v -0.610150 0.264346 1.160851
v -0.684553 0.243061 1.135487
v -0.647076 0.241544 1.148357
v -0.717420 0.311893 1.131660
v -0.689096 0.324499 1.148869
v -0.846487 0.294526 1.028508
v -0.873162 0.288544 1.001937
v -0.883939 0.304790 0.987006
v -0.607848 0.242678 1.158537
v -0.574136 0.286971 1.170286
v -0.619833 0.318069 1.170416
v -0.655881 0.319995 1.161096
v -0.659458 0.335768 1.162874
v -0.692281 0.341422 1.150402
v -0.695787 0.356738 1.150102
v -0.663270 0.349727 1.163067
v -0.699267 0.369733 1.147824
v -0.727987 0.379676 1.132300
v -0.752256 0.389387 1.115941
v -0.309956 0.365108 1.149780
v -0.305207 0.360169 1.148193
v -0.316397 0.370205 1.150792
v -0.313379 0.366816 1.154480
v -0.305062 0.360165 1.154867
v -0.310704 0.365754 1.152566
v -0.300790 0.356056 1.153489
v -0.301046 0.356219 1.150077
v -0.299858 0.352275 1.160722
v -0.300560 0.355019 1.157053
v -0.300412 0.373973 1.170792
v -0.298422 0.363854 1.169994
v -0.296185 0.365582 1.173926
v -0.297583 0.364236 1.171924
v -0.308581 0.397474 1.166609
v -0.305224 0.382638 1.167754
v -0.301978 0.388527 1.170430
v -0.303876 0.384981 1.169078
v -0.296969 0.380694 1.175200
v -0.294137 0.368686 1.176992
v -0.299913 0.394258 1.172693
v -0.302005 0.371871 1.166980
v -0.298995 0.363796 1.167539
v -0.302632 0.350816 1.161911
v -0.297986 0.347173 1.164528
v -0.310772 0.336792 1.160598
v -0.305530 0.345446 1.161634
v -0.301639 0.335784 1.164680
v -0.318281 0.355742 1.156517
v -0.331574 0.362774 1.153890
v -0.341324 0.351939 1.154042
v -0.326187 0.345883 1.155832
v -0.329031 0.354998 1.154562
v -0.337478 0.332266 1.157062
v -0.319699 0.324314 1.160744
v -0.322984 0.335569 1.157852
v -0.313721 0.362034 1.156884
v -0.309344 0.354307 1.159121
v -0.303807 0.315752 1.167719
v -0.295248 0.297794 1.177009
v -0.322889 0.374796 1.151090
v -0.325725 0.376611 1.148998
v -0.321420 0.373665 1.149582
v -0.322743 0.373215 1.153384
v -0.328612 0.378335 1.150693
v -0.331429 0.377686 1.152580
v -0.326170 0.376401 1.152005
v -0.325438 0.369592 1.154438
v -0.318536 0.368443 1.154963
v -0.340414 0.381011 1.152103
v -0.347356 0.377631 1.153269
v -0.336296 0.374213 1.153400
v -0.338427 0.378142 1.152930
v -0.360453 0.380246 1.153727
v -0.373801 0.372676 1.155996
v -0.357526 0.371127 1.154170
v -0.358755 0.376410 1.154011
v -0.393685 0.371409 1.159534
v -0.414515 0.357865 1.164332
v -0.391232 0.359788 1.159528
v -0.392249 0.366290 1.159509
v -0.436180 0.341820 1.168424
v -0.438848 0.355147 1.169295
v -0.457638 0.340957 1.172085
v -0.437488 0.348950 1.168930
v -0.454748 0.325652 1.170583
v -0.433407 0.324914 1.167428
v -0.412401 0.343031 1.163876
v -0.434838 0.333799 1.167874
v -0.372138 0.359199 1.156555
v -0.390568 0.342375 1.160154
v -0.390684 0.351748 1.159727
v -0.351029 0.383503 1.151977
v -0.364986 0.384789 1.152793
v -0.377454 0.380107 1.155745
v -0.362662 0.382853 1.153333
v -0.397564 0.378454 1.159410
v -0.417683 0.368233 1.164579
v -0.395536 0.375360 1.159521
v -0.344264 0.367282 1.153364
v -0.356096 0.356125 1.154664
v -0.356798 0.364181 1.154347
v -0.334019 0.369107 1.153625
v -0.331227 0.379931 1.147334
v -0.335424 0.381679 1.149922
v -0.330084 0.379371 1.149188
v -0.338418 0.383510 1.146188
v -0.332426 0.380237 1.145212
v -0.347307 0.386567 1.145764
v -0.341657 0.384085 1.141853
v -0.351412 0.387262 1.141605
v -0.359201 0.388719 1.146461
v -0.349162 0.387054 1.143731
v -0.354921 0.386874 1.149552
v -0.343977 0.384610 1.149409
v -0.345633 0.385760 1.147676
v -0.342254 0.383077 1.150912
v -0.303077 0.356469 1.140877
v -0.310384 0.359083 1.138695
v -0.300241 0.353924 1.142375
v -0.304511 0.355817 1.140703
v -0.298489 0.355970 1.142260
v -0.312676 0.376940 1.133591
v -0.306623 0.369403 1.134568
v -0.306179 0.371348 1.140297
v -0.306295 0.370150 1.137129
v -0.306007 0.374458 1.147874
v -0.312146 0.380227 1.141708
v -0.306077 0.372878 1.143925
v -0.319572 0.387333 1.134719
v -0.318369 0.391351 1.144472
v -0.325893 0.400783 1.138611
v -0.318849 0.389335 1.139686
v -0.328053 0.395641 1.126934
v -0.320947 0.383300 1.125567
v -0.320457 0.385422 1.129729
v -0.309029 0.369783 1.131326
v -0.303872 0.364980 1.136018
v -0.312940 0.374570 1.128465
v -0.307433 0.369210 1.132698
v -0.309402 0.368189 1.133166
v -0.315679 0.374558 1.126638
v -0.315543 0.371230 1.129878
v -0.311689 0.370972 1.130296
v -0.328153 0.385738 1.118806
v -0.319934 0.379020 1.122853
v -0.320351 0.380780 1.123555
v -0.327077 0.381207 1.119440
v -0.324119 0.377807 1.122874
v -0.320890 0.378361 1.122737
v -0.301595 0.359472 1.139829
v -0.305282 0.363718 1.136757
v -0.302055 0.361819 1.138353
v -0.306903 0.360563 1.138775
v -0.302018 0.357706 1.140625
v -0.310846 0.365392 1.136005
v -0.314460 0.368748 1.132900
v -0.309376 0.366450 1.134986
v -0.320555 0.367907 1.133828
v -0.315339 0.364003 1.136509
v -0.312957 0.364613 1.136471
v -0.324127 0.371373 1.130286
v -0.334811 0.374950 1.126467
v -0.328302 0.371253 1.130438
v -0.324840 0.374609 1.126400
v -0.319767 0.371301 1.130010
v -0.334617 0.378172 1.122417
v -0.332190 0.380419 1.119499
v -0.329231 0.377960 1.122639
v -0.342665 0.379349 1.119087
v -0.339522 0.377745 1.122541
v -0.474325 0.379159 1.164511
v -0.453925 0.382504 1.162178
v -0.477129 0.378822 1.159993
v -0.613481 0.361247 1.173545
v -0.593933 0.362532 1.174244
v -0.613946 0.363735 1.171583
v -0.572797 0.359867 1.177854
v -0.552564 0.363356 1.176571
v -0.573416 0.362276 1.175952
v -0.592690 0.356824 1.177678
v -0.632385 0.359352 1.171169
v -0.611607 0.353886 1.175841
v -0.612813 0.357844 1.174955
v -0.668640 0.365644 1.160275
v -0.649581 0.357724 1.167300
v -0.651089 0.361954 1.166228
v -0.533871 0.367498 1.169080
v -0.492334 0.374350 1.169929
v -0.494549 0.375152 1.165576
v -0.512964 0.370711 1.170447
v -0.493441 0.375080 1.167879
v -0.532484 0.366865 1.174066
v -0.533212 0.367597 1.171752
v -0.530886 0.363112 1.177683
v -0.511133 0.368518 1.174452
v -0.531705 0.365349 1.176050
v -0.490138 0.371128 1.173267
v -0.471644 0.377293 1.168318
v -0.491232 0.373010 1.171742
v -0.495627 0.374472 1.162974
v -0.432652 0.385571 1.158675
v -0.450832 0.380172 1.165704
v -0.452348 0.381509 1.164064
v -0.469085 0.373665 1.171075
v -0.447931 0.376463 1.167944
v -0.428571 0.383326 1.161932
v -0.449367 0.378486 1.167007
v -0.444997 0.371508 1.168897
v -0.424839 0.379838 1.163581
v -0.466483 0.368480 1.172516
v -0.446483 0.374138 1.168530
v -0.485485 0.358964 1.176112
v -0.487925 0.365882 1.175333
v -0.507186 0.356986 1.178454
v -0.486748 0.362610 1.175862
v -0.482661 0.350482 1.176007
v -0.463575 0.361812 1.173031
v -0.504811 0.348918 1.178420
v -0.484116 0.354969 1.176148
v -0.501930 0.339113 1.177591
v -0.479665 0.339693 1.175088
v -0.460525 0.352882 1.172965
v -0.481174 0.345411 1.175646
v -0.441880 0.364846 1.169370
v -0.440327 0.360420 1.169437
v -0.421286 0.375138 1.164239
v -0.443453 0.368481 1.169173
v -0.381638 0.384562 1.155160
v -0.401489 0.383052 1.158832
v -0.399546 0.380968 1.159178
v -0.369311 0.387765 1.151165
v -0.405520 0.386488 1.157496
v -0.403454 0.384885 1.158321
v -0.367202 0.386385 1.152088
v -0.476565 0.325990 1.173520
v -0.498778 0.326674 1.176010
v -0.478131 0.333236 1.174365
v -0.473255 0.309323 1.171703
v -0.495428 0.311551 1.173924
v -0.474948 0.317995 1.172593
v -0.513960 0.297682 1.173374
v -0.532322 0.284112 1.171944
v -0.510136 0.278841 1.171462
v -0.491777 0.293866 1.171941
v -0.512078 0.288561 1.172297
v -0.469534 0.290125 1.170491
v -0.451393 0.307252 1.169389
v -0.471466 0.300031 1.170965
v -0.517579 0.314121 1.175788
v -0.536039 0.301811 1.174508
v -0.515795 0.306196 1.174578
v -0.520966 0.328235 1.177985
v -0.539664 0.317298 1.177158
v -0.519294 0.321492 1.176946
v -0.543105 0.330647 1.179334
v -0.565097 0.334057 1.179737
v -0.583282 0.326247 1.177395
v -0.561598 0.321254 1.177775
v -0.563361 0.327926 1.178861
v -0.557959 0.306455 1.175079
v -0.579645 0.311845 1.174921
v -0.559810 0.314076 1.176495
v -0.524156 0.339808 1.179474
v -0.522593 0.334331 1.178829
v -0.546305 0.341706 1.180620
v -0.526915 0.349095 1.180155
v -0.525603 0.344698 1.179916
v -0.529097 0.356802 1.179756
v -0.549011 0.350709 1.180826
v -0.528082 0.353124 1.180118
v -0.568339 0.344702 1.180552
v -0.571010 0.353254 1.180096
v -0.590165 0.348884 1.178946
v -0.569760 0.349259 1.180484
v -0.629308 0.350592 1.172726
v -0.608326 0.344242 1.176544
v -0.610064 0.349373 1.176361
v -0.604623 0.332253 1.175842
v -0.586878 0.338643 1.178848
v -0.625522 0.339214 1.172894
v -0.606493 0.338528 1.176369
v -0.566770 0.339640 1.180300
v -0.551061 0.357961 1.179686
v -0.509226 0.363807 1.177176
v -0.530022 0.360220 1.178940
v -0.489043 0.368746 1.174470
v -0.572044 0.356716 1.179310
v -0.410273 0.388674 1.154440
v -0.407786 0.387752 1.156208
v -0.351769 0.380999 1.112793
v -0.360429 0.381003 1.112807
v -0.359075 0.379506 1.114209
v -0.339839 0.393718 1.110047
v -0.345711 0.388303 1.109418
v -0.344386 0.385650 1.111226
v -0.338763 0.390937 1.111517
v -0.342111 0.389246 1.110354
v -0.334984 0.390028 1.114653
v -0.334535 0.397884 1.115426
v -0.335880 0.393577 1.113248
v -0.339741 0.385249 1.113301
v -0.333695 0.383929 1.116061
v -0.334251 0.386616 1.115331
v -0.339056 0.381556 1.116418
v -0.333273 0.382058 1.117383
v -0.345385 0.381344 1.114180
v -0.345378 0.383147 1.112501
v -0.350098 0.378462 1.116954
v -0.344555 0.380168 1.116354
v -0.324826 0.406037 1.148527
v -0.311852 0.383678 1.150421
v -0.317881 0.395434 1.153166
v -0.318074 0.393349 1.149016
v -0.311892 0.387054 1.158332
v -0.317479 0.400646 1.159670
v -0.324377 0.411861 1.156074
v -0.317747 0.397874 1.156776
v -0.355280 0.384234 1.109641
v -0.348988 0.388352 1.108338
v -0.363124 0.382208 1.111766
v -0.859227 0.387482 1.000787
v -0.854248 0.389704 1.006639
v -0.856905 0.376745 1.005353
v -0.851026 0.379508 1.012365
v -0.849443 0.392509 1.012269
v -0.852933 0.384704 1.009117
v -0.864573 0.385871 0.994645
v -0.869368 0.373415 0.990848
v -0.862997 0.374700 0.998162
v -0.863977 0.380423 0.996093
v -0.875977 0.373028 0.983494
v -0.879214 0.345287 0.984425
v -0.870499 0.346055 0.994339
v -0.866815 0.360859 0.995974
v -0.874331 0.359865 0.987385
v -0.872729 0.353017 0.990453
v -0.881968 0.359894 0.978851
v -0.875374 0.366551 0.985095
v -0.889835 0.361086 0.970460
v -0.896888 0.347230 0.964907
v -0.888018 0.345634 0.974557
v -0.889161 0.353455 0.972117
v -0.893821 0.330246 0.970902
v -0.883876 0.329663 0.982120
v -0.886291 0.337673 0.977881
v -0.873873 0.330335 0.993370
v -0.863977 0.332028 1.004436
v -0.861888 0.347810 1.004165
v -0.867604 0.339040 0.999012
v -0.854312 0.318273 1.017396
v -0.854162 0.334643 1.015295
v -0.865507 0.315537 1.005458
v -0.859553 0.325096 1.010578
v -0.844574 0.337974 1.025950
v -0.845252 0.353628 1.023290
v -0.853488 0.350343 1.013798
v -0.849425 0.344123 1.019535
v -0.852370 0.365343 1.012877
v -0.859463 0.362737 1.004516
v -0.856804 0.356580 1.008796
v -0.861520 0.368784 1.000962
v -0.845307 0.382869 1.019201
v -0.839738 0.386760 1.025817
v -0.840134 0.399473 1.023010
v -0.844729 0.395786 1.017722
v -0.842554 0.391400 1.021379
v -0.834054 0.391050 1.032417
v -0.828046 0.395786 1.039078
v -0.832201 0.399652 1.033251
v -0.831829 0.377104 1.037077
v -0.838653 0.372571 1.029122
v -0.836169 0.381960 1.031076
v -0.829063 0.362228 1.041796
v -0.821030 0.367203 1.050854
v -0.824803 0.382101 1.044995
v -0.826761 0.372218 1.043702
v -0.804713 0.377777 1.068578
v -0.810243 0.392339 1.060836
v -0.817609 0.387350 1.052825
v -0.812963 0.372424 1.059774
v -0.811528 0.382612 1.060494
v -0.821676 0.400826 1.045959
v -0.823112 0.391769 1.045662
v -0.807230 0.357161 1.066531
v -0.816452 0.351819 1.056675
v -0.814560 0.362138 1.058495
v -0.837125 0.357626 1.032621
v -0.845444 0.368631 1.021079
v -0.841661 0.363111 1.026510
v -0.835086 0.342078 1.036397
v -0.825720 0.346756 1.046622
v -0.831813 0.352185 1.039349
v -0.816515 0.314868 1.056921
v -0.821601 0.330913 1.051643
v -0.832403 0.325997 1.040498
v -0.828846 0.309616 1.045020
v -0.824955 0.320301 1.048505
v -0.810948 0.336233 1.062503
v -0.818775 0.341420 1.054379
v -0.843274 0.321776 1.029091
v -0.838909 0.331922 1.032964
v -0.848540 0.374131 1.016364
v -0.648225 0.176217 1.148984
v -0.603618 0.179021 1.161017
v -0.626071 0.191326 1.153791
v -0.625968 0.177252 1.155346
v -0.668890 0.190414 1.140860
v -0.691969 0.176414 1.134174
v -0.670267 0.175937 1.141924
v -0.710170 0.192451 1.125241
v -0.733763 0.179802 1.116600
v -0.713195 0.177686 1.125754
v -0.749032 0.197342 1.107028
v -0.772485 0.186373 1.096231
v -0.753565 0.182711 1.106743
v -0.647182 0.204147 1.147014
v -0.666937 0.217364 1.140559
v -0.687948 0.204974 1.133185
v -0.667778 0.204205 1.140427
v -0.705498 0.219757 1.125828
v -0.726684 0.208547 1.116774
v -0.707613 0.206434 1.125286
v -0.605133 0.206142 1.158189
v -0.626587 0.217682 1.152723
v -0.626269 0.204796 1.152944
v -0.582582 0.195083 1.164006
v -0.539130 0.201413 1.171506
v -0.519996 0.218016 1.172168
v -0.543227 0.226446 1.168618
v -0.562538 0.210852 1.166572
v -0.541227 0.214142 1.169713
v -0.585139 0.220741 1.162123
v -0.583864 0.208172 1.162735
v -0.815936 0.215388 1.064330
v -0.837429 0.208071 1.049850
v -0.807272 0.195871 1.073646
v -0.822967 0.201650 1.061826
v -0.784506 0.205079 1.086497
v -0.762620 0.214710 1.098107
v -0.774710 0.231892 1.089823
v -0.794972 0.223392 1.077598
v -0.779279 0.218758 1.088042
v -0.804079 0.241316 1.069543
v -0.823262 0.234297 1.056034
v -0.809650 0.228581 1.066889
v -0.842799 0.228053 1.041584
v -0.862477 0.222768 1.026118
v -0.850595 0.215126 1.037910
v -0.846993 0.247299 1.034520
v -0.829353 0.252675 1.048773
v -0.835742 0.240530 1.045174
v -0.865888 0.262292 1.014419
v -0.864650 0.242963 1.019602
v -0.850048 0.265945 1.028740
v -0.856997 0.254592 1.024273
v -0.509764 0.284465 0.718775
v -0.550764 0.314157 0.649556
v -0.518653 0.280937 0.720317
v -0.332443 0.308276 1.162716
v -0.313331 0.302141 1.168683
v -0.316746 0.312698 1.164383
v -0.352364 0.313301 1.160646
v -0.366687 0.293645 1.164822
v -0.345639 0.289887 1.166468
v -0.349181 0.301657 1.163197
v -0.376074 0.247441 1.177485
v -0.360342 0.269003 1.171558
v -0.381961 0.273080 1.169293
v -0.397933 0.252483 1.174066
v -0.379030 0.260349 1.172824
v -0.420077 0.257947 1.172047
v -0.437072 0.238824 1.175593
v -0.414275 0.232687 1.178958
v -0.417258 0.245331 1.175033
v -0.425218 0.282148 1.168432
v -0.442561 0.263335 1.171051
v -0.403469 0.277618 1.168349
v -0.422732 0.270248 1.169887
v -0.387471 0.297608 1.164584
v -0.384826 0.285485 1.166635
v -0.408327 0.301510 1.165397
v -0.371541 0.317251 1.160732
v -0.390486 0.321108 1.161809
v -0.389636 0.309459 1.163082
v -0.429717 0.304744 1.167189
v -0.447310 0.286278 1.169247
v -0.427529 0.293649 1.167563
v -0.460136 0.245066 1.173333
v -0.465174 0.268546 1.170798
v -0.483171 0.251366 1.171845
v -0.462738 0.257000 1.171741
v -0.501400 0.234595 1.172306
v -0.478001 0.227381 1.175134
v -0.498901 0.222438 1.173972
v -0.454402 0.220437 1.178817
v -0.457362 0.232848 1.175658
v -0.524439 0.242017 1.170065
v -0.506000 0.257735 1.170864
v -0.503764 0.246389 1.171291
v -0.547016 0.249631 1.168207
v -0.565836 0.235207 1.165485
v -0.545150 0.238285 1.168142
v -0.487734 0.273690 1.170995
v -0.528501 0.264135 1.170219
v -0.508117 0.268559 1.170952
v -0.550645 0.270753 1.169625
v -0.569078 0.257513 1.166460
v -0.548841 0.260458 1.168732
v -0.467437 0.279606 1.170410
v -0.411359 0.323667 1.164205
v -0.371752 0.340224 1.157858
v -0.390535 0.332144 1.160805
v -0.354189 0.337524 1.156413
v -0.355091 0.347306 1.155285
v -0.354075 0.325542 1.158388
v -0.431735 0.315244 1.167176
v -0.354141 0.243231 1.183051
v -0.373067 0.234688 1.183339
v -0.338296 0.265359 1.176478
v -0.303922 0.282220 1.179746
v -0.324378 0.285630 1.171495
v -0.308667 0.292044 1.173766
v -0.341932 0.277751 1.170818
v -0.315803 0.407657 1.163208
v -0.314249 0.412265 1.164266
v -0.311325 0.391057 1.163894
v -0.316879 0.403849 1.161772
v -0.306434 0.379689 1.163137
v -0.306016 0.380990 1.165807
v -0.741648 0.224659 1.108773
v -0.745067 0.211284 1.107706
v -0.721642 0.234700 1.118755
v -0.736455 0.249759 1.111906
v -0.755190 0.240750 1.101211
v -0.738787 0.237473 1.110200
v -0.767397 0.256809 1.094046
v -0.785423 0.248886 1.082180
v -0.770755 0.244561 1.091844
v -0.778354 0.272830 1.087233
v -0.788158 0.288806 1.080722
v -0.803165 0.282290 1.068610
v -0.794873 0.265686 1.075130
v -0.791213 0.277387 1.077950
v -0.810367 0.298680 1.062569
v -0.824197 0.293049 1.050157
v -0.818533 0.276170 1.055916
v -0.814153 0.287524 1.059316
v -0.796835 0.304696 1.074477
v -0.773562 0.295521 1.092276
v -0.783625 0.310896 1.085898
v -0.785639 0.299964 1.083394
v -0.770720 0.317137 1.096845
v -0.780979 0.332176 1.090169
v -0.792607 0.326313 1.079501
v -0.782086 0.321629 1.088175
v -0.790122 0.347326 1.083273
v -0.769542 0.337883 1.100396
v -0.779867 0.352737 1.093079
v -0.780256 0.342547 1.091823
v -0.798012 0.362597 1.076128
v -0.788879 0.367742 1.085395
v -0.796397 0.382754 1.077264
v -0.797157 0.372839 1.076929
v -0.769686 0.357802 1.102409
v -0.779880 0.372421 1.094178
v -0.779755 0.362709 1.093890
v -0.758200 0.343326 1.110119
v -0.746830 0.348430 1.119281
v -0.759472 0.362421 1.111182
v -0.758709 0.353021 1.110901
v -0.733039 0.334769 1.126614
v -0.720422 0.340071 1.135315
v -0.735273 0.353121 1.127827
v -0.734056 0.344094 1.127450
v -0.723304 0.357325 1.135688
v -0.738120 0.370045 1.126954
v -0.749010 0.366516 1.119380
v -0.736627 0.361785 1.127682
v -0.761598 0.380001 1.110015
v -0.770935 0.376527 1.102339
v -0.760483 0.371452 1.110880
v -0.758064 0.323238 1.107320
v -0.745541 0.329141 1.117260
v -0.757971 0.333394 1.108903
v -0.788245 0.386980 1.085595
v -0.780247 0.390324 1.093329
v -0.780130 0.381752 1.093906
v -0.802646 0.396777 1.069081
v -0.795666 0.392075 1.077306
v -0.800471 0.341763 1.073055
v -0.799088 0.352229 1.074817
v -0.804447 0.320489 1.068411
v -0.802237 0.331187 1.070907
v -0.762345 0.280195 1.098723
v -0.746848 0.287532 1.109667
v -0.759357 0.302240 1.103325
v -0.760625 0.291363 1.101062
v -0.733228 0.273031 1.115878
v -0.716956 0.281075 1.125951
v -0.731751 0.294805 1.120066
v -0.732282 0.284087 1.117985
v -0.701060 0.288989 1.135444
v -0.701076 0.267700 1.131569
v -0.684177 0.276515 1.140527
v -0.700904 0.278536 1.133493
v -0.667614 0.285155 1.148831
v -0.666305 0.264500 1.145212
v -0.648898 0.274175 1.152821
v -0.666832 0.275042 1.146983
v -0.614542 0.293146 1.165765
v -0.634756 0.301946 1.163226
v -0.651197 0.293628 1.156429
v -0.631709 0.283721 1.159725
v -0.633157 0.293038 1.161501
v -0.669880 0.304230 1.152408
v -0.685417 0.296722 1.144286
v -0.668635 0.294875 1.150668
v -0.629331 0.263729 1.156361
v -0.611481 0.274431 1.162379
v -0.630432 0.273962 1.157982
v -0.684106 0.254681 1.136977
v -0.718461 0.258755 1.122016
v -0.702504 0.244725 1.128147
v -0.701602 0.256441 1.129760
v -0.666062 0.241989 1.142229
v -0.647461 0.252919 1.149611
v -0.666046 0.253493 1.143602
v -0.702278 0.308866 1.139097
v -0.716931 0.301936 1.129896
v -0.701524 0.299091 1.137340
v -0.687674 0.315550 1.147583
v -0.704552 0.327521 1.141884
v -0.718184 0.321563 1.133199
v -0.703302 0.318340 1.140633
v -0.731785 0.315330 1.123833
v -0.732269 0.325180 1.125385
v -0.745468 0.308868 1.113861
v -0.731605 0.305212 1.122035
v -0.750000 0.264930 1.105247
v -0.734611 0.261597 1.113824
v -0.764596 0.268687 1.096357
v -0.758513 0.312859 1.105437
v -0.807145 0.309658 1.065615
v -0.834244 0.270626 1.042579
v -0.838216 0.288058 1.037274
v -0.852231 0.283942 1.024056
v -0.843766 0.277110 1.033106
v -0.853737 0.301311 1.020238
v -0.841262 0.305073 1.032781
v -0.848229 0.311586 1.024819
v -0.866391 0.280763 1.010409
v -0.866331 0.298408 1.007399
v -0.859754 0.291041 1.015452
v -0.876765 0.313781 0.993217
v -0.879000 0.296560 0.994101
v -0.871983 0.306005 0.999960
v -0.888029 0.313179 0.980728
v -0.880713 0.321685 0.987248
v -0.881862 0.259648 0.999158
v -0.873744 0.270325 1.004989
v -0.833274 0.298870 1.041250
v -0.811893 0.258907 1.062333
v -0.823599 0.264562 1.052381
v -0.799161 0.253673 1.072312
v -0.587757 0.244305 1.162533
v -0.606857 0.231052 1.157929
v -0.586430 0.232790 1.162082
v -0.608942 0.253766 1.159538
v -0.627646 0.241762 1.153802
v -0.628406 0.252995 1.154945
v -0.646906 0.229632 1.147444
v -0.627042 0.230001 1.153037
v -0.590591 0.265709 1.164579
v -0.589140 0.255274 1.163389
v -0.685341 0.230920 1.134298
v -0.666360 0.229948 1.141181
v -0.703798 0.232508 1.126809
v -0.554256 0.289710 1.172142
v -0.572405 0.277684 1.168808
v -0.552444 0.280509 1.170789
v -0.575922 0.295749 1.171847
v -0.556094 0.298354 1.173600
v -0.597229 0.302513 1.170864
v -0.593729 0.285081 1.167588
v -0.595431 0.294038 1.169229
v -0.592119 0.275639 1.166012
v -0.600913 0.318230 1.173816
v -0.618040 0.310128 1.169025
v -0.599083 0.310555 1.172414
v -0.621686 0.325587 1.171563
v -0.641891 0.333872 1.168071
v -0.657624 0.328084 1.162160
v -0.638178 0.318703 1.166189
v -0.639990 0.326509 1.167285
v -0.676249 0.338317 1.156955
v -0.690633 0.333135 1.149833
v -0.672859 0.321955 1.155293
v -0.674501 0.330323 1.156312
v -0.694011 0.349313 1.150504
v -0.661351 0.343007 1.163191
v -0.679960 0.352954 1.156881
v -0.678082 0.345885 1.157155
v -0.697583 0.363584 1.149187
v -0.665209 0.355775 1.162484
v -0.683641 0.365137 1.154986
v -0.681854 0.359400 1.156139
v -0.728519 0.385270 1.130642
v -0.714064 0.374685 1.140220
v -0.714975 0.380260 1.138509
v -0.752286 0.394830 1.114352
v -0.740785 0.384499 1.124177
v -0.741051 0.390013 1.122521
v -0.762665 0.394217 1.107701
v -0.751621 0.382749 1.117323
v -0.771921 0.392711 1.100650
v -0.762376 0.387678 1.108901
v -0.726573 0.372888 1.133875
v -0.739692 0.377764 1.125677
v -0.710765 0.360916 1.142806
v -0.712493 0.368139 1.141740
v -0.645762 0.347110 1.168477
v -0.643830 0.340767 1.168491
v -0.647713 0.352784 1.168054
v -0.707464 0.344968 1.143310
v -0.709078 0.353160 1.143325
v -0.705954 0.336408 1.142799
v -0.654233 0.311537 1.159739
v -0.671312 0.313249 1.153970
v -0.636449 0.310495 1.164810
v -0.602759 0.325475 1.174976
v -0.809119 0.401243 1.061009
v -0.306178 0.377195 1.156023
v -0.306393 0.378434 1.159817
v -0.306034 0.375891 1.151975
vn 0.6783 0.7324 0.0591
vn 0.6133 0.7874 -0.0619
vn 0.5673 0.7828 0.2558
vn 0.5674 0.7826 0.2562
vn 0.5392 0.7016 0.4659
vn 0.5409 0.7032 0.4615
vn 0.5408 0.7030 0.4619
vn 0.7255 0.6842 -0.0740
vn 0.7255 0.6842 -0.0741
vn 0.7255 0.6842 -0.0737
vn 0.7087 0.6936 0.1289
vn 0.5390 0.7015 0.4662
vn -0.7255 -0.1119 0.6790
vn -0.8304 -0.2042 0.5185
vn -0.5191 -0.0182 0.8545
vn -0.5403 -0.0575 0.8395
vn -0.6908 -0.1346 0.7104
vn -0.6199 -0.0472 0.7833
vn -0.7577 -0.0938 0.6458
vn -0.7273 -0.0482 0.6846
vn -0.9094 -0.2970 0.2911
vn 0.0807 0.5330 0.8423
vn -0.3697 0.1136 0.9222
vn -0.1932 0.0871 0.9773
vn -0.1693 0.0478 0.9844
vn -0.0552 0.0637 0.9964
vn -0.0715 0.1143 0.9909
vn -0.0869 0.1609 0.9831
vn -0.1114 0.2014 0.9731
vn -0.2482 0.1887 0.9502
vn -0.2178 0.1372 0.9663
vn -0.2165 0.1003 0.9711
vn -0.3072 0.0904 0.9473
vn -0.3793 0.1577 0.9117
vn -0.1063 0.3172 0.9424
vn 0.5745 0.8154 -0.0713
vn 0.5782 0.8145 0.0485
vn 0.1546 0.4579 0.8755
vn 0.4510 0.7480 0.4869
vn 0.4906 0.8248 0.2812
vn 0.2848 0.6921 0.6633
vn 0.1276 0.4382 0.8898
vn 0.3196 0.5942 0.7381
vn 0.0196 0.2659 0.9638
vn -0.1076 0.1512 0.9826
vn 0.0182 0.2055 0.9785
vn 0.1132 0.4340 0.8938
vn 0.0503 0.2319 0.9714
vn 0.0119 0.0766 0.9970
vn 0.0584 0.0469 0.9972
vn 0.0611 0.1325 0.9893
vn 0.1135 0.0963 0.9889
vn 0.1226 0.0475 0.9913
vn 0.1166 0.0564 0.9916
vn 0.1166 0.0558 0.9916
vn 0.1559 0.0456 0.9867
vn 0.1656 0.0460 0.9851
vn 0.1648 0.0455 0.9853
vn 0.1707 0.0661 0.9831
vn 0.2035 0.0336 0.9785
vn 0.1887 0.0174 0.9819
vn 0.2008 0.0153 0.9795
vn 0.2000 0.0153 0.9797
vn 0.1695 -0.0512 0.9842
vn 0.1620 -0.0536 0.9853
vn 0.1700 -0.0512 0.9841
vn 0.1982 -0.0183 0.9800
vn 0.1894 -0.0186 0.9817
vn 0.1988 -0.0185 0.9799
vn 0.1998 0.0003 0.9798
vn 0.1715 -0.0335 0.9846
vn 0.1887 -0.0187 0.9818
vn 0.1615 -0.0538 0.9854
vn 0.1448 -0.0386 0.9887
vn 0.1697 -0.0035 0.9855
vn 0.1431 0.0546 0.9882
vn 0.1551 0.0461 0.9868
vn 0.1877 0.0176 0.9821
vn 0.1689 0.0308 0.9852
vn 0.0771 0.2894 0.9541
vn 0.0954 0.4829 0.8705
vn 0.1182 0.2850 0.9512
vn 0.1147 0.1728 0.9783
vn 0.1953 0.0774 0.9777
vn 0.1689 0.1114 0.9793
vn 0.1621 0.1793 0.9704
vn 0.1824 0.1336 0.9741
vn 0.0739 0.0377 0.9965
vn 0.0671 0.0222 0.9975
vn 0.1274 0.0560 0.9903
vn 0.1235 0.0480 0.9912
vn 0.1276 0.0566 0.9902
vn -0.1270 0.0347 0.9913
vn -0.0624 0.0768 0.9951
vn -0.0148 0.0118 0.9998
vn -0.0354 0.0170 0.9992
vn 0.5153 0.8570 0.0060
vn 0.4308 0.8977 0.0923
vn 0.3816 0.8571 0.3460
vn 0.4532 0.8888 -0.0681
vn 0.1840 0.9740 0.1325
vn 0.3217 0.9378 -0.1304
vn 0.1747 0.9845 -0.0152
vn 0.3237 0.9456 0.0326
vn 0.1904 0.9324 0.3071
vn 0.1805 0.8404 0.5110
vn 0.3073 0.9273 0.2136
vn 0.2060 0.6985 0.6854
vn 0.2059 0.6981 0.6857
vn 0.2703 0.8634 0.4260
vn 0.1472 0.6950 0.7038
vn 0.0995 0.4683 0.8780
vn -0.2534 0.2652 0.9303
vn -0.2014 0.2315 0.9518
vn -0.7717 -0.5777 0.2659
vn -0.7716 -0.5776 0.2663
vn -0.7668 -0.5795 0.2760
vn -0.7665 -0.5797 0.2765
vn -0.7780 -0.5661 0.2724
vn -0.7854 -0.5646 0.2537
vn -0.8131 -0.4782 0.3319
vn -0.7919 -0.5310 0.3015
vn -0.8080 -0.5206 0.2760
vn -0.8278 -0.4688 0.3082
vn -0.7997 -0.4865 0.3520
vn -0.7696 -0.4886 0.4111
vn -0.7563 -0.5629 0.3334
vn -0.7752 -0.5484 0.3136
vn -0.7322 -0.2113 0.6475
vn -0.4398 0.3400 0.8312
vn -0.4395 0.3402 0.8313
vn -0.8010 -0.3358 0.4956
vn -0.7725 -0.5285 0.3521
vn -0.0014 0.7328 0.6804
vn 0.1206 0.7381 0.6638
vn -0.0467 0.6660 0.7445
vn -0.0466 0.6661 0.7444
vn -0.0462 0.6663 0.7442
vn -0.0465 0.6662 0.7443
vn -0.0449 0.6959 0.7167
vn -0.7149 -0.4025 0.5718
vn -0.7386 -0.5462 0.3953
vn -0.6965 -0.3920 0.6010
vn -0.6024 -0.2889 0.7441
vn -0.3264 0.3214 0.8889
vn -0.0901 0.6679 0.7388
vn -0.0699 0.6722 0.7370
vn -0.2637 0.4653 0.8449
vn -0.0415 0.5618 0.8263
vn -0.1062 0.5881 0.8018
vn -0.0813 0.4590 0.8847
vn -0.1417 0.3442 0.9282
vn -0.2386 0.3337 0.9120
vn -0.2609 0.3836 0.8859
vn 0.0338 0.6981 0.7152
vn 0.0751 0.6057 0.7922
vn 0.1406 0.6957 0.7045
vn 0.0462 0.7385 0.6727
vn -0.0216 0.6054 0.7956
vn -0.0995 0.3656 0.9254
vn -0.0145 0.4886 0.8724
vn -0.0088 0.7102 0.7039
vn 0.0043 0.7358 0.6772
vn 0.0368 0.7786 0.6264
vn 0.0379 0.7784 0.6267
vn 0.0405 0.7775 0.6276
vn 0.0271 0.7519 0.6588
vn 0.0268 0.7516 0.6590
vn 0.0267 0.7516 0.6591
vn 0.0539 0.7722 0.6331
vn 0.0412 0.7772 0.6279
vn -0.0349 0.8057 0.5914
vn 0.0299 0.7803 0.6247
vn 0.0060 0.7401 0.6725
vn -0.0362 0.7466 0.6643
vn -0.0250 0.7829 0.6216
vn -0.1012 0.8356 0.5399
vn -0.0578 0.6150 0.7864
vn -0.0685 0.6138 0.7865
vn -0.0676 0.6141 0.7863
vn -0.0568 0.6147 0.7867
vn -0.1229 0.1809 0.9758
vn -0.1032 0.3755 0.9211
vn -0.1513 0.3499 0.9245
vn -0.1743 0.1668 0.9705
vn -0.2862 0.1505 0.9463
vn -0.2308 0.1550 0.9606
vn -0.2308 0.1546 0.9606
vn -0.2308 0.1545 0.9607
vn -0.1503 0.9078 0.3917
vn -0.1244 0.9104 0.3946
vn -0.1845 0.9712 0.1508
vn -0.2077 0.9729 0.1018
vn -0.1179 0.9288 0.3513
vn -0.1536 0.9878 0.0275
vn -0.0713 0.7745 0.6285
vn -0.0714 0.7747 0.6283
vn -0.0624 0.7912 0.6084
vn -0.0285 0.5853 0.8103
vn -0.0348 0.5879 0.8082
vn -0.0348 0.5870 0.8089
vn -0.0278 0.5857 0.8100
vn -0.0300 0.6033 0.7970
vn -0.0155 0.6538 0.7565
vn -0.0668 0.7977 0.5994
vn -0.0868 0.7700 0.6322
vn -0.2378 0.9653 -0.1075
vn -0.0229 0.8206 0.5710
vn -0.0572 0.8971 0.4381
vn -0.0596 0.8393 0.5404
vn -0.0144 0.7274 0.6861
vn 0.0335 0.5787 0.8149
vn 0.0786 0.4182 0.9049
vn 0.0751 0.5288 0.8454
vn 0.0236 0.6940 0.7196
vn 0.1376 0.1865 0.9728
vn 0.1493 0.2494 0.9568
vn 0.1222 0.3597 0.9250
vn 0.1155 0.2778 0.9537
vn 0.0996 0.0810 0.9917
vn 0.1206 0.1310 0.9840
vn 0.1205 0.1313 0.9840
vn 0.1012 0.2173 0.9709
vn 0.0823 0.1666 0.9826
vn 0.1094 -0.0160 0.9939
vn 0.1328 0.0365 0.9905
vn 0.1288 0.0785 0.9886
vn 0.1086 0.0194 0.9939
vn 0.1121 -0.0517 0.9924
vn 0.1134 -0.0780 0.9905
vn 0.1384 -0.0416 0.9895
vn 0.1369 -0.0070 0.9906
vn 0.1667 0.0021 0.9860
vn 0.1917 0.0434 0.9805
vn 0.1804 0.0957 0.9789
vn 0.1599 0.0470 0.9860
vn 0.1700 0.1458 0.9746
vn 0.1606 0.1932 0.9679
vn 0.1464 0.1371 0.9797
vn 0.1529 0.0937 0.9838
vn 0.1534 0.2628 0.9526
vn 0.1430 0.3610 0.9215
vn 0.1576 0.2571 0.9534
vn 0.1698 0.1927 0.9665
vn 0.1086 0.4807 0.8701
vn 0.1425 0.3388 0.9300
vn 0.1166 0.7869 0.6059
vn 0.1227 0.4125 0.9027
vn 0.1100 0.6448 0.7564
vn 0.1070 -0.1020 0.9890
vn 0.1010 -0.1032 0.9895
vn 0.1082 -0.1025 0.9888
vn 0.1124 -0.0949 0.9891
vn 0.1364 -0.0782 0.9876
vn 0.1321 -0.0803 0.9880
vn 0.1368 -0.0775 0.9876
vn 0.1386 -0.0665 0.9881
vn 0.1385 -0.0660 0.9882
vn 0.1121 -0.0945 0.9892
vn 0.0898 -0.0942 0.9915
vn 0.1190 -0.0669 0.9906
vn 0.1318 -0.0803 0.9880
vn 0.1008 -0.1040 0.9895
vn 0.0472 -0.0991 0.9940
vn 0.0131 -0.1223 0.9924
vn -0.0009 -0.0948 0.9955
vn 0.0312 -0.0699 0.9971
vn 0.0751 -0.0747 0.9944
vn 0.0573 -0.0458 0.9973
vn 0.0802 -0.0209 0.9966
vn 0.1008 -0.0466 0.9938
vn 0.0242 -0.1422 0.9895
vn 0.0284 -0.1468 0.9888
vn 0.0284 -0.1469 0.9888
vn 0.0596 -0.1190 0.9911
vn 0.0598 -0.1191 0.9911
vn 0.0639 -0.1235 0.9903
vn 0.0716 -0.1288 0.9891
vn 0.0715 -0.1288 0.9891
vn 0.0358 -0.1528 0.9876
vn 0.0794 -0.1227 0.9893
vn 0.0770 -0.1260 0.9890
vn 0.0436 -0.1492 0.9879
vn 0.0414 -0.1516 0.9876
vn 0.0413 -0.1517 0.9876
vn -0.0029 -0.1582 0.9874
vn -0.0032 -0.1377 0.9905
vn -0.0603 -0.1552 0.9860
vn -0.0574 -0.1744 0.9830
vn -0.0588 -0.1954 0.9790
vn -0.0561 -0.1978 0.9786
vn -0.0561 -0.1904 0.9801
vn -0.0568 -0.1983 0.9785
vn -0.0112 -0.1754 0.9844
vn -0.0090 -0.1770 0.9842
vn -0.0046 -0.1722 0.9850
vn -0.0071 -0.1773 0.9841
vn -0.0034 -0.1723 0.9850
vn -0.0559 -0.1901 0.9802
vn 0.0815 -0.1067 0.9910
vn 0.0815 -0.0841 0.9931
vn 0.0466 -0.1115 0.9927
vn 0.0458 -0.1336 0.9900
vn 0.0397 -0.0414 0.9984
vn 0.0446 -0.0805 0.9958
vn 0.0805 -0.0557 0.9952
vn 0.0780 -0.0237 0.9967
vn 0.0317 0.0190 0.9993
vn 0.0696 0.0408 0.9967
vn 0.0578 0.1269 0.9902
vn 0.0222 0.1020 0.9945
vn -0.0742 -0.0042 0.9972
vn -0.0165 0.0075 0.9998
vn -0.0228 0.0884 0.9958
vn -0.0769 0.0755 0.9942
vn -0.1279 -0.0128 0.9917
vn -0.1280 0.0658 0.9896
vn -0.1829 0.0549 0.9816
vn -0.1854 -0.0220 0.9824
vn -0.1804 -0.1286 0.9752
vn -0.1220 -0.1244 0.9847
vn -0.1258 -0.0747 0.9892
vn -0.1841 -0.0814 0.9795
vn -0.0058 -0.1005 0.9949
vn -0.0105 -0.0543 0.9985
vn -0.0699 -0.0662 0.9954
vn -0.0650 -0.1164 0.9911
vn 0.0084 0.4061 0.9138
vn -0.0109 0.3991 0.9169
vn 0.0090 0.2293 0.9733
vn 0.0372 0.2508 0.9673
vn 0.0708 0.3414 0.9373
vn 0.0309 0.4942 0.8688
vn 0.0175 0.4351 0.9002
vn 0.0550 0.2856 0.9568
vn -0.0302 0.2132 0.9765
vn -0.0693 0.3999 0.9139
vn -0.0765 0.1971 0.9774
vn -0.0061 0.8208 0.5712
vn 0.0500 0.6721 0.7387
vn 0.0015 0.6493 0.7605
vn -0.4535 0.2730 0.8484
vn -0.3436 0.2680 0.9001
vn -0.2461 0.4589 0.8537
vn -0.4138 0.3950 0.8202
vn -0.5837 0.2447 0.7743
vn -0.7583 -0.0208 0.6516
vn -0.5911 -0.1802 0.7862
vn -0.4488 0.2004 0.8709
vn -0.3349 0.3196 0.8864
vn -0.4433 -0.0025 0.8964
vn -0.4433 -0.0022 0.8964
vn -0.1225 0.8108 0.5723
vn -0.1041 0.7261 0.6797
vn -0.2572 0.4416 0.8595
vn -0.2272 0.6255 0.7464
vn -0.1954 0.5773 0.7928
vn -0.1868 0.7046 0.6846
vn -0.2743 0.5707 0.7740
vn -0.3334 0.4435 0.8320
vn -0.1877 0.8665 0.4626
vn -0.2380 0.7631 0.6009
vn -0.2141 0.8361 0.5050
vn -0.2194 0.8929 0.3932
vn -0.8425 -0.4515 0.2938
vn -0.8245 -0.5094 0.2462
vn -0.8402 -0.4867 0.2390
vn -0.8530 -0.4281 0.2985
vn -0.8488 -0.3974 0.3488
vn -0.8543 -0.4480 0.2636
vn -0.8541 -0.3854 0.3493
vn -0.2001 0.5163 0.8327
vn -0.0195 0.7154 0.6984
vn -0.7741 0.1030 0.6246
vn -0.7813 0.1007 0.6160
vn -0.7811 0.1020 0.6161
vn -0.7753 0.1040 0.6230
vn -0.7811 0.0979 0.6166
vn -0.7818 0.1008 0.6153
vn -0.7860 0.0961 0.6107
vn -0.7837 0.1004 0.6130
vn -0.7538 0.0918 0.6507
vn -0.7589 0.1029 0.6430
vn -0.7693 0.0961 0.6316
vn -0.7684 0.0967 0.6326
vn -0.7745 0.0943 0.6255
vn -0.7393 0.1188 0.6628
vn -0.7459 0.1174 0.6557
vn -0.7534 0.1147 0.6475
vn -0.7471 0.1168 0.6544
vn -0.7435 0.1245 0.6570
vn -0.7509 0.1227 0.6489
vn -0.7571 0.1177 0.6426
vn -0.7506 0.1210 0.6496
vn -0.7653 0.1118 0.6339
vn -0.7582 0.1139 0.6420
vn -0.7541 0.1145 0.6467
vn -0.7495 0.1076 0.6532
vn -0.7414 0.1087 0.6622
vn -0.7486 0.1076 0.6543
vn -0.7429 0.0959 0.6626
vn -0.7315 0.0950 0.6752
vn -0.7406 0.1089 0.6631
vn -0.7201 0.0904 0.6880
vn -0.7245 0.1023 0.6816
vn -0.7198 0.0958 0.6875
vn -0.7236 0.1016 0.6827
vn -0.7306 0.1066 0.6745
vn -0.7311 0.1073 0.6738
vn -0.7383 0.1309 0.6617
vn -0.7419 0.1272 0.6583
vn -0.7391 0.1265 0.6616
vn -0.7376 0.1278 0.6631
vn -0.7383 0.1191 0.6638
vn -0.7337 0.1185 0.6690
vn -0.7332 0.1177 0.6698
vn -0.7299 0.1157 0.6737
vn -0.7509 0.1220 0.6491
vn -0.7567 0.1160 0.6434
vn -0.7489 0.1171 0.6522
vn -0.7491 0.1170 0.6520
vn -0.7538 0.1111 0.6477
vn -0.7498 0.1035 0.6535
vn -0.7624 0.1072 0.6381
vn -0.7351 0.0994 0.6707
vn -0.7442 0.0911 0.6617
vn -0.7410 0.0960 0.6646
vn -0.7345 0.0994 0.6713
vn -0.7448 0.0917 0.6610
vn -0.7501 0.1026 0.6533
vn -0.7444 0.1110 0.6584
vn -0.7439 0.1099 0.6592
vn -0.7416 0.1141 0.6610
vn -0.7630 0.1024 0.6382
vn -0.7594 0.0940 0.6437
vn -0.7599 0.0941 0.6431
vn -0.7535 0.0826 0.6522
vn -0.7602 0.0771 0.6451
vn -0.7538 0.0826 0.6519
vn -0.7668 0.0719 0.6378
vn -0.7607 0.0766 0.6445
vn -0.7715 0.0955 0.6291
vn -0.7672 0.0877 0.6354
vn -0.7738 0.0830 0.6280
vn -0.7778 0.0905 0.6219
vn -0.7629 0.1032 0.6382
vn -0.7803 0.0957 0.6180
vn -0.7738 0.1012 0.6253
vn -0.7744 0.1040 0.6241
vn -0.7651 0.1094 0.6346
vn -0.7653 0.1095 0.6343
vn -0.7732 0.1037 0.6256
vn -0.7632 0.1099 0.6368
vn -0.7650 0.1115 0.6343
vn -0.7745 0.1042 0.6239
vn -0.7846 0.1114 0.6098
vn -0.7864 0.1019 0.6092
vn -0.7882 0.0955 0.6079
vn -0.7879 0.1054 0.6067
vn -0.7862 0.0927 0.6110
vn -0.7847 0.0861 0.6138
vn -0.7897 0.1198 0.6017
vn -0.7894 0.1088 0.6041
vn -0.7896 0.1102 0.6037
vn -0.7738 0.1026 0.6250
vn -0.7768 0.0716 0.6256
vn -0.7765 0.0848 0.6244
vn -0.7844 0.0948 0.6130
vn -0.7843 0.0962 0.6129
vn -0.7838 0.0830 0.6154
vn -0.7682 0.0594 0.6374
vn -0.7686 0.0722 0.6357
vn -0.7683 0.0605 0.6372
vn -0.7541 0.0422 0.6554
vn -0.7593 0.0457 0.6492
vn -0.7597 0.0457 0.6487
vn -0.7619 0.0606 0.6448
vn -0.7685 0.0734 0.6356
vn -0.7429 0.0468 0.6677
vn -0.7479 0.0671 0.6604
vn -0.7590 0.0836 0.6458
vn -0.7631 0.0872 0.6403
vn -0.7642 0.0832 0.6396
vn -0.7624 0.0921 0.6406
vn -0.7554 0.0683 0.6517
vn -0.7610 0.0832 0.6434
vn -0.7643 0.0941 0.6379
vn -0.7656 0.0924 0.6366
vn -0.7676 0.1009 0.6329
vn -0.7674 0.1047 0.6326
vn -0.7661 0.0944 0.6357
vn -0.7660 0.0935 0.6360
vn -0.7314 0.0063 0.6819
vn -0.7319 0.0063 0.6814
vn -0.7240 0.0029 0.6898
vn -0.7384 0.0210 0.6740
vn -0.7535 0.0436 0.6559
vn -0.7482 0.0275 0.6629
vn -0.7487 0.0278 0.6624
vn -0.7413 0.0238 0.6707
vn -0.7726 0.0691 0.6311
vn -0.7675 0.0717 0.6370
vn -0.7729 0.0686 0.6307
vn -0.7805 0.0796 0.6200
vn -0.7843 0.0878 0.6141
vn -0.7742 0.0826 0.6275
vn -0.7746 0.0832 0.6270
vn -0.7469 0.0438 0.6635
vn -0.7535 0.0420 0.6561
vn -0.7638 0.0561 0.6430
vn -0.7579 0.0586 0.6497
vn -0.7634 0.0564 0.6434
vn -0.7514 0.0637 0.6567
vn -0.7574 0.0592 0.6502
vn -0.7395 0.0475 0.6715
vn -0.7462 0.0435 0.6643
vn -0.6982 0.0176 0.7157
vn -0.7022 0.0134 0.7119
vn -0.7022 0.0133 0.7118
vn -0.7147 0.0041 0.6995
vn -0.7063 0.0088 0.7079
vn -0.7242 0.0298 0.6890
vn -0.7321 0.0255 0.6807
vn -0.7245 0.0296 0.6887
vn -0.7206 0.0330 0.6925
vn -0.7169 0.0365 0.6962
vn -0.7405 0.0237 0.6716
vn -0.7327 0.0251 0.6801
vn -0.7234 0.0027 0.6904
vn -0.7152 0.0043 0.6989
vn -0.7450 0.0698 0.6634
vn -0.7509 0.0640 0.6572
vn -0.7444 0.0690 0.6641
vn -0.7324 0.0522 0.6788
vn -0.7328 0.0540 0.6783
vn -0.7386 0.0469 0.6725
vn -0.7839 0.0979 0.6131
vn -0.2768 0.1018 0.9555
vn -0.2508 0.1073 0.9621
vn -0.3041 0.0996 0.9474
vn -0.3326 0.1005 0.9377
vn -0.3618 0.1053 0.9263
vn -0.4272 0.1174 0.8965
vn -0.4617 0.1222 0.8786
vn -0.3352 0.0569 0.9404
vn -0.3042 0.0546 0.9510
vn -0.3049 0.0093 0.9523
vn -0.3382 0.0136 0.9410
vn -0.3720 0.0202 0.9280
vn -0.4055 0.0285 0.9136
vn -0.3995 0.0710 0.9140
vn -0.3671 0.0627 0.9281
vn -0.2455 0.0597 0.9676
vn -0.2403 0.0129 0.9706
vn -0.2726 0.0090 0.9621
vn -0.2745 0.0554 0.9600
vn -0.1656 0.1021 0.9809
vn -0.1229 0.0781 0.9893
vn -0.1492 0.0552 0.9873
vn -0.2174 0.0688 0.9737
vn -0.1905 0.0830 0.9782
vn -0.1777 0.0363 0.9834
vn -0.2084 0.0219 0.9778
vn -0.5583 0.1423 0.8173
vn -0.5869 0.1494 0.7957
vn -0.5316 0.1046 0.8405
vn -0.4993 0.0967 0.8610
vn -0.5047 0.0601 0.8612
vn -0.5367 0.0701 0.8408
vn -0.5618 0.1130 0.8195
vn -0.5672 0.0802 0.8197
vn -0.5953 0.0905 0.7984
vn -0.5903 0.1214 0.7980
vn -0.6126 0.1559 0.7749
vn -0.6363 0.1614 0.7544
vn -0.6449 0.1112 0.7562
vn -0.6387 0.1386 0.7568
vn -0.6161 0.1300 0.7769
vn -0.6216 0.1009 0.7768
vn -0.6812 0.1276 0.7209
vn -0.6784 0.1494 0.7193
vn -0.6591 0.1449 0.7380
vn -0.6639 0.1200 0.7381
vn -0.2565 0.8239 0.5054
vn -0.1499 0.2371 0.9599
vn -0.2011 0.2850 0.9372
vn -0.3116 0.2823 0.9073
vn -0.2804 0.2373 0.9301
vn -0.0453 0.2217 0.9741
vn 0.0069 0.2030 0.9792
vn -0.0326 0.2419 0.9697
vn -0.0985 0.2663 0.9588
vn -0.0761 0.3123 0.9469
vn -0.1009 0.3315 0.9381
vn -0.0503 0.2679 0.9621
vn -0.0347 0.2510 0.9674
vn -0.0310 0.2335 0.9719
vn -0.0354 0.2125 0.9765
vn -0.0693 0.2692 0.9606
vn -0.0683 0.2921 0.9539
vn 0.0329 0.1397 0.9896
vn 0.0238 0.1163 0.9929
vn -0.0049 0.1621 0.9868
vn 0.0018 0.1833 0.9831
vn -0.0097 0.2193 0.9756
vn 0.0236 0.1828 0.9829
vn 0.0299 0.1619 0.9864
vn -0.0006 0.2010 0.9796
vn 0.0927 0.0970 0.9910
vn 0.0619 0.1243 0.9903
vn 0.0557 0.1485 0.9873
vn 0.0821 0.1271 0.9885
vn 0.0931 0.0654 0.9935
vn 0.0770 0.0376 0.9963
vn 0.0508 0.0752 0.9959
vn 0.0636 0.1002 0.9929
vn -0.0330 0.1140 0.9929
vn -0.0162 0.1393 0.9901
vn 0.0104 0.0935 0.9956
vn -0.0082 0.0694 0.9976
vn -0.0789 0.1316 0.9882
vn -0.0999 0.1038 0.9896
vn -0.0598 0.1608 0.9852
vn -0.0896 0.2117 0.9732
vn -0.0770 0.2422 0.9672
vn -0.0451 0.1886 0.9810
vn -0.0565 0.0155 0.9983
vn -0.0779 0.0588 0.9952
vn -0.0544 0.0865 0.9948
vn -0.0309 0.0429 0.9986
vn -0.0855 -0.0103 0.9963
vn -0.1184 -0.0328 0.9924
vn -0.1334 0.0101 0.9910
vn -0.1038 0.0329 0.9941
vn -0.0084 0.0014 1.0000
vn 0.0125 -0.0363 0.9993
vn -0.0173 -0.0628 0.9979
vn -0.0360 -0.0258 0.9990
vn -0.1045 -0.0727 0.9919
vn -0.0683 -0.0511 0.9964
vn -0.0528 -0.0873 0.9948
vn -0.0921 -0.1084 0.9898
vn 0.0151 0.0278 0.9995
vn 0.0351 0.0520 0.9980
vn 0.0582 0.0133 0.9982
vn 0.0370 -0.0104 0.9993
vn 0.1280 0.0717 0.9892
vn 0.1288 0.0705 0.9892
vn 0.1212 0.0794 0.9894
vn 0.1481 0.0493 0.9877
vn 0.1226 0.0735 0.9897
vn 0.1074 0.0992 0.9893
vn 0.0644 0.0795 0.9948
vn 0.1202 0.0804 0.9895
vn 0.0990 0.1149 0.9884
vn 0.0414 0.1261 0.9912
vn 0.0150 0.1693 0.9855
vn 0.0686 0.1514 0.9861
vn 0.0401 0.1732 0.9841
vn -0.0092 0.1927 0.9812
vn 0.1456 0.0177 0.9892
vn 0.1247 -0.0168 0.9921
vn 0.1019 0.0077 0.9948
vn 0.1197 0.0403 0.9920
vn -0.1538 0.3958 0.9054
vn -0.2928 0.3735 0.8802
vn -0.3364 0.3062 0.8905
vn -0.2479 0.3215 0.9139
vn -0.0849 0.2920 0.9527
vn -0.1476 0.3539 0.9236
vn -0.2173 0.3711 0.9028
vn -0.1583 0.3145 0.9360
vn -0.4640 -0.0413 0.8849
vn -0.4692 -0.0400 0.8822
vn -0.4709 -0.0396 0.8813
vn -0.6496 -0.1444 0.7464
vn -0.8026 -0.2840 0.5245
vn -0.7274 -0.2309 0.6461
vn -0.8307 -0.3842 0.4029
vn -0.8889 -0.3728 0.2660
vn -0.8889 -0.3728 0.2664
vn -0.8421 -0.2847 0.4581
vn -0.4714 0.0498 0.8805
vn -0.4654 0.0882 0.8807
vn -0.4317 0.0794 0.8985
vn -0.4382 0.0389 0.8980
vn -0.4456 -0.0021 0.8952
vn -0.4528 -0.0403 0.8907
vn -0.4860 -0.0265 0.8736
vn -0.4784 0.0101 0.8781
vn -0.5184 -0.0125 0.8551
vn -0.5503 0.0015 0.8350
vn -0.5430 0.0350 0.8390
vn -0.5114 0.0226 0.8590
vn -0.5873 -0.0129 0.8092
vn -0.5952 -0.0382 0.8026
vn -0.6223 -0.0211 0.7825
vn -0.6149 0.0026 0.7886
vn -0.6478 -0.0039 0.7618
vn -0.6708 0.0131 0.7415
vn -0.6640 0.0321 0.7470
vn -0.6409 0.0176 0.7674
vn -0.6387 -0.0531 0.7676
vn -0.6303 -0.0395 0.7753
vn -0.6030 -0.0582 0.7956
vn -0.6115 -0.0734 0.7879
vn -0.6474 -0.0620 0.7596
vn -0.6561 -0.0655 0.7519
vn -0.6476 -0.0622 0.7594
vn -0.6208 -0.0835 0.7795
vn -0.6301 -0.0878 0.7715
vn -0.6210 -0.0838 0.7793
vn -0.6395 -0.0863 0.7640
vn -0.6309 -0.0880 0.7708
vn -0.6651 -0.0633 0.7440
vn -0.6568 -0.0655 0.7512
vn -0.6750 -0.0542 0.7358
vn -0.6656 -0.0632 0.7436
vn -0.6404 -0.0856 0.7632
vn -0.6481 -0.0786 0.7575
vn -0.6487 -0.0780 0.7570
vn -0.7273 0.0201 0.6860
vn -0.7096 -0.0092 0.7045
vn -0.7188 0.0165 0.6950
vn -0.7343 0.0449 0.6773
vn -0.6943 -0.0152 0.7195
vn -0.6848 -0.0386 0.7278
vn -0.6567 -0.0640 0.7514
vn -0.6642 -0.0430 0.7463
vn -0.6333 -0.0644 0.7712
vn -0.6272 -0.0854 0.7741
vn -0.5948 -0.1056 0.7969
vn -0.6009 -0.0828 0.7950
vn -0.5592 -0.1246 0.8196
vn -0.5211 -0.1414 0.8417
vn -0.5261 -0.1153 0.8426
vn -0.5650 -0.1002 0.8190
vn -0.5281 -0.0776 0.8456
vn -0.5263 -0.0295 0.8498
vn -0.5664 -0.0204 0.8239
vn -0.5677 -0.0647 0.8207
vn -0.6368 -0.0346 0.7703
vn -0.6037 -0.0504 0.7956
vn -0.6028 -0.0086 0.7979
vn -0.6371 0.0091 0.7708
vn -0.6195 -0.0999 0.7786
vn -0.6114 -0.1074 0.7840
vn -0.6189 -0.1004 0.7790
vn -0.6023 -0.1095 0.7907
vn -0.6103 -0.1080 0.7847
vn -0.5791 -0.1283 0.8051
vn -0.5703 -0.1301 0.8111
vn -0.5781 -0.1288 0.8057
vn -0.5865 -0.1214 0.8008
vn -0.5870 -0.1209 0.8005
vn -0.7042 0.0455 0.7086
vn -0.7014 0.0171 0.7125
vn -0.6710 -0.0119 0.7414
vn -0.6725 0.0291 0.7396
vn -0.7395 0.0616 0.6703
vn -0.7432 0.0657 0.6659
vn -0.7398 0.0622 0.6699
vn -0.7249 0.0431 0.6875
vn -0.7049 -0.0196 0.7090
vn -0.7125 -0.0164 0.7015
vn -0.7129 -0.0159 0.7011
vn -0.6823 -0.0421 0.7299
vn -0.6908 -0.0392 0.7220
vn -0.6913 -0.0391 0.7215
vn -0.7004 -0.0282 0.7132
vn -0.7203 -0.0032 0.6937
vn -0.6725 -0.0401 0.7390
vn -0.6816 -0.0418 0.7305
vn -0.6729 -0.0394 0.7387
vn -0.7041 -0.0193 0.7099
vn -0.6957 -0.0176 0.7181
vn -0.6954 -0.0172 0.7184
vn -0.6870 -0.0111 0.7265
vn -0.5833 -0.0936 0.8068
vn -0.5739 -0.0771 0.8153
vn -0.5435 -0.0960 0.8339
vn -0.5522 -0.1135 0.8260
vn -0.5183 -0.1322 0.8449
vn -0.5100 -0.1138 0.8526
vn -0.4744 -0.1306 0.8706
vn -0.4822 -0.1497 0.8632
vn -0.4025 -0.1789 0.8978
vn -0.4437 -0.1653 0.8808
vn -0.4368 -0.1458 0.8877
vn -0.3966 -0.1585 0.9042
vn -0.3139 -0.1975 0.9287
vn -0.3590 -0.1900 0.9138
vn -0.3544 -0.1685 0.9198
vn -0.3111 -0.1750 0.9341
vn -0.2163 -0.2162 0.9521
vn -0.2177 -0.2249 0.9498
vn -0.2167 -0.2164 0.9519
vn -0.2195 -0.2240 0.9496
vn -0.2178 -0.2253 0.9496
vn -0.2722 -0.2252 0.9355
vn -0.2769 -0.2234 0.9346
vn -0.2730 -0.2255 0.9352
vn -0.2689 -0.2177 0.9382
vn -0.2691 -0.2172 0.9383
vn -0.3178 -0.2127 0.9240
vn -0.3231 -0.2194 0.9206
vn -0.3185 -0.2126 0.9238
vn -0.3284 -0.2179 0.9191
vn -0.3232 -0.2197 0.9205
vn -0.3706 -0.2106 0.9046
vn -0.3770 -0.2093 0.9023
vn -0.3713 -0.2111 0.9042
vn -0.3648 -0.2044 0.9083
vn -0.3646 -0.2042 0.9085
vn -0.2670 -0.2010 0.9425
vn -0.2661 -0.1774 0.9475
vn -0.2187 -0.1750 0.9600
vn -0.2168 -0.1991 0.9557
vn -0.3862 -0.0996 0.9170
vn -0.3913 -0.1317 0.9108
vn -0.4302 -0.1195 0.8948
vn -0.4238 -0.0881 0.9015
vn -0.3473 -0.1084 0.9315
vn -0.3082 -0.1134 0.9445
vn -0.3093 -0.1463 0.9396
vn -0.3506 -0.1409 0.9259
vn -0.4510 -0.1781 0.8746
vn -0.4585 -0.1837 0.8695
vn -0.4513 -0.1783 0.8744
vn -0.4091 -0.1924 0.8920
vn -0.4161 -0.1981 0.8875
vn -0.4096 -0.1923 0.8918
vn -0.4231 -0.1966 0.8845
vn -0.4166 -0.1982 0.8872
vn -0.4663 -0.1826 0.8656
vn -0.4592 -0.1839 0.8691
vn -0.4737 -0.1743 0.8633
vn -0.4672 -0.1822 0.8652
vn -0.4301 -0.1876 0.8831
vn -0.4239 -0.1961 0.8842
vn -0.4308 -0.1870 0.8829
vn -0.4741 -0.1736 0.8632
vn -0.5356 -0.1498 0.8311
vn -0.5433 -0.1487 0.8263
vn -0.5512 -0.1408 0.8224
vn -0.5441 -0.1478 0.8259
vn -0.4988 -0.1679 0.8503
vn -0.5059 -0.1668 0.8463
vn -0.5137 -0.1586 0.8432
vn -0.5069 -0.1659 0.8459
vn -0.5142 -0.1580 0.8430
vn -0.5519 -0.1404 0.8220
vn -0.4902 -0.1619 0.8565
vn -0.4975 -0.1675 0.8511
vn -0.4902 -0.1626 0.8563
vn -0.5347 -0.1497 0.8317
vn -0.5269 -0.1448 0.8375
vn -0.5268 -0.1442 0.8377
vn -0.4940 -0.0603 0.8674
vn -0.4597 -0.0749 0.8849
vn -0.4668 -0.1054 0.8780
vn -0.5019 -0.0897 0.8602
vn -0.5348 -0.0727 0.8419
vn -0.5652 -0.0554 0.8231
vn -0.5576 -0.0285 0.8297
vn -0.5261 -0.0444 0.8493
vn -0.5613 -0.1254 0.8181
vn -0.5695 -0.1301 0.8116
vn -0.5929 -0.1049 0.7984
vn -0.6016 -0.1094 0.7913
vn -0.5927 -0.1047 0.7986
vn -0.5611 -0.1250 0.8183
vn -0.6867 -0.0116 0.7269
vn -0.6784 -0.0013 0.7347
vn -0.6553 -0.0206 0.7551
vn -0.6635 -0.0327 0.7474
vn -0.6879 0.1035 0.7184
vn -0.6714 0.0934 0.7352
vn -0.6785 0.0680 0.7314
vn -0.6962 0.0796 0.7134
vn -0.7290 0.0890 0.6787
vn -0.7183 0.0762 0.6916
vn -0.7255 0.0640 0.6852
vn -0.7366 0.0784 0.6718
vn -0.7158 0.1198 0.6880
vn -0.7025 0.1128 0.7027
vn -0.7106 0.0917 0.6976
vn -0.7216 0.1027 0.6846
vn -0.7314 0.1114 0.6728
vn -0.7393 0.1185 0.6629
vn -0.7307 0.1275 0.6706
vn -0.7427 0.1250 0.6578
vn -0.7370 0.1306 0.6632
vn -0.7272 0.1249 0.6749
vn -0.7269 0.1255 0.6751
vn -0.7421 0.1283 0.6579
vn -0.7383 0.1351 0.6608
vn -0.6958 0.1539 0.7016
vn -0.6980 0.1337 0.7035
vn -0.7100 0.0474 0.7026
vn -0.7032 0.0612 0.7083
vn -0.6848 0.0463 0.7273
vn -0.6911 0.0300 0.7222
vn -0.6342 0.0430 0.7720
vn -0.6575 0.0559 0.7513
vn -0.6513 0.0828 0.7543
vn -0.6276 0.0714 0.7753
vn -0.6082 0.0297 0.7932
vn -0.6017 0.0592 0.7965
vn -0.5732 0.0469 0.8181
vn -0.5797 0.0158 0.8147
vn -0.1655 -0.0084 0.9862
vn -0.1540 -0.0509 0.9868
vn -0.1917 -0.0640 0.9794
vn -0.1997 -0.0222 0.9796
vn -0.2252 -0.1117 0.9679
vn -0.2214 -0.1456 0.9642
vn -0.2664 -0.1480 0.9524
vn -0.2671 -0.1150 0.9568
vn -0.2706 -0.0351 0.9620
vn -0.2352 -0.0311 0.9714
vn -0.2301 -0.0727 0.9705
vn -0.2686 -0.0769 0.9602
vn -0.1775 -0.1385 0.9743
vn -0.1842 -0.1030 0.9775
vn -0.1435 -0.0901 0.9855
vn -0.1338 -0.1257 0.9830
vn -0.3414 -0.0295 0.9395
vn -0.3061 -0.0341 0.9514
vn -0.3073 -0.0760 0.9486
vn -0.3443 -0.0711 0.9362
vn -0.3813 -0.0631 0.9223
vn -0.4176 -0.0525 0.9071
vn -0.4116 -0.0134 0.9113
vn -0.3766 -0.0227 0.9261
vn -0.0813 -0.1388 0.9870
vn -0.0393 -0.1183 0.9922
vn -0.0280 -0.1446 0.9891
vn -0.0718 -0.1644 0.9838
vn -0.0189 -0.1644 0.9862
vn -0.0124 -0.1760 0.9843
vn -0.0194 -0.1650 0.9861
vn -0.0591 -0.1953 0.9790
vn -0.0639 -0.1835 0.9809
vn -0.0645 -0.1834 0.9809
vn -0.1141 -0.1982 0.9735
vn -0.1114 -0.2098 0.9714
vn -0.1138 -0.1985 0.9735
vn -0.1106 -0.2127 0.9708
vn -0.1112 -0.2116 0.9710
vn -0.1653 -0.2195 0.9615
vn -0.1649 -0.2202 0.9614
vn -0.1650 -0.2202 0.9614
vn -0.1664 -0.2098 0.9635
vn -0.1655 -0.2093 0.9637
vn -0.1184 -0.1803 0.9764
vn -0.1686 -0.1919 0.9668
vn -0.1724 -0.1682 0.9705
vn -0.1251 -0.1560 0.9798
vn -0.1689 -0.2118 0.9626
vn -0.1656 -0.2199 0.9614
vn -0.1114 -0.2044 0.9725
vn -0.1106 -0.2126 0.9709
vn -0.1118 -0.2041 0.9725
vn -0.1693 -0.2114 0.9626
vn -0.2296 -0.1945 0.9537
vn -0.2358 -0.1719 0.9565
vn -0.2925 -0.1665 0.9416
vn -0.2869 -0.1917 0.9386
vn -0.3403 -0.1866 0.9216
vn -0.3458 -0.1591 0.9247
vn -0.3948 -0.1498 0.9065
vn -0.3897 -0.1782 0.9036
vn -0.4000 -0.0582 0.9147
vn -0.3986 -0.1097 0.9105
vn -0.3507 -0.1207 0.9287
vn -0.3539 -0.0706 0.9326
vn -0.3904 0.0801 0.9172
vn -0.3982 0.0038 0.9173
vn -0.3535 -0.0093 0.9354
vn -0.3483 0.0632 0.9352
vn -0.4287 0.2097 0.8788
vn -0.5021 0.2331 0.8328
vn -0.4655 0.2221 0.8567
vn -0.6327 0.0552 0.7724
vn -0.5981 0.0431 0.8003
vn -0.5804 0.1172 0.8059
vn -0.5439 0.1090 0.8320
vn -0.5602 0.0322 0.8278
vn -0.5190 0.0280 0.8543
vn -0.5025 0.1021 0.8586
vn -0.4384 0.0167 0.8986
vn -0.4255 0.0953 0.8999
vn -0.4616 0.1012 0.8813
vn -0.4777 0.0243 0.8782
vn -0.2402 -0.1321 0.9617
vn -0.2429 -0.0820 0.9666
vn -0.3015 -0.0788 0.9502
vn -0.2982 -0.1302 0.9456
vn -0.2998 0.0496 0.9527
vn -0.3019 -0.0184 0.9532
vn -0.2451 -0.0246 0.9692
vn -0.2432 0.0457 0.9689
vn -0.4442 -0.0988 0.8904
vn -0.4437 -0.0469 0.8949
vn -0.4851 -0.0379 0.8736
vn -0.4871 -0.0884 0.8689
vn -0.4805 -0.1559 0.8630
vn -0.4369 -0.1680 0.8837
vn -0.4416 -0.1396 0.8863
vn -0.4852 -0.1282 0.8649
vn -0.3347 -0.2059 0.9196
vn -0.3292 -0.2172 0.9189
vn -0.3343 -0.2067 0.9195
vn -0.3839 -0.1978 0.9019
vn -0.3780 -0.2083 0.9021
vn -0.3835 -0.1986 0.9019
vn -0.2240 -0.2126 0.9511
vn -0.2203 -0.2227 0.9497
vn -0.2243 -0.2121 0.9512
vn -0.2816 -0.2115 0.9359
vn -0.2819 -0.2108 0.9360
vn -0.2773 -0.2223 0.9347
vn -0.1735 -0.1943 0.9655
vn -0.1135 -0.1861 0.9760
vn -0.1170 -0.1624 0.9798
vn -0.1769 -0.1696 0.9695
vn -0.7586 0.0745 0.6473
vn -0.7538 0.0761 0.6527
vn -0.7534 0.0762 0.6531
vn -0.8482 -0.4733 0.2379
vn -0.8329 -0.5242 0.1771
vn -0.7973 -0.5645 0.2136
vt 0.000000 0.000000
s 1
usemtl defaultMat
f 1/1/1 239/1/1 244/1/1 243/1/1
f 239/1/2 2/1/2 241/1/2 244/1/2
f 244/1/3 241/1/4 4/1/3 242/1/4
f 243/1/5 244/1/6 242/1/6 3/1/7
f 245/1/8 246/1/9 240/1/8 1/1/10
f 248/1/11 245/1/11 1/1/11 243/1/11
f 247/1/12 248/1/12 243/1/5 3/1/7
f 6/1/13 249/1/13 252/1/13 251/1/13
f 249/1/14 7/1/14 250/1/14 252/1/14
f 8/1/15 253/1/15 256/1/15 255/1/15
f 253/1/16 9/1/16 254/1/16 256/1/16
f 256/1/17 254/1/17 7/1/17 249/1/17
f 255/1/18 256/1/18 249/1/18 6/1/18
f 6/1/19 251/1/19 258/1/19 257/1/19
f 6/1/20 257/1/20 259/1/20 255/1/20
f 261/1/21 250/1/21 7/1/21 260/1/21
f 262/1/22 263/1/22 247/1/22 3/1/22
f 11/1/23 264/1/23 266/1/23 265/1/23
f 11/1/24 267/1/24 271/1/24 270/1/24
f 267/1/25 15/1/25 268/1/25 271/1/25
f 271/1/26 268/1/26 14/1/26 269/1/26
f 270/1/27 271/1/27 269/1/27 13/1/27
f 13/1/28 272/1/28 274/1/28 270/1/28
f 272/1/29 16/1/29 273/1/29 274/1/29
f 274/1/30 273/1/30 12/1/30 264/1/30
f 270/1/31 274/1/31 264/1/31 11/1/31
f 15/1/32 267/1/32 276/1/32 275/1/32
f 267/1/33 11/1/33 265/1/33 276/1/33
f 276/1/34 265/1/34 10/1/34 262/1/34
f 275/1/35 276/1/35 262/1/35 3/1/35
f 18/1/36 279/1/36 281/1/36 280/1/36
f 279/1/37 4/1/37 241/1/37 281/1/37
f 19/1/38 282/1/38 285/1/38 284/1/38
f 282/1/39 4/1/39 279/1/39 285/1/39
f 285/1/40 279/1/40 18/1/40 283/1/40
f 284/1/41 285/1/41 283/1/41 20/1/41
f 3/1/42 242/1/42 287/1/42 275/1/42
f 242/1/43 4/1/43 282/1/43 287/1/43
f 287/1/44 282/1/44 19/1/44 286/1/44
f 275/1/45 287/1/45 286/1/45 15/1/45
f 19/1/46 284/1/46 291/1/46 290/1/46
f 284/1/47 20/1/47 288/1/47 291/1/47
f 291/1/48 288/1/48 22/1/48 289/1/48
f 290/1/49 291/1/49 289/1/49 21/1/49
f 21/1/50 289/1/50 295/1/50 294/1/50
f 289/1/51 22/1/51 292/1/51 295/1/51
f 295/1/52 292/1/52 24/1/52 293/1/52
f 294/1/53 295/1/54 293/1/54 23/1/55
f 23/1/56 293/1/57 299/1/57 298/1/58
f 293/1/59 24/1/59 296/1/59 299/1/59
f 299/1/60 296/1/60 26/1/60 297/1/60
f 298/1/61 299/1/62 297/1/62 25/1/63
f 27/1/64 300/1/65 303/1/66 302/1/66
f 300/1/67 25/1/68 297/1/69 303/1/69
f 303/1/70 297/1/70 26/1/70 301/1/70
f 302/1/71 303/1/71 301/1/71 28/1/71
f 25/1/68 300/1/67 307/1/72 306/1/72
f 300/1/65 27/1/64 304/1/73 307/1/73
f 307/1/74 304/1/74 30/1/74 305/1/74
f 306/1/75 307/1/75 305/1/75 29/1/75
f 31/1/76 308/1/76 310/1/76 309/1/76
f 308/1/77 23/1/56 298/1/58 310/1/77
f 310/1/78 298/1/61 25/1/63 306/1/78
f 309/1/79 310/1/79 306/1/79 29/1/79
f 22/1/80 311/1/80 314/1/80 292/1/80
f 311/1/81 33/1/81 312/1/81 314/1/81
f 314/1/82 312/1/82 32/1/82 313/1/82
f 292/1/83 314/1/83 313/1/83 24/1/83
f 26/1/84 296/1/84 317/1/84 316/1/84
f 296/1/85 24/1/85 313/1/85 317/1/85
f 317/1/86 313/1/86 32/1/86 315/1/86
f 316/1/87 317/1/87 315/1/87 34/1/87
f 14/1/88 318/1/88 320/1/88 319/1/88
f 318/1/89 21/1/89 294/1/89 320/1/89
f 320/1/90 294/1/53 23/1/55 308/1/91
f 319/1/92 320/1/90 308/1/91 31/1/92
f 15/1/93 286/1/93 321/1/93 268/1/93
f 286/1/94 19/1/94 290/1/94 321/1/94
f 321/1/95 290/1/95 21/1/95 318/1/95
f 268/1/96 321/1/96 318/1/96 14/1/96
f 18/1/97 280/1/97 324/1/97 283/1/97
f 324/1/98 322/1/98 35/1/98 323/1/98
f 283/1/99 324/1/99 323/1/99 20/1/99
f 35/1/100 322/1/100 326/1/100 325/1/100
f 37/1/101 327/1/101 331/1/101 330/1/101
f 327/1/102 36/1/102 328/1/102 331/1/102
f 330/1/103 331/1/103 329/1/103 38/1/103
f 36/1/104 327/1/104 334/1/104 325/1/104
f 327/1/105 37/1/105 332/1/105 334/1/105
f 334/1/106 332/1/106 33/1/106 333/1/106
f 325/1/107 334/1/107 333/1/107 35/1/107
f 20/1/108 323/1/109 335/1/109 288/1/108
f 323/1/110 35/1/110 333/1/110 335/1/110
f 335/1/111 333/1/111 33/1/111 311/1/111
f 288/1/112 335/1/112 311/1/112 22/1/112
f 39/1/113 336/1/113 339/1/113 338/1/113
f 336/1/114 40/1/114 337/1/114 339/1/114
f 43/1/115 341/1/116 344/1/117 343/1/115
f 341/1/116 44/1/118 342/1/118 344/1/117
f 43/1/119 343/1/119 347/1/119 346/1/119
f 346/1/120 347/1/120 345/1/120 45/1/120
f 46/1/121 348/1/121 351/1/121 350/1/121
f 348/1/122 43/1/122 346/1/122 351/1/122
f 351/1/123 346/1/123 45/1/123 349/1/123
f 350/1/124 351/1/124 349/1/124 47/1/124
f 46/1/125 352/1/125 354/1/125 348/1/125
f 352/1/126 48/1/126 353/1/126 354/1/126
f 354/1/127 353/1/127 44/1/127 341/1/127
f 348/1/128 354/1/128 341/1/128 43/1/128
f 49/1/129 355/1/129 358/1/129 357/1/129
f 355/1/130 50/1/130 356/1/131 358/1/131
f 358/1/132 356/1/132 42/1/132 342/1/132
f 357/1/133 358/1/133 342/1/133 44/1/133
f 51/1/134 359/1/134 362/1/134 361/1/134
f 359/1/135 50/1/135 355/1/135 362/1/135
f 362/1/136 355/1/137 49/1/138 360/1/139
f 361/1/140 362/1/140 360/1/140 52/1/140
f 49/1/141 357/1/141 365/1/141 364/1/141
f 357/1/142 44/1/142 353/1/142 365/1/142
f 365/1/143 353/1/143 48/1/143 363/1/143
f 364/1/144 365/1/144 363/1/144 53/1/144
f 53/1/145 366/1/145 368/1/145 364/1/145
f 366/1/146 54/1/146 367/1/146 368/1/146
f 368/1/147 367/1/147 52/1/147 360/1/147
f 364/1/148 368/1/148 360/1/148 49/1/148
f 55/1/149 369/1/149 371/1/149 370/1/149
f 370/1/150 371/1/150 356/1/150 50/1/150
f 55/1/151 372/1/151 373/1/151 369/1/151
f 372/1/152 40/1/152 336/1/152 373/1/152
f 373/1/153 336/1/153 39/1/153 340/1/153
f 369/1/154 373/1/154 340/1/154 41/1/154
f 56/1/155 374/1/155 376/1/155 375/1/155
f 374/1/156 55/1/156 370/1/156 376/1/156
f 376/1/157 370/1/157 50/1/157 359/1/157
f 375/1/158 376/1/158 359/1/158 51/1/158
f 56/1/159 377/1/159 379/1/159 374/1/159
f 379/1/160 378/1/160 40/1/160 372/1/160
f 374/1/161 379/1/161 372/1/161 55/1/161
f 382/1/162 377/1/162 56/1/162 380/1/162
f 381/1/163 382/1/163 380/1/163 58/1/163
f 51/1/164 361/1/164 384/1/165 375/1/166
f 361/1/167 52/1/168 383/1/168 384/1/169
f 384/1/170 383/1/170 58/1/170 380/1/170
f 375/1/166 384/1/165 380/1/171 56/1/171
f 59/1/172 385/1/172 387/1/172 386/1/172
f 385/1/173 58/1/173 383/1/173 387/1/173
f 387/1/174 383/1/174 52/1/174 367/1/174
f 386/1/175 387/1/175 367/1/175 54/1/175
f 381/1/176 58/1/176 385/1/176 389/1/176
f 389/1/177 385/1/177 59/1/177 388/1/177
f 394/1/178 395/1/179 393/1/179 63/1/180
f 63/1/180 396/1/181 398/1/181 394/1/178
f 67/1/182 399/1/182 402/1/182 401/1/182
f 399/1/183 63/1/183 393/1/183 402/1/183
f 402/1/184 393/1/184 64/1/184 400/1/184
f 401/1/185 402/1/185 400/1/185 68/1/185
f 403/1/186 69/1/186 404/1/186 405/1/186
f 405/1/187 404/1/188 68/1/189 400/1/187
f 71/1/190 407/1/190 410/1/190 409/1/190
f 407/1/191 62/1/191 390/1/191 410/1/191
f 410/1/192 390/1/192 61/1/192 408/1/192
f 409/1/193 410/1/193 408/1/193 70/1/193
f 71/1/194 409/1/194 412/1/194 411/1/194
f 409/1/195 70/1/195 406/1/195 412/1/195
f 71/1/196 411/1/197 415/1/196 414/1/196
f 411/1/198 65/1/198 397/1/198 415/1/198
f 415/1/199 397/1/200 66/1/200 413/1/201
f 414/1/202 415/1/199 413/1/201 72/1/202
f 72/1/203 416/1/203 418/1/203 414/1/203
f 416/1/204 73/1/204 417/1/204 418/1/204
f 418/1/205 417/1/205 62/1/205 407/1/205
f 414/1/206 418/1/206 407/1/206 71/1/206
f 61/1/207 392/1/207 419/1/207 408/1/207
f 74/1/208 420/1/208 422/1/208 421/1/208
f 420/1/209 60/1/209 391/1/209 422/1/209
f 422/1/210 391/1/210 62/1/210 417/1/210
f 421/1/211 422/1/211 417/1/211 73/1/211
f 73/1/212 423/1/212 426/1/212 421/1/212
f 423/1/213 76/1/213 424/1/213 426/1/213
f 426/1/214 424/1/214 75/1/214 425/1/214
f 421/1/215 426/1/215 425/1/215 74/1/215
f 77/1/216 427/1/216 430/1/216 429/1/216
f 427/1/217 78/1/217 428/1/217 430/1/217
f 430/1/218 428/1/218 75/1/218 424/1/218
f 429/1/219 430/1/219 424/1/219 76/1/219
f 79/1/220 431/1/220 434/1/220 433/1/220
f 431/1/221 77/1/221 429/1/222 434/1/221
f 434/1/223 429/1/223 76/1/223 432/1/223
f 433/1/224 434/1/224 432/1/224 80/1/224
f 81/1/225 435/1/225 438/1/225 437/1/225
f 435/1/226 82/1/226 436/1/226 438/1/226
f 438/1/227 436/1/227 77/1/227 431/1/227
f 437/1/228 438/1/228 431/1/228 79/1/228
f 81/1/229 439/1/229 442/1/229 435/1/229
f 439/1/230 83/1/230 440/1/230 442/1/230
f 442/1/231 440/1/231 28/1/231 441/1/231
f 435/1/232 442/1/232 441/1/232 82/1/232
f 28/1/233 301/1/233 444/1/233 441/1/233
f 301/1/234 26/1/234 316/1/234 444/1/234
f 444/1/235 316/1/235 34/1/235 443/1/235
f 441/1/236 444/1/236 443/1/236 82/1/236
f 34/1/237 445/1/237 446/1/237 443/1/237
f 445/1/238 78/1/238 427/1/238 446/1/238
f 446/1/239 427/1/239 77/1/239 436/1/239
f 443/1/240 446/1/240 436/1/240 82/1/240
f 32/1/241 447/1/241 449/1/241 315/1/241
f 447/1/242 84/1/242 448/1/242 449/1/242
f 449/1/243 448/1/243 78/1/243 445/1/243
f 315/1/244 449/1/244 445/1/244 34/1/244
f 452/1/245 451/1/245 75/1/245 428/1/245
f 448/1/246 452/1/246 428/1/246 78/1/246
f 37/1/247 450/1/247 453/1/247 332/1/247
f 453/1/248 447/1/248 32/1/248 312/1/248
f 332/1/249 453/1/249 312/1/249 33/1/249
f 85/1/250 454/1/251 456/1/252 455/1/253
f 454/1/254 27/1/255 302/1/256 456/1/257
f 456/1/257 302/1/256 28/1/258 440/1/258
f 455/1/253 456/1/252 440/1/259 83/1/259
f 86/1/260 457/1/260 459/1/260 458/1/260
f 457/1/261 30/1/261 304/1/261 459/1/261
f 459/1/262 304/1/262 27/1/255 454/1/254
f 458/1/263 459/1/263 454/1/251 85/1/250
f 86/1/264 460/1/264 464/1/264 463/1/264
f 460/1/265 89/1/265 461/1/265 464/1/265
f 464/1/266 461/1/266 88/1/266 462/1/266
f 463/1/267 464/1/267 462/1/267 87/1/267
f 86/1/268 463/1/268 467/1/268 457/1/268
f 463/1/269 87/1/269 465/1/269 467/1/269
f 467/1/270 465/1/270 90/1/270 466/1/270
f 457/1/271 467/1/271 466/1/271 30/1/271
f 89/1/272 460/1/272 470/1/273 469/1/274
f 460/1/275 86/1/275 458/1/276 470/1/277
f 470/1/277 458/1/276 85/1/278 468/1/279
f 469/1/274 470/1/273 468/1/280 91/1/280
f 83/1/281 471/1/281 473/1/282 455/1/282
f 471/1/283 92/1/283 472/1/284 473/1/285
f 473/1/285 472/1/284 91/1/280 468/1/280
f 455/1/282 473/1/282 468/1/279 85/1/278
f 92/1/286 474/1/286 478/1/286 477/1/286
f 474/1/287 95/1/287 475/1/287 478/1/287
f 478/1/288 475/1/288 94/1/288 476/1/288
f 477/1/289 478/1/289 476/1/289 93/1/289
f 96/1/290 479/1/291 481/1/292 480/1/293
f 479/1/294 91/1/295 472/1/296 481/1/297
f 481/1/297 472/1/296 92/1/298 477/1/298
f 480/1/293 481/1/292 477/1/299 93/1/299
f 83/1/300 439/1/300 483/1/300 471/1/300
f 439/1/301 81/1/301 482/1/301 483/1/301
f 483/1/302 482/1/302 95/1/302 474/1/302
f 471/1/303 483/1/303 474/1/303 92/1/303
f 97/1/304 484/1/304 486/1/304 485/1/304
f 484/1/305 95/1/305 482/1/305 486/1/305
f 486/1/306 482/1/306 81/1/306 437/1/306
f 485/1/307 486/1/307 437/1/307 79/1/307
f 97/1/308 485/1/308 489/1/308 488/1/308
f 485/1/309 79/1/309 433/1/309 489/1/309
f 489/1/310 433/1/310 80/1/310 487/1/310
f 488/1/311 489/1/311 487/1/311 98/1/311
f 99/1/312 490/1/312 493/1/312 492/1/312
f 490/1/313 97/1/313 488/1/313 493/1/313
f 493/1/314 488/1/314 98/1/314 491/1/314
f 492/1/315 493/1/315 491/1/315 67/1/315
f 99/1/316 492/1/316 496/1/316 495/1/316
f 492/1/317 67/1/317 401/1/317 496/1/317
f 496/1/318 401/1/318 68/1/318 494/1/318
f 495/1/319 496/1/319 494/1/319 100/1/319
f 101/1/320 497/1/320 500/1/320 499/1/320
f 497/1/321 94/1/321 498/1/321 500/1/321
f 500/1/322 498/1/322 99/1/322 495/1/322
f 499/1/323 500/1/323 495/1/323 100/1/323
f 95/1/324 484/1/324 501/1/324 475/1/324
f 484/1/325 97/1/325 490/1/325 501/1/325
f 501/1/326 490/1/326 99/1/326 498/1/326
f 475/1/327 501/1/327 498/1/327 94/1/327
f 72/1/328 413/1/328 504/1/328 503/1/328
f 413/1/329 66/1/329 502/1/329 504/1/329
f 504/1/330 502/1/330 98/1/330 487/1/330
f 503/1/331 504/1/331 487/1/331 80/1/331
f 76/1/332 423/1/332 505/1/332 432/1/332
f 423/1/333 73/1/333 416/1/333 505/1/333
f 505/1/334 416/1/334 72/1/334 503/1/334
f 432/1/335 505/1/335 503/1/335 80/1/335
f 98/1/336 502/1/336 506/1/336 491/1/336
f 506/1/337 396/1/337 63/1/337 399/1/337
f 491/1/338 506/1/338 399/1/338 67/1/338
f 508/1/339 507/1/339 74/1/339 425/1/339
f 451/1/340 508/1/340 425/1/340 75/1/340
f 510/1/341 511/1/341 509/1/341 102/1/341
f 104/1/342 512/1/342 516/1/342 515/1/342
f 512/1/343 106/1/343 513/1/343 516/1/343
f 516/1/344 513/1/344 102/1/344 514/1/344
f 515/1/345 516/1/345 514/1/345 105/1/345
f 105/1/346 517/1/346 519/1/346 515/1/346
f 517/1/347 48/1/347 518/1/347 519/1/347
f 48/1/348 517/1/348 522/1/348 363/1/348
f 517/1/349 105/1/349 520/1/349 522/1/349
f 522/1/350 520/1/350 107/1/350 521/1/350
f 363/1/351 522/1/351 521/1/352 53/1/352
f 59/1/353 386/1/353 524/1/353 523/1/353
f 386/1/354 54/1/354 366/1/354 524/1/354
f 524/1/355 366/1/355 53/1/355 521/1/355
f 523/1/356 524/1/356 521/1/356 107/1/356
f 102/1/357 509/1/357 526/1/357 514/1/357
f 509/1/358 103/1/358 525/1/358 526/1/358
f 526/1/359 525/1/359 107/1/359 520/1/359
f 514/1/360 526/1/360 520/1/360 105/1/360
f 59/1/361 523/1/361 528/1/361 388/1/361
f 523/1/362 107/1/362 525/1/362 528/1/362
f 528/1/363 525/1/363 103/1/363 527/1/363
f 388/1/364 528/1/364 527/1/364 57/1/364
f 47/1/365 349/1/365 532/1/365 529/1/365
f 349/1/366 45/1/366 530/1/366 532/1/366
f 532/1/367 530/1/367 109/1/367 531/1/367
f 529/1/368 532/1/368 531/1/368 108/1/368
f 108/1/369 531/1/369 536/1/369 535/1/369
f 531/1/370 109/1/370 533/1/370 536/1/370
f 536/1/371 533/1/371 110/1/371 534/1/371
f 513/1/372 538/1/372 537/1/372 102/1/372
f 537/1/373 539/1/373 510/1/373 102/1/373
f 111/1/374 542/1/375 545/1/376 541/1/377
f 542/1/375 113/1/378 543/1/379 545/1/376
f 545/1/376 543/1/379 112/1/380 544/1/381
f 546/1/382 115/1/382 547/1/382 549/1/382
f 549/1/383 547/1/383 114/1/383 548/1/383
f 540/1/384 549/1/385 548/1/385 111/1/386
f 117/1/387 551/1/388 555/1/389 554/1/390
f 551/1/391 119/1/392 552/1/393 555/1/394
f 555/1/394 552/1/393 118/1/395 553/1/396
f 554/1/390 555/1/389 553/1/397 114/1/397
f 114/1/398 547/1/398 557/1/399 554/1/400
f 547/1/401 115/1/401 550/1/401 557/1/401
f 557/1/402 550/1/402 116/1/402 556/1/402
f 554/1/400 557/1/399 556/1/403 117/1/403
f 116/1/404 558/1/404 561/1/404 556/1/404
f 561/1/405 559/1/406 120/1/407 560/1/408
f 556/1/409 561/1/405 560/1/408 117/1/409
f 121/1/410 563/1/411 564/1/412 562/1/413
f 563/1/411 119/1/392 551/1/391 564/1/412
f 564/1/414 551/1/388 117/1/387 560/1/415
f 562/1/416 564/1/414 560/1/415 120/1/417
f 119/1/392 565/1/418 568/1/419 552/1/393
f 565/1/418 123/1/420 566/1/421 568/1/419
f 568/1/419 566/1/422 122/1/423 567/1/424
f 552/1/393 568/1/419 567/1/424 118/1/395
f 124/1/425 569/1/426 572/1/427 571/1/428
f 569/1/426 125/1/429 570/1/429 572/1/427
f 572/1/430 570/1/430 122/1/423 566/1/422
f 571/1/431 572/1/432 566/1/432 123/1/433
f 122/1/434 570/1/435 576/1/435 575/1/436
f 570/1/437 125/1/437 573/1/438 576/1/439
f 576/1/439 573/1/438 127/1/440 574/1/441
f 575/1/442 576/1/443 574/1/444 126/1/445
f 122/1/434 575/1/436 579/1/446 567/1/446
f 575/1/442 126/1/445 577/1/447 579/1/448
f 579/1/448 577/1/447 113/1/378 578/1/449
f 567/1/424 579/1/450 578/1/451 118/1/395
f 111/1/374 548/1/452 580/1/452 542/1/375
f 548/1/453 114/1/453 553/1/396 580/1/454
f 580/1/454 553/1/396 118/1/395 578/1/451
f 542/1/375 580/1/455 578/1/449 113/1/378
f 112/1/456 581/1/457 585/1/458 584/1/459
f 581/1/457 129/1/460 582/1/461 585/1/458
f 585/1/462 582/1/463 128/1/463 583/1/464
f 588/1/465 586/1/465 131/1/465 587/1/465
f 132/1/466 589/1/466 591/1/466 590/1/466
f 589/1/467 131/1/467 586/1/467 591/1/467
f 591/1/468 586/1/469 128/1/469 582/1/461
f 590/1/470 591/1/468 582/1/461 129/1/460
f 132/1/471 592/1/471 595/1/472 589/1/473
f 592/1/474 134/1/475 593/1/476 595/1/476
f 595/1/477 593/1/477 133/1/477 594/1/477
f 589/1/473 595/1/472 594/1/478 131/1/478
f 135/1/479 596/1/479 600/1/479 599/1/479
f 596/1/480 137/1/480 597/1/480 600/1/480
f 600/1/481 597/1/482 136/1/483 598/1/484
f 599/1/485 600/1/485 598/1/485 133/1/485
f 133/1/486 598/1/484 602/1/487 594/1/488
f 598/1/484 136/1/483 601/1/489 602/1/487
f 602/1/487 601/1/489 130/1/490 587/1/491
f 594/1/488 602/1/487 587/1/491 131/1/492
f 138/1/493 603/1/494 605/1/494 604/1/495
f 603/1/496 135/1/496 599/1/496 605/1/496
f 605/1/497 599/1/497 133/1/497 593/1/497
f 604/1/498 605/1/499 593/1/499 134/1/500
f 127/1/440 606/1/501 608/1/502 574/1/441
f 606/1/501 132/1/503 590/1/503 608/1/502
f 608/1/504 590/1/470 129/1/460 607/1/505
f 574/1/444 608/1/506 607/1/507 126/1/445
f 134/1/475 592/1/474 611/1/508 610/1/509
f 592/1/510 132/1/510 606/1/511 611/1/512
f 611/1/512 606/1/511 127/1/513 609/1/514
f 610/1/509 611/1/508 609/1/515 139/1/516
f 140/1/517 612/1/518 616/1/519 615/1/517
f 612/1/518 142/1/520 613/1/521 616/1/519
f 616/1/522 613/1/523 139/1/524 614/1/525
f 615/1/526 616/1/522 614/1/525 141/1/526
f 139/1/524 613/1/523 618/1/527 610/1/528
f 613/1/521 142/1/520 617/1/529 618/1/530
f 618/1/530 617/1/529 138/1/493 604/1/495
f 610/1/528 618/1/527 604/1/498 134/1/500
f 127/1/513 573/1/531 620/1/532 609/1/514
f 573/1/531 125/1/533 619/1/533 620/1/532
f 620/1/534 619/1/535 141/1/535 614/1/536
f 609/1/515 620/1/534 614/1/536 139/1/516
f 126/1/445 607/1/507 621/1/537 577/1/447
f 607/1/505 129/1/460 581/1/457 621/1/537
f 621/1/537 581/1/457 112/1/380 543/1/379
f 577/1/447 621/1/537 543/1/379 113/1/378
f 143/1/538 622/1/538 625/1/538 624/1/538
f 624/1/539 625/1/539 623/1/539 144/1/539
f 622/1/540 143/1/540 626/1/540 628/1/540
f 628/1/541 626/1/541 145/1/541 627/1/541
f 627/1/542 145/1/542 629/1/542 631/1/542
f 630/1/543 146/1/543 632/1/543 634/1/543
f 634/1/544 632/1/544 147/1/544 633/1/544
f 145/1/545 626/1/545 638/1/545 637/1/545
f 626/1/546 143/1/546 635/1/546 638/1/546
f 638/1/547 635/1/547 149/1/547 636/1/547
f 637/1/548 638/1/548 636/1/548 148/1/548
f 148/1/549 639/1/549 641/1/549 637/1/549
f 639/1/550 150/1/550 640/1/550 641/1/550
f 641/1/551 640/1/551 146/1/551 629/1/551
f 637/1/552 641/1/552 629/1/552 145/1/552
f 144/1/553 642/1/553 644/1/553 624/1/553
f 642/1/554 151/1/554 643/1/554 644/1/554
f 644/1/555 643/1/555 149/1/555 635/1/555
f 624/1/556 644/1/556 635/1/556 143/1/556
f 152/1/557 646/1/557 650/1/557 649/1/557
f 650/1/558 647/1/558 154/1/558 648/1/558
f 649/1/559 650/1/559 648/1/559 153/1/559
f 144/1/560 645/1/560 652/1/560 642/1/560
f 645/1/561 152/1/561 649/1/561 652/1/561
f 652/1/562 649/1/562 153/1/562 651/1/562
f 642/1/563 652/1/563 651/1/563 151/1/563
f 155/1/564 653/1/564 656/1/564 655/1/564
f 653/1/565 156/1/565 654/1/565 656/1/565
f 155/1/566 657/1/566 661/1/566 660/1/566
f 657/1/567 147/1/567 658/1/567 661/1/567
f 661/1/568 658/1/568 158/1/568 659/1/568
f 660/1/569 661/1/569 659/1/569 157/1/569
f 155/1/570 660/1/570 664/1/570 653/1/570
f 660/1/571 157/1/571 662/1/571 664/1/571
f 664/1/572 662/1/572 159/1/572 663/1/572
f 653/1/573 664/1/573 663/1/573 156/1/573
f 156/1/574 665/1/574 667/1/574 654/1/574
f 665/1/575 160/1/575 666/1/575 667/1/575
f 161/1/576 668/1/576 670/1/576 669/1/576
f 668/1/577 160/1/577 665/1/577 670/1/577
f 670/1/578 665/1/578 156/1/578 663/1/578
f 669/1/579 670/1/579 663/1/579 159/1/579
f 162/1/580 671/1/580 674/1/580 673/1/580
f 671/1/581 163/1/581 672/1/581 674/1/581
f 674/1/582 672/1/582 160/1/582 668/1/582
f 673/1/583 674/1/583 668/1/583 161/1/583
f 675/1/584 165/1/584 676/1/584 677/1/584
f 16/1/585 678/1/585 680/1/585 273/1/585
f 678/1/586 166/1/586 679/1/586 680/1/586
f 680/1/587 679/1/587 17/1/587 277/1/587
f 273/1/588 680/1/588 277/1/588 12/1/588
f 16/1/589 681/1/589 684/1/589 678/1/589
f 681/1/590 168/1/590 682/1/590 684/1/590
f 684/1/591 682/1/591 167/1/591 683/1/591
f 678/1/592 684/1/592 683/1/592 166/1/592
f 169/1/593 685/1/593 689/1/593 688/1/593
f 685/1/594 171/1/594 686/1/594 689/1/594
f 689/1/595 686/1/595 167/1/595 687/1/595
f 688/1/596 689/1/596 687/1/596 170/1/596
f 170/1/597 690/1/597 693/1/597 688/1/597
f 690/1/598 173/1/598 691/1/598 693/1/598
f 693/1/599 691/1/599 172/1/599 692/1/599
f 688/1/600 693/1/600 692/1/600 169/1/600
f 174/1/601 694/1/601 697/1/601 696/1/601
f 694/1/602 175/1/602 695/1/602 697/1/602
f 697/1/603 695/1/603 173/1/603 690/1/603
f 696/1/604 697/1/604 690/1/604 170/1/604
f 167/1/605 682/1/605 699/1/605 687/1/605
f 682/1/606 168/1/606 698/1/606 699/1/606
f 699/1/607 698/1/607 174/1/607 696/1/607
f 687/1/608 699/1/608 696/1/608 170/1/608
f 176/1/609 700/1/609 703/1/609 702/1/609
f 700/1/610 174/1/610 698/1/610 703/1/610
f 703/1/611 698/1/611 168/1/611 701/1/611
f 702/1/612 703/1/612 701/1/612 177/1/612
f 176/1/613 704/1/613 706/1/613 700/1/613
f 704/1/614 90/1/614 705/1/614 706/1/614
f 706/1/615 705/1/615 175/1/615 694/1/615
f 700/1/616 706/1/616 694/1/616 174/1/616
f 178/1/617 707/1/617 710/1/617 709/1/617
f 707/1/618 173/1/618 695/1/618 710/1/618
f 710/1/619 695/1/619 175/1/619 708/1/619
f 709/1/620 710/1/620 708/1/620 179/1/620
f 178/1/621 711/1/621 713/1/621 712/1/621
f 711/1/622 154/1/622 647/1/622 713/1/622
f 178/1/623 712/1/623 715/1/623 707/1/623
f 712/1/624 180/1/624 714/1/624 715/1/624
f 715/1/625 714/1/625 172/1/625 691/1/625
f 707/1/626 715/1/626 691/1/626 173/1/626
f 181/1/627 716/1/627 718/1/627 717/1/627
f 716/1/628 154/1/628 711/1/628 718/1/628
f 718/1/629 711/1/629 178/1/629 709/1/629
f 717/1/630 718/1/630 709/1/630 179/1/630
f 181/1/631 719/1/631 721/1/631 716/1/631
f 719/1/632 182/1/632 720/1/632 721/1/632
f 721/1/633 720/1/633 153/1/633 648/1/633
f 716/1/634 721/1/634 648/1/634 154/1/634
f 179/1/635 722/1/635 724/1/635 717/1/635
f 722/1/636 87/1/636 462/1/636 724/1/636
f 724/1/637 462/1/637 88/1/637 723/1/637
f 717/1/638 724/1/638 723/1/638 181/1/638
f 182/1/639 719/1/639 727/1/639 726/1/639
f 719/1/640 181/1/640 723/1/640 727/1/640
f 727/1/641 723/1/641 88/1/641 725/1/641
f 726/1/642 727/1/642 725/1/642 183/1/642
f 179/1/643 708/1/643 728/1/643 722/1/643
f 708/1/644 175/1/644 705/1/644 728/1/644
f 728/1/645 705/1/645 90/1/645 465/1/645
f 722/1/646 728/1/646 465/1/646 87/1/646
f 31/1/647 309/1/648 731/1/648 730/1/649
f 309/1/650 29/1/650 729/1/650 731/1/650
f 731/1/651 729/1/651 176/1/651 702/1/651
f 730/1/652 731/1/652 702/1/652 177/1/652
f 14/1/653 319/1/653 733/1/653 269/1/653
f 319/1/654 31/1/647 730/1/649 733/1/654
f 733/1/655 730/1/655 177/1/655 732/1/655
f 269/1/656 733/1/656 732/1/656 13/1/656
f 13/1/657 732/1/657 734/1/657 272/1/657
f 732/1/658 177/1/658 701/1/658 734/1/658
f 734/1/659 701/1/659 168/1/659 681/1/659
f 272/1/660 734/1/660 681/1/660 16/1/660
f 29/1/661 305/1/661 735/1/661 729/1/661
f 305/1/662 30/1/662 466/1/662 735/1/662
f 735/1/663 466/1/663 90/1/663 704/1/663
f 729/1/664 735/1/664 704/1/664 176/1/664
f 737/1/665 736/1/665 171/1/665 685/1/665
f 184/1/666 739/1/666 741/1/666 740/1/666
f 741/1/667 278/1/667 17/1/667 679/1/667
f 740/1/668 741/1/668 679/1/668 166/1/668
f 167/1/669 686/1/669 742/1/669 683/1/669
f 686/1/670 171/1/670 738/1/670 742/1/670
f 742/1/671 738/1/671 184/1/671 740/1/671
f 683/1/672 742/1/672 740/1/672 166/1/672
f 253/1/673 744/1/674 743/1/675 9/1/675
f 9/1/676 743/1/676 746/1/676 745/1/676
f 745/1/677 746/1/677 534/1/677 110/1/677
f 9/1/678 745/1/678 748/1/678 254/1/678
f 745/1/679 110/1/679 747/1/679 748/1/679
f 748/1/680 747/1/680 5/1/680 260/1/681
f 254/1/682 748/1/682 260/1/682 7/1/682
f 158/1/683 658/1/683 750/1/683 749/1/683
f 658/1/684 147/1/684 632/1/684 750/1/684
f 750/1/685 632/1/685 146/1/685 640/1/685
f 749/1/686 750/1/686 640/1/686 150/1/686
f 150/1/687 751/1/687 754/1/687 749/1/687
f 751/1/688 186/1/688 752/1/688 754/1/688
f 754/1/689 752/1/689 185/1/689 753/1/689
f 749/1/690 754/1/690 753/1/690 158/1/690
f 185/1/691 755/1/691 757/1/691 753/1/691
f 755/1/692 187/1/692 756/1/692 757/1/692
f 757/1/693 756/1/693 157/1/693 659/1/693
f 753/1/694 757/1/694 659/1/694 158/1/694
f 187/1/695 758/1/695 762/1/695 761/1/695
f 758/1/696 190/1/696 759/1/696 762/1/696
f 762/1/697 759/1/697 189/1/697 760/1/697
f 761/1/698 762/1/698 760/1/698 188/1/698
f 189/1/699 763/1/699 766/1/699 760/1/699
f 763/1/700 140/1/700 764/1/700 766/1/700
f 766/1/701 764/1/701 191/1/701 765/1/701
f 760/1/702 766/1/702 765/1/702 188/1/702
f 192/1/703 767/1/703 770/1/703 769/1/703
f 767/1/704 189/1/704 759/1/704 770/1/704
f 770/1/705 759/1/705 190/1/705 768/1/705
f 769/1/706 770/1/706 768/1/706 193/1/706
f 192/1/707 769/1/707 774/1/708 773/1/709
f 769/1/710 193/1/710 771/1/711 774/1/712
f 774/1/712 771/1/711 195/1/713 772/1/714
f 773/1/709 774/1/708 772/1/715 194/1/716
f 196/1/717 775/1/717 778/1/717 777/1/717
f 775/1/718 194/1/716 772/1/715 778/1/718
f 778/1/719 772/1/714 195/1/713 776/1/720
f 777/1/721 778/1/719 776/1/720 197/1/721
f 135/1/722 779/1/722 782/1/722 596/1/722
f 779/1/723 196/1/723 780/1/723 782/1/723
f 782/1/724 780/1/724 198/1/724 781/1/724
f 596/1/725 782/1/725 781/1/725 137/1/725
f 198/1/726 780/1/726 785/1/726 784/1/726
f 780/1/727 196/1/727 777/1/727 785/1/727
f 785/1/728 777/1/728 197/1/728 783/1/728
f 784/1/729 785/1/729 783/1/729 199/1/729
f 199/1/730 783/1/730 789/1/730 788/1/730
f 783/1/731 197/1/731 786/1/731 789/1/731
f 789/1/732 786/1/732 201/1/732 787/1/732
f 788/1/733 789/1/733 787/1/733 200/1/733
f 201/1/734 790/1/734 793/1/734 787/1/734
f 790/1/735 203/1/735 791/1/735 793/1/735
f 793/1/736 791/1/736 202/1/736 792/1/736
f 787/1/737 793/1/737 792/1/737 200/1/737
f 202/1/738 794/1/738 797/1/738 792/1/738
f 794/1/739 205/1/739 795/1/739 797/1/739
f 797/1/740 795/1/740 204/1/740 796/1/740
f 792/1/741 797/1/741 796/1/741 200/1/741
f 199/1/742 788/1/742 800/1/742 799/1/742
f 788/1/743 200/1/743 796/1/743 800/1/743
f 800/1/744 796/1/744 204/1/744 798/1/744
f 799/1/745 800/1/745 798/1/745 206/1/745
f 197/1/746 776/1/747 803/1/748 786/1/746
f 776/1/747 195/1/749 801/1/750 803/1/748
f 803/1/751 801/1/752 207/1/753 802/1/754
f 786/1/755 803/1/751 802/1/754 201/1/755
f 164/1/756 804/1/756 806/1/756 805/1/756
f 804/1/757 198/1/757 784/1/757 806/1/757
f 806/1/758 784/1/758 199/1/758 799/1/758
f 805/1/759 806/1/759 799/1/759 206/1/759
f 137/1/760 781/1/760 808/1/761 807/1/762
f 781/1/763 198/1/763 804/1/763 808/1/763
f 138/1/764 809/1/765 810/1/766 603/1/766
f 809/1/767 194/1/768 775/1/769 810/1/769
f 810/1/770 775/1/770 196/1/770 779/1/770
f 603/1/771 810/1/771 779/1/771 135/1/771
f 192/1/772 773/1/773 812/1/774 811/1/772
f 773/1/773 194/1/768 809/1/767 812/1/774
f 812/1/775 809/1/765 138/1/764 617/1/776
f 811/1/777 812/1/775 617/1/776 142/1/778
f 193/1/779 768/1/779 816/1/779 815/1/779
f 768/1/780 190/1/780 813/1/780 816/1/780
f 816/1/781 813/1/781 209/1/781 814/1/781
f 815/1/782 816/1/782 814/1/782 208/1/782
f 208/1/783 814/1/783 820/1/783 819/1/783
f 814/1/784 209/1/784 817/1/784 820/1/784
f 820/1/785 817/1/785 211/1/785 818/1/785
f 819/1/786 820/1/786 818/1/786 210/1/786
f 212/1/787 821/1/787 824/1/787 823/1/787
f 821/1/788 210/1/788 818/1/788 824/1/788
f 824/1/789 818/1/789 211/1/789 822/1/789
f 823/1/790 824/1/790 822/1/790 213/1/790
f 214/1/791 825/1/791 828/1/791 827/1/791
f 825/1/792 212/1/792 823/1/792 828/1/792
f 828/1/793 823/1/793 213/1/793 826/1/793
f 827/1/794 828/1/794 826/1/794 215/1/794
f 216/1/795 829/1/796 833/1/797 832/1/795
f 829/1/796 218/1/798 830/1/799 833/1/797
f 833/1/800 830/1/801 217/1/802 831/1/803
f 832/1/804 833/1/800 831/1/803 214/1/804
f 214/1/805 831/1/806 836/1/807 825/1/805
f 831/1/806 217/1/808 834/1/809 836/1/807
f 836/1/810 834/1/811 219/1/812 835/1/813
f 825/1/814 836/1/810 835/1/813 212/1/814
f 214/1/815 827/1/815 839/1/815 832/1/815
f 827/1/816 215/1/816 837/1/816 839/1/816
f 839/1/817 837/1/817 220/1/817 838/1/817
f 832/1/818 839/1/818 838/1/818 216/1/818
f 221/1/819 840/1/819 843/1/819 842/1/819
f 840/1/820 213/1/820 822/1/820 843/1/820
f 843/1/821 822/1/821 211/1/821 841/1/821
f 842/1/822 843/1/822 841/1/822 186/1/822
f 221/1/823 844/1/823 846/1/823 840/1/823
f 844/1/824 222/1/824 845/1/824 846/1/824
f 846/1/825 845/1/825 215/1/825 826/1/825
f 840/1/826 846/1/826 826/1/826 213/1/826
f 210/1/827 821/1/827 849/1/828 848/1/829
f 821/1/830 212/1/830 835/1/831 849/1/832
f 849/1/832 835/1/831 219/1/833 847/1/834
f 848/1/829 849/1/828 847/1/835 223/1/836
f 223/1/836 847/1/835 853/1/837 852/1/838
f 847/1/834 219/1/833 850/1/839 853/1/840
f 853/1/840 850/1/839 224/1/841 851/1/841
f 852/1/838 853/1/837 851/1/842 203/1/842
f 207/1/843 854/1/844 855/1/845 802/1/846
f 854/1/847 223/1/848 852/1/849 855/1/850
f 855/1/850 852/1/849 203/1/851 790/1/851
f 802/1/846 855/1/845 790/1/852 201/1/852
f 210/1/853 848/1/854 857/1/855 819/1/853
f 848/1/854 223/1/848 854/1/847 857/1/855
f 857/1/856 854/1/844 207/1/843 856/1/857
f 819/1/858 857/1/856 856/1/857 208/1/858
f 185/1/859 752/1/859 859/1/859 858/1/859
f 752/1/860 186/1/860 841/1/860 859/1/860
f 859/1/861 841/1/861 211/1/861 817/1/861
f 858/1/862 859/1/862 817/1/862 209/1/862
f 209/1/863 813/1/863 860/1/863 858/1/863
f 813/1/864 190/1/864 758/1/864 860/1/864
f 860/1/865 758/1/865 187/1/865 755/1/865
f 858/1/866 860/1/866 755/1/866 185/1/866
f 207/1/753 801/1/752 861/1/867 856/1/868
f 801/1/750 195/1/749 771/1/869 861/1/870
f 861/1/870 771/1/869 193/1/871 815/1/871
f 856/1/868 861/1/867 815/1/872 208/1/872
f 142/1/778 612/1/873 862/1/873 811/1/777
f 612/1/874 140/1/874 763/1/874 862/1/874
f 862/1/875 763/1/875 189/1/875 767/1/875
f 811/1/876 862/1/876 767/1/876 192/1/876
f 162/1/877 673/1/877 866/1/877 865/1/877
f 673/1/878 161/1/878 863/1/878 866/1/878
f 866/1/879 863/1/879 191/1/879 864/1/879
f 865/1/880 866/1/880 864/1/880 225/1/880
f 124/1/881 867/1/881 869/1/881 569/1/881
f 867/1/882 225/1/882 868/1/882 869/1/882
f 869/1/883 868/1/883 141/1/883 619/1/883
f 569/1/884 869/1/884 619/1/884 125/1/884
f 226/1/885 870/1/885 872/1/885 871/1/885
f 870/1/886 162/1/886 865/1/886 872/1/886
f 872/1/887 865/1/887 225/1/887 867/1/887
f 871/1/888 872/1/888 867/1/888 124/1/888
f 124/1/425 571/1/428 875/1/889 871/1/889
f 571/1/431 123/1/433 873/1/890 875/1/890
f 875/1/891 873/1/892 227/1/893 874/1/894
f 871/1/895 875/1/891 874/1/894 226/1/895
f 227/1/893 873/1/892 877/1/896 876/1/897
f 873/1/892 123/1/420 565/1/418 877/1/896
f 877/1/896 565/1/418 119/1/392 563/1/411
f 876/1/897 877/1/896 563/1/411 121/1/410
f 878/1/898 163/1/898 671/1/898 879/1/898
f 879/1/899 671/1/899 162/1/899 870/1/899
f 141/1/900 868/1/900 880/1/900 615/1/900
f 868/1/901 225/1/901 864/1/901 880/1/901
f 880/1/902 864/1/902 191/1/902 764/1/902
f 615/1/903 880/1/903 764/1/903 140/1/903
f 188/1/904 765/1/904 882/1/904 881/1/904
f 765/1/905 191/1/905 863/1/905 882/1/905
f 882/1/906 863/1/906 161/1/906 669/1/906
f 881/1/907 882/1/907 669/1/907 159/1/907
f 188/1/908 881/1/908 883/1/908 761/1/908
f 881/1/909 159/1/909 662/1/909 883/1/909
f 883/1/910 662/1/910 157/1/910 756/1/910
f 761/1/911 883/1/911 756/1/911 187/1/911
f 153/1/912 720/1/912 886/1/912 651/1/912
f 720/1/913 182/1/913 884/1/913 886/1/913
f 886/1/914 884/1/914 228/1/914 885/1/914
f 651/1/915 886/1/915 885/1/915 151/1/915
f 228/1/916 887/1/916 889/1/916 888/1/916
f 887/1/917 220/1/917 837/1/917 889/1/917
f 889/1/918 837/1/918 215/1/918 845/1/918
f 888/1/919 889/1/919 845/1/919 222/1/919
f 149/1/920 643/1/920 891/1/920 890/1/920
f 643/1/921 151/1/921 885/1/921 891/1/921
f 891/1/922 885/1/922 228/1/922 888/1/922
f 890/1/923 891/1/923 888/1/923 222/1/923
f 220/1/924 887/1/924 893/1/924 892/1/924
f 887/1/925 228/1/925 884/1/925 893/1/925
f 893/1/926 884/1/926 182/1/926 726/1/926
f 892/1/927 893/1/927 726/1/927 183/1/927
f 148/1/928 636/1/928 895/1/928 894/1/928
f 636/1/929 149/1/929 890/1/929 895/1/929
f 895/1/930 890/1/930 222/1/930 844/1/930
f 894/1/931 895/1/931 844/1/931 221/1/931
f 221/1/932 842/1/932 896/1/932 894/1/932
f 842/1/933 186/1/933 751/1/933 896/1/933
f 896/1/934 751/1/934 150/1/934 639/1/934
f 894/1/935 896/1/935 639/1/935 148/1/935
f 183/1/936 725/1/936 899/1/936 898/1/936
f 725/1/937 88/1/937 461/1/937 899/1/937
f 899/1/938 461/1/938 89/1/938 897/1/938
f 898/1/939 899/1/939 897/1/939 229/1/939
f 89/1/940 469/1/941 901/1/942 897/1/940
f 469/1/941 91/1/295 479/1/294 901/1/942
f 901/1/943 479/1/291 96/1/290 900/1/944
f 897/1/945 901/1/943 900/1/944 229/1/945
f 229/1/946 900/1/947 904/1/948 903/1/946
f 900/1/947 96/1/949 902/1/950 904/1/948
f 904/1/951 902/1/952 218/1/953 829/1/954
f 903/1/955 904/1/951 829/1/954 216/1/955
f 229/1/956 903/1/956 905/1/956 898/1/956
f 903/1/957 216/1/957 838/1/957 905/1/957
f 905/1/958 838/1/958 220/1/958 892/1/958
f 898/1/959 905/1/959 892/1/959 183/1/959
f 218/1/953 902/1/952 908/1/960 907/1/961
f 902/1/950 96/1/949 480/1/962 908/1/963
f 908/1/963 480/1/962 93/1/964 906/1/964
f 907/1/961 908/1/960 906/1/965 230/1/965
f 230/1/966 909/1/966 913/1/966 912/1/966
f 909/1/967 101/1/967 910/1/967 913/1/967
f 913/1/968 910/1/968 232/1/968 911/1/968
f 912/1/969 913/1/969 911/1/969 231/1/969
f 231/1/970 911/1/970 917/1/970 916/1/970
f 911/1/971 232/1/971 914/1/971 917/1/971
f 917/1/972 914/1/972 233/1/972 915/1/972
f 916/1/973 917/1/973 915/1/973 224/1/973
f 234/1/974 918/1/974 921/1/974 920/1/974
f 918/1/975 233/1/975 914/1/975 921/1/975
f 921/1/976 914/1/976 232/1/976 919/1/976
f 920/1/977 921/1/977 919/1/977 235/1/977
f 236/1/978 922/1/978 925/1/978 924/1/978
f 922/1/979 234/1/979 920/1/979 925/1/979
f 925/1/980 920/1/980 235/1/980 923/1/980
f 924/1/981 925/1/981 923/1/981 69/1/981
f 927/1/982 928/1/982 926/1/982 237/1/982
f 929/1/983 238/1/983 930/1/983 931/1/983
f 931/1/984 930/1/984 237/1/984 926/1/984
f 206/1/985 798/1/985 935/1/985 934/1/985
f 798/1/986 204/1/986 933/1/986 935/1/986
f 935/1/987 933/1/987 238/1/987 932/1/987
f 238/1/988 933/1/988 937/1/988 930/1/988
f 933/1/989 204/1/989 795/1/989 937/1/989
f 937/1/990 795/1/990 205/1/990 936/1/990
f 930/1/991 937/1/991 936/1/991 237/1/991
f 234/1/992 922/1/992 939/1/992 938/1/992
f 922/1/993 236/1/993 927/1/993 939/1/993
f 939/1/994 927/1/994 237/1/994 936/1/994
f 938/1/995 939/1/995 936/1/995 205/1/995
f 101/1/996 499/1/996 941/1/996 910/1/996
f 499/1/997 100/1/997 940/1/997 941/1/997
f 941/1/998 940/1/998 235/1/998 919/1/998
f 910/1/999 941/1/999 919/1/999 232/1/999
f 69/1/1000 923/1/1000 942/1/1000 404/1/1000
f 923/1/1001 235/1/1001 940/1/1001 942/1/1001
f 942/1/1002 940/1/1002 100/1/1002 494/1/1002
f 404/1/1003 942/1/1003 494/1/1003 68/1/1003
f 233/1/1004 918/1/1004 944/1/1004 943/1/1004
f 918/1/1005 234/1/1005 938/1/1005 944/1/1005
f 944/1/1006 938/1/1006 205/1/1006 794/1/1006
f 943/1/1007 944/1/1007 794/1/1007 202/1/1007
f 203/1/1008 851/1/1008 945/1/1008 791/1/1008
f 851/1/1009 224/1/1009 915/1/1009 945/1/1009
f 945/1/1010 915/1/1010 233/1/1010 943/1/1010
f 791/1/1011 945/1/1011 943/1/1011 202/1/1011
f 231/1/1012 916/1/1012 947/1/1013 946/1/1014
f 916/1/1015 224/1/1015 850/1/1016 947/1/1017
f 947/1/1017 850/1/1016 219/1/812 834/1/811
f 946/1/1014 947/1/1013 834/1/809 217/1/808
f 218/1/798 907/1/1018 948/1/1019 830/1/799
f 907/1/1018 230/1/1020 912/1/1020 948/1/1019
f 948/1/1021 912/1/1022 231/1/1022 946/1/1023
f 830/1/801 948/1/1021 946/1/1023 217/1/802
f 230/1/1024 906/1/1024 949/1/1024 909/1/1024
f 906/1/1025 93/1/1025 476/1/1025 949/1/1025
f 949/1/1026 476/1/1026 94/1/1026 497/1/1026
f 909/1/1027 949/1/1027 497/1/1027 101/1/1027
f 807/1/1028 950/1/1029 597/1/1030 137/1/1030
f 952/1/1031 747/1/1031 110/1/1031 533/1/1031
f 951/1/1032 952/1/1032 533/1/1032 109/1/1032
f 345/1/1033 953/1/1033 530/1/1033 45/1/1033
