# Blender 5.1.0
# www.blender.org
mtllib right cheek.mtl
o Right_cheek
v -1.050027 -0.383108 0.621220
v -1.042399 -0.336585 0.678266
v -1.035941 -0.291385 0.736817
v -1.011648 -0.376541 0.739631
v -1.020105 -0.423098 0.686403
v -1.003666 -0.330815 0.794890
v -0.988446 -0.461963 0.748039
v -0.417081 -0.307182 1.333730
v -0.417868 -0.248329 1.338619
v -0.791309 -0.005842 1.129405
v -0.810826 -0.084752 1.122087
v -0.888308 -0.060452 1.059291
v -0.856252 0.002016 1.083929
v -0.774194 0.048423 1.129369
v -0.713444 0.049685 1.158313
v -0.719943 0.001969 1.167413
v -0.759628 0.092872 1.125169
v -0.706445 0.091086 1.149084
v -0.652209 0.094269 1.168053
v -0.598788 0.101486 1.182847
v -0.595484 0.068050 1.196813
v -0.652982 0.057032 1.180383
v -0.534766 0.052435 1.225769
v -0.590747 0.033791 1.212064
v -0.525836 0.022207 1.242335
v -0.582815 -0.001284 1.228270
v -0.652204 0.017026 1.193793
v -0.646312 -0.025140 1.208697
v -0.718204 -0.051413 1.178643
v -0.809002 0.100342 1.096433
v -0.878088 0.070375 1.055380
v -0.908017 0.020314 1.037101
v -0.830297 0.055765 1.094343
v -0.939793 -0.034829 1.006741
v -0.970079 -0.091145 0.963816
v -1.007495 -0.057737 0.909917
v -0.924405 -0.123548 1.016888
v -0.872646 -0.158671 1.066186
v -0.910891 -0.216650 1.012977
v -0.954885 -0.180983 0.964548
v -0.824396 -0.198044 1.105494
v -0.866373 -0.252204 1.054691
v -0.782111 -0.235153 1.136565
v -0.823466 -0.285932 1.090059
v -0.897130 -0.304466 1.003148
v -0.938001 -0.269958 0.958347
v -0.855777 -0.336597 1.042621
v -0.880123 -0.386517 0.995104
v -0.919279 -0.354876 0.951594
v -0.814955 -0.365797 1.077817
v -0.840153 -0.414908 1.034418
v -0.800285 -0.440405 1.070357
v -0.775292 -0.392074 1.109932
v -0.819228 -0.488731 1.031347
v -0.858648 -0.463615 0.991470
v -0.832361 -0.537041 0.993449
v -0.871049 -0.511828 0.949569
v -0.793411 -0.559624 1.034470
v -0.780011 -0.511486 1.068455
v -0.897331 -0.435374 0.948126
v -0.908930 -0.483365 0.902483
v -0.761249 -0.463572 1.103750
v -0.723094 -0.484860 1.134969
v -0.741459 -0.532419 1.103289
v -0.736856 -0.415751 1.139655
v -0.699121 -0.437216 1.167144
v -0.782723 -0.316581 1.121112
v -0.743903 -0.343835 1.149283
v -0.742977 -0.267702 1.163312
v -0.731017 -0.186008 1.180218
v -0.695604 -0.219863 1.202602
v -0.767576 -0.144779 1.154762
v -0.705703 -0.295823 1.187228
v -0.669554 -0.320191 1.208861
v -0.706347 -0.367943 1.175042
v -0.661037 -0.248391 1.222571
v -0.626874 -0.272678 1.240316
v -0.633884 -0.341469 1.228746
v -0.669349 -0.389403 1.198681
v -0.592765 -0.293569 1.256547
v -0.969918 -0.368407 0.849689
v -0.956973 -0.320301 0.903539
v -0.934559 -0.403567 0.900883
v -0.979381 -0.414963 0.797609
v -0.954354 -0.498562 0.805778
v -0.945227 -0.450978 0.851929
v -0.917707 -0.531572 0.859514
v -0.993037 -0.283553 0.851350
v -1.027203 -0.244972 0.795743
v -1.013971 -0.196501 0.854477
v -0.977330 -0.233862 0.908391
v -1.058819 -0.203863 0.737388
v -1.046922 -0.157134 0.798031
v -0.995180 -0.145317 0.911560
v -0.699599 -0.100748 1.196972
v -0.672095 -0.141002 1.217238
v -0.641893 -0.174276 1.235941
v -0.585434 -0.132974 1.260471
v -0.610503 -0.101754 1.243816
v -0.531198 -0.096551 1.278411
v -0.552090 -0.067636 1.262433
v -0.508614 -0.122582 1.293431
v -0.558621 -0.160152 1.275405
v -0.461103 -0.088282 1.308968
v -0.440830 -0.110020 1.324117
v -0.485163 -0.145606 1.307585
v -0.480297 -0.063567 1.292923
v -0.498127 -0.036651 1.276402
v -0.569865 -0.035743 1.245512
v -0.513712 -0.007927 1.259488
v -0.631851 -0.065738 1.226033
v -0.432144 -0.032508 1.307150
v -0.419476 -0.128002 1.337823
v -0.531136 -0.183980 1.289021
v -0.579283 -0.226380 1.267137
v -0.610733 -0.202318 1.252525
v -0.547833 -0.247305 1.280895
v -0.503429 -0.204672 1.302086
v -0.558377 -0.311765 1.272188
v -0.516324 -0.265483 1.294647
v -0.475573 -0.222173 1.314744
v -0.461070 -0.165144 1.320727
v -0.436377 -0.180895 1.332820
v -0.410867 -0.193144 1.343845
v -0.447310 -0.236557 1.326935
v -1.030038 -0.108314 0.856419
v -0.516859 -0.459328 1.278068
v -0.585902 -0.492959 1.237693
v -0.556709 -0.443426 1.260639
v -0.623818 -0.475307 1.216153
v -0.647574 -0.523144 1.190848
v -0.685256 -0.504570 1.164031
v -0.661530 -0.456898 1.192598
v -0.703410 -0.551852 1.135963
v -0.595022 -0.426685 1.241399
v -0.632428 -0.408814 1.220720
v -0.522902 -0.392477 1.282684
v -0.482781 -0.406619 1.298619
v -0.561290 -0.377182 1.265465
v -0.451507 -0.294690 1.321310
v -0.484352 -0.281110 1.308269
v -0.486685 -0.342214 1.302283
v -0.523147 -0.327831 1.287509
v -0.598008 -0.360283 1.247471
v -0.448918 -0.355573 1.316442
v -1.057230 -0.315898 0.646416
v -1.045858 -0.359551 0.649492
v -1.060458 -0.338927 0.616704
v -1.051392 -0.270781 0.706622
v -1.039243 -0.313980 0.707436
v -1.054367 -0.293300 0.676452
v -1.035253 -0.403235 0.654227
v -1.015638 -0.399575 0.712707
v -1.027210 -0.356757 0.709352
v -1.030936 -0.379729 0.681508
v -1.020013 -0.311341 0.766252
v -1.007785 -0.353741 0.767074
v -1.023705 -0.334079 0.737656
v -1.004528 -0.442709 0.717690
v -1.025249 -0.447313 0.660780
v -0.993519 -0.486347 0.724408
v -1.009663 -0.466974 0.693083
v -0.401114 -0.225178 1.346574
v -0.402411 -0.253511 1.344373
v -0.825372 -0.003743 1.107001
v -0.871356 -0.028403 1.073851
v -0.855946 -0.072281 1.087142
v -0.800429 -0.038904 1.126988
v -0.838729 -0.036180 1.099904
v -0.755583 -0.003557 1.149881
v -0.717051 0.026698 1.162913
v -0.744090 0.048068 1.144715
v -0.782531 0.022807 1.130151
v -0.750001 0.023525 1.147604
v -0.709819 0.071090 1.153645
v -0.733331 0.091295 1.137768
v -0.766518 0.071639 1.127540
v -0.738456 0.070558 1.141337
v -0.703293 0.109883 1.144846
v -0.753516 0.112463 1.122685
v -0.728729 0.110579 1.134340
v -0.679332 0.092124 1.159159
v -0.677486 0.110357 1.154220
v -0.652694 0.075984 1.174048
v -0.623823 0.062122 1.189185
v -0.597230 0.084827 1.189642
v -0.625286 0.097407 1.175900
v -0.624654 0.079930 1.182351
v -0.568093 0.074793 1.203583
v -0.593386 0.051055 1.204318
v -0.562066 0.042815 1.219246
v -0.538432 0.067421 1.217684
v -0.565295 0.058882 1.211315
v -0.499403 0.034325 1.248550
v -0.530622 0.037354 1.233968
v -0.587322 0.016295 1.220025
v -0.553631 0.010369 1.235695
v -0.558255 0.026620 1.227358
v -0.620721 0.025250 1.203727
v -0.652940 0.037400 1.186978
v -0.622596 0.043909 1.196333
v -0.685354 0.009121 1.181879
v -0.720916 -0.024417 1.172310
v -0.681156 -0.037884 1.195452
v -0.650204 -0.003976 1.200949
v -0.684561 -0.014259 1.188223
v -0.613561 -0.013000 1.219444
v -0.617839 0.006192 1.211388
v -0.682911 0.052816 1.170150
v -0.684508 0.031541 1.175944
v -0.681129 0.072981 1.164521
v -0.784957 0.095887 1.111345
v -0.892670 0.046164 1.047632
v -0.929473 0.031523 1.013599
v -0.855338 0.062333 1.075199
v -0.883718 0.010321 1.060588
v -0.842687 0.030111 1.090489
v -0.868997 0.037312 1.069341
v -0.803110 0.051017 1.112497
v -0.813712 0.025087 1.110927
v -0.819050 0.079081 1.096027
v -0.793522 0.074490 1.112370
v -0.842780 0.085226 1.078724
v -0.923841 -0.006837 1.023542
v -0.960923 -0.020933 0.980897
v -0.945307 0.005667 0.998714
v -0.915790 -0.047999 1.032792
v -0.899390 -0.018308 1.048537
v -0.994116 -0.032015 0.933795
v -0.989775 -0.074684 0.936877
v -0.955385 -0.063102 0.986721
v -0.975881 -0.047845 0.960195
v -0.948284 -0.107317 0.990557
v -0.906532 -0.092609 1.039941
v -0.932364 -0.077922 1.013296
v -0.758581 -0.066149 1.156538
v -0.759620 -0.033698 1.152094
v -0.898814 -0.140432 1.042403
v -0.847309 -0.126273 1.092436
v -0.877705 -0.107989 1.066702
v -0.940671 -0.152947 0.991464
v -0.933161 -0.198769 0.989503
v -0.893431 -0.188434 1.039805
v -0.917312 -0.170425 1.016460
v -0.847593 -0.178238 1.087212
v -0.888517 -0.234540 1.034721
v -0.847011 -0.225323 1.080220
v -0.869828 -0.206877 1.061071
v -0.844661 -0.269408 1.073045
v -0.803989 -0.260480 1.113511
v -0.802727 -0.217138 1.121741
v -0.825093 -0.243292 1.097567
v -0.925616 -0.243744 0.985771
v -0.917695 -0.287467 0.981433
v -0.882957 -0.278584 1.028969
v -0.904328 -0.261359 1.008144
v -0.909165 -0.329883 0.977325
v -0.899854 -0.371113 0.973901
v -0.868889 -0.361665 1.018838
v -0.876445 -0.320879 1.023499
v -0.889111 -0.346151 0.998670
v -0.835242 -0.351566 1.060674
v -0.860188 -0.401106 1.015245
v -0.828407 -0.390385 1.056089
v -0.848611 -0.376400 1.037935
v -0.788557 -0.416233 1.090109
v -0.794964 -0.379287 1.094204
v -0.820146 -0.427982 1.052748
v -0.808363 -0.403643 1.073443
v -0.810501 -0.464573 1.050752
v -0.850229 -0.439337 1.012855
v -0.838969 -0.476516 1.011795
v -0.830341 -0.452280 1.032181
v -0.865498 -0.487727 0.970356
v -0.851776 -0.524807 0.971890
v -0.826475 -0.512866 1.012237
v -0.846041 -0.500648 0.991696
v -0.875603 -0.536052 0.929286
v -0.856380 -0.549085 0.952523
v -0.812880 -0.548620 1.014292
v -0.787359 -0.535511 1.051257
v -0.799546 -0.500362 1.050208
v -0.806887 -0.524459 1.032061
v -0.889567 -0.411107 0.971498
v -0.878131 -0.449924 0.970269
v -0.870017 -0.425646 0.992656
v -0.903677 -0.459428 0.925068
v -0.890133 -0.498041 0.926446
v -0.884732 -0.474009 0.948157
v -0.780640 -0.452245 1.087338
v -0.771317 -0.487513 1.085974
v -0.790806 -0.476294 1.068659
v -0.760651 -0.522158 1.086139
v -0.732956 -0.508639 1.118996
v -0.742088 -0.474431 1.119623
v -0.752047 -0.498282 1.102748
v -0.711827 -0.461057 1.151071
v -0.717955 -0.426740 1.153677
v -0.749777 -0.439653 1.121684
v -0.730743 -0.450589 1.136647
v -0.755938 -0.404209 1.125076
v -0.769033 -0.428217 1.106179
v -0.760428 -0.367935 1.129705
v -0.763104 -0.330624 1.135510
v -0.799751 -0.341182 1.099526
v -0.779897 -0.354936 1.114933
v -0.802827 -0.301674 1.106013
v -0.840680 -0.311337 1.066390
v -0.820011 -0.326640 1.083397
v -0.861697 -0.295294 1.048319
v -0.763813 -0.292060 1.142435
v -0.762242 -0.252004 1.150333
v -0.783598 -0.276755 1.128392
v -0.720183 -0.243579 1.183453
v -0.713189 -0.203693 1.191740
v -0.757746 -0.210217 1.158925
v -0.738739 -0.227585 1.171573
v -0.749112 -0.166529 1.167944
v -0.797981 -0.170814 1.130453
v -0.777377 -0.191345 1.145346
v -0.724156 -0.282276 1.175582
v -0.725661 -0.319788 1.168507
v -0.744540 -0.306393 1.155790
v -0.687530 -0.308436 1.198299
v -0.725017 -0.356255 1.162455
v -0.688705 -0.344045 1.192179
v -0.707074 -0.332311 1.180618
v -0.684133 -0.272008 1.205327
v -0.648960 -0.296400 1.225019
v -0.643924 -0.261008 1.231684
v -0.666481 -0.284665 1.215425
v -0.687809 -0.378966 1.187091
v -0.652309 -0.365443 1.213931
v -0.651697 -0.331172 1.218990
v -0.670472 -0.355060 1.203259
v -0.614014 -0.317473 1.243012
v -0.609839 -0.283502 1.248568
v -0.631493 -0.307307 1.234178
v -0.722400 -0.391850 1.157496
v -0.741292 -0.380223 1.143891
v -0.678240 -0.234715 1.212877
v -0.702006 -0.258345 1.194684
v -0.952469 -0.386357 0.875765
v -0.927664 -0.379409 0.926089
v -0.938331 -0.337907 0.928129
v -0.964067 -0.344568 0.876453
v -0.946082 -0.362324 0.901789
v -0.995717 -0.395969 0.769062
v -0.974877 -0.391860 0.823372
v -0.986967 -0.349858 0.822714
v -0.991513 -0.373018 0.795658
v -0.983796 -0.438238 0.772462
v -0.999945 -0.419111 0.743038
v -0.949804 -0.474549 0.828465
v -0.962572 -0.433366 0.825239
v -0.971740 -0.480642 0.777415
v -0.967104 -0.456774 0.800948
v -0.936312 -0.515572 0.833128
v -0.898696 -0.546547 0.885010
v -0.913483 -0.507285 0.880608
v -0.894671 -0.522151 0.905336
v -0.927327 -0.467670 0.877668
v -0.931905 -0.491416 0.855006
v -0.940285 -0.427431 0.876099
v -0.957828 -0.410044 0.850195
v -0.916167 -0.419925 0.925005
v -0.922221 -0.443904 0.901058
v -0.908809 -0.395695 0.949320
v -0.998873 -0.307427 0.823000
v -0.975212 -0.302152 0.877916
v -0.981654 -0.326241 0.850163
v -0.985922 -0.259067 0.879855
v -0.996062 -0.215366 0.881837
v -1.021214 -0.221100 0.825185
v -1.010400 -0.264516 0.823934
v -1.003905 -0.240301 0.852912
v -1.043348 -0.224812 0.766856
v -1.063076 -0.226672 0.706644
v -1.032043 -0.268373 0.766251
v -1.047828 -0.247936 0.736757
v -1.053448 -0.180821 0.767884
v -1.030941 -0.177138 0.826486
v -1.037740 -0.201341 0.796798
v -1.015697 -0.288156 0.795016
v -0.967051 -0.207888 0.936720
v -0.957925 -0.252063 0.933953
v -0.946608 -0.225894 0.961904
v -0.948368 -0.295452 0.930882
v -0.967377 -0.277458 0.905887
v -0.928947 -0.312964 0.954719
v -1.005332 -0.171262 0.883380
v -0.975653 -0.163222 0.938456
v -0.986695 -0.189711 0.910462
v -0.983413 -0.118603 0.938555
v -0.962829 -0.135779 0.965355
v -0.786944 -0.119640 1.140347
v -0.820584 -0.148609 1.113467
v -0.734196 -0.121359 1.177397
v -0.710730 -0.077235 1.187099
v -0.748553 -0.096081 1.165932
v -0.702303 -0.162862 1.199926
v -0.686404 -0.121891 1.207203
v -0.718514 -0.143302 1.188897
v -0.669424 -0.196687 1.220302
v -0.657175 -0.158385 1.226840
v -0.685895 -0.180558 1.210398
v -0.598288 -0.117920 1.252337
v -0.641203 -0.120648 1.231794
v -0.613629 -0.152965 1.249240
v -0.627695 -0.137467 1.240739
v -0.541929 -0.082460 1.270543
v -0.580678 -0.084148 1.253938
v -0.557857 -0.114204 1.270106
v -0.569576 -0.099630 1.262186
v -0.572158 -0.147016 1.268156
v -0.533238 -0.140841 1.284904
v -0.520053 -0.109926 1.286035
v -0.545702 -0.127924 1.277667
v -0.484637 -0.105128 1.301330
v -0.496973 -0.134497 1.300620
v -0.462864 -0.127501 1.315970
v -0.451099 -0.099580 1.316690
v -0.473863 -0.116731 1.308785
v -0.505413 -0.079780 1.285828
v -0.470844 -0.076242 1.301025
v -0.495170 -0.092789 1.293664
v -0.489422 -0.050351 1.284710
v -0.524664 -0.051929 1.269690
v -0.515289 -0.066152 1.277842
v -0.561487 -0.052065 1.254082
v -0.506289 -0.022506 1.267999
v -0.541217 -0.021742 1.252884
v -0.533382 -0.037124 1.261372
v -0.577003 -0.018729 1.236830
v -0.640152 -0.045888 1.217142
v -0.599993 -0.050282 1.236691
v -0.607605 -0.031950 1.227947
v -0.621816 -0.084380 1.235003
v -0.590921 -0.067707 1.245408
v -0.520225 0.007045 1.250888
v -0.547974 -0.005834 1.244265
v -0.472538 -0.021681 1.282973
v -0.455900 -0.047835 1.299987
v -0.464391 -0.034955 1.291505
v -0.487383 0.005843 1.265804
v -0.480259 -0.008075 1.274412
v -0.438057 -0.072029 1.316610
v -0.447120 -0.060236 1.308381
v -0.419043 -0.093249 1.332228
v -0.428705 -0.083075 1.324586
v -0.430287 -0.119502 1.331170
v -0.409051 -0.102455 1.339469
v -0.544927 -0.172462 1.282322
v -0.507813 -0.164346 1.298662
v -0.520584 -0.152986 1.291885
v -0.584543 -0.180590 1.264745
v -0.595016 -0.214780 1.260033
v -0.555012 -0.204596 1.278586
v -0.569801 -0.193000 1.271805
v -0.636447 -0.225059 1.238407
v -0.603493 -0.249215 1.254439
v -0.619972 -0.237604 1.246655
v -0.626384 -0.188867 1.244508
v -0.599196 -0.167292 1.257243
v -0.652935 -0.211466 1.229635
v -0.570477 -0.270050 1.269179
v -0.563553 -0.237204 1.274044
v -0.586991 -0.259999 1.261890
v -0.525387 -0.225511 1.291846
v -0.517295 -0.194720 1.295594
v -0.540203 -0.215427 1.285236
v -0.537347 -0.288234 1.283688
v -0.532113 -0.256725 1.287772
v -0.575639 -0.302968 1.264408
v -0.553951 -0.279447 1.276437
v -0.495670 -0.243485 1.305002
v -0.489527 -0.213823 1.308472
v -0.510558 -0.234862 1.298449
v -0.482050 -0.184598 1.311681
v -0.473192 -0.155839 1.314288
v -0.494967 -0.174894 1.305268
v -0.440239 -0.146218 1.329382
v -0.451652 -0.137344 1.322842
v -0.455934 -0.201328 1.323959
v -0.448807 -0.173489 1.326911
v -0.469051 -0.193413 1.317905
v -0.461536 -0.229732 1.320906
v -0.429129 -0.214613 1.335516
v -0.423744 -0.187412 1.338443
v -0.442650 -0.208365 1.329829
v -0.416793 -0.161077 1.341395
v -0.404726 -0.167188 1.346900
v -0.408406 -0.135532 1.344076
v -0.428625 -0.154112 1.335566
v -0.665236 -0.082413 1.213052
v -0.653878 -0.102342 1.222500
v -0.674591 -0.060828 1.203843
v -1.019499 -0.083223 0.883987
v -1.039151 -0.132948 0.827643
v -1.013317 -0.127070 0.884137
v -1.022835 -0.152391 0.855706
v -1.002297 -0.101148 0.911356
v -0.536991 -0.451427 1.269591
v -0.571888 -0.468364 1.249146
v -0.566946 -0.501712 1.247627
v -0.552556 -0.476800 1.258524
v -0.636350 -0.499324 1.203450
v -0.628791 -0.532157 1.203372
v -0.598696 -0.517216 1.226386
v -0.604871 -0.484190 1.227192
v -0.617482 -0.508307 1.215201
v -0.642713 -0.466235 1.204619
v -0.674079 -0.480785 1.178312
v -0.666398 -0.513970 1.177728
v -0.655220 -0.490173 1.191147
v -0.695011 -0.528249 1.149868
v -0.676160 -0.537610 1.164453
v -0.613808 -0.417910 1.231226
v -0.647635 -0.432908 1.206772
v -0.610019 -0.451093 1.228846
v -0.628896 -0.442148 1.218019
v -0.680323 -0.447246 1.180111
v -0.650904 -0.399327 1.209874
v -0.684962 -0.413331 1.183054
v -0.666306 -0.423322 1.195122
v -0.704158 -0.494888 1.149778
v -0.692947 -0.471101 1.164956
v -0.576014 -0.435182 1.251219
v -0.591030 -0.459815 1.239241
v -0.540338 -0.418081 1.271948
v -0.500006 -0.432981 1.288713
v -0.503061 -0.399653 1.290862
v -0.520391 -0.425614 1.280548
v -0.542335 -0.385011 1.274200
v -0.578787 -0.402045 1.253663
v -0.559793 -0.410238 1.262959
v -0.397678 -0.198210 1.349119
v -0.432784 -0.242720 1.332825
v -0.415313 -0.220179 1.341070
v -0.434628 -0.271538 1.330191
v -0.434618 -0.300995 1.327575
v -0.418465 -0.277332 1.336173
v -0.503637 -0.304123 1.298096
v -0.505078 -0.335202 1.294967
v -0.468864 -0.318142 1.311963
v -0.468059 -0.288103 1.314884
v -0.486396 -0.311325 1.305112
v -0.465595 -0.258654 1.317895
v -0.450280 -0.265344 1.324118
v -0.500419 -0.273596 1.301491
v -0.480696 -0.251394 1.311497
v -0.540891 -0.320035 1.279891
v -0.520595 -0.296446 1.290920
v -0.578793 -0.335927 1.260115
v -0.579796 -0.368946 1.256549
v -0.542566 -0.352284 1.276692
v -0.560866 -0.344340 1.268473
v -0.615893 -0.384607 1.234309
v -0.597453 -0.393509 1.244107
v -0.616006 -0.351145 1.238210
v -0.596474 -0.326991 1.251635
v -0.634153 -0.375274 1.224262
v -0.504839 -0.367062 1.292664
v -0.523877 -0.359844 1.284763
v -0.465618 -0.380733 1.307656
v -0.467983 -0.348955 1.309468
v -0.485437 -0.373992 1.300333
v -0.432814 -0.331199 1.325179
v -0.451040 -0.324695 1.318667
v -0.493760 0.020033 1.257149
v -0.703648 -0.402865 1.170536
v -0.722387 -0.542303 1.119904
v -0.713948 -0.518611 1.134709
v -0.748707 -0.556247 1.087959
v -0.767961 -0.546091 1.069885
vn -0.9330 -0.2232 0.2822
vn -0.9228 -0.2541 0.2897
vn -0.9233 -0.2533 0.2888
vn -0.9274 -0.2458 0.2819
vn -0.9279 -0.2448 0.2812
vn -0.9322 -0.1931 0.3060
vn -0.9262 -0.1949 0.3228
vn -0.9212 -0.2241 0.3180
vn -0.9275 -0.2239 0.2994
vn -0.9079 -0.2554 0.3324
vn -0.9153 -0.2562 0.3108
vn -0.9216 -0.2458 0.3005
vn -0.9150 -0.2449 0.3207
vn -0.9133 -0.1737 0.3684
vn -0.9222 -0.1663 0.3492
vn -0.5597 0.0722 0.8255
vn -0.6034 0.0559 0.7955
vn -0.6366 0.0100 0.7711
vn -0.5934 0.0265 0.8045
vn -0.4853 0.1487 0.8616
vn -0.4434 0.1872 0.8765
vn -0.4173 0.2224 0.8812
vn -0.4560 0.1931 0.8687
vn -0.4320 0.2253 0.8733
vn -0.3956 0.2457 0.8849
vn -0.3797 0.2566 0.8888
vn -0.3795 0.2563 0.8890
vn -0.3690 0.2549 0.8938
vn -0.4141 0.2427 0.8773
vn -0.4137 0.2426 0.8775
vn -0.4029 0.2448 0.8819
vn -0.4018 0.2450 0.8823
vn -0.3945 0.2382 0.8875
vn -0.3687 0.2546 0.8940
vn -0.3610 0.2453 0.8997
vn -0.3390 0.2692 0.9015
vn -0.3393 0.2695 0.9013
vn -0.3447 0.2713 0.8987
vn -0.3046 0.3119 0.8999
vn -0.3173 0.3157 0.8942
vn -0.3039 0.3380 0.8907
vn -0.2919 0.3297 0.8978
vn -0.3001 0.3577 0.8843
vn -0.3066 0.3588 0.8816
vn -0.3133 0.3614 0.8782
vn -0.3244 0.3552 0.8767
vn -0.3314 0.3733 0.8665
vn -0.3368 0.3689 0.8663
vn -0.3309 0.3723 0.8671
vn -0.3361 0.3458 0.8761
vn -0.3482 0.3351 0.8755
vn -0.3470 0.3600 0.8660
vn -0.3559 0.3497 0.8666
vn -0.3515 0.3549 0.8663
vn -0.3417 0.3638 0.8666
vn -0.3485 0.2999 0.8880
vn -0.3314 0.3308 0.8836
vn -0.3173 0.3387 0.8858
vn -0.3324 0.3121 0.8900
vn -0.3900 0.2454 0.8875
vn -0.4266 0.2007 0.8819
vn -0.4484 0.1803 0.8754
vn -0.4079 0.2291 0.8838
vn -0.3647 0.2836 0.8869
vn -0.3802 0.2695 0.8848
vn -0.3599 0.3049 0.8818
vn -0.3457 0.3177 0.8829
vn -0.4037 0.2281 0.8860
vn -0.3719 0.2659 0.8894
vn -0.3546 0.2833 0.8911
vn -0.3824 0.2536 0.8885
vn -0.3506 0.2734 0.8957
vn -0.3647 0.2683 0.8916
vn -0.3389 0.2915 0.8945
vn -0.3253 0.2927 0.8992
vn -0.5856 0.1483 0.7970
vn -0.6284 0.1495 0.7633
vn -0.6600 0.1041 0.7440
vn -0.6170 0.0998 0.7806
vn -0.4973 0.1697 0.8508
vn -0.5412 0.1543 0.8266
vn -0.5725 0.1039 0.8133
vn -0.5283 0.1195 0.8406
vn -0.4513 0.2323 0.8616
vn -0.4897 0.2259 0.8421
vn -0.5115 0.1999 0.8357
vn -0.4706 0.2099 0.8570
vn -0.5542 0.1943 0.8094
vn -0.7586 0.0258 0.6511
vn -0.7287 0.0696 0.6813
vn -0.6482 0.0532 0.7596
vn -0.6907 0.0591 0.7207
vn -0.7217 0.0143 0.6920
vn -0.6805 0.0080 0.7327
vn -0.8415 -0.0467 0.5383
vn -0.8149 -0.0610 0.5764
vn -0.7877 -0.0184 0.6158
vn -0.7532 -0.0299 0.6571
vn -0.7838 -0.0724 0.6168
vn -0.7495 -0.0790 0.6572
vn -0.7147 -0.0364 0.6984
vn -0.5491 0.0608 0.8336
vn -0.4973 0.1243 0.8587
vn -0.4713 0.1511 0.8689
vn -0.5164 0.1048 0.8499
vn -0.6742 -0.0354 0.7377
vn -0.7147 -0.0796 0.6949
vn -0.6840 -0.0757 0.7255
vn -0.6324 -0.0253 0.7742
vn -0.7524 -0.1198 0.6477
vn -0.7852 -0.1544 0.5997
vn -0.7599 -0.1532 0.6317
vn -0.7247 -0.1180 0.6789
vn -0.6829 -0.1156 0.7214
vn -0.7015 -0.1156 0.7032
vn -0.7364 -0.1512 0.6595
vn -0.7150 -0.1506 0.6827
vn -0.6962 -0.1513 0.7017
vn -0.6801 -0.1522 0.7171
vn -0.6540 -0.1227 0.7465
vn -0.6674 -0.1185 0.7352
vn -0.7676 -0.1792 0.6154
vn -0.7951 -0.2008 0.5723
vn -0.7732 -0.1989 0.6022
vn -0.7452 -0.1780 0.6427
vn -0.7771 -0.2131 0.5922
vn -0.8004 -0.2268 0.5549
vn -0.7795 -0.2252 0.5845
vn -0.7562 -0.2109 0.6194
vn -0.7204 -0.2051 0.6625
vn -0.7370 -0.2084 0.6430
vn -0.7593 -0.2232 0.6113
vn -0.7409 -0.2207 0.6344
vn -0.7122 -0.2127 0.6690
vn -0.6945 -0.1971 0.6920
vn -0.7064 -0.2015 0.6785
vn -0.7251 -0.2174 0.6534
vn -0.7466 -0.2418 0.6197
vn -0.7295 -0.2275 0.6451
vn -0.7435 -0.2327 0.6269
vn -0.7617 -0.2478 0.5986
vn -0.7636 -0.2553 0.5931
vn -0.7791 -0.2618 0.5696
vn -0.7943 -0.2714 0.5435
vn -0.7794 -0.2657 0.5674
vn -0.8061 -0.2759 0.5236
vn -0.8066 -0.2756 0.5229
vn -0.8135 -0.2741 0.5129
vn -0.7502 -0.2469 0.6134
vn -0.7659 -0.2574 0.5892
vn -0.7541 -0.2473 0.6084
vn -0.7391 -0.2374 0.6304
vn -0.7607 -0.2360 0.6047
vn -0.7803 -0.2377 0.5784
vn -0.7992 -0.2527 0.5454
vn -0.7798 -0.2514 0.5734
vn -0.8100 -0.2737 0.5187
vn -0.7966 -0.2650 0.5433
vn -0.8145 -0.2652 0.5161
vn -0.8261 -0.2722 0.4934
vn -0.7078 -0.2132 0.6735
vn -0.7178 -0.2208 0.6603
vn -0.7341 -0.2344 0.6373
vn -0.7236 -0.2257 0.6522
vn -0.6981 -0.2049 0.6861
vn -0.7141 -0.2167 0.6657
vn -0.7042 -0.2077 0.6790
vn -0.6873 -0.1963 0.6994
vn -0.6805 -0.1924 0.7070
vn -0.6679 -0.1844 0.7211
vn -0.6453 -0.1718 0.7444
vn -0.6605 -0.1789 0.7292
vn -0.6730 -0.1855 0.7160
vn -0.6840 -0.1915 0.7039
vn -0.7014 -0.2067 0.6822
vn -0.6912 -0.1999 0.6944
vn -0.6870 -0.1845 0.7029
vn -0.6757 -0.1800 0.7149
vn -0.6547 -0.1618 0.7383
vn -0.6661 -0.1662 0.7271
vn -0.7140 -0.1922 0.6732
vn -0.6995 -0.1886 0.6893
vn -0.6777 -0.1702 0.7154
vn -0.6906 -0.1735 0.7021
vn -0.7515 -0.1971 0.6295
vn -0.7315 -0.1950 0.6534
vn -0.7060 -0.1759 0.6861
vn -0.7244 -0.1771 0.6663
vn -0.6418 -0.1257 0.7565
vn -0.6667 -0.1516 0.7297
vn -0.6547 -0.1498 0.7409
vn -0.6303 -0.1263 0.7660
vn -0.6152 -0.0947 0.7827
vn -0.6033 -0.0992 0.7913
vn -0.5744 -0.0687 0.8157
vn -0.5863 -0.0591 0.8079
vn -0.6267 -0.0875 0.7744
vn -0.5970 -0.0474 0.8009
vn -0.6065 -0.0330 0.7944
vn -0.6380 -0.0787 0.7660
vn -0.6036 -0.1243 0.7875
vn -0.6177 -0.1260 0.7762
vn -0.6433 -0.1468 0.7514
vn -0.6307 -0.1433 0.7627
vn -0.5719 -0.1206 0.8114
vn -0.5881 -0.1227 0.7994
vn -0.6160 -0.1395 0.7753
vn -0.5999 -0.1356 0.7885
vn -0.5294 -0.0868 0.8439
vn -0.5603 -0.1062 0.8214
vn -0.5435 -0.1068 0.8326
vn -0.5107 -0.0884 0.8552
vn -0.5555 -0.1176 0.8232
vn -0.5832 -0.1318 0.8016
vn -0.5670 -0.1270 0.8139
vn -0.5391 -0.1136 0.8345
vn -0.4923 -0.0878 0.8660
vn -0.5259 -0.1049 0.8440
vn -0.5086 -0.1004 0.8551
vn -0.4756 -0.0847 0.8755
vn -0.6646 -0.1750 0.7264
vn -0.6520 -0.1695 0.7391
vn -0.6272 -0.1525 0.7638
vn -0.6421 -0.1573 0.7503
vn -0.5758 -0.1045 0.8109
vn -0.5471 -0.0822 0.8330
vn -0.5618 -0.0760 0.8238
vn -0.5899 -0.1023 0.8009
vn -0.8696 -0.2484 0.4268
vn -0.8547 -0.2488 0.4556
vn -0.8395 -0.2397 0.4876
vn -0.8560 -0.2409 0.4574
vn -0.9002 -0.2528 0.3545
vn -0.9078 -0.2434 0.3416
vn -0.8993 -0.2432 0.3635
vn -0.8914 -0.2507 0.3777
vn -0.9191 -0.1973 0.3411
vn -0.9104 -0.2021 0.3611
vn -0.9056 -0.2266 0.3585
vn -0.9142 -0.2243 0.3375
vn -0.8857 -0.2232 0.4072
vn -0.8815 -0.2415 0.4057
vn -0.8811 -0.2423 0.4062
vn -0.8757 -0.2511 0.4123
vn -0.8948 -0.2323 0.3813
vn -0.8992 -0.2109 0.3834
vn -0.8197 -0.2758 0.5021
vn -0.8200 -0.2756 0.5016
vn -0.8253 -0.2712 0.4952
vn -0.8344 -0.2714 0.4798
vn -0.8347 -0.2708 0.4795
vn -0.8390 -0.2632 0.4762
vn -0.8393 -0.2627 0.4760
vn -0.8602 -0.2594 0.4391
vn -0.8663 -0.2526 0.4310
vn -0.8658 -0.2533 0.4315
vn -0.8704 -0.2372 0.4314
vn -0.8504 -0.2624 0.4560
vn -0.8545 -0.2511 0.4547
vn -0.8542 -0.2519 0.4548
vn -0.8435 -0.2668 0.4662
vn -0.8496 -0.2636 0.4568
vn -0.8752 -0.2519 0.4129
vn -0.8664 -0.2535 0.4301
vn -0.8803 -0.2507 0.4028
vn -0.8886 -0.2460 0.3872
vn -0.8597 -0.2597 0.4399
vn -0.8430 -0.2671 0.4670
vn -0.8326 -0.2625 0.4878
vn -0.8502 -0.2581 0.4589
vn -0.8206 -0.2394 0.5189
vn -0.8373 -0.2506 0.4859
vn -0.8185 -0.2523 0.5161
vn -0.8006 -0.2389 0.5495
vn -0.8813 -0.2462 0.4034
vn -0.8915 -0.2527 0.3760
vn -0.8817 -0.2499 0.4003
vn -0.8698 -0.2433 0.4293
vn -0.8815 -0.2363 0.4089
vn -0.8691 -0.2217 0.4421
vn -0.8836 -0.2179 0.4144
vn -0.8936 -0.2336 0.3833
vn -0.9122 -0.2413 0.3311
vn -0.9217 -0.2343 0.3092
vn -0.9178 -0.2507 0.3079
vn -0.8976 -0.2101 0.3875
vn -0.9105 -0.1992 0.3622
vn -0.9168 -0.2183 0.3345
vn -0.9056 -0.2274 0.3581
vn -0.8917 -0.2478 0.3789
vn -0.9019 -0.2463 0.3549
vn -0.9089 -0.2545 0.3303
vn -0.9002 -0.2549 0.3529
vn -0.7902 -0.1811 0.5854
vn -0.8127 -0.1824 0.5533
vn -0.8354 -0.2045 0.5101
vn -0.8159 -0.2031 0.5413
vn -0.8374 -0.2199 0.5004
vn -0.8539 -0.2220 0.4707
vn -0.8690 -0.2356 0.4352
vn -0.8552 -0.2331 0.4629
vn -0.8189 -0.2172 0.5312
vn -0.8392 -0.2303 0.4926
vn -0.8207 -0.2284 0.5238
vn -0.7985 -0.2150 0.5623
vn -0.8557 -0.1756 0.4868
vn -0.8713 -0.1988 0.4486
vn -0.8538 -0.2036 0.4791
vn -0.8347 -0.1810 0.5201
vn -0.7824 -0.1184 0.6115
vn -0.8120 -0.1121 0.5728
vn -0.8360 -0.1466 0.5288
vn -0.8110 -0.1526 0.5648
vn -0.6209 -0.0109 0.7838
vn -0.6142 -0.0194 0.7889
vn -0.6205 -0.0113 0.7841
vn -0.6630 -0.0713 0.7452
vn -0.6492 -0.0721 0.7572
vn -0.6135 -0.0203 0.7894
vn -0.5169 0.1096 0.8490
vn -0.5684 0.0529 0.8210
vn -0.5736 0.0364 0.8183
vn -0.5267 0.0943 0.8448
vn -0.5640 -0.0027 0.8258
vn -0.5223 0.0515 0.8512
vn -0.5272 0.0737 0.8466
vn -0.5714 0.0170 0.8205
vn -0.5426 -0.0325 0.8394
vn -0.5034 0.0135 0.8639
vn -0.5142 0.0312 0.8571
vn -0.5543 -0.0191 0.8321
vn -0.4300 0.1091 0.8962
vn -0.4348 0.1326 0.8907
vn -0.4714 0.0843 0.8779
vn -0.4627 0.0632 0.8842
vn -0.3952 0.1859 0.8996
vn -0.3929 0.2078 0.8958
vn -0.4108 0.1718 0.8954
vn -0.4093 0.1483 0.9003
vn -0.3987 0.1629 0.9025
vn -0.4073 0.1238 0.9048
vn -0.4066 0.0992 0.9082
vn -0.4043 0.1394 0.9040
vn -0.4346 0.1893 0.8805
vn -0.4210 0.1552 0.8937
vn -0.4290 0.1308 0.8938
vn -0.4425 0.1637 0.8817
vn -0.4113 0.2317 0.8816
vn -0.3996 0.2002 0.8945
vn -0.4104 0.1782 0.8943
vn -0.4237 0.2116 0.8808
vn -0.3987 0.2502 0.8823
vn -0.3878 0.2687 0.8817
vn -0.3831 0.2415 0.8916
vn -0.3903 0.2210 0.8938
vn -0.3732 0.2843 0.8831
vn -0.3774 0.2623 0.8881
vn -0.3789 0.2872 0.8797
vn -0.3723 0.3073 0.8758
vn -0.3828 0.2750 0.8819
vn -0.3730 0.2922 0.8806
vn -0.3938 0.2566 0.8826
vn -0.4036 0.2396 0.8830
vn -0.3885 0.2530 0.8860
vn -0.4090 0.2179 0.8861
vn -0.4110 0.1948 0.8906
vn -0.3911 0.2300 0.8911
vn -0.3597 0.3230 0.8754
vn -0.3681 0.3060 0.8780
vn -0.3668 0.3278 0.8706
vn -0.3601 0.3440 0.8671
vn -0.4032 0.2900 0.8680
vn -0.4158 0.2741 0.8672
vn -0.3843 0.3233 0.8647
vn -0.3924 0.3057 0.8675
vn -0.4417 0.2383 0.8649
vn -0.4292 0.2574 0.8657
vn -0.4520 0.2165 0.8654
vn -0.4584 0.1912 0.8679
vn -0.4602 0.1619 0.8729
vn -0.4196 0.0932 0.9029
vn -0.4120 0.1162 0.9037
vn -0.4085 0.0768 0.9095
vn -0.4126 0.0565 0.9092
vn -0.4112 0.0220 0.9113
vn -0.4111 0.0231 0.9113
vn -0.4128 0.0106 0.9107
vn -0.4122 0.0405 0.9102
vn -0.4273 0.0063 0.9041
vn -0.4189 -0.0087 0.9080
vn -0.4191 -0.0079 0.9079
vn -0.4164 -0.0168 0.9090
vn -0.4402 -0.0376 0.8971
vn -0.4411 -0.0371 0.8967
vn -0.4311 -0.0418 0.9014
vn -0.4570 -0.0282 0.8890
vn -0.4933 -0.0597 0.8678
vn -0.4749 -0.0652 0.8776
vn -0.4236 0.0850 0.9019
vn -0.4516 0.0430 0.8912
vn -0.4391 0.0237 0.8981
vn -0.4168 0.0616 0.9069
vn -0.4899 -0.0024 0.8718
vn -0.5286 -0.0430 0.8478
vn -0.5119 -0.0517 0.8575
vn -0.4739 -0.0166 0.8804
vn -0.4251 -0.0441 0.9041
vn -0.4293 -0.0424 0.9021
vn -0.4582 -0.0670 0.8863
vn -0.4452 -0.0656 0.8930
vn -0.4382 -0.0619 0.8968
vn -0.4445 -0.0652 0.8934
vn -0.4231 -0.0448 0.9050
vn -0.4243 -0.0444 0.9044
vn -0.4158 -0.0004 0.9095
vn -0.4132 0.0085 0.9106
vn -0.4164 -0.0234 0.9089
vn -0.4160 -0.0182 0.9092
vn -0.4179 -0.0280 0.9081
vn -0.4166 -0.0244 0.9088
vn -0.4174 -0.0100 0.9086
vn -0.4163 -0.0022 0.9092
vn -0.4306 -0.0594 0.9006
vn -0.4367 -0.0613 0.8975
vn -0.4313 -0.0597 0.9002
vn -0.4159 -0.0508 0.9080
vn -0.4204 -0.0480 0.9061
vn -0.4228 -0.0453 0.9051
vn -0.4210 -0.0473 0.9058
vn -0.4163 -0.0193 0.9090
vn -0.4176 -0.0117 0.9086
vn -0.4170 -0.0336 0.9083
vn -0.4179 -0.0290 0.9080
vn -0.4143 -0.0401 0.9092
vn -0.4167 -0.0349 0.9084
vn -0.4129 -0.0279 0.9103
vn -0.4157 -0.0211 0.9093
vn -0.4205 0.0226 0.9070
vn -0.4262 0.0494 0.9033
vn -0.4248 0.0708 0.9025
vn -0.4175 0.0386 0.9079
vn -0.4449 0.1062 0.8893
vn -0.4460 0.1354 0.8847
vn -0.4334 0.1048 0.8951
vn -0.4341 0.0788 0.8974
vn -0.4201 0.0078 0.9074
vn -0.4172 -0.0041 0.9088
vn -0.4198 0.0067 0.9076
vn -0.4111 -0.0159 0.9114
vn -0.4126 -0.0040 0.9109
vn -0.4187 0.0109 0.9081
vn -0.4245 0.0295 0.9050
vn -0.4084 0.0042 0.9128
vn -0.4104 -0.0160 0.9118
vn -0.4081 -0.0051 0.9129
vn -0.4106 -0.0170 0.9117
vn -0.3957 -0.0214 0.9182
vn -0.4063 -0.0253 0.9134
vn -0.4049 -0.0372 0.9136
vn -0.3995 -0.0272 0.9163
vn -0.3948 -0.0155 0.9186
vn -0.3951 -0.0200 0.9184
vn -0.4092 0.0066 0.9124
vn -0.4147 0.0149 0.9098
vn -0.4389 0.0764 0.8953
vn -0.4303 0.0536 0.9011
vn -0.4213 0.0290 0.9064
vn -0.4800 0.1288 0.8678
vn -0.4774 0.1063 0.8722
vn -0.4374 0.1554 0.8857
vn -0.4375 0.1782 0.8814
vn -0.4663 0.1660 0.8689
vn -0.4770 0.1498 0.8660
vn -0.4334 0.1992 0.8789
vn -0.4233 0.2158 0.8799
vn -0.8926 -0.1527 0.4241
vn -0.9027 -0.1780 0.3916
vn -0.8878 -0.1901 0.4192
vn -0.8752 -0.1659 0.4544
vn -0.8624 -0.0867 0.4987
vn -0.8794 -0.1224 0.4600
vn -0.8591 -0.1362 0.4933
vn -0.8390 -0.1011 0.5346
vn -0.4608 -0.1131 0.8803
vn -0.4870 -0.1116 0.8662
vn -0.5563 -0.1305 0.8207
vn -0.5819 -0.1359 0.8018
vn -0.5363 -0.1207 0.8354
vn -0.5757 -0.1392 0.8057
vn -0.5946 -0.1472 0.7904
vn -0.6193 -0.1569 0.7693
vn -0.6011 -0.1465 0.7856
vn -0.6435 -0.1676 0.7468
vn -0.5261 -0.1205 0.8419
vn -0.5443 -0.1249 0.8295
vn -0.5697 -0.1365 0.8105
vn -0.5505 -0.1307 0.8246
vn -0.6037 -0.1505 0.7829
vn -0.5870 -0.1434 0.7968
vn -0.5616 -0.1301 0.8171
vn -0.5777 -0.1363 0.8048
vn -0.6289 -0.1637 0.7601
vn -0.6526 -0.1761 0.7369
vn -0.6362 -0.1670 0.7532
vn -0.6120 -0.1555 0.7754
vn -0.5313 -0.1245 0.8380
vn -0.5101 -0.1187 0.8519
vn -0.4856 -0.1145 0.8666
vn -0.5072 -0.1167 0.8539
vn -0.4150 -0.0898 0.9054
vn -0.4371 -0.1070 0.8930
vn -0.4128 -0.1098 0.9042
vn -0.3918 -0.0949 0.9152
vn -0.4832 -0.1045 0.8693
vn -0.4617 -0.1045 0.8809
vn -0.4367 -0.0873 0.8954
vn -0.4575 -0.0878 0.8849
vn -0.3760 -0.0464 0.9254
vn -0.3758 -0.0459 0.9256
vn -0.3723 -0.0409 0.9272
vn -0.3868 -0.0373 0.9214
vn -0.3822 -0.0317 0.9235
vn -0.3813 -0.0311 0.9239
vn -0.3831 -0.0327 0.9231
vn -0.3931 -0.0481 0.9182
vn -0.3881 -0.0390 0.9208
vn -0.3685 -0.0706 0.9269
vn -0.3689 -0.0718 0.9267
vn -0.3722 -0.0811 0.9246
vn -0.3731 -0.0827 0.9241
vn -0.3764 -0.0866 0.9224
vn -0.3982 -0.0612 0.9153
vn -0.4008 -0.0689 0.9136
vn -0.4036 -0.0725 0.9121
vn -0.4001 -0.0676 0.9140
vn -0.4049 -0.0728 0.9115
vn -0.4110 -0.0692 0.9090
vn -0.3890 -0.0791 0.9178
vn -0.3928 -0.0790 0.9162
vn -0.3974 -0.0701 0.9150
vn -0.3918 -0.0801 0.9165
vn -0.3860 -0.0726 0.9197
vn -0.3884 -0.0781 0.9182
vn -0.3813 -0.0599 0.9225
vn -0.3818 -0.0611 0.9222
vn -0.3853 -0.0707 0.9201
vn -0.3942 -0.0503 0.9176
vn -0.3976 -0.0592 0.9157
vn -0.4102 -0.0391 0.9112
vn -0.4126 -0.0497 0.9096
vn -0.4108 -0.0569 0.9099
vn -0.4082 -0.0477 0.9116
vn -0.4167 -0.0587 0.9071
vn -0.4151 -0.0641 0.9075
vn -0.4235 -0.0607 0.9039
vn -0.4175 -0.0646 0.9064
vn -0.4249 -0.0672 0.9028
vn -0.4387 -0.0687 0.8960
vn -0.4640 -0.0812 0.8821
vn -0.4480 -0.0758 0.8908
vn -0.4259 -0.0674 0.9023
vn -0.4917 -0.0958 0.8655
vn -0.5184 -0.1109 0.8479
vn -0.5016 -0.1068 0.8585
vn -0.4757 -0.0908 0.8749
vn -0.4509 -0.0727 0.8896
vn -0.4627 -0.0784 0.8830
vn -0.4928 -0.0942 0.8650
vn -0.4786 -0.0872 0.8737
vn -0.5352 -0.1159 0.8367
vn -0.5074 -0.1015 0.8557
vn -0.5229 -0.1080 0.8455
vn -0.5511 -0.1217 0.8255
vn -0.3981 -0.0691 0.9147
vn -0.4117 -0.0686 0.9087
vn -0.4309 -0.0715 0.8996
vn -0.4134 -0.0702 0.9078
vn -0.3957 -0.0722 0.9155
vn -0.3946 -0.0722 0.9160
vn -0.3856 -0.0717 0.9199
vn -0.3745 -0.0790 0.9239
vn -0.3738 -0.0791 0.9241
vn -0.3687 -0.0800 0.9261
vn -0.3680 -0.0814 0.9263
vn -0.3671 -0.0908 0.9257
vn -0.3845 -0.0716 0.9204
vn -0.3811 -0.0854 0.9206
vn -0.3807 -0.0855 0.9207
vn -0.3773 -0.0869 0.9220
vn -0.3666 -0.0923 0.9258
vn -0.3627 -0.0949 0.9271
vn -0.3622 -0.0952 0.9272
vn -0.3579 -0.0928 0.9291
vn -0.3782 0.3419 0.8603
vn -0.3716 0.3571 0.8570
vn -0.6202 -0.1576 0.7685
vn -0.5939 -0.1422 0.7918
vn -0.6107 -0.1476 0.7780
vn -0.6370 -0.1636 0.7533
vn -0.6924 -0.1987 0.6936
vn -0.6794 -0.1886 0.7092
vn -0.6591 -0.1787 0.7305
vn -0.6739 -0.1881 0.7145
vn -0.7196 -0.2169 0.6597
vn -0.7293 -0.2273 0.6454
vt 0.000000 0.000000
s 1
usemtl defaultMat
f 2/1/1 146/1/1 148/1/1 147/1/1
f 3/1/2 149/1/2 151/1/3 150/1/4
f 150/1/4 151/1/3 146/1/5 2/1/5
f 1/1/6 152/1/6 155/1/6 147/1/6
f 152/1/7 5/1/7 153/1/7 155/1/7
f 155/1/8 153/1/8 4/1/8 154/1/8
f 147/1/9 155/1/9 154/1/9 2/1/9
f 6/1/10 156/1/10 158/1/10 157/1/10
f 156/1/11 3/1/11 150/1/11 158/1/11
f 158/1/12 150/1/12 2/1/12 154/1/12
f 157/1/13 158/1/13 154/1/13 4/1/13
f 7/1/14 159/1/14 162/1/14 161/1/14
f 159/1/15 5/1/15 160/1/15 162/1/15
f 10/1/16 165/1/16 169/1/16 168/1/16
f 165/1/17 13/1/17 166/1/17 169/1/17
f 169/1/18 166/1/18 12/1/18 167/1/18
f 168/1/19 169/1/19 167/1/19 11/1/19
f 10/1/20 170/1/20 174/1/20 173/1/20
f 170/1/21 16/1/21 171/1/21 174/1/21
f 174/1/22 171/1/22 15/1/22 172/1/22
f 173/1/23 174/1/23 172/1/23 14/1/23
f 14/1/24 172/1/24 178/1/24 177/1/24
f 172/1/25 15/1/25 175/1/25 178/1/25
f 178/1/26 175/1/26 18/1/27 176/1/28
f 177/1/29 178/1/29 176/1/30 17/1/31
f 17/1/31 176/1/30 181/1/32 180/1/33
f 176/1/28 18/1/27 179/1/34 181/1/35
f 179/1/36 18/1/37 182/1/38 183/1/36
f 19/1/39 184/1/39 188/1/39 187/1/39
f 184/1/40 22/1/40 185/1/40 188/1/40
f 188/1/41 185/1/41 21/1/41 186/1/41
f 187/1/42 188/1/42 186/1/42 20/1/42
f 189/1/43 21/1/44 190/1/45 193/1/45
f 193/1/45 190/1/45 24/1/46 191/1/46
f 192/1/47 193/1/47 191/1/48 23/1/49
f 24/1/50 196/1/50 198/1/50 191/1/50
f 196/1/51 26/1/51 197/1/51 198/1/51
f 198/1/52 197/1/53 25/1/54 195/1/55
f 191/1/48 198/1/52 195/1/55 23/1/49
f 27/1/56 199/1/56 201/1/56 200/1/56
f 199/1/57 24/1/57 190/1/57 201/1/57
f 201/1/58 190/1/58 21/1/58 185/1/58
f 200/1/59 201/1/59 185/1/59 22/1/59
f 27/1/60 202/1/60 206/1/60 205/1/60
f 202/1/61 16/1/61 203/1/61 206/1/61
f 206/1/62 203/1/62 29/1/62 204/1/62
f 205/1/63 206/1/63 204/1/63 28/1/63
f 27/1/64 205/1/64 208/1/64 199/1/64
f 205/1/65 28/1/65 207/1/65 208/1/65
f 208/1/66 207/1/66 26/1/66 196/1/66
f 199/1/67 208/1/67 196/1/67 24/1/67
f 16/1/68 202/1/68 210/1/68 171/1/68
f 202/1/69 27/1/69 200/1/69 210/1/69
f 210/1/70 200/1/70 22/1/70 209/1/70
f 171/1/71 210/1/71 209/1/71 15/1/71
f 18/1/37 175/1/72 211/1/72 182/1/38
f 175/1/73 15/1/73 209/1/73 211/1/73
f 211/1/74 209/1/74 22/1/74 184/1/74
f 182/1/75 211/1/75 184/1/75 19/1/75
f 33/1/76 215/1/76 218/1/76 217/1/76
f 215/1/77 31/1/77 213/1/77 218/1/77
f 218/1/78 213/1/78 32/1/78 216/1/78
f 217/1/79 218/1/79 216/1/79 13/1/79
f 14/1/80 219/1/80 220/1/80 173/1/80
f 219/1/81 33/1/81 217/1/81 220/1/81
f 220/1/82 217/1/82 13/1/82 165/1/82
f 173/1/83 220/1/83 165/1/83 10/1/83
f 17/1/84 212/1/84 222/1/84 177/1/84
f 212/1/85 30/1/85 221/1/85 222/1/85
f 222/1/86 221/1/86 33/1/86 219/1/86
f 177/1/87 222/1/87 219/1/87 14/1/87
f 221/1/88 223/1/88 215/1/88 33/1/88
f 34/1/89 224/1/89 226/1/89 225/1/89
f 224/1/90 32/1/90 214/1/90 226/1/90
f 13/1/91 216/1/91 228/1/91 166/1/91
f 216/1/92 32/1/92 224/1/92 228/1/92
f 228/1/93 224/1/93 34/1/93 227/1/93
f 166/1/94 228/1/94 227/1/94 12/1/94
f 229/1/95 36/1/95 230/1/95 232/1/95
f 232/1/96 230/1/96 35/1/96 231/1/96
f 225/1/97 232/1/97 231/1/97 34/1/97
f 34/1/98 231/1/98 235/1/98 227/1/98
f 231/1/99 35/1/99 233/1/99 235/1/99
f 235/1/100 233/1/100 37/1/100 234/1/100
f 227/1/101 235/1/101 234/1/101 12/1/101
f 11/1/102 236/1/102 237/1/102 168/1/102
f 236/1/103 29/1/103 203/1/103 237/1/103
f 237/1/104 203/1/104 16/1/104 170/1/104
f 168/1/105 237/1/105 170/1/105 10/1/105
f 12/1/106 234/1/106 240/1/106 167/1/106
f 234/1/107 37/1/107 238/1/107 240/1/107
f 240/1/108 238/1/108 38/1/108 239/1/108
f 167/1/109 240/1/109 239/1/109 11/1/109
f 37/1/110 241/1/110 244/1/110 238/1/110
f 241/1/111 40/1/111 242/1/111 244/1/111
f 244/1/112 242/1/112 39/1/112 243/1/112
f 238/1/113 244/1/113 243/1/113 38/1/113
f 41/1/114 245/1/114 248/1/114 247/1/114
f 245/1/115 38/1/115 243/1/115 248/1/115
f 248/1/116 243/1/116 39/1/116 246/1/116
f 247/1/117 248/1/117 246/1/117 42/1/117
f 42/1/118 249/1/118 252/1/118 247/1/118
f 249/1/119 44/1/119 250/1/119 252/1/119
f 252/1/120 250/1/120 43/1/120 251/1/120
f 247/1/121 252/1/121 251/1/121 41/1/121
f 39/1/122 253/1/122 256/1/122 246/1/122
f 253/1/123 46/1/123 254/1/123 256/1/123
f 256/1/124 254/1/124 45/1/124 255/1/124
f 246/1/125 256/1/125 255/1/125 42/1/125
f 45/1/126 257/1/126 261/1/126 260/1/126
f 257/1/127 49/1/127 258/1/127 261/1/127
f 261/1/128 258/1/128 48/1/128 259/1/128
f 260/1/129 261/1/129 259/1/129 47/1/129
f 50/1/130 262/1/130 265/1/130 264/1/130
f 262/1/131 47/1/131 259/1/131 265/1/131
f 265/1/132 259/1/132 48/1/132 263/1/132
f 264/1/133 265/1/133 263/1/133 51/1/133
f 52/1/134 266/1/134 269/1/134 268/1/134
f 266/1/135 53/1/135 267/1/135 269/1/135
f 269/1/136 267/1/136 50/1/136 264/1/136
f 268/1/137 269/1/137 264/1/137 51/1/137
f 54/1/138 270/1/138 273/1/138 272/1/138
f 270/1/139 52/1/139 268/1/139 273/1/139
f 273/1/140 268/1/140 51/1/140 271/1/140
f 272/1/141 273/1/141 271/1/141 55/1/141
f 54/1/142 272/1/142 277/1/142 276/1/142
f 272/1/143 55/1/143 274/1/143 277/1/143
f 277/1/144 274/1/144 57/1/144 275/1/144
f 276/1/145 277/1/145 275/1/145 56/1/145
f 57/1/146 278/1/147 279/1/148 275/1/146
f 54/1/149 276/1/149 283/1/149 282/1/149
f 276/1/150 56/1/150 280/1/150 283/1/150
f 283/1/151 280/1/151 58/1/151 281/1/151
f 282/1/152 283/1/152 281/1/152 59/1/152
f 51/1/153 263/1/153 286/1/153 271/1/153
f 263/1/154 48/1/154 284/1/154 286/1/154
f 286/1/155 284/1/155 60/1/155 285/1/155
f 271/1/156 286/1/156 285/1/156 55/1/156
f 57/1/157 274/1/157 289/1/157 288/1/157
f 274/1/158 55/1/158 285/1/158 289/1/158
f 289/1/159 285/1/159 60/1/159 287/1/159
f 288/1/160 289/1/160 287/1/160 61/1/160
f 62/1/161 290/1/161 292/1/161 291/1/161
f 290/1/162 52/1/162 270/1/162 292/1/162
f 292/1/163 270/1/163 54/1/163 282/1/163
f 291/1/164 292/1/164 282/1/164 59/1/164
f 62/1/165 291/1/165 296/1/165 295/1/165
f 291/1/166 59/1/166 293/1/166 296/1/166
f 296/1/167 293/1/167 64/1/167 294/1/167
f 295/1/168 296/1/168 294/1/168 63/1/168
f 62/1/169 295/1/169 300/1/169 299/1/169
f 295/1/170 63/1/170 297/1/170 300/1/170
f 300/1/171 297/1/171 66/1/171 298/1/171
f 299/1/172 300/1/172 298/1/172 65/1/172
f 65/1/173 301/1/173 302/1/173 299/1/173
f 301/1/174 53/1/174 266/1/174 302/1/174
f 302/1/175 266/1/175 52/1/175 290/1/175
f 299/1/176 302/1/176 290/1/176 62/1/176
f 50/1/177 267/1/177 306/1/177 305/1/177
f 267/1/178 53/1/178 303/1/178 306/1/178
f 306/1/179 303/1/179 68/1/179 304/1/179
f 305/1/180 306/1/180 304/1/180 67/1/180
f 47/1/181 262/1/181 309/1/181 308/1/181
f 262/1/182 50/1/182 305/1/182 309/1/182
f 309/1/183 305/1/183 67/1/183 307/1/183
f 308/1/184 309/1/184 307/1/184 44/1/184
f 45/1/185 260/1/185 310/1/185 255/1/185
f 260/1/186 47/1/186 308/1/186 310/1/186
f 310/1/187 308/1/187 44/1/187 249/1/187
f 255/1/188 310/1/188 249/1/188 42/1/188
f 43/1/189 250/1/189 313/1/189 312/1/189
f 250/1/190 44/1/190 307/1/190 313/1/190
f 313/1/191 307/1/191 67/1/191 311/1/191
f 312/1/192 313/1/192 311/1/192 69/1/192
f 43/1/193 312/1/193 317/1/193 316/1/193
f 312/1/194 69/1/194 314/1/194 317/1/194
f 317/1/195 314/1/195 71/1/195 315/1/195
f 316/1/196 317/1/196 315/1/196 70/1/196
f 43/1/197 316/1/197 320/1/197 251/1/197
f 316/1/198 70/1/198 318/1/198 320/1/198
f 320/1/199 318/1/199 72/1/199 319/1/199
f 251/1/200 320/1/200 319/1/200 41/1/200
f 73/1/201 321/1/201 323/1/201 322/1/201
f 321/1/202 69/1/202 311/1/202 323/1/202
f 323/1/203 311/1/203 67/1/203 304/1/203
f 322/1/204 323/1/204 304/1/204 68/1/204
f 74/1/205 324/1/205 327/1/205 326/1/205
f 324/1/206 73/1/206 322/1/206 327/1/206
f 327/1/207 322/1/207 68/1/207 325/1/207
f 326/1/208 327/1/208 325/1/208 75/1/208
f 76/1/209 328/1/209 331/1/209 330/1/209
f 328/1/210 73/1/210 324/1/210 331/1/210
f 331/1/211 324/1/211 74/1/211 329/1/211
f 330/1/212 331/1/212 329/1/212 77/1/212
f 74/1/213 326/1/213 335/1/213 334/1/213
f 326/1/214 75/1/214 332/1/214 335/1/214
f 335/1/215 332/1/215 79/1/215 333/1/215
f 334/1/216 335/1/216 333/1/216 78/1/216
f 77/1/217 329/1/217 338/1/217 337/1/217
f 329/1/218 74/1/218 334/1/218 338/1/218
f 338/1/219 334/1/219 78/1/219 336/1/219
f 337/1/220 338/1/220 336/1/220 80/1/220
f 53/1/221 301/1/221 340/1/221 303/1/221
f 301/1/222 65/1/222 339/1/222 340/1/222
f 340/1/223 339/1/223 75/1/223 325/1/223
f 303/1/224 340/1/224 325/1/224 68/1/224
f 73/1/225 328/1/225 342/1/225 321/1/225
f 328/1/226 76/1/226 341/1/226 342/1/226
f 342/1/227 341/1/227 71/1/227 314/1/227
f 321/1/228 342/1/228 314/1/228 69/1/228
f 81/1/229 343/1/229 347/1/229 346/1/229
f 343/1/230 83/1/230 344/1/230 347/1/230
f 347/1/231 344/1/231 49/1/231 345/1/231
f 346/1/232 347/1/232 345/1/232 82/1/232
f 6/1/233 157/1/233 351/1/233 350/1/233
f 157/1/234 4/1/234 348/1/234 351/1/234
f 351/1/235 348/1/235 84/1/235 349/1/235
f 350/1/236 351/1/236 349/1/236 81/1/236
f 5/1/237 159/1/237 353/1/237 153/1/237
f 159/1/238 7/1/238 352/1/238 353/1/238
f 353/1/239 352/1/239 84/1/239 348/1/239
f 153/1/240 353/1/240 348/1/240 4/1/240
f 85/1/241 354/1/241 357/1/241 356/1/241
f 354/1/242 86/1/243 355/1/244 357/1/242
f 357/1/245 355/1/245 84/1/245 352/1/245
f 356/1/246 357/1/246 352/1/246 7/1/246
f 57/1/247 288/1/247 361/1/248 278/1/249
f 288/1/250 61/1/250 360/1/251 361/1/252
f 361/1/252 360/1/251 87/1/253 359/1/253
f 86/1/254 354/1/255 363/1/255 362/1/256
f 354/1/257 85/1/257 358/1/257 363/1/257
f 363/1/258 358/1/259 87/1/259 360/1/260
f 362/1/261 363/1/258 360/1/260 61/1/262
f 86/1/243 364/1/263 365/1/263 355/1/244
f 364/1/264 83/1/264 343/1/264 365/1/264
f 365/1/265 343/1/265 81/1/265 349/1/265
f 355/1/266 365/1/266 349/1/266 84/1/266
f 86/1/254 362/1/256 367/1/267 364/1/267
f 362/1/261 61/1/262 287/1/268 367/1/268
f 367/1/269 287/1/269 60/1/269 366/1/269
f 364/1/270 367/1/270 366/1/270 83/1/270
f 49/1/271 344/1/271 368/1/271 258/1/271
f 344/1/272 83/1/272 366/1/272 368/1/272
f 368/1/273 366/1/273 60/1/273 284/1/273
f 258/1/274 368/1/274 284/1/274 48/1/274
f 88/1/275 369/1/275 371/1/275 370/1/275
f 369/1/276 6/1/276 350/1/276 371/1/276
f 371/1/277 350/1/277 81/1/277 346/1/277
f 370/1/278 371/1/278 346/1/278 82/1/278
f 88/1/279 372/1/279 376/1/279 375/1/279
f 372/1/280 91/1/280 373/1/280 376/1/280
f 376/1/281 373/1/281 90/1/281 374/1/281
f 375/1/282 376/1/282 374/1/282 89/1/282
f 89/1/283 377/1/283 380/1/283 379/1/283
f 377/1/284 92/1/284 378/1/284 380/1/284
f 379/1/285 380/1/285 149/1/285 3/1/285
f 90/1/286 382/1/286 383/1/286 374/1/286
f 382/1/287 93/1/287 381/1/287 383/1/287
f 383/1/288 381/1/288 92/1/288 377/1/288
f 374/1/289 383/1/289 377/1/289 89/1/289
f 88/1/290 375/1/290 384/1/290 369/1/290
f 375/1/291 89/1/291 379/1/291 384/1/291
f 384/1/292 379/1/292 3/1/292 156/1/292
f 369/1/293 384/1/293 156/1/293 6/1/293
f 39/1/294 242/1/294 387/1/294 253/1/294
f 242/1/295 40/1/295 385/1/295 387/1/295
f 387/1/296 385/1/296 91/1/296 386/1/296
f 253/1/297 387/1/297 386/1/297 46/1/297
f 46/1/298 386/1/298 389/1/298 388/1/298
f 386/1/299 91/1/299 372/1/299 389/1/299
f 389/1/300 372/1/300 88/1/300 370/1/300
f 388/1/301 389/1/301 370/1/301 82/1/301
f 46/1/302 388/1/302 390/1/302 254/1/302
f 388/1/303 82/1/303 345/1/303 390/1/303
f 390/1/304 345/1/304 49/1/304 257/1/304
f 254/1/305 390/1/305 257/1/305 45/1/305
f 94/1/306 391/1/306 393/1/306 392/1/306
f 391/1/307 90/1/307 373/1/307 393/1/307
f 393/1/308 373/1/308 91/1/308 385/1/308
f 392/1/309 393/1/309 385/1/309 40/1/309
f 37/1/310 233/1/310 395/1/310 241/1/310
f 233/1/311 35/1/311 394/1/311 395/1/311
f 395/1/312 394/1/312 94/1/312 392/1/312
f 241/1/313 395/1/313 392/1/313 40/1/313
f 11/1/314 239/1/314 397/1/315 396/1/316
f 239/1/317 38/1/317 245/1/317 397/1/317
f 397/1/318 245/1/318 41/1/318 319/1/318
f 396/1/316 397/1/315 319/1/319 72/1/319
f 29/1/320 236/1/320 400/1/320 399/1/320
f 236/1/321 11/1/321 396/1/321 400/1/321
f 400/1/322 396/1/322 72/1/322 398/1/322
f 399/1/323 400/1/323 398/1/323 95/1/323
f 70/1/324 401/1/324 403/1/324 318/1/324
f 401/1/325 96/1/325 402/1/325 403/1/325
f 403/1/326 402/1/326 95/1/326 398/1/326
f 318/1/327 403/1/327 398/1/327 72/1/327
f 71/1/328 404/1/328 406/1/328 315/1/328
f 404/1/329 97/1/329 405/1/329 406/1/329
f 406/1/330 405/1/330 96/1/330 401/1/330
f 315/1/331 406/1/331 401/1/331 70/1/331
f 98/1/332 407/1/332 410/1/332 409/1/332
f 407/1/333 99/1/333 408/1/333 410/1/333
f 410/1/334 408/1/334 96/1/334 405/1/334
f 409/1/335 410/1/335 405/1/335 97/1/335
f 100/1/336 411/1/336 414/1/336 413/1/336
f 411/1/337 101/1/337 412/1/337 414/1/337
f 414/1/338 412/1/338 99/1/338 407/1/338
f 413/1/339 414/1/339 407/1/339 98/1/339
f 100/1/340 413/1/340 418/1/340 417/1/340
f 413/1/341 98/1/341 415/1/341 418/1/341
f 418/1/342 415/1/342 103/1/342 416/1/342
f 417/1/343 418/1/343 416/1/343 102/1/343
f 104/1/344 419/1/344 423/1/344 422/1/344
f 419/1/345 102/1/345 420/1/345 423/1/345
f 423/1/346 420/1/346 106/1/346 421/1/346
f 422/1/347 423/1/347 421/1/347 105/1/347
f 107/1/348 424/1/348 426/1/348 425/1/348
f 424/1/349 100/1/349 417/1/349 426/1/349
f 426/1/350 417/1/350 102/1/350 419/1/350
f 425/1/351 426/1/351 419/1/351 104/1/351
f 107/1/352 427/1/352 429/1/352 424/1/352
f 427/1/353 108/1/353 428/1/353 429/1/353
f 429/1/354 428/1/354 101/1/354 411/1/354
f 424/1/355 429/1/355 411/1/355 100/1/355
f 109/1/356 430/1/356 433/1/356 432/1/356
f 430/1/357 101/1/357 428/1/357 433/1/357
f 433/1/358 428/1/358 108/1/358 431/1/358
f 432/1/359 433/1/359 431/1/359 110/1/359
f 109/1/360 434/1/360 437/1/360 436/1/360
f 434/1/361 26/1/361 207/1/361 437/1/361
f 437/1/362 207/1/362 28/1/362 435/1/362
f 436/1/363 437/1/363 435/1/363 111/1/363
f 109/1/364 436/1/364 439/1/364 430/1/364
f 436/1/365 111/1/365 438/1/365 439/1/365
f 439/1/366 438/1/366 99/1/366 412/1/366
f 430/1/367 439/1/367 412/1/367 101/1/367
f 26/1/368 434/1/368 441/1/368 197/1/368
f 434/1/369 109/1/369 432/1/369 441/1/369
f 441/1/370 432/1/370 110/1/370 440/1/370
f 197/1/53 441/1/371 440/1/371 25/1/54
f 444/1/372 442/1/372 108/1/372 427/1/372
f 443/1/373 444/1/373 427/1/373 107/1/373
f 445/1/374 110/1/374 431/1/374 446/1/374
f 446/1/375 431/1/375 108/1/375 442/1/375
f 104/1/376 447/1/376 448/1/376 425/1/376
f 425/1/377 448/1/377 443/1/377 107/1/377
f 450/1/378 447/1/378 104/1/378 422/1/378
f 449/1/379 450/1/379 422/1/379 105/1/379
f 449/1/380 105/1/380 451/1/380 452/1/380
f 106/1/381 420/1/381 455/1/381 454/1/381
f 420/1/382 102/1/382 416/1/382 455/1/382
f 455/1/383 416/1/383 103/1/383 453/1/383
f 454/1/384 455/1/384 453/1/384 114/1/384
f 114/1/385 453/1/386 459/1/386 458/1/387
f 453/1/388 103/1/388 456/1/388 459/1/388
f 459/1/389 456/1/389 116/1/389 457/1/389
f 458/1/390 459/1/391 457/1/391 115/1/392
f 115/1/393 457/1/394 462/1/394 461/1/395
f 457/1/396 116/1/396 460/1/396 462/1/396
f 462/1/397 460/1/397 76/1/397 330/1/397
f 461/1/398 462/1/398 330/1/398 77/1/398
f 98/1/399 409/1/399 464/1/399 415/1/399
f 409/1/400 97/1/400 463/1/400 464/1/400
f 464/1/401 463/1/401 116/1/401 456/1/401
f 415/1/402 464/1/402 456/1/402 103/1/402
f 97/1/403 404/1/403 465/1/403 463/1/403
f 404/1/404 71/1/404 341/1/404 465/1/404
f 465/1/405 341/1/405 76/1/405 460/1/405
f 463/1/406 465/1/406 460/1/406 116/1/406
f 115/1/393 461/1/395 468/1/407 467/1/408
f 461/1/409 77/1/409 337/1/409 468/1/409
f 468/1/410 337/1/410 80/1/411 466/1/412
f 467/1/408 468/1/407 466/1/413 117/1/414
f 114/1/385 458/1/387 471/1/415 470/1/416
f 458/1/390 115/1/392 467/1/417 471/1/418
f 471/1/418 467/1/417 117/1/419 469/1/420
f 470/1/416 471/1/415 469/1/421 118/1/422
f 119/1/423 472/1/423 475/1/424 474/1/425
f 472/1/426 120/1/427 473/1/428 475/1/429
f 475/1/429 473/1/428 117/1/414 466/1/413
f 474/1/425 475/1/424 466/1/412 80/1/411
f 118/1/422 469/1/421 478/1/430 477/1/431
f 469/1/420 117/1/419 473/1/432 478/1/433
f 478/1/433 473/1/432 120/1/434 476/1/435
f 477/1/431 478/1/430 476/1/436 121/1/437
f 118/1/438 479/1/438 481/1/438 470/1/438
f 479/1/439 122/1/439 480/1/439 481/1/439
f 481/1/440 480/1/440 106/1/440 454/1/440
f 470/1/441 481/1/441 454/1/441 114/1/441
f 113/1/442 451/1/442 483/1/442 482/1/442
f 451/1/443 105/1/443 421/1/443 483/1/443
f 483/1/444 421/1/444 106/1/444 480/1/444
f 482/1/445 483/1/445 480/1/445 122/1/445
f 118/1/446 477/1/447 486/1/448 479/1/446
f 477/1/447 121/1/449 484/1/450 486/1/448
f 486/1/451 484/1/451 123/1/451 485/1/451
f 479/1/452 486/1/452 485/1/452 122/1/452
f 123/1/453 484/1/450 490/1/454 489/1/455
f 484/1/450 121/1/449 487/1/456 490/1/454
f 490/1/457 487/1/458 125/1/459 488/1/460
f 489/1/461 490/1/457 488/1/460 124/1/462
f 492/1/463 491/1/464 123/1/453 489/1/455
f 493/1/465 113/1/465 482/1/465 494/1/465
f 494/1/466 482/1/466 122/1/466 485/1/466
f 491/1/467 494/1/467 485/1/467 123/1/467
f 95/1/468 402/1/468 496/1/468 495/1/468
f 402/1/469 96/1/469 408/1/469 496/1/469
f 496/1/470 408/1/470 99/1/470 438/1/470
f 495/1/471 496/1/471 438/1/471 111/1/471
f 29/1/472 399/1/472 497/1/472 204/1/472
f 399/1/473 95/1/473 495/1/473 497/1/473
f 497/1/474 495/1/474 111/1/474 435/1/474
f 204/1/475 497/1/475 435/1/475 28/1/475
f 126/1/476 499/1/476 501/1/476 500/1/476
f 499/1/477 93/1/477 382/1/477 501/1/477
f 501/1/478 382/1/478 90/1/478 391/1/478
f 500/1/479 501/1/479 391/1/479 94/1/479
f 36/1/480 498/1/480 502/1/480 230/1/480
f 498/1/481 126/1/481 500/1/481 502/1/481
f 502/1/482 500/1/482 94/1/482 394/1/482
f 230/1/483 502/1/483 394/1/483 35/1/483
f 506/1/484 503/1/484 129/1/484 504/1/484
f 505/1/485 506/1/485 504/1/485 128/1/485
f 130/1/486 507/1/486 511/1/486 510/1/486
f 507/1/487 131/1/487 508/1/487 511/1/487
f 510/1/488 511/1/488 509/1/488 128/1/488
f 130/1/489 512/1/489 515/1/489 507/1/489
f 512/1/490 133/1/490 513/1/490 515/1/490
f 515/1/491 513/1/491 132/1/491 514/1/491
f 507/1/492 515/1/492 514/1/492 131/1/492
f 516/1/493 517/1/493 514/1/493 132/1/493
f 135/1/494 518/1/494 521/1/494 520/1/494
f 518/1/495 136/1/495 519/1/495 521/1/495
f 521/1/496 519/1/496 133/1/496 512/1/496
f 520/1/497 521/1/497 512/1/497 130/1/497
f 66/1/498 522/1/498 525/1/498 524/1/498
f 522/1/499 133/1/499 519/1/499 525/1/499
f 525/1/500 519/1/500 136/1/500 523/1/500
f 524/1/501 525/1/501 523/1/501 79/1/501
f 66/1/502 297/1/502 527/1/502 522/1/502
f 297/1/503 63/1/503 526/1/503 527/1/503
f 527/1/504 526/1/504 132/1/504 513/1/504
f 522/1/505 527/1/505 513/1/505 133/1/505
f 130/1/506 510/1/506 529/1/506 520/1/506
f 510/1/507 128/1/507 504/1/507 529/1/507
f 529/1/508 504/1/508 129/1/508 528/1/508
f 520/1/509 529/1/509 528/1/509 135/1/509
f 137/1/510 530/1/510 533/1/510 532/1/510
f 530/1/511 129/1/511 503/1/511 533/1/511
f 533/1/512 503/1/512 127/1/512 531/1/512
f 532/1/513 533/1/513 531/1/513 138/1/513
f 135/1/514 528/1/514 536/1/514 535/1/514
f 528/1/515 129/1/515 530/1/515 536/1/515
f 536/1/516 530/1/516 137/1/516 534/1/516
f 535/1/517 536/1/517 534/1/517 139/1/517
f 9/1/518 163/1/519 539/1/520 538/1/518
f 539/1/521 537/1/522 124/1/523 488/1/524
f 538/1/525 539/1/521 488/1/524 125/1/526
f 164/1/527 9/1/527 540/1/528 542/1/529
f 542/1/529 540/1/528 140/1/530 541/1/531
f 141/1/532 543/1/533 547/1/534 546/1/535
f 543/1/533 143/1/536 544/1/537 547/1/534
f 547/1/538 544/1/539 142/1/540 545/1/541
f 546/1/542 547/1/538 545/1/541 140/1/543
f 9/1/544 538/1/544 549/1/545 540/1/546
f 538/1/525 125/1/526 548/1/547 549/1/548
f 549/1/548 548/1/547 141/1/532 546/1/535
f 540/1/546 549/1/545 546/1/542 140/1/543
f 121/1/437 476/1/436 551/1/549 487/1/458
f 476/1/435 120/1/434 550/1/550 551/1/549
f 551/1/549 550/1/550 141/1/551 548/1/552
f 487/1/458 551/1/549 548/1/552 125/1/459
f 141/1/551 550/1/550 553/1/553 543/1/554
f 550/1/550 120/1/427 472/1/426 553/1/553
f 553/1/553 472/1/426 119/1/555 552/1/556
f 543/1/554 553/1/553 552/1/556 143/1/557
f 119/1/558 554/1/558 557/1/558 552/1/558
f 554/1/559 144/1/559 555/1/559 557/1/559
f 557/1/560 555/1/560 139/1/560 556/1/560
f 552/1/556 557/1/561 556/1/561 143/1/557
f 144/1/562 558/1/562 559/1/562 555/1/562
f 558/1/563 136/1/563 518/1/563 559/1/563
f 559/1/564 518/1/564 135/1/564 535/1/564
f 555/1/565 559/1/565 535/1/565 139/1/565
f 119/1/566 474/1/566 561/1/566 554/1/566
f 474/1/567 80/1/567 336/1/567 561/1/567
f 561/1/568 336/1/568 78/1/568 560/1/568
f 554/1/569 561/1/569 560/1/569 144/1/569
f 136/1/570 558/1/570 562/1/570 523/1/570
f 558/1/571 144/1/571 560/1/571 562/1/571
f 562/1/572 560/1/572 78/1/572 333/1/572
f 523/1/573 562/1/573 333/1/573 79/1/573
f 142/1/540 544/1/539 564/1/574 563/1/574
f 544/1/537 143/1/536 556/1/575 564/1/575
f 564/1/576 556/1/576 139/1/576 534/1/576
f 563/1/577 564/1/577 534/1/577 137/1/577
f 137/1/578 532/1/578 567/1/579 563/1/580
f 532/1/581 138/1/581 565/1/582 567/1/583
f 567/1/583 565/1/582 145/1/584 566/1/585
f 563/1/580 567/1/579 566/1/586 142/1/586
f 142/1/587 566/1/587 569/1/588 545/1/589
f 566/1/585 145/1/584 568/1/590 569/1/591
f 569/1/591 568/1/590 8/1/592 541/1/593
f 545/1/589 569/1/588 541/1/531 140/1/530
f 110/1/594 445/1/594 570/1/594 440/1/594
f 440/1/595 570/1/595 194/1/595 25/1/595
f 66/1/596 524/1/596 571/1/596 298/1/596
f 524/1/597 79/1/597 332/1/597 571/1/597
f 571/1/598 332/1/598 75/1/598 339/1/598
f 298/1/599 571/1/599 339/1/599 65/1/599
f 64/1/600 572/1/600 573/1/600 294/1/600
f 572/1/601 134/1/601 516/1/601 573/1/601
f 573/1/602 516/1/602 132/1/602 526/1/602
f 294/1/603 573/1/603 526/1/603 63/1/603
f 574/1/604 64/1/604 293/1/604 575/1/604
f 575/1/605 293/1/605 59/1/605 281/1/605
l 112 443
