# Blender 5.1.0
# www.blender.org
mtllib Upper Left eyelid.mtl
o Upper_Left_yelid
v 0.362268 0.833310 1.428180
v 0.436482 0.872038 1.401779
v 0.289894 0.784961 1.446100
v 0.302298 0.721721 1.421970
v 0.367237 0.768527 1.417573
v 0.313724 0.673032 1.388168
v 0.372013 0.716514 1.390453
v 0.437409 0.809020 1.401525
v 0.510372 0.841207 1.377265
v 0.511078 0.901154 1.370369
v 0.507968 0.787418 1.367785
v 0.437431 0.755382 1.383945
v 0.580973 0.811680 1.341049
v 0.583965 0.864790 1.344994
v 0.579003 0.760675 1.322835
v 0.505641 0.738816 1.345554
v 0.438658 0.709290 1.356136
v 0.585882 0.921755 1.333396
v 0.660736 0.933208 1.289154
v 0.657440 0.879236 1.303724
v 0.379427 0.673762 1.357769
v 0.326935 0.634633 1.355090
v 0.339724 0.603103 1.325058
v 0.388921 0.637289 1.328071
v 0.443608 0.668328 1.327050
v 0.246213 0.670654 1.415738
v 0.263735 0.628036 1.381724
v 0.243311 0.551256 1.344672
v 0.281138 0.593949 1.350981
v 0.259624 0.527632 1.316831
v 0.295936 0.567085 1.321018
v 0.272738 0.507554 1.291059
v 0.309536 0.543044 1.294710
v 0.738528 0.648243 1.189373
v 0.678331 0.655596 1.219290
v 0.619993 0.653410 1.242768
v 0.689813 0.691365 1.230232
v 0.631693 0.686298 1.256892
v 0.750854 0.685253 1.197019
v 0.793327 0.633788 1.155156
v 0.828911 0.589209 1.115885
v 0.840139 0.616100 1.117989
v 0.866049 0.566686 1.080222
v 0.878574 0.594267 1.078128
v 0.823432 0.569131 1.112133
v 0.858714 0.544413 1.079310
v 0.808164 0.669279 1.159540
v 0.766609 0.730616 1.204861
v 0.826450 0.712417 1.161528
v 0.856504 0.650442 1.117610
v 0.875852 0.690935 1.113218
v 0.855253 0.527088 1.076650
v 0.883820 0.517354 1.049195
v 1.016329 0.616609 0.841824
v 1.001900 0.580483 0.886637
v 0.984105 0.551261 0.921775
v 0.999604 0.510109 0.884056
v 0.982618 0.625839 0.933908
v 0.966072 0.593345 0.963295
v 0.994682 0.662673 0.896379
v 0.979748 0.750883 0.918503
v 0.971649 0.706036 0.955928
v 0.948857 0.787323 0.989769
v 0.910946 0.874581 1.030258
v 0.910675 0.821214 1.062124
v 0.352061 0.574460 1.298519
v 0.398363 0.605855 1.301624
v 0.450032 0.633254 1.300370
v 0.507074 0.655600 1.293616
v 0.569184 0.672947 1.278784
v 0.505731 0.693856 1.318581
v 0.575286 0.712955 1.299492
v 0.648238 0.777961 1.291471
v 0.641589 0.729388 1.273526
v 0.702167 0.736318 1.243161
v 0.713405 0.785596 1.255153
v 0.783343 0.779784 1.209564
v 0.652431 0.828297 1.304450
v 0.724337 0.833718 1.260397
v 0.796865 0.827379 1.207697
v 0.802938 0.924845 1.174013
v 0.861692 0.903770 1.104095
v 0.802874 0.875141 1.196433
v 0.863155 0.853667 1.131053
v 0.734616 0.934548 1.236161
v 0.731453 0.882868 1.254453
v 0.927927 0.480115 0.979588
v 0.943554 0.503203 0.967161
v 0.954015 0.473549 0.939965
v 0.963251 0.526015 0.948273
v 0.946618 0.563001 0.984923
v 0.928775 0.535039 1.000132
v 0.976922 0.489111 0.915714
v 0.914384 0.509181 1.010723
v 0.907574 0.566818 1.038020
v 0.893964 0.539961 1.045177
v 0.924830 0.597758 1.026850
v 0.858182 0.806372 1.149060
v 0.905886 0.776336 1.085953
v 0.943029 0.743882 1.020133
v 0.931135 0.704337 1.043769
v 0.959751 0.667819 0.986471
v 0.914552 0.665472 1.061143
v 0.943537 0.632309 1.010091
v 0.895658 0.627407 1.072180
v 0.893519 0.733706 1.102831
v 0.844679 0.759569 1.158733
v 0.399275 0.853930 1.415697
v 0.325707 0.810294 1.438575
v 0.255416 0.756927 1.449866
v 0.334015 0.745691 1.421394
v 0.364814 0.799137 1.425431
v 0.296451 0.751068 1.436169
v 0.330025 0.775925 1.432475
v 0.307874 0.695916 1.405371
v 0.341847 0.695031 1.390207
v 0.369545 0.741123 1.405445
v 0.337783 0.718909 1.406761
v 0.437013 0.839370 1.403926
v 0.401845 0.789757 1.410727
v 0.400619 0.820387 1.415656
v 0.510890 0.870439 1.375752
v 0.473778 0.887736 1.386669
v 0.473704 0.826158 1.390319
v 0.473846 0.856032 1.390591
v 0.509340 0.813542 1.374525
v 0.437507 0.781049 1.394597
v 0.472253 0.772293 1.377072
v 0.473139 0.798239 1.385637
v 0.582333 0.837880 1.345141
v 0.547182 0.854102 1.362216
v 0.544301 0.800553 1.355844
v 0.545827 0.826784 1.361082
v 0.580047 0.785841 1.333216
v 0.506595 0.762643 1.357820
v 0.541640 0.750910 1.335974
v 0.542916 0.775268 1.347116
v 0.437660 0.731637 1.370701
v 0.471216 0.724963 1.352213
v 0.471379 0.748073 1.365622
v 0.548402 0.912450 1.352702
v 0.585172 0.892764 1.340851
v 0.548017 0.882676 1.359241
v 0.623417 0.928778 1.312251
v 0.659336 0.905771 1.297928
v 0.620630 0.873196 1.325536
v 0.622284 0.900482 1.320449
v 0.403930 0.736739 1.388416
v 0.402819 0.761956 1.401327
v 0.375171 0.694218 1.374091
v 0.408120 0.692135 1.357754
v 0.405552 0.713636 1.373425
v 0.333428 0.618380 1.339445
v 0.363704 0.620431 1.326835
v 0.384167 0.654868 1.342456
v 0.352433 0.654395 1.356770
v 0.358155 0.636808 1.341271
v 0.320102 0.652717 1.371336
v 0.346779 0.673683 1.373179
v 0.415450 0.653368 1.328231
v 0.440636 0.688170 1.341490
v 0.411565 0.672076 1.342652
v 0.255257 0.648170 1.398298
v 0.287570 0.650796 1.385171
v 0.272862 0.696857 1.419611
v 0.280263 0.672464 1.402174
v 0.242716 0.604437 1.378182
v 0.233673 0.565005 1.359158
v 0.261100 0.572926 1.348160
v 0.272353 0.609978 1.366246
v 0.251882 0.587900 1.362888
v 0.252067 0.538790 1.330648
v 0.276658 0.547886 1.318914
v 0.288886 0.579961 1.335547
v 0.269423 0.559732 1.333343
v 0.303082 0.614565 1.353123
v 0.295199 0.631575 1.368947
v 0.264799 0.724580 1.436207
v 0.290078 0.526110 1.292664
v 0.266255 0.517340 1.303607
v 0.733720 0.633716 1.185934
v 0.708356 0.653325 1.205010
v 0.649134 0.655713 1.231904
v 0.661029 0.690156 1.244315
v 0.625964 0.668558 1.249679
v 0.683868 0.672190 1.224592
v 0.655099 0.671605 1.237969
v 0.744178 0.665464 1.192995
v 0.719756 0.690224 1.214452
v 0.713666 0.670538 1.209462
v 0.591186 0.648485 1.251940
v 0.767046 0.641105 1.172565
v 0.787845 0.619553 1.152525
v 0.761978 0.626845 1.169487
v 0.833816 0.601726 1.117170
v 0.817640 0.625483 1.137111
v 0.811734 0.611166 1.135279
v 0.848549 0.578520 1.098157
v 0.871664 0.579772 1.079606
v 0.860517 0.605841 1.098222
v 0.853844 0.591374 1.098533
v 0.842237 0.557295 1.095660
v 0.861754 0.554938 1.080077
v 0.825463 0.578403 1.114211
v 0.844688 0.567198 1.097180
v 0.780610 0.677531 1.178684
v 0.800153 0.650431 1.157540
v 0.773233 0.658133 1.175639
v 0.758416 0.707119 1.201086
v 0.817054 0.690080 1.160960
v 0.797840 0.721919 1.183595
v 0.788932 0.698913 1.181452
v 0.866043 0.670102 1.116016
v 0.852433 0.702344 1.138057
v 0.833394 0.660443 1.139231
v 0.842722 0.680702 1.139162
v 0.847764 0.632370 1.118203
v 0.824928 0.641951 1.138485
v 0.840686 0.541105 1.091204
v 0.856682 0.535136 1.078106
v 0.841016 0.548660 1.093645
v 0.866455 0.513964 1.063717
v 0.879699 0.508174 1.050352
v 0.872333 0.531224 1.063951
v 0.869142 0.521832 1.063985
v 0.893912 0.502574 1.034000
v 1.024166 0.638508 0.816389
v 1.027273 0.593466 0.815942
v 1.035700 0.614090 0.788692
v 1.009245 0.597283 0.865463
v 1.011153 0.558193 0.864461
v 1.019319 0.574700 0.841503
v 0.993533 0.565295 0.905375
v 0.992078 0.530277 0.902544
v 1.010389 0.522704 0.864835
v 1.002082 0.543533 0.884754
v 0.992528 0.603282 0.909716
v 0.974897 0.609201 0.949625
v 0.975506 0.572496 0.941950
v 0.984579 0.587414 0.926931
v 1.005436 0.639570 0.868624
v 0.989105 0.643496 0.916138
v 0.999272 0.620423 0.890258
v 1.000476 0.684511 0.874867
v 1.012411 0.661854 0.845164
v 0.975915 0.727131 0.938030
v 0.983618 0.685050 0.925429
v 0.988368 0.706326 0.905770
v 0.950487 0.813417 0.971869
v 0.964936 0.769658 0.953614
v 0.910765 0.846287 1.047133
v 0.930862 0.804522 1.026081
v 0.932718 0.859190 0.991635
v 0.931594 0.829741 1.009733
v 0.317063 0.585396 1.323094
v 0.310235 0.599527 1.337473
v 0.346060 0.588373 1.311673
v 0.374867 0.590205 1.300189
v 0.393714 0.620872 1.314673
v 0.369348 0.604807 1.313492
v 0.423375 0.620280 1.301717
v 0.447055 0.649815 1.313274
v 0.419574 0.635943 1.314654
v 0.477896 0.645119 1.297800
v 0.537376 0.664898 1.287442
v 0.565972 0.656363 1.269222
v 0.536099 0.648416 1.276739
v 0.601052 0.680116 1.268336
v 0.596129 0.663155 1.260080
v 0.506645 0.673622 1.305534
v 0.572433 0.691706 1.288663
v 0.539659 0.704118 1.310470
v 0.538591 0.683366 1.298537
v 0.473803 0.681896 1.323954
v 0.476165 0.662422 1.310324
v 0.505286 0.715786 1.332183
v 0.472016 0.702831 1.338133
v 0.577420 0.736413 1.311263
v 0.540612 0.726971 1.323331
v 0.614799 0.769745 1.307625
v 0.609601 0.721597 1.286937
v 0.645306 0.753225 1.282541
v 0.612580 0.745319 1.297343
v 0.672122 0.734189 1.259008
v 0.707874 0.760823 1.249579
v 0.680671 0.783257 1.274204
v 0.676678 0.758407 1.266819
v 0.636990 0.706698 1.264799
v 0.696051 0.712942 1.236527
v 0.666808 0.711227 1.251338
v 0.605687 0.699594 1.277176
v 0.775052 0.755152 1.207847
v 0.748419 0.785020 1.233345
v 0.733645 0.735868 1.225121
v 0.741004 0.760452 1.229825
v 0.650474 0.803111 1.299199
v 0.718998 0.809808 1.258992
v 0.687847 0.832630 1.283475
v 0.684278 0.808024 1.280127
v 0.790852 0.803748 1.209617
v 0.761261 0.832446 1.235022
v 0.755418 0.808893 1.235216
v 0.617102 0.821052 1.323753
v 0.616144 0.795184 1.316916
v 0.330234 0.558950 1.296760
v 0.302602 0.554823 1.307718
v 0.323709 0.571834 1.309759
v 0.283310 0.536745 1.305502
v 0.833591 0.915557 1.139618
v 0.803342 0.899401 1.186377
v 0.834725 0.866154 1.164275
v 0.862847 0.877914 1.118413
v 0.834640 0.890203 1.152927
v 0.769800 0.931201 1.206344
v 0.733112 0.908404 1.246802
v 0.767912 0.880568 1.226733
v 0.769179 0.905252 1.217868
v 0.887337 0.889870 1.067771
v 0.697952 0.935149 1.263805
v 0.935240 0.491502 0.973951
v 0.949048 0.488258 0.952962
v 0.940079 0.478224 0.960605
v 0.955467 0.544610 0.965943
v 0.937320 0.548716 0.993197
v 0.936908 0.518843 0.982889
v 0.952959 0.514602 0.958643
v 0.945789 0.531580 0.975201
v 0.970331 0.507393 0.931609
v 0.965144 0.481088 0.928881
v 0.959219 0.497840 0.943341
v 0.973912 0.538046 0.935978
v 0.956441 0.577837 0.975014
v 0.965637 0.558136 0.954908
v 0.988424 0.498832 0.900867
v 0.981461 0.518101 0.918029
v 0.922073 0.493811 0.994338
v 0.921116 0.521856 1.005917
v 0.929018 0.506125 0.989135
v 0.919031 0.551208 1.018638
v 0.900301 0.552845 1.042022
v 0.904968 0.524984 1.027904
v 0.911560 0.537685 1.023706
v 0.936489 0.580806 1.005270
v 0.915810 0.581802 1.033029
v 0.927364 0.565618 1.012585
v 0.728594 0.858038 1.258994
v 0.800890 0.851191 1.203467
v 0.765466 0.856285 1.232312
v 0.694547 0.882574 1.279915
v 0.654813 0.853534 1.306062
v 0.691586 0.857355 1.283403
v 0.696395 0.908553 1.273343
v 0.618587 0.846874 1.326779
v 0.829473 0.818415 1.178834
v 0.861776 0.829965 1.141207
v 0.833207 0.842301 1.172844
v 0.883501 0.791881 1.118140
v 0.909295 0.798199 1.075063
v 0.888277 0.837932 1.097180
v 0.886945 0.814524 1.108744
v 0.925638 0.760566 1.053113
v 0.946936 0.764604 1.006041
v 0.929214 0.781848 1.040602
v 0.958149 0.725707 0.987663
v 0.937709 0.723919 1.032671
v 0.946319 0.687209 1.014707
v 0.966272 0.686455 0.972040
v 0.952809 0.706147 1.001950
v 0.923334 0.684887 1.053283
v 0.930040 0.650160 1.035283
v 0.952134 0.649859 0.999178
v 0.938666 0.668615 1.025838
v 0.971820 0.647429 0.959447
v 0.978265 0.665671 0.943352
v 0.955499 0.613343 0.985949
v 0.964187 0.630076 0.973649
v 0.934242 0.614686 1.019272
v 0.946067 0.596738 0.996440
v 0.905130 0.645983 1.067403
v 0.911346 0.613614 1.049316
v 0.920739 0.631512 1.043077
v 0.896529 0.678723 1.087360
v 0.877356 0.639581 1.095072
v 0.886911 0.658623 1.091901
v 0.894252 0.581362 1.057915
v 0.886653 0.610170 1.075696
v 0.902386 0.596870 1.054195
v 0.868433 0.621940 1.097116
v 0.913585 0.719478 1.073399
v 0.885136 0.712302 1.108845
v 0.905526 0.699090 1.081200
v 0.870587 0.747304 1.131490
v 0.835848 0.735819 1.160892
v 0.861912 0.724734 1.135599
v 0.815702 0.770643 1.184522
v 0.852344 0.782989 1.154872
v 0.823453 0.794651 1.182637
v 0.900557 0.754935 1.095192
v 0.877950 0.769576 1.125697
v 0.806923 0.746124 1.184727
v 0.920366 0.739869 1.064016
v 0.962379 0.746428 0.971749
v 0.726495 0.712179 1.219795
v 0.888045 0.862807 1.083296
v 0.908355 0.497443 1.014777
v 0.888513 0.528094 1.047530
v 0.899162 0.513148 1.031296
v 0.982915 0.471618 0.900560
v 0.970869 0.464488 0.914995
v 1.006630 0.490708 0.866371
v 0.994811 0.480445 0.884459
v 1.018259 0.502139 0.845902
v 0.881219 0.553918 1.062450
v 0.887186 0.567047 1.060620
v 0.876279 0.541993 1.063520
vn 0.3045 -0.3290 0.8939
vn 0.3163 -0.2514 0.9147
vn 0.2931 -0.0935 0.9515
vn 0.2805 -0.1769 0.9434
vn 0.3359 -0.3865 0.8589
vn 0.3241 -0.4398 0.8375
vn 0.3417 -0.5014 0.7949
vn 0.3401 -0.5068 0.7921
vn 0.3415 -0.5021 0.7946
vn 0.3506 -0.4771 0.8059
vn 0.3284 -0.1041 0.9388
vn 0.3112 0.0390 0.9495
vn 0.3037 -0.0218 0.9525
vn 0.3248 -0.1747 0.9295
vn 0.3483 0.0158 0.9372
vn 0.3382 0.1381 0.9309
vn 0.3215 0.0918 0.9424
vn 0.3346 -0.0404 0.9415
vn 0.3688 -0.2768 0.8873
vn 0.3616 -0.1336 0.9227
vn 0.3493 -0.1934 0.9168
vn 0.3568 -0.3318 0.8733
vn 0.4271 -0.1811 0.8859
vn 0.4217 -0.0397 0.9059
vn 0.3862 -0.0815 0.9188
vn 0.3926 -0.2257 0.8916
vn 0.4055 -0.3803 0.8312
vn 0.4206 -0.2967 0.8574
vn 0.3878 -0.3411 0.8563
vn 0.3751 -0.4190 0.8268
vn 0.3547 -0.4317 0.8293
vn 0.3450 -0.4873 0.8022
vn 0.3553 -0.4551 0.8165
vn 0.3659 -0.3868 0.8465
vn 0.3981 0.2055 0.8940
vn 0.3639 0.1768 0.9145
vn 0.3736 0.0631 0.9255
vn 0.4090 0.0994 0.9071
vn 0.4935 0.1410 0.8582
vn 0.4859 0.2343 0.8420
vn 0.4400 0.2235 0.8698
vn 0.4505 0.1243 0.8841
vn 0.3429 -0.3235 0.8819
vn 0.3536 -0.4376 0.8267
vn 0.3540 -0.3870 0.8514
vn 0.3453 -0.2576 0.9025
vn 0.3557 -0.5054 0.7861
vn 0.3490 -0.5317 0.7717
vn 0.3480 -0.5320 0.7719
vn 0.3378 -0.5344 0.7748
vn 0.3430 -0.5142 0.7861
vn 0.3526 -0.4728 0.8076
vn 0.3690 -0.5538 0.7464
vn 0.3516 -0.5549 0.7539
vn 0.3371 -0.5477 0.7658
vn 0.3520 -0.5430 0.7624
vn 0.3600 -0.5208 0.7741
vn 0.3594 -0.5271 0.7700
vn 0.3594 -0.5279 0.7696
vn 0.3692 -0.5385 0.7574
vn 0.3617 -0.5378 0.7615
vn 0.3684 -0.5386 0.7578
vn 0.3610 -0.5376 0.7620
vn 0.3605 -0.5237 0.7719
vn 0.3359 -0.5349 0.7752
vn 0.3281 -0.5382 0.7763
vn 0.3260 -0.5407 0.7755
vn 0.3148 -0.5315 0.7864
vn 0.3284 -0.5247 0.7854
vn 0.3129 -0.5326 0.7864
vn 0.3209 -0.5302 0.7848
vn 0.3290 -0.5241 0.7855
vn 0.3468 -0.4785 0.8067
vn 0.3609 -0.4974 0.7889
vn 0.3400 -0.5075 0.7917
vn 0.3209 -0.4733 0.8204
vn 0.4509 -0.4706 0.7584
vn 0.4424 -0.4800 0.7575
vn 0.4434 -0.4790 0.7576
vn 0.4133 -0.4977 0.7625
vn 0.4086 -0.4764 0.7786
vn 0.4033 -0.4837 0.7768
vn 0.4040 -0.4829 0.7769
vn 0.4761 -0.4979 0.7249
vn 0.5168 -0.5111 0.6868
vn 0.5172 -0.5116 0.6861
vn 0.5225 -0.5170 0.6780
vn 0.4732 -0.5410 0.6953
vn 0.4584 -0.5262 0.7163
vn 0.3734 -0.5011 0.7807
vn 0.4008 -0.5124 0.7595
vn 0.3815 -0.5313 0.7564
vn 0.3601 -0.5200 0.7745
vn 0.2712 -0.2643 0.9255
vn 0.2995 -0.3955 0.8683
vn 0.4063 -0.3904 0.8261
vn 0.3892 -0.4295 0.8149
vn 0.3556 -0.4736 0.8058
vn 0.3739 -0.4215 0.8262
vn 0.4159 -0.3575 0.8362
vn 0.3905 -0.3687 0.8435
vn 0.3984 -0.3277 0.8567
vn 0.4139 -0.3278 0.8493
vn 0.4520 -0.3331 0.8274
vn 0.4138 -0.3337 0.8470
vn 0.5335 -0.3004 0.7907
vn 0.4848 -0.3206 0.8138
vn 0.5841 -0.2766 0.7631
vn 0.5649 -0.2780 0.7770
vn 0.6141 -0.2513 0.7482
vn 0.6333 -0.2518 0.7318
vn 0.5363 -0.2751 0.7979
vn 0.5869 -0.2442 0.7720
vn 0.5986 -0.2486 0.7615
vn 0.5497 -0.2760 0.7885
vn 0.4767 -0.3007 0.8260
vn 0.4346 -0.3085 0.8462
vn 0.4300 -0.3107 0.8477
vn 0.4253 -0.3130 0.8492
vn 0.4643 -0.3137 0.8283
vn 0.4754 -0.2809 0.8337
vn 0.4510 -0.2986 0.8411
vn 0.4967 -0.2841 0.8201
vn 0.5242 -0.2601 0.8109
vn 0.6094 -0.2568 0.7502
vn 0.6430 -0.2283 0.7310
vn 0.5853 -0.2448 0.7730
vn 0.5539 -0.2716 0.7870
vn 0.5555 -0.2908 0.7790
vn 0.5806 -0.2764 0.7658
vn 0.5274 -0.2914 0.7981
vn 0.5049 -0.3068 0.8068
vn 0.5518 -0.2601 0.7924
vn 0.5741 -0.2447 0.7813
vn 0.6035 -0.2385 0.7608
vn 0.6602 -0.2138 0.7200
vn 0.6231 -0.2213 0.7501
vn 0.9400 0.0571 0.3363
vn 0.9420 0.0611 0.3299
vn 0.9394 0.0684 0.3361
vn 0.9386 0.0620 0.3393
vn 0.9395 0.0642 0.3364
vn 0.9368 0.0706 0.3428
vn 0.9363 0.0304 0.3500
vn 0.9341 0.0362 0.3553
vn 0.9303 0.0407 0.3646
vn 0.9336 0.0369 0.3563
vn 0.8910 -0.0734 0.4481
vn 0.8884 -0.0758 0.4527
vn 0.8909 -0.0731 0.4484
vn 0.8909 -0.0753 0.4480
vn 0.8908 -0.0761 0.4480
vn 0.8886 -0.0822 0.4512
vn 0.8830 -0.0819 0.4623
vn 0.8882 -0.0765 0.4531
vn 0.9173 -0.0161 0.3978
vn 0.9172 -0.0207 0.3979
vn 0.9131 -0.0273 0.4068
vn 0.9171 -0.0217 0.3982
vn 0.9129 -0.0274 0.4073
vn 0.8827 -0.0821 0.4626
vn 0.9350 0.0236 0.3538
vn 0.9363 0.0297 0.3501
vn 0.9403 0.0568 0.3355
vn 0.9430 0.0605 0.3273
vn 0.9456 0.0563 0.3204
vn 0.9455 0.0564 0.3208
vn 0.9433 0.0543 0.3276
vn 0.9456 0.0560 0.3206
vn 0.9350 0.0231 0.3539
vn 0.9436 0.0589 0.3257
vn 0.9402 0.0566 0.3360
vn 0.9466 0.0692 0.3149
vn 0.9478 0.0755 0.3099
vn 0.9464 0.0696 0.3153
vn 0.9424 0.0894 0.3223
vn 0.9456 0.0786 0.3157
vn 0.8873 0.2241 0.4031
vn 0.8874 0.2244 0.4028
vn 0.8901 0.2301 0.3935
vn 0.8903 0.2303 0.3930
vn 0.9103 0.1999 0.3624
vn 0.4369 -0.5433 0.7168
vn 0.4239 -0.5513 0.7186
vn 0.3790 -0.5551 0.7404
vn 0.3987 -0.5557 0.7295
vn 0.3317 -0.5463 0.7691
vn 0.3232 -0.5425 0.7754
vn 0.3312 -0.5459 0.7696
vn 0.3365 -0.5638 0.7542
vn 0.3311 -0.5615 0.7584
vn 0.3362 -0.5635 0.7546
vn 0.3232 -0.5585 0.7639
vn 0.3301 -0.5612 0.7590
vn 0.3185 -0.5384 0.7802
vn 0.3128 -0.5330 0.7862
vn 0.3136 -0.5536 0.7715
vn 0.3220 -0.5583 0.7646
vn 0.3132 -0.5532 0.7720
vn 0.3123 -0.5328 0.7865
vn 0.3406 -0.5245 0.7803
vn 0.3612 -0.5042 0.7844
vn 0.3514 -0.5212 0.7777
vn 0.3781 -0.4713 0.7968
vn 0.3338 -0.4915 0.8044
vn 0.3245 -0.5096 0.7969
vn 0.3480 -0.4915 0.7983
vn 0.3584 -0.4705 0.8064
vn 0.3205 -0.5190 0.7924
vn 0.3121 -0.5240 0.7925
vn 0.3127 -0.5237 0.7924
vn 0.3090 -0.5432 0.7807
vn 0.3107 -0.5279 0.7904
vn 0.3194 -0.5102 0.7986
vn 0.3421 -0.4856 0.8044
vn 0.3312 -0.5072 0.7957
vn 0.3209 -0.5187 0.7924
vn 0.3304 -0.5011 0.7998
vn 0.3599 -0.4601 0.8116
vn 0.3461 -0.4802 0.8060
vn 0.3722 -0.4551 0.8089
vn 0.3884 -0.4304 0.8148
vn 0.4660 -0.3640 0.8065
vn 0.4328 -0.3971 0.8093
vn 0.4140 -0.4236 0.8057
vn 0.4459 -0.3915 0.8049
vn 0.4756 -0.3342 0.8137
vn 0.4556 -0.3630 0.8128
vn 0.4668 -0.3371 0.8176
vn 0.4870 -0.3070 0.8177
vn 0.4364 -0.3866 0.8125
vn 0.4159 -0.4043 0.8146
vn 0.4280 -0.3771 0.8214
vn 0.4465 -0.3626 0.8180
vn 0.3948 -0.4445 0.8040
vn 0.3774 -0.4688 0.7986
vn 0.4030 -0.4379 0.8037
vn 0.4253 -0.4139 0.8048
vn 0.4788 -0.2841 0.8307
vn 0.5085 -0.2500 0.8240
vn 0.4968 -0.2816 0.8209
vn 0.4766 -0.3130 0.8215
vn 0.5105 -0.2010 0.8360
vn 0.4945 -0.2827 0.8219
vn 0.5060 -0.2590 0.8227
vn 0.5242 -0.1778 0.8328
vn 0.5473 -0.1499 0.8234
vn 0.5196 -0.2337 0.8219
vn 0.5434 -0.1976 0.8159
vn 0.5835 -0.1106 0.8046
vn 0.4616 -0.2576 0.8488
vn 0.4493 -0.3420 0.8253
vn 0.4831 -0.3097 0.8190
vn 0.4951 -0.2269 0.8387
vn 0.3744 -0.5681 0.7328
vn 0.3697 -0.5781 0.7274
vn 0.3753 -0.5677 0.7327
vn 0.3486 -0.5661 0.7470
vn 0.3542 -0.5511 0.7556
vn 0.3923 -0.5546 0.7338
vn 0.5072 -0.5227 0.6852
vn 0.4268 -0.5589 0.7110
vn 0.4506 -0.5479 0.7048
vn 0.5230 -0.5175 0.6772
vn 0.7415 0.3194 0.5900
vn 0.7299 0.2721 0.6271
vn 0.7843 0.2811 0.5530
vn 0.7927 0.3075 0.5265
vn 0.7894 0.3175 0.5255
vn 0.7894 0.3171 0.5257
vn 0.6838 0.3052 0.6627
vn 0.6253 0.2838 0.7270
vn 0.6112 0.2149 0.7617
vn 0.6678 0.2477 0.7019
vn 0.7888 -0.2563 0.5586
vn 0.8014 -0.2038 0.5623
vn 0.8021 -0.1997 0.5629
vn 0.8021 -0.1996 0.5629
vn 0.7952 -0.2128 0.5677
vn 0.7993 -0.1952 0.5683
vn 0.7994 -0.1952 0.5682
vn 0.7943 -0.2079 0.5709
vn 0.7945 -0.2226 0.5649
vn 0.7970 -0.2308 0.5582
vn 0.7958 -0.2269 0.5614
vn 0.7903 -0.2150 0.5738
vn 0.7948 -0.2133 0.5681
vn 0.7902 -0.2152 0.5738
vn 0.7940 -0.2122 0.5697
vn 0.7855 -0.2397 0.5705
vn 0.7701 -0.2467 0.5882
vn 0.8163 -0.1746 0.5505
vn 0.8201 -0.1733 0.5454
vn 0.8202 -0.1733 0.5452
vn 0.8164 -0.1746 0.5504
vn 0.8230 -0.1731 0.5411
vn 0.8223 -0.1733 0.5421
vn 0.8548 -0.1269 0.5031
vn 0.8592 -0.1254 0.4960
vn 0.8552 -0.1272 0.5024
vn 0.8495 -0.1321 0.5108
vn 0.8493 -0.1322 0.5111
vn 0.8270 -0.1720 0.5352
vn 0.8233 -0.1728 0.5406
vn 0.8326 -0.1741 0.5258
vn 0.8278 -0.1721 0.5340
vn 0.8621 -0.1267 0.4907
vn 0.8632 -0.1323 0.4873
vn 0.8624 -0.1269 0.4901
vn 0.8595 -0.1251 0.4956
vn 0.7945 -0.2093 0.5700
vn 0.7950 -0.2084 0.5696
vn 0.7933 -0.2106 0.5712
vn 0.7957 -0.2079 0.5689
vn 0.8098 -0.2366 0.5368
vn 0.8044 -0.2342 0.5460
vn 0.7970 -0.2310 0.5580
vn 0.7931 -0.2107 0.5715
vn 0.7766 -0.1957 0.5988
vn 0.7801 -0.2011 0.5925
vn 0.7771 -0.1958 0.5981
vn 0.7705 -0.1949 0.6069
vn 0.7854 -0.2028 0.5848
vn 0.7803 -0.2017 0.5920
vn 0.7576 -0.2014 0.6209
vn 0.7482 -0.1959 0.6339
vn 0.7963 -0.1948 0.5727
vn 0.7823 -0.2002 0.5899
vn 0.7678 -0.2047 0.6071
vn 0.7858 -0.2018 0.5846
vn 0.5964 0.0997 0.7965
vn 0.5753 -0.0313 0.8173
vn 0.6209 0.0069 0.7839
vn 0.6492 0.1361 0.7484
vn 0.5574 0.0679 0.8275
vn 0.5293 0.0389 0.8475
vn 0.5226 -0.0902 0.8478
vn 0.5427 -0.0633 0.8376
vn 0.5304 0.1583 0.8328
vn 0.5669 0.1831 0.8031
vn 0.5748 0.2631 0.7748
vn 0.5300 0.2460 0.8116
vn 0.5019 -0.1159 0.8571
vn 0.5013 0.0146 0.8652
vn 0.4620 -0.0087 0.8868
vn 0.4666 -0.1449 0.8725
vn 0.6816 0.0456 0.7303
vn 0.7444 0.0785 0.6631
vn 0.7724 0.1914 0.6056
vn 0.7129 0.1698 0.6803
vn 0.8236 0.1976 0.5315
vn 0.8005 0.0987 0.5911
vn 0.8459 0.1078 0.5223
vn 0.8622 0.1961 0.4670
vn 0.9108 0.1803 0.3714
vn 0.8890 0.1912 0.4161
vn 0.8783 0.1101 0.4652
vn 0.9028 0.1035 0.4174
vn 0.9247 0.0407 0.3785
vn 0.9094 0.0360 0.4144
vn 0.8880 -0.0166 0.4595
vn 0.9058 -0.0071 0.4237
vn 0.8795 -0.0594 0.4722
vn 0.8587 -0.0736 0.5072
vn 0.8243 -0.1268 0.5517
vn 0.8472 -0.1116 0.5194
vn 0.9438 0.0516 0.3266
vn 0.9367 0.0453 0.3472
vn 0.9189 0.0034 0.3944
vn 0.9291 0.0139 0.3696
vn 0.9051 -0.0360 0.4236
vn 0.8939 -0.0464 0.4458
vn 0.8630 -0.0999 0.4952
vn 0.8743 -0.0896 0.4771
vn 0.8313 -0.1466 0.5362
vn 0.8034 -0.1811 0.5672
vn 0.8138 -0.1758 0.5539
vn 0.8416 -0.1385 0.5221
vn 0.8143 -0.1559 0.5591
vn 0.7893 -0.1701 0.5900
vn 0.7557 -0.2028 0.6227
vn 0.7843 -0.1890 0.5909
vn 0.7510 -0.1885 0.6329
vn 0.7005 -0.2102 0.6820
vn 0.6636 -0.2402 0.7085
vn 0.7134 -0.2203 0.6652
vn 0.7022 -0.2305 0.6736
vn 0.7400 -0.2152 0.6372
vn 0.7592 -0.2090 0.6164
vn 0.7260 -0.2231 0.6505
vn 0.6332 -0.2593 0.7292
vn 0.6070 -0.2709 0.7471
vn 0.6556 -0.2489 0.7129
vn 0.6814 -0.2401 0.6914
vn 0.7903 -0.1432 0.5957
vn 0.8278 -0.0888 0.5539
vn 0.7859 -0.1079 0.6089
vn 0.7440 -0.1623 0.6482
vn 0.6232 -0.2059 0.7545
vn 0.6854 -0.1839 0.7046
vn 0.7312 -0.1294 0.6698
vn 0.6675 -0.1537 0.7286
vn 0.6378 -0.0693 0.7671
vn 0.5900 -0.1574 0.7919
vn 0.6486 -0.1197 0.7517
vn 0.7001 -0.0306 0.7134
vn 0.7627 -0.0009 0.6467
vn 0.7151 -0.0887 0.6933
vn 0.7761 -0.0632 0.6275
vn 0.8165 0.0185 0.5771
vn 0.5463 -0.2146 0.8096
vn 0.5083 -0.2523 0.8234
vn 0.5590 -0.2253 0.7979
vn 0.6006 -0.1810 0.7788
vn 0.8867 0.0348 0.4611
vn 0.8568 0.0305 0.5148
vn 0.8249 -0.0434 0.5637
vn 0.8614 -0.0279 0.5072
vn 0.9375 0.0828 0.3380
vn 0.9399 0.1264 0.3172
vn 0.9288 0.1598 0.3343
vn 0.9285 0.1600 0.3350
vn 0.9247 0.1612 0.3448
vn 0.9231 0.0895 0.3739
vn 0.4532 -0.3087 0.8363
vn 0.4558 -0.3377 0.8235
vn 0.4352 -0.3513 0.8289
vn 0.4319 -0.3219 0.8425
vn 0.8313 0.2711 0.4852
vn 0.8663 0.2518 0.4313
vn 0.8662 0.2521 0.4315
vn 0.8639 0.2602 0.4312
vn 0.8640 0.2604 0.4309
vn 0.8310 0.2952 0.4715
vn 0.7701 -0.1948 0.6074
vn 0.7367 -0.1928 0.6482
vn 0.7202 -0.1998 0.6643
vn 0.7944 -0.2119 0.5693
vn 0.8612 -0.1389 0.4889
vn 0.8630 -0.1336 0.4871
vn 0.8350 -0.1790 0.5203
vn 0.8333 -0.1748 0.5245
vn 0.8845 -0.0927 0.4572
vn 0.8880 -0.0837 0.4521
vn 0.7246 -0.2118 0.6558
vn 0.6824 -0.2303 0.6937
vn 0.6643 -0.2270 0.7121
vn 0.7096 -0.2065 0.6737
vn 0.6352 -0.2201 0.7403
vn 0.6778 -0.2034 0.7066
vn 0.6935 -0.2034 0.6912
vn 0.6477 -0.2242 0.7282
vt 0.000000 0.000000
s 1
usemtl defaultMat
f 4/1/1 111/1/1 114/1/1 113/1/1
f 111/1/2 5/1/2 112/1/2 114/1/2
f 114/1/3 112/1/3 1/1/3 109/1/3
f 113/1/4 114/1/4 109/1/4 3/1/4
f 5/1/5 111/1/5 118/1/5 117/1/5
f 111/1/6 4/1/6 115/1/6 118/1/6
f 118/1/7 115/1/8 6/1/9 116/1/7
f 117/1/10 118/1/10 116/1/10 7/1/10
f 8/1/11 119/1/11 121/1/11 120/1/11
f 119/1/12 2/1/12 108/1/12 121/1/12
f 121/1/13 108/1/13 1/1/13 112/1/13
f 120/1/14 121/1/14 112/1/14 5/1/14
f 9/1/15 122/1/15 125/1/15 124/1/15
f 122/1/16 10/1/16 123/1/16 125/1/16
f 125/1/17 123/1/17 2/1/17 119/1/17
f 124/1/18 125/1/18 119/1/18 8/1/18
f 11/1/19 126/1/19 129/1/19 128/1/19
f 126/1/20 9/1/20 124/1/20 129/1/20
f 129/1/21 124/1/21 8/1/21 127/1/21
f 128/1/22 129/1/22 127/1/22 12/1/22
f 13/1/23 130/1/23 133/1/23 132/1/23
f 130/1/24 14/1/24 131/1/24 133/1/24
f 133/1/25 131/1/25 9/1/25 126/1/25
f 132/1/26 133/1/26 126/1/26 11/1/26
f 15/1/27 134/1/27 137/1/27 136/1/27
f 134/1/28 13/1/28 132/1/28 137/1/28
f 137/1/29 132/1/29 11/1/29 135/1/29
f 136/1/30 137/1/30 135/1/30 16/1/30
f 12/1/31 138/1/31 140/1/31 128/1/31
f 138/1/32 17/1/32 139/1/32 140/1/32
f 140/1/33 139/1/33 16/1/33 135/1/33
f 128/1/34 140/1/34 135/1/34 11/1/34
f 18/1/35 141/1/35 143/1/35 142/1/35
f 141/1/36 10/1/36 122/1/36 143/1/36
f 143/1/37 122/1/37 9/1/37 131/1/37
f 142/1/38 143/1/38 131/1/38 14/1/38
f 20/1/39 145/1/39 147/1/39 146/1/39
f 145/1/40 19/1/40 144/1/40 147/1/40
f 147/1/41 144/1/41 18/1/41 142/1/41
f 146/1/42 147/1/42 142/1/42 14/1/42
f 5/1/43 117/1/43 149/1/43 120/1/43
f 117/1/44 7/1/44 148/1/44 149/1/44
f 149/1/45 148/1/45 12/1/45 127/1/45
f 120/1/46 149/1/46 127/1/46 8/1/46
f 7/1/47 150/1/47 152/1/47 148/1/47
f 150/1/48 21/1/49 151/1/50 152/1/48
f 152/1/51 151/1/51 17/1/51 138/1/51
f 148/1/52 152/1/52 138/1/52 12/1/52
f 22/1/53 153/1/53 157/1/53 156/1/53
f 153/1/54 23/1/54 154/1/54 157/1/54
f 157/1/55 154/1/55 24/1/55 155/1/55
f 156/1/56 157/1/56 155/1/56 21/1/56
f 6/1/57 158/1/58 159/1/59 116/1/59
f 158/1/60 22/1/60 156/1/61 159/1/62
f 159/1/62 156/1/61 21/1/63 150/1/63
f 116/1/64 159/1/64 150/1/64 7/1/64
f 21/1/49 155/1/65 162/1/66 151/1/50
f 155/1/65 24/1/67 160/1/68 162/1/66
f 162/1/69 160/1/68 25/1/70 161/1/71
f 151/1/72 162/1/69 161/1/71 17/1/72
f 26/1/73 163/1/73 166/1/73 165/1/73
f 163/1/74 27/1/74 164/1/74 166/1/74
f 166/1/75 164/1/75 6/1/9 115/1/8
f 165/1/76 166/1/76 115/1/76 4/1/76
f 168/1/77 28/1/78 169/1/78 171/1/79
f 171/1/80 169/1/80 29/1/80 170/1/80
f 167/1/81 171/1/82 170/1/82 27/1/83
f 28/1/84 172/1/84 175/1/84 169/1/84
f 172/1/85 30/1/86 173/1/87 175/1/85
f 175/1/88 173/1/88 31/1/88 174/1/88
f 169/1/89 175/1/89 174/1/89 29/1/89
f 27/1/90 170/1/90 177/1/90 164/1/90
f 170/1/91 29/1/91 176/1/91 177/1/91
f 177/1/92 176/1/92 22/1/92 158/1/92
f 164/1/93 177/1/93 158/1/58 6/1/57
f 3/1/94 110/1/94 178/1/94 113/1/94
f 113/1/95 178/1/95 165/1/95 4/1/95
f 37/1/96 184/1/96 187/1/96 186/1/96
f 184/1/97 38/1/97 185/1/97 187/1/97
f 187/1/98 185/1/98 36/1/98 183/1/98
f 186/1/99 187/1/99 183/1/99 35/1/99
f 37/1/100 186/1/100 190/1/100 189/1/100
f 186/1/101 35/1/101 182/1/101 190/1/101
f 190/1/102 182/1/102 34/1/102 188/1/102
f 189/1/103 190/1/103 188/1/103 39/1/103
f 40/1/104 192/1/104 194/1/104 193/1/104
f 192/1/105 34/1/105 181/1/105 194/1/105
f 195/1/106 42/1/106 196/1/106 197/1/106
f 197/1/107 196/1/107 40/1/107 193/1/107
f 42/1/108 195/1/108 201/1/108 200/1/108
f 195/1/109 41/1/109 198/1/109 201/1/109
f 201/1/110 198/1/110 43/1/110 199/1/110
f 200/1/111 201/1/111 199/1/111 44/1/111
f 45/1/112 202/1/112 205/1/112 204/1/112
f 202/1/113 46/1/113 203/1/113 205/1/113
f 205/1/114 203/1/114 43/1/114 198/1/114
f 204/1/115 205/1/115 198/1/115 41/1/115
f 47/1/116 206/1/116 208/1/116 207/1/116
f 206/1/117 39/1/117 188/1/118 208/1/118
f 208/1/118 188/1/118 34/1/119 192/1/119
f 207/1/120 208/1/120 192/1/120 40/1/120
f 48/1/121 209/1/121 212/1/121 211/1/121
f 209/1/122 39/1/122 206/1/122 212/1/122
f 212/1/123 206/1/123 47/1/123 210/1/123
f 211/1/124 212/1/124 210/1/124 49/1/124
f 50/1/125 213/1/125 216/1/125 215/1/125
f 213/1/126 51/1/126 214/1/126 216/1/126
f 216/1/127 214/1/127 49/1/127 210/1/127
f 215/1/128 216/1/128 210/1/128 47/1/128
f 42/1/129 217/1/129 218/1/129 196/1/129
f 217/1/130 50/1/130 215/1/130 218/1/130
f 218/1/131 215/1/131 47/1/131 207/1/131
f 196/1/132 218/1/132 207/1/132 40/1/132
f 221/1/133 219/1/133 52/1/133 220/1/133
f 202/1/134 221/1/134 220/1/134 46/1/134
f 52/1/135 222/1/135 225/1/135 220/1/135
f 225/1/136 223/1/136 53/1/136 224/1/136
f 220/1/137 225/1/137 224/1/137 46/1/137
f 227/1/138 54/1/139 228/1/140 229/1/141
f 54/1/139 230/1/142 232/1/143 228/1/140
f 230/1/144 55/1/145 231/1/146 232/1/147
f 236/1/148 233/1/149 56/1/150 234/1/151
f 235/1/152 236/1/148 234/1/151 57/1/153
f 56/1/150 233/1/149 240/1/154 239/1/155
f 233/1/156 55/1/157 237/1/158 240/1/159
f 240/1/159 237/1/158 58/1/160 238/1/160
f 239/1/155 240/1/154 238/1/161 59/1/161
f 55/1/145 230/1/144 243/1/162 237/1/163
f 230/1/142 54/1/139 241/1/164 243/1/165
f 243/1/166 241/1/167 60/1/168 242/1/169
f 237/1/163 243/1/162 242/1/170 58/1/170
f 60/1/168 241/1/167 245/1/171 244/1/171
f 241/1/164 54/1/139 227/1/138 245/1/172
f 60/1/173 244/1/173 248/1/174 247/1/175
f 247/1/175 248/1/174 246/1/176 62/1/177
f 64/1/178 251/1/179 254/1/180 253/1/178
f 251/1/179 65/1/181 252/1/181 254/1/180
f 254/1/182 252/1/182 63/1/182 249/1/182
f 29/1/183 174/1/183 256/1/183 176/1/183
f 174/1/184 31/1/184 255/1/184 256/1/184
f 256/1/185 255/1/185 23/1/185 153/1/185
f 176/1/186 256/1/186 153/1/186 22/1/186
f 23/1/187 257/1/187 260/1/188 154/1/189
f 257/1/190 66/1/190 258/1/191 260/1/192
f 260/1/192 258/1/191 67/1/193 259/1/194
f 154/1/189 260/1/188 259/1/195 24/1/67
f 24/1/67 259/1/195 263/1/196 160/1/68
f 259/1/194 67/1/193 261/1/197 263/1/198
f 263/1/198 261/1/197 68/1/199 262/1/199
f 160/1/68 263/1/196 262/1/200 25/1/70
f 70/1/201 265/1/201 267/1/201 266/1/201
f 70/1/202 266/1/202 269/1/202 268/1/202
f 269/1/203 191/1/203 36/1/203 185/1/203
f 268/1/204 269/1/204 185/1/204 38/1/204
f 71/1/205 270/1/205 273/1/205 272/1/205
f 270/1/206 69/1/206 265/1/206 273/1/206
f 273/1/207 265/1/207 70/1/207 271/1/207
f 272/1/208 273/1/208 271/1/208 72/1/208
f 25/1/209 262/1/210 275/1/210 274/1/211
f 262/1/212 68/1/212 264/1/212 275/1/212
f 275/1/213 264/1/213 69/1/213 270/1/213
f 274/1/214 275/1/214 270/1/214 71/1/214
f 16/1/215 139/1/215 277/1/215 276/1/215
f 139/1/216 17/1/216 161/1/216 277/1/216
f 277/1/217 161/1/217 25/1/209 274/1/211
f 276/1/218 277/1/218 274/1/218 71/1/218
f 16/1/219 276/1/219 279/1/219 136/1/219
f 276/1/220 71/1/220 272/1/220 279/1/220
f 279/1/221 272/1/221 72/1/221 278/1/221
f 136/1/222 279/1/222 278/1/222 15/1/222
f 73/1/223 280/1/223 283/1/223 282/1/223
f 280/1/224 15/1/224 278/1/224 283/1/224
f 283/1/225 278/1/225 72/1/225 281/1/225
f 282/1/226 283/1/226 281/1/226 74/1/226
f 73/1/227 282/1/227 287/1/227 286/1/227
f 282/1/228 74/1/228 284/1/228 287/1/228
f 287/1/229 284/1/229 75/1/229 285/1/229
f 286/1/230 287/1/230 285/1/230 76/1/230
f 74/1/231 288/1/231 290/1/231 284/1/231
f 288/1/232 38/1/232 184/1/232 290/1/232
f 290/1/233 184/1/233 37/1/233 289/1/233
f 284/1/234 290/1/234 289/1/234 75/1/234
f 72/1/235 271/1/235 291/1/235 281/1/235
f 271/1/236 70/1/236 268/1/236 291/1/236
f 291/1/237 268/1/237 38/1/237 288/1/237
f 281/1/238 291/1/238 288/1/238 74/1/238
f 48/1/239 292/1/239 295/1/239 294/1/239
f 292/1/240 77/1/240 293/1/240 295/1/240
f 295/1/241 293/1/241 76/1/241 285/1/241
f 294/1/242 295/1/242 285/1/242 75/1/242
f 78/1/243 296/1/243 299/1/243 298/1/243
f 296/1/244 73/1/244 286/1/244 299/1/244
f 299/1/245 286/1/245 76/1/245 297/1/245
f 298/1/246 299/1/246 297/1/246 79/1/246
f 79/1/247 297/1/247 302/1/247 301/1/247
f 297/1/248 76/1/248 293/1/248 302/1/248
f 302/1/249 293/1/249 77/1/249 300/1/249
f 301/1/250 302/1/250 300/1/250 80/1/250
f 13/1/251 134/1/251 304/1/251 303/1/251
f 134/1/252 15/1/252 280/1/252 304/1/252
f 304/1/253 280/1/253 73/1/253 296/1/253
f 303/1/254 304/1/254 296/1/254 78/1/254
f 33/1/255 305/1/256 307/1/257 306/1/257
f 305/1/258 66/1/258 257/1/258 307/1/258
f 307/1/259 257/1/259 23/1/259 255/1/259
f 306/1/260 307/1/260 255/1/260 31/1/260
f 32/1/261 179/1/261 308/1/261 180/1/261
f 179/1/262 33/1/262 306/1/262 308/1/262
f 308/1/263 306/1/263 31/1/263 173/1/263
f 180/1/264 308/1/264 173/1/87 30/1/86
f 81/1/265 310/1/265 313/1/265 309/1/265
f 310/1/266 83/1/266 311/1/266 313/1/266
f 313/1/267 311/1/267 84/1/267 312/1/267
f 309/1/268 313/1/269 312/1/269 82/1/270
f 81/1/271 314/1/271 317/1/271 310/1/271
f 314/1/272 85/1/272 315/1/272 317/1/272
f 317/1/273 315/1/273 86/1/273 316/1/273
f 310/1/274 317/1/274 316/1/274 83/1/274
f 88/1/275 320/1/275 322/1/275 321/1/275
f 90/1/276 323/1/277 327/1/278 326/1/279
f 323/1/277 91/1/280 324/1/281 327/1/278
f 327/1/282 324/1/282 92/1/282 325/1/282
f 326/1/283 327/1/283 325/1/284 88/1/285
f 93/1/286 328/1/287 330/1/288 329/1/289
f 328/1/287 90/1/276 326/1/279 330/1/288
f 330/1/290 326/1/290 88/1/290 321/1/290
f 329/1/291 330/1/291 321/1/291 89/1/291
f 91/1/292 323/1/293 333/1/294 332/1/295
f 323/1/293 90/1/296 331/1/297 333/1/294
f 333/1/298 331/1/299 56/1/300 239/1/301
f 332/1/302 333/1/298 239/1/301 59/1/302
f 90/1/296 328/1/303 335/1/304 331/1/297
f 328/1/303 93/1/305 334/1/306 335/1/304
f 335/1/307 334/1/308 57/1/309 234/1/310
f 331/1/299 335/1/307 234/1/310 56/1/300
f 94/1/311 336/1/312 338/1/313 337/1/314
f 336/1/315 87/1/316 320/1/316 338/1/316
f 338/1/317 320/1/317 88/1/285 325/1/284
f 337/1/314 338/1/313 325/1/318 92/1/318
f 94/1/319 337/1/320 342/1/321 341/1/322
f 337/1/320 92/1/323 339/1/324 342/1/321
f 342/1/325 339/1/325 95/1/325 340/1/325
f 341/1/326 342/1/326 340/1/326 96/1/326
f 91/1/280 343/1/327 345/1/327 324/1/281
f 343/1/328 97/1/328 344/1/328 345/1/328
f 345/1/329 344/1/329 95/1/329 339/1/329
f 324/1/330 345/1/330 339/1/324 92/1/323
f 86/1/331 346/1/331 348/1/331 316/1/331
f 346/1/332 79/1/332 301/1/332 348/1/332
f 348/1/333 301/1/333 80/1/333 347/1/333
f 316/1/334 348/1/334 347/1/334 83/1/334
f 86/1/335 349/1/335 351/1/335 346/1/335
f 349/1/336 20/1/336 350/1/336 351/1/336
f 351/1/337 350/1/337 78/1/337 298/1/337
f 346/1/338 351/1/338 298/1/338 79/1/338
f 20/1/339 349/1/339 352/1/339 145/1/339
f 349/1/340 86/1/340 315/1/340 352/1/340
f 352/1/341 315/1/341 85/1/341 319/1/341
f 145/1/342 352/1/342 319/1/342 19/1/342
f 78/1/343 350/1/343 353/1/343 303/1/343
f 350/1/344 20/1/344 146/1/344 353/1/344
f 353/1/345 146/1/345 14/1/345 130/1/345
f 303/1/346 353/1/346 130/1/346 13/1/346
f 80/1/347 354/1/347 356/1/347 347/1/347
f 354/1/348 98/1/348 355/1/348 356/1/348
f 356/1/349 355/1/349 84/1/349 311/1/349
f 347/1/350 356/1/350 311/1/350 83/1/350
f 84/1/351 355/1/351 360/1/351 359/1/351
f 355/1/352 98/1/352 357/1/352 360/1/352
f 360/1/353 357/1/353 99/1/353 358/1/353
f 359/1/354 360/1/354 358/1/354 65/1/354
f 63/1/355 252/1/355 363/1/355 362/1/355
f 252/1/356 65/1/356 358/1/356 363/1/356
f 363/1/357 358/1/357 99/1/357 361/1/357
f 362/1/358 363/1/358 361/1/358 100/1/358
f 62/1/359 364/1/359 368/1/359 367/1/359
f 364/1/360 100/1/360 365/1/360 368/1/360
f 368/1/361 365/1/361 101/1/361 366/1/361
f 367/1/362 368/1/362 366/1/362 102/1/362
f 102/1/363 366/1/363 372/1/363 371/1/363
f 366/1/364 101/1/364 369/1/364 372/1/364
f 372/1/365 369/1/365 103/1/365 370/1/365
f 371/1/366 372/1/366 370/1/366 104/1/366
f 60/1/168 247/1/367 374/1/367 242/1/169
f 247/1/368 62/1/368 367/1/368 374/1/368
f 374/1/369 367/1/369 102/1/369 373/1/369
f 242/1/370 374/1/370 373/1/370 58/1/370
f 58/1/371 373/1/371 376/1/371 238/1/371
f 373/1/372 102/1/372 371/1/372 376/1/372
f 376/1/373 371/1/373 104/1/373 375/1/373
f 238/1/374 376/1/374 375/1/374 59/1/374
f 104/1/375 377/1/375 378/1/375 375/1/375
f 377/1/376 97/1/376 343/1/376 378/1/376
f 378/1/377 343/1/377 91/1/292 332/1/295
f 375/1/378 378/1/378 332/1/378 59/1/378
f 104/1/379 370/1/379 381/1/379 377/1/379
f 370/1/380 103/1/380 379/1/380 381/1/380
f 381/1/381 379/1/381 105/1/381 380/1/381
f 377/1/382 381/1/382 380/1/382 97/1/382
f 103/1/383 382/1/383 384/1/383 379/1/383
f 382/1/384 51/1/384 213/1/384 384/1/384
f 384/1/385 213/1/385 50/1/385 383/1/385
f 379/1/386 384/1/386 383/1/386 105/1/386
f 44/1/387 385/1/387 387/1/387 386/1/387
f 385/1/388 95/1/388 344/1/388 387/1/388
f 387/1/389 344/1/389 97/1/389 380/1/389
f 386/1/390 387/1/390 380/1/390 105/1/390
f 50/1/391 217/1/391 388/1/391 383/1/391
f 217/1/392 42/1/392 200/1/392 388/1/392
f 388/1/393 200/1/393 44/1/393 386/1/393
f 383/1/394 388/1/394 386/1/394 105/1/394
f 103/1/395 369/1/395 391/1/395 382/1/395
f 369/1/396 101/1/396 389/1/396 391/1/396
f 391/1/397 389/1/397 106/1/397 390/1/397
f 382/1/398 391/1/398 390/1/398 51/1/398
f 49/1/399 214/1/399 394/1/399 393/1/399
f 214/1/400 51/1/400 390/1/400 394/1/400
f 394/1/401 390/1/401 106/1/401 392/1/401
f 393/1/402 394/1/402 392/1/402 107/1/402
f 80/1/403 300/1/403 397/1/403 354/1/403
f 300/1/404 77/1/404 395/1/404 397/1/404
f 397/1/405 395/1/405 107/1/405 396/1/405
f 354/1/406 397/1/406 396/1/406 98/1/406
f 98/1/407 396/1/407 399/1/407 357/1/407
f 396/1/408 107/1/408 392/1/408 399/1/408
f 399/1/409 392/1/409 106/1/409 398/1/409
f 357/1/410 399/1/410 398/1/410 99/1/410
f 77/1/411 292/1/411 400/1/411 395/1/411
f 292/1/412 48/1/412 211/1/412 400/1/412
f 400/1/413 211/1/413 49/1/413 393/1/413
f 395/1/414 400/1/414 393/1/414 107/1/414
f 100/1/415 361/1/415 401/1/415 365/1/415
f 361/1/416 99/1/416 398/1/416 401/1/416
f 401/1/417 398/1/417 106/1/417 389/1/417
f 365/1/418 401/1/418 389/1/418 101/1/418
f 62/1/419 246/1/419 402/1/419 364/1/419
f 246/1/420 61/1/420 250/1/420 402/1/420
f 402/1/421 250/1/422 63/1/423 362/1/421
f 364/1/424 402/1/424 362/1/424 100/1/424
f 48/1/425 294/1/425 403/1/425 209/1/425
f 294/1/426 75/1/426 289/1/426 403/1/426
f 403/1/427 289/1/427 37/1/427 189/1/427
f 209/1/428 403/1/428 189/1/428 39/1/428
f 84/1/429 359/1/429 404/1/429 312/1/429
f 359/1/430 65/1/430 251/1/431 404/1/432
f 404/1/432 251/1/431 64/1/433 318/1/433
f 312/1/434 404/1/434 318/1/434 82/1/434
f 94/1/319 341/1/322 407/1/435 405/1/435
f 341/1/436 96/1/436 406/1/436 407/1/436
f 407/1/437 406/1/437 53/1/437 226/1/437
f 93/1/286 329/1/289 409/1/438 408/1/438
f 411/1/439 410/1/440 57/1/309 334/1/308
f 408/1/441 411/1/442 334/1/306 93/1/305
f 410/1/443 412/1/444 235/1/152 57/1/153
f 95/1/445 385/1/445 414/1/445 340/1/445
f 385/1/446 44/1/446 199/1/446 414/1/446
f 414/1/447 199/1/447 43/1/447 413/1/447
f 340/1/448 414/1/448 413/1/448 96/1/448
f 46/1/449 224/1/449 415/1/449 203/1/449
f 224/1/450 53/1/450 406/1/450 415/1/450
f 415/1/451 406/1/451 96/1/451 413/1/451
f 203/1/452 415/1/452 413/1/452 43/1/452
