# Blender 5.1.0
# www.blender.org
mtllib Upper Lip.mtl
o Upper_lip
v -0.005867 -0.676006 1.580821
v -0.004284 -0.650606 1.588642
v -0.008793 -0.706059 1.556579
v 0.012679 -0.644100 1.588539
v 0.017109 -0.669386 1.578549
v 0.339232 -0.797805 1.309227
v 0.315245 -0.795438 1.341970
v 0.340429 -0.795766 1.322337
v 0.321600 -0.785976 1.359290
v 0.328830 -0.767121 1.371284
v 0.348380 -0.786396 1.342888
v 0.351643 -0.766008 1.355528
v 0.342407 -0.754901 1.385587
v 0.356482 -0.790670 1.314873
v 0.364296 -0.777838 1.325165
v 0.355074 -0.796879 1.295821
v 0.368215 -0.795496 1.286639
v 0.376710 -0.788156 1.306098
v 0.381377 -0.778721 1.317559
v 0.378786 -0.765842 1.342598
v 0.386254 -0.791824 1.281494
v 0.392410 -0.782758 1.299167
v 0.381897 -0.791917 1.268071
v 0.363077 -0.751099 1.367184
v 0.351350 -0.735441 1.396308
v 0.329816 -0.716119 1.424837
v 0.322611 -0.738291 1.419173
v 0.315654 -0.756068 1.409044
v 0.291475 -0.745836 1.436445
v 0.300729 -0.718756 1.448745
v 0.304235 -0.777191 1.390953
v 0.283271 -0.762778 1.422076
v 0.303968 -0.696191 1.454411
v 0.271204 -0.698981 1.478819
v 0.271849 -0.674840 1.482697
v 0.291290 -0.788804 1.373772
v 0.268672 -0.776630 1.402219
v 0.258507 -0.782979 1.385704
v 0.237087 -0.780040 1.414172
v 0.210319 -0.775787 1.441032
v 0.246512 -0.768705 1.432333
v 0.219499 -0.758036 1.466236
v 0.257166 -0.744463 1.458948
v 0.227879 -0.731787 1.484912
v 0.173468 -0.764121 1.466648
v 0.172735 -0.779203 1.439682
v 0.142500 -0.758757 1.470718
v 0.139494 -0.771011 1.450714
v 0.183590 -0.743744 1.484786
v 0.144894 -0.734013 1.504403
v 0.142951 -0.615302 1.553651
v 0.234140 -0.652241 1.508905
v 0.191373 -0.630589 1.532625
v 0.236802 -0.676688 1.507592
v 0.195580 -0.681830 1.525195
v 0.233561 -0.702454 1.497311
v 0.195743 -0.653535 1.533104
v 0.189941 -0.713897 1.509053
v 0.265099 -0.722496 1.470378
v 0.145389 -0.698744 1.528979
v 0.097191 -0.691466 1.543036
v 0.100699 -0.727392 1.515624
v 0.061838 -0.729261 1.524886
v 0.055809 -0.694800 1.552966
v 0.091124 -0.650941 1.564567
v 0.045301 -0.656344 1.575240
v 0.147964 -0.661688 1.547121
v 0.146802 -0.634149 1.555078
v 0.088191 -0.624310 1.572714
v 0.040514 -0.630241 1.584296
v 0.391809 -0.790030 1.266377
v 0.069112 -0.781036 1.438621
v 0.032929 -0.780747 1.440931
v 0.105258 -0.775775 1.464929
v 0.068844 -0.778633 1.468322
v 0.030656 -0.772110 1.470129
v 0.000981 -0.766567 1.473006
v -0.000351 -0.778101 1.443244
v -0.002058 -0.753396 1.500658
v 0.030576 -0.760079 1.500350
v 0.060852 -0.750046 1.485653
v 0.027493 -0.733006 1.530582
v 0.102327 -0.758635 1.484199
v 0.021795 -0.703413 1.558766
v -0.003320 -0.730320 1.528163
v 0.096853 -0.783246 1.476050
v 0.091883 -0.773153 1.459638
v -0.021246 -0.644596 1.588106
v -0.026012 -0.668578 1.579315
v -0.345389 -0.792443 1.313767
v -0.325477 -0.791356 1.343168
v -0.348530 -0.788350 1.328928
v -0.333734 -0.780024 1.362277
v -0.335927 -0.756780 1.372015
v -0.353735 -0.777495 1.345692
v -0.355316 -0.761813 1.358292
v -0.343767 -0.744588 1.385972
v -0.364226 -0.784938 1.317318
v -0.368641 -0.773034 1.331588
v -0.360442 -0.790183 1.302901
v -0.372046 -0.787114 1.294986
v -0.376096 -0.781060 1.309498
v -0.383333 -0.783819 1.289531
v -0.321395 -0.729083 1.418208
v -0.315478 -0.754202 1.405419
v -0.289595 -0.737627 1.436652
v -0.299163 -0.712262 1.448266
v -0.313148 -0.766602 1.390331
v -0.278362 -0.753367 1.418348
v -0.270100 -0.692156 1.477390
v -0.306224 -0.781725 1.374969
v -0.278745 -0.776469 1.405639
v -0.274239 -0.786061 1.387011
v -0.245071 -0.776051 1.414186
v -0.214894 -0.762593 1.438834
v -0.254688 -0.761620 1.437224
v -0.224856 -0.743249 1.462053
v -0.256765 -0.738137 1.456331
v -0.230748 -0.720993 1.487044
v -0.178880 -0.760735 1.459894
v -0.175806 -0.773392 1.438242
v -0.142362 -0.754103 1.479679
v -0.140471 -0.771589 1.453585
v -0.184734 -0.741170 1.485630
v -0.142903 -0.728703 1.498690
v -0.237441 -0.672383 1.506354
v -0.198259 -0.677803 1.521625
v -0.233608 -0.697110 1.495569
v -0.199391 -0.651241 1.531735
v -0.191479 -0.709432 1.503030
v -0.264077 -0.717350 1.468322
v -0.154603 -0.700058 1.527905
v -0.102484 -0.690054 1.543631
v -0.103638 -0.729482 1.517301
v -0.067930 -0.730094 1.528057
v -0.063878 -0.695225 1.553002
v -0.099255 -0.651149 1.564028
v -0.054860 -0.657340 1.575085
v -0.154522 -0.661011 1.545660
v -0.153615 -0.633781 1.553975
v -0.096222 -0.624964 1.572181
v -0.049074 -0.631274 1.583672
v -0.401189 -0.776094 1.298256
v -0.393700 -0.781917 1.286473
v -0.390833 -0.784415 1.272248
v -0.036648 -0.779809 1.441580
v -0.100394 -0.767735 1.455529
v -0.070177 -0.774757 1.471599
v -0.035311 -0.773973 1.472092
v -0.032507 -0.754311 1.499792
v -0.066074 -0.752489 1.496516
v -0.035983 -0.733518 1.530225
v -0.106369 -0.766196 1.484473
v -0.034330 -0.704559 1.558474
v -0.004180 -0.639611 1.588523
v 0.003674 -0.648821 1.588774
v 0.012785 -0.633734 1.588358
v 0.003687 -0.637974 1.588640
v 0.014178 -0.655435 1.585472
v -0.003846 -0.661518 1.585916
v 0.008490 -0.672916 1.579977
v 0.004691 -0.660022 1.585521
v 0.327236 -0.797261 1.325352
v 0.337094 -0.792726 1.315839
v 0.330344 -0.795046 1.342528
v 0.316696 -0.793997 1.349861
v 0.325877 -0.796797 1.332411
v 0.324346 -0.776632 1.365919
v 0.346026 -0.793759 1.332358
v 0.338518 -0.778402 1.360516
v 0.335583 -0.787100 1.352555
v 0.352777 -0.778388 1.353388
v 0.345341 -0.761497 1.372009
v 0.335141 -0.762252 1.378138
v 0.341889 -0.768817 1.367002
v 0.353303 -0.786691 1.323503
v 0.358259 -0.782469 1.319813
v 0.361800 -0.772906 1.342250
v 0.358600 -0.785016 1.333308
v 0.348030 -0.795462 1.310405
v 0.354239 -0.795850 1.305542
v 0.348100 -0.787313 1.315860
v 0.369163 -0.794606 1.279794
v 0.364199 -0.795925 1.300753
v 0.361651 -0.796263 1.290495
v 0.372893 -0.793632 1.297771
v 0.369921 -0.782117 1.319736
v 0.366995 -0.791348 1.311030
v 0.377770 -0.769810 1.329510
v 0.368521 -0.771856 1.333655
v 0.380279 -0.780510 1.312835
v 0.371945 -0.776393 1.321201
v 0.381089 -0.792617 1.295328
v 0.391563 -0.788381 1.291466
v 0.386283 -0.780967 1.306946
v 0.385722 -0.784459 1.303428
v 0.374721 -0.793652 1.276216
v 0.381994 -0.791882 1.274170
v 0.384151 -0.792192 1.259619
v 0.376847 -0.793187 1.269936
v 0.357696 -0.796343 1.288834
v 0.349965 -0.797301 1.294416
v 0.348167 -0.796962 1.302544
v 0.360313 -0.759831 1.366018
v 0.355285 -0.743979 1.378696
v 0.345725 -0.749023 1.390731
v 0.351266 -0.750742 1.376545
v 0.372022 -0.755700 1.355604
v 0.340637 -0.725979 1.411097
v 0.364278 -0.770791 1.349671
v 0.327047 -0.726517 1.422276
v 0.330519 -0.747222 1.401159
v 0.337693 -0.736791 1.407840
v 0.324016 -0.766494 1.393864
v 0.316474 -0.745682 1.411491
v 0.328254 -0.751451 1.400153
v 0.301361 -0.744720 1.420652
v 0.310784 -0.725321 1.431224
v 0.299408 -0.729809 1.445350
v 0.306721 -0.736608 1.427070
v 0.313448 -0.780797 1.372529
v 0.308777 -0.767544 1.401492
v 0.317715 -0.775003 1.383710
v 0.287345 -0.767305 1.406520
v 0.290233 -0.749903 1.432911
v 0.294349 -0.757424 1.416577
v 0.302712 -0.707554 1.452035
v 0.317553 -0.705603 1.439433
v 0.314957 -0.715656 1.435810
v 0.286470 -0.709490 1.463876
v 0.288751 -0.685709 1.468875
v 0.272252 -0.686565 1.481503
v 0.288204 -0.697260 1.466869
v 0.270274 -0.663598 1.482319
v 0.287710 -0.674627 1.469114
v 0.294224 -0.786558 1.379813
v 0.302507 -0.790940 1.357911
v 0.304611 -0.786059 1.363024
v 0.289601 -0.791237 1.367510
v 0.278511 -0.784860 1.387495
v 0.261517 -0.779687 1.392712
v 0.274081 -0.790557 1.374763
v 0.276579 -0.787718 1.381197
v 0.257679 -0.789289 1.379231
v 0.249832 -0.783174 1.402226
v 0.234339 -0.783563 1.406668
v 0.246247 -0.786624 1.393457
v 0.207522 -0.779279 1.431372
v 0.223639 -0.774377 1.426192
v 0.221553 -0.781160 1.418803
v 0.231473 -0.763340 1.447114
v 0.215146 -0.768882 1.455658
v 0.237222 -0.778467 1.419616
v 0.225487 -0.767689 1.434050
v 0.244371 -0.739893 1.471339
v 0.222655 -0.744306 1.474291
v 0.249567 -0.760841 1.446008
v 0.238953 -0.752698 1.460376
v 0.260525 -0.772535 1.420317
v 0.273082 -0.770656 1.410046
v 0.270841 -0.760498 1.442209
v 0.260715 -0.768171 1.426248
v 0.251043 -0.781992 1.406479
v 0.194186 -0.775905 1.457946
v 0.173389 -0.776659 1.451056
v 0.190830 -0.777670 1.443101
v 0.158226 -0.761586 1.467462
v 0.142434 -0.774551 1.464092
v 0.156414 -0.776940 1.447416
v 0.157115 -0.766554 1.455162
v 0.176857 -0.751020 1.469935
v 0.162202 -0.739063 1.498562
v 0.139226 -0.744681 1.486586
v 0.163358 -0.758690 1.483609
v 0.200773 -0.749444 1.478008
v 0.196622 -0.764347 1.467285
v 0.282047 -0.775858 1.398449
v 0.213378 -0.641042 1.521084
v 0.253483 -0.662874 1.495398
v 0.236009 -0.664106 1.509184
v 0.254595 -0.687989 1.493125
v 0.254803 -0.674972 1.495222
v 0.215920 -0.693524 1.512650
v 0.235825 -0.689516 1.503275
v 0.217153 -0.665156 1.520942
v 0.196448 -0.666859 1.530187
v 0.217284 -0.678889 1.517855
v 0.231301 -0.717494 1.492375
v 0.192827 -0.696270 1.515473
v 0.209264 -0.720724 1.495497
v 0.213332 -0.708050 1.505553
v 0.250700 -0.715243 1.485254
v 0.269044 -0.711402 1.475028
v 0.252743 -0.701617 1.489169
v 0.259403 -0.735186 1.464367
v 0.247930 -0.727915 1.479557
v 0.282471 -0.736766 1.458718
v 0.284795 -0.720923 1.461321
v 0.274046 -0.742126 1.445835
v 0.187806 -0.728993 1.498541
v 0.167784 -0.702829 1.516792
v 0.144432 -0.717103 1.518430
v 0.164710 -0.719618 1.508024
v 0.120870 -0.692482 1.534879
v 0.099442 -0.710886 1.531318
v 0.123336 -0.733519 1.515424
v 0.121588 -0.712393 1.525225
v 0.078841 -0.724787 1.520179
v 0.075397 -0.692215 1.548835
v 0.059205 -0.712797 1.539639
v 0.077406 -0.706275 1.530299
v 0.065493 -0.651786 1.571081
v 0.050548 -0.674486 1.563978
v 0.094393 -0.670517 1.553957
v 0.071003 -0.672247 1.561244
v 0.146764 -0.679931 1.539067
v 0.119778 -0.654589 1.556279
v 0.120379 -0.673217 1.546193
v 0.173140 -0.670833 1.536689
v 0.171001 -0.687324 1.528523
v 0.204232 -0.732713 1.484104
v 0.172574 -0.642963 1.544569
v 0.148041 -0.646349 1.552431
v 0.173573 -0.655839 1.541765
v 0.193833 -0.641531 1.533707
v 0.168071 -0.621742 1.543516
v 0.144805 -0.624029 1.555188
v 0.170485 -0.631701 1.544894
v 0.117724 -0.627951 1.564362
v 0.088169 -0.615353 1.572699
v 0.116781 -0.618795 1.564344
v 0.215622 -0.652616 1.521811
v 0.061478 -0.624956 1.579620
v 0.040894 -0.620618 1.584453
v 0.061689 -0.615356 1.579796
v 0.041505 -0.641298 1.581591
v 0.024723 -0.637376 1.587141
v 0.028536 -0.663200 1.578783
v 0.025905 -0.648420 1.584487
v 0.024966 -0.627549 1.587137
v 0.088894 -0.635156 1.570343
v 0.062355 -0.636195 1.576940
v 0.392708 -0.789361 1.273525
v 0.388115 -0.790229 1.273756
v 0.395910 -0.786003 1.288568
v 0.391677 -0.789122 1.280399
v 0.392740 -0.790202 1.258445
v 0.388485 -0.791081 1.258682
v 0.387056 -0.790789 1.266926
v 0.391925 -0.790948 1.249971
v 0.050985 -0.781482 1.440961
v 0.122101 -0.770041 1.452712
v 0.104144 -0.777532 1.448276
v 0.121836 -0.775677 1.442625
v 0.084596 -0.772611 1.463200
v 0.068004 -0.779583 1.455316
v 0.085835 -0.778787 1.451740
v 0.047427 -0.768851 1.464894
v 0.031791 -0.778473 1.456758
v 0.049758 -0.777833 1.454690
v 0.011602 -0.772197 1.472521
v 0.001172 -0.774108 1.458473
v 0.015646 -0.779231 1.443057
v 0.015014 -0.775905 1.457915
v 0.030065 -0.765982 1.484266
v 0.011978 -0.760118 1.505113
v -0.000776 -0.759380 1.486653
v 0.010884 -0.766736 1.488847
v 0.050753 -0.762859 1.499709
v 0.058850 -0.765683 1.483122
v 0.049186 -0.768641 1.484987
v 0.041939 -0.727467 1.524542
v 0.031800 -0.745058 1.515652
v 0.061623 -0.741169 1.503937
v 0.046081 -0.747770 1.514024
v 0.086551 -0.757187 1.487934
v 0.099682 -0.741230 1.495534
v 0.080968 -0.744596 1.507990
v 0.104572 -0.776240 1.475247
v 0.087049 -0.768035 1.477646
v 0.124644 -0.760195 1.477456
v 0.123104 -0.764901 1.469192
v 0.126881 -0.752518 1.501829
v 0.118780 -0.639005 1.562026
v 0.041360 -0.698320 1.555055
v 0.027574 -0.721172 1.541452
v 0.040952 -0.712316 1.538470
v 0.011709 -0.734204 1.531822
v 0.015147 -0.707719 1.560510
v -0.005211 -0.718136 1.541427
v 0.010001 -0.723063 1.541425
v -0.002810 -0.742076 1.513490
v 0.011552 -0.748592 1.518879
v 0.019310 -0.685051 1.569752
v -0.006392 -0.691953 1.572039
v 0.013720 -0.688311 1.571239
v 0.037397 -0.681182 1.569102
v -0.001551 -0.779995 1.427182
v 0.015909 -0.780366 1.426945
v 0.071238 -0.787539 1.480415
v 0.066546 -0.776570 1.462843
v 0.094373 -0.778395 1.468796
v 0.069228 -0.784180 1.472265
v 0.118396 -0.764974 1.447010
v 0.119856 -0.771805 1.457271
v -0.021695 -0.634125 1.587495
v -0.012199 -0.649103 1.588643
v -0.012166 -0.638120 1.588295
v -0.015393 -0.673434 1.578174
v -0.022865 -0.655800 1.585055
v -0.013787 -0.660028 1.585882
v -0.335963 -0.792178 1.328053
v -0.328335 -0.787777 1.352322
v -0.342498 -0.785919 1.345998
v -0.345824 -0.790355 1.321423
v -0.337488 -0.791712 1.335429
v -0.347335 -0.766152 1.361292
v -0.351285 -0.784342 1.337901
v -0.336859 -0.767450 1.370324
v -0.345136 -0.778912 1.354073
v -0.340539 -0.753418 1.379696
v -0.349499 -0.751632 1.371205
v -0.353802 -0.768270 1.351232
v -0.346731 -0.758826 1.365442
v -0.361511 -0.768814 1.342315
v -0.367372 -0.779597 1.324854
v -0.359683 -0.782476 1.331197
v -0.362674 -0.774228 1.337657
v -0.361585 -0.788016 1.310533
v -0.354560 -0.789777 1.315554
v -0.356489 -0.787234 1.323304
v -0.367599 -0.786437 1.306340
v -0.371745 -0.788513 1.286959
v -0.366492 -0.789977 1.290504
v -0.366486 -0.788781 1.298677
v -0.372811 -0.778055 1.319865
v -0.373590 -0.784673 1.302520
v -0.369678 -0.782875 1.313350
v -0.379376 -0.776330 1.315955
v -0.370942 -0.768219 1.336146
v -0.375443 -0.772189 1.326224
v -0.385875 -0.781255 1.296584
v -0.379705 -0.782848 1.299273
v -0.382785 -0.779231 1.306066
v -0.377635 -0.785370 1.291943
v -0.360618 -0.791247 1.294708
v -0.353685 -0.792368 1.299639
v -0.353824 -0.791510 1.308015
v -0.344875 -0.736654 1.390584
v -0.358527 -0.752610 1.363807
v -0.351537 -0.744472 1.376053
v -0.366341 -0.761420 1.350073
v -0.334315 -0.737842 1.402842
v -0.323644 -0.719150 1.421216
v -0.335265 -0.726395 1.406464
v -0.318780 -0.740534 1.413537
v -0.327378 -0.754613 1.387240
v -0.333414 -0.748146 1.397917
v -0.294653 -0.724112 1.441021
v -0.310371 -0.720748 1.430704
v -0.299257 -0.742607 1.421712
v -0.304420 -0.732501 1.425024
v -0.310545 -0.752319 1.393178
v -0.323841 -0.769896 1.376716
v -0.326253 -0.760489 1.381381
v -0.283527 -0.746594 1.425295
v -0.298162 -0.760327 1.406219
v -0.295149 -0.752988 1.411771
v -0.300879 -0.700540 1.451801
v -0.312781 -0.710588 1.436479
v -0.270854 -0.681113 1.480385
v -0.283899 -0.702757 1.462569
v -0.285954 -0.691226 1.465934
v -0.315356 -0.787444 1.358666
v -0.308150 -0.773105 1.381319
v -0.319972 -0.780029 1.368616
v -0.277873 -0.782150 1.396074
v -0.291548 -0.778287 1.387344
v -0.302353 -0.788140 1.366177
v -0.288642 -0.785720 1.380841
v -0.260583 -0.782629 1.401537
v -0.231385 -0.772718 1.427128
v -0.212305 -0.773153 1.429221
v -0.226784 -0.776814 1.416380
v -0.247745 -0.767387 1.422264
v -0.223135 -0.752141 1.454756
v -0.239332 -0.745930 1.451184
v -0.234619 -0.763019 1.442616
v -0.254322 -0.744494 1.443607
v -0.229677 -0.731633 1.479030
v -0.246492 -0.729520 1.471203
v -0.245655 -0.737739 1.460775
v -0.266098 -0.750820 1.433199
v -0.279346 -0.767109 1.416818
v -0.262369 -0.766472 1.418453
v -0.264387 -0.757372 1.425879
v -0.262710 -0.776153 1.411968
v -0.177588 -0.768836 1.451016
v -0.202051 -0.767197 1.455913
v -0.196040 -0.770646 1.440408
v -0.157935 -0.768814 1.443121
v -0.140523 -0.770720 1.466438
v -0.163606 -0.761676 1.473434
v -0.162402 -0.767896 1.459476
v -0.140226 -0.744991 1.487101
v -0.164017 -0.737722 1.499149
v -0.179110 -0.747691 1.464561
v -0.162589 -0.749668 1.479565
v -0.202502 -0.742214 1.477648
v -0.200627 -0.750957 1.465478
v -0.297176 -0.773191 1.397891
v -0.254170 -0.682768 1.492184
v -0.236798 -0.659963 1.507856
v -0.254516 -0.670725 1.494501
v -0.199758 -0.664266 1.528567
v -0.219149 -0.661660 1.519465
v -0.236220 -0.685203 1.502141
v -0.217371 -0.688111 1.509491
v -0.218809 -0.674614 1.515238
v -0.212913 -0.712098 1.493121
v -0.196660 -0.695146 1.517215
v -0.230886 -0.710497 1.488649
v -0.213281 -0.700924 1.498040
v -0.267354 -0.706287 1.472717
v -0.249198 -0.709579 1.480954
v -0.253092 -0.694823 1.488571
v -0.260628 -0.727015 1.463090
v -0.248486 -0.719394 1.478455
v -0.278298 -0.726104 1.451522
v -0.281154 -0.713830 1.460049
v -0.275472 -0.739013 1.448254
v -0.149325 -0.716293 1.514258
v -0.169957 -0.700780 1.516956
v -0.191093 -0.726446 1.499800
v -0.167641 -0.717807 1.503732
v -0.125173 -0.737617 1.511300
v -0.106758 -0.711494 1.527653
v -0.128055 -0.692102 1.535857
v -0.125904 -0.714195 1.524565
v -0.066149 -0.711964 1.537510
v -0.081949 -0.691591 1.548256
v -0.087844 -0.731283 1.522271
v -0.083811 -0.707658 1.531542
v -0.103477 -0.671637 1.555184
v -0.059068 -0.674501 1.562228
v -0.072836 -0.652731 1.571888
v -0.080589 -0.672875 1.560442
v -0.127993 -0.654030 1.556402
v -0.151945 -0.677511 1.538699
v -0.127968 -0.674047 1.549626
v -0.177716 -0.669059 1.534503
v -0.174548 -0.683729 1.522525
v -0.209096 -0.727885 1.486173
v -0.154971 -0.646095 1.551248
v -0.177891 -0.641785 1.543253
v -0.178798 -0.654433 1.540444
v -0.151422 -0.623139 1.554061
v -0.197557 -0.639391 1.532236
v -0.175804 -0.630545 1.543501
v -0.095239 -0.615249 1.572213
v -0.125353 -0.627666 1.563754
v -0.123607 -0.617558 1.563767
v -0.217819 -0.649370 1.520373
v -0.049804 -0.622367 1.583073
v -0.069839 -0.626599 1.578811
v -0.069664 -0.617143 1.578830
v -0.037187 -0.664202 1.578509
v -0.033329 -0.638292 1.586464
v -0.051077 -0.642064 1.581588
v -0.034207 -0.649238 1.584249
v -0.034254 -0.628529 1.585758
v -0.097746 -0.636588 1.569497
v -0.071134 -0.637715 1.576131
v -0.396956 -0.779456 1.292706
v -0.391602 -0.783526 1.279632
v -0.391731 -0.780094 1.294411
v -0.387079 -0.784302 1.280477
v -0.388815 -0.782639 1.287717
v -0.400416 -0.772125 1.305913
v -0.395664 -0.776591 1.300505
v -0.037059 -0.779340 1.426072
v -0.054087 -0.779596 1.440700
v -0.119711 -0.774245 1.458607
v -0.070788 -0.777381 1.454795
v -0.087570 -0.776990 1.464885
v -0.086640 -0.772982 1.448451
v -0.035990 -0.774309 1.457085
v -0.051045 -0.770922 1.470704
v -0.053294 -0.778053 1.456902
v -0.018838 -0.776184 1.440810
v -0.022249 -0.771097 1.472697
v -0.019530 -0.773913 1.457178
v -0.019110 -0.762334 1.506765
v -0.032785 -0.765235 1.486940
v -0.022060 -0.768288 1.489860
v -0.068521 -0.762478 1.480262
v -0.055499 -0.760151 1.501017
v -0.052507 -0.764904 1.486204
v -0.070712 -0.745911 1.512836
v -0.034464 -0.745144 1.515125
v -0.048380 -0.731102 1.528918
v -0.051387 -0.748315 1.519081
v -0.105685 -0.751462 1.500851
v -0.086559 -0.759144 1.496200
v -0.084446 -0.740000 1.507581
v -0.103326 -0.768880 1.472361
v -0.088391 -0.771128 1.481438
v -0.119885 -0.752140 1.472283
v -0.118416 -0.766019 1.468749
v -0.122544 -0.749430 1.494319
v -0.126941 -0.639693 1.561080
v -0.036130 -0.718426 1.542787
v -0.049295 -0.699159 1.553208
v -0.047349 -0.712470 1.538802
v -0.013189 -0.704567 1.556700
v -0.012483 -0.735437 1.533502
v -0.015266 -0.719936 1.543523
v -0.015952 -0.751019 1.520994
v -0.031791 -0.687703 1.570834
v -0.013968 -0.685410 1.565978
v -0.045803 -0.683008 1.568313
v -0.019199 -0.779423 1.426693
vn -0.0182 0.0117 0.9998
vn 0.0212 0.0147 0.9997
vn 0.2352 -0.3603 0.9027
vn 0.1418 -0.2526 0.9571
vn 0.0664 -0.2564 0.9643
vn 0.1209 -0.3527 0.9279
vn 0.6803 -0.6020 0.4181
vn 0.1389 -0.9108 0.3888
vn -0.0133 -0.9919 0.1264
vn 0.2062 -0.6312 0.7477
vn 0.2485 -0.7291 0.6377
vn 0.2729 -0.9123 0.3054
vn 0.4318 -0.7385 0.5179
vn 0.1308 -0.7183 0.6834
vn 0.3073 -0.7277 0.6132
vn 0.7620 -0.2982 0.5748
vn 0.3836 -0.7443 0.5467
vn 0.3607 -0.8970 0.2556
vn 0.6989 -0.7023 0.1351
vn 0.8320 -0.5454 0.1012
vn 0.8082 -0.2980 0.5080
vn 0.7789 -0.6158 0.1189
vn 0.3409 -0.7967 0.4990
vn -0.2938 -0.8577 0.4221
vn 0.7070 -0.7070 0.0167
vn 0.0923 -0.9949 -0.0408
vn 0.1102 -0.9634 0.2444
vn 0.1703 -0.7792 0.6032
vn 0.4785 -0.7494 0.4576
vn 0.0263 -0.7202 0.6933
vn 0.0009 -0.8416 0.5401
vn 0.3410 -0.8818 0.3258
vn 0.4261 -0.7072 0.5642
vn 0.5076 -0.5948 0.6234
vn 0.4515 -0.7240 0.5215
vn 0.5013 -0.7013 0.5069
vn 0.3751 -0.8129 0.4455
vn 0.2665 -0.9615 0.0668
vn 0.1226 -0.9897 -0.0735
vn 0.3827 -0.8294 0.4070
vn 0.0910 -0.9925 0.0814
vn -0.2632 -0.9637 -0.0447
vn 0.3103 -0.7665 0.5623
vn 0.5616 -0.4008 0.7238
vn 0.7643 -0.5115 0.3928
vn 0.6876 -0.6107 0.3928
vn -0.1111 -0.8737 0.4736
vn 0.4500 -0.8581 0.2471
vn 0.4811 -0.7409 0.4686
vn 0.6738 -0.4677 0.5721
vn 0.3536 -0.6874 0.6343
vn 0.6016 -0.4503 0.6598
vn 0.6016 -0.3579 0.7141
vn 0.5330 -0.5587 0.6354
vn 0.6224 -0.3622 0.6939
vn 0.7170 -0.6066 0.3436
vn 0.3946 -0.7311 0.5566
vn 0.3638 -0.7120 0.6006
vn 0.6462 -0.6296 0.4312
vn 0.4244 -0.5027 0.7531
vn 0.2950 -0.6212 0.7260
vn 0.7790 -0.3610 0.5127
vn 0.3673 -0.8219 0.4353
vn 0.5336 -0.7364 0.4158
vn 0.3414 -0.7393 0.5803
vn 0.5545 -0.7213 0.4150
vn 0.1413 -0.7567 0.6383
vn 0.3092 -0.5505 0.7755
vn 0.7217 -0.5474 0.4237
vn 0.6384 -0.3120 0.7036
vn 0.6573 -0.4280 0.6204
vn 0.4053 -0.4484 0.7966
vn 0.5443 -0.3704 0.7527
vn 0.5741 -0.2448 0.7814
vn 0.5856 -0.2953 0.7549
vn 0.6163 -0.1945 0.7631
vn 0.6076 -0.1119 0.7863
vn 0.6477 0.0806 0.7576
vn 0.3727 -0.8830 0.2854
vn 0.4407 -0.8335 0.3334
vn 0.0471 -0.9034 0.4262
vn 0.1168 -0.8509 0.5122
vn 0.1123 -0.9269 0.3581
vn -0.1445 -0.8966 0.4186
vn -0.1191 -0.8840 0.4521
vn 0.4734 -0.7976 0.3737
vn 0.1236 -0.9286 0.3498
vn 0.3811 -0.8360 0.3947
vn 0.2119 -0.8345 0.5087
vn -0.0030 -0.8764 0.4815
vn 0.4545 -0.8264 0.3324
vn 0.5538 -0.7751 0.3041
vn -0.0004 -0.8495 0.5276
vn 0.3584 -0.6820 0.6375
vn 0.2331 -0.6857 0.6896
vn 0.3753 -0.6976 0.6104
vn 0.1480 -0.8412 0.5201
vn 0.2394 -0.8411 0.4850
vn 0.4653 -0.7753 0.4270
vn 0.2747 -0.9112 0.3070
vn 0.1185 -0.7977 0.5913
vn 0.4220 -0.8856 0.1937
vn 0.3362 -0.9087 0.2475
vn 0.2036 -0.8558 0.4755
vn 0.1136 -0.9769 0.1810
vn -0.1110 -0.8946 0.4329
vn -0.2457 -0.8163 0.5228
vn 0.3779 -0.6353 0.6735
vn 0.1692 -0.9458 0.2773
vn -0.1070 -0.8201 0.5622
vn 0.3833 -0.7885 0.4810
vn 0.4812 -0.6936 0.5360
vn -0.1814 -0.7095 0.6809
vn -0.2828 -0.8406 0.4620
vn 0.3224 -0.7946 0.5145
vn 0.2159 -0.6637 0.7161
vn -0.1859 -0.7018 0.6877
vn -0.0290 -0.4501 0.8925
vn 0.3080 -0.8390 0.4485
vn 0.2034 -0.8057 0.5564
vn 0.1544 -0.8500 0.5037
vn 0.1571 -0.7815 0.6038
vn 0.5509 -0.1804 0.8148
vn 0.5921 -0.0035 0.8058
vn 0.6135 0.0850 0.7851
vn 0.5700 -0.1044 0.8150
vn 0.3423 -0.3289 0.8802
vn 0.4556 -0.3851 0.8026
vn 0.4725 -0.2506 0.8449
vn 0.4133 -0.1851 0.8916
vn 0.1967 -0.5720 0.7964
vn 0.4385 -0.3995 0.8050
vn 0.1642 -0.5178 0.8396
vn 0.2500 -0.5062 0.8254
vn 0.3759 -0.3759 0.8470
vn 0.5093 -0.3893 0.7675
vn 0.4978 -0.3168 0.8073
vn 0.4718 -0.3087 0.8259
vn 0.4863 -0.5619 0.6691
vn 0.5260 -0.4949 0.6917
vn 0.3569 -0.3904 0.8487
vn 0.3130 -0.5467 0.7766
vn 0.6613 -0.4338 0.6120
vn 0.6182 -0.2770 0.7356
vn 0.5377 -0.2964 0.7893
vn 0.4164 -0.3255 0.8489
vn 0.0646 -0.8813 0.4681
vn 0.1059 -0.7574 0.6444
vn 0.6040 -0.3527 0.7147
vn 0.5798 -0.4900 0.6510
vn 0.2417 -0.5362 0.8088
vn 0.2277 -0.5772 0.7842
vn 0.0847 -0.5257 0.8465
vn 0.3507 -0.4816 0.8031
vn 0.2715 -0.4996 0.8226
vn 0.1276 -0.4637 0.8768
vn 0.2427 -0.4490 0.8600
vn 0.0210 -0.5596 0.8285
vn 0.4504 -0.4821 0.7515
vn -0.0330 -0.5947 0.8033
vn 0.0221 -0.6687 0.7432
vn 0.3921 -0.6144 0.6847
vn 0.2684 -0.3908 0.8805
vn 0.2195 -0.4201 0.8805
vn 0.2035 -0.4552 0.8668
vn 0.2720 -0.4401 0.8557
vn 0.2409 -0.4545 0.8576
vn 0.0970 -0.4893 0.8667
vn 0.1534 -0.4382 0.8857
vn 0.2031 -0.4504 0.8694
vn 0.2563 -0.5428 0.7998
vn 0.1751 -0.4977 0.8495
vn 0.2269 -0.5142 0.8271
vn 0.2271 -0.4299 0.8739
vn 0.2515 -0.4521 0.8557
vn 0.0007 -0.6684 0.7438
vn 0.3449 -0.6438 0.6831
vn 0.3244 -0.5598 0.7625
vn 0.3045 -0.3152 0.8989
vn 0.3740 -0.1746 0.9109
vn 0.3222 -0.1736 0.9306
vn 0.2629 -0.3165 0.9114
vn 0.4523 0.0422 0.8909
vn 0.4864 0.2131 0.8473
vn 0.4178 0.2324 0.8783
vn 0.3896 0.0557 0.9193
vn 0.2780 0.0166 0.9604
vn 0.3149 0.0435 0.9481
vn 0.5648 0.1341 0.8143
vn 0.5308 0.1775 0.8287
vn 0.4933 0.0170 0.8697
vn 0.5302 -0.0340 0.8472
vn 0.2238 -0.0238 0.9743
vn 0.2547 -0.0110 0.9670
vn 0.3086 -0.2985 0.9031
vn 0.2645 -0.2026 0.9429
vn 0.2206 -0.2167 0.9510
vn 0.2310 -0.3536 0.9064
vn 0.1036 0.0073 0.9946
vn 0.1775 -0.0134 0.9840
vn 0.2615 -0.2058 0.9430
vn 0.2678 -0.3038 0.9143
vn 0.2427 -0.3005 0.9224
vn 0.2468 -0.1993 0.9484
vn 0.4470 -0.8945 0.0063
vn 0.1883 -0.9799 0.0652
vn 0.5842 -0.7753 0.2401
vn 0.2226 -0.9740 0.0429
vn 0.1628 -0.9855 0.0475
vn 0.2570 -0.9649 -0.0544
vn 0.2668 -0.9589 0.0965
vn 0.3237 -0.9161 0.2366
vn -0.0350 -0.9619 0.2712
vn 0.2590 -0.9262 0.2740
vn 0.0086 -0.9803 0.1971
vn -0.0277 -0.9862 0.1632
vn -0.2942 -0.8854 0.3600
vn 0.2071 -0.8057 0.5549
vn -0.1008 -0.9798 0.1730
vn -0.0322 -0.9421 0.3339
vn -0.2628 -0.9106 0.3190
vn -0.0889 -0.9672 0.2379
vn 0.0857 -0.9300 0.3575
vn 0.1071 -0.9290 0.3542
vn -0.5177 -0.7910 0.3261
vn -0.4972 -0.8133 0.3022
vn 0.7497 -0.4864 0.4488
vn -0.1287 -0.9243 0.3593
vn 0.0391 -0.9828 0.1806
vn -0.2189 -0.9289 0.2987
vn 0.2819 -0.6527 0.7033
vn 0.2653 -0.5523 0.7903
vn -0.0655 -0.7035 0.7076
vn 0.7671 -0.4697 0.4370
vn 0.3027 -0.6546 0.6927
vn 0.0332 -0.7211 0.6921
vn -0.2634 -0.8554 0.4459
vn 0.3597 -0.6257 0.6922
vn -0.2780 -0.9442 0.1766
vn -0.0100 -0.5608 0.8279
vn -0.0232 -0.4345 0.9004
vn 0.1987 -0.8172 0.5410
vn -0.2614 -0.9614 0.0860
vn 0.1239 -0.5895 0.7982
vn 0.3668 -0.5610 0.7421
vn 0.4896 -0.8600 0.1442
vn 0.5289 -0.7408 0.4141
vn 0.5596 -0.6211 0.5488
vn -0.3205 -0.6902 0.6488
vn -0.2031 -0.8023 0.5613
vn 0.2656 -0.1769 0.9477
vn 0.2438 -0.1851 0.9520
vn 0.2212 -0.3161 0.9226
vn 0.2194 -0.3227 0.9207
vn -0.0694 -0.6746 0.7349
vn 0.0834 -0.6764 0.7318
vn 0.4029 -0.6353 0.6589
vn 0.5058 -0.5744 0.6436
vn -0.2822 -0.6935 0.6629
vn 0.0882 -0.6592 0.7468
vn 0.2303 -0.7179 0.6569
vn -0.1903 -0.7620 0.6190
vn -0.4244 -0.6603 0.6196
vn -0.5018 -0.6670 0.5507
vn 0.2020 -0.7259 0.6574
vn 0.1777 -0.7006 0.6911
vn 0.4597 -0.4064 0.7897
vn 0.3607 -0.3916 0.8465
vn 0.1332 -0.4683 0.8735
vn -0.0283 -0.6150 0.7880
vn 0.3999 -0.3378 0.8520
vn 0.1604 -0.4341 0.8865
vn 0.2217 -0.5347 0.8154
vn 0.3778 -0.4488 0.8099
vn -0.0434 -0.9945 0.0949
vn -0.0710 0.8110 0.5808
vn -0.0964 0.8664 0.4899
vn 0.0037 0.8496 0.5275
vn -0.0518 0.0436 0.9977
vn -0.0103 0.0213 0.9997
vn -0.1809 -0.4231 0.8878
vn -0.2045 -0.3863 0.8994
vn -0.0423 -0.2414 0.9695
vn -0.1806 -0.2253 0.9574
vn -0.2630 -0.9562 0.1282
vn -0.1063 -0.9720 0.2097
vn -0.2984 -0.8592 0.4157
vn -0.6437 -0.3022 0.7031
vn -0.6224 -0.5635 0.5433
vn -0.4791 -0.7986 0.3644
vn -0.4909 -0.6353 0.5961
vn -0.2269 -0.7597 0.6094
vn -0.6056 -0.6103 0.5107
vn -0.2957 -0.7017 0.6482
vn -0.7715 -0.3027 0.5597
vn -0.6740 -0.4948 0.5486
vn -0.6050 -0.5684 0.5577
vn -0.6572 -0.5225 0.5433
vn -0.5961 -0.6908 0.4092
vn -0.4899 -0.7758 0.3977
vn -0.4595 -0.8464 0.2692
vn -0.3721 -0.9057 0.2030
vn -0.3356 -0.9260 0.1729
vn -0.3947 -0.8892 0.2312
vn -0.3903 -0.9029 0.1802
vn -0.5782 -0.7039 0.4127
vn -0.4382 -0.8331 0.3376
vn -0.4192 -0.8713 0.2552
vn -0.4602 -0.7768 0.4300
vn -0.4794 -0.7257 0.4935
vn -0.4062 -0.8484 0.3395
vn -0.3465 -0.9009 0.2615
vn -0.3970 -0.8827 0.2515
vn -0.2213 -0.9605 0.1686
vn -0.1942 -0.9615 0.1944
vn -0.3085 -0.9384 0.1558
vn -0.4809 -0.5740 0.6628
vn -0.6929 -0.4810 0.5371
vn -0.4536 -0.6802 0.5758
vn -0.3906 -0.7568 0.5241
vn -0.7305 -0.3313 0.5972
vn -0.6484 -0.3123 0.6943
vn -0.4620 -0.7102 0.5313
vn -0.5647 -0.4078 0.7175
vn -0.7360 -0.4532 0.5029
vn -0.2702 -0.9052 0.3280
vn -0.6391 -0.4736 0.6060
vn -0.5312 -0.5758 0.6215
vn -0.4078 -0.4933 0.7683
vn -0.3782 -0.5070 0.7745
vn -0.6202 -0.2326 0.7492
vn 0.0508 -0.9715 0.2313
vn -0.7206 -0.2948 0.6276
vn -0.4520 -0.5292 0.7181
vn -0.2871 -0.6593 0.6949
vn -0.3206 -0.7723 0.5484
vn -0.0500 -0.9393 0.3395
vn -0.7434 -0.0655 0.6657
vn -0.5571 -0.4377 0.7057
vn -0.6270 -0.4021 0.6673
vn -0.5720 -0.2876 0.7682
vn -0.5370 -0.3188 0.7810
vn -0.3217 -0.7568 0.5690
vn -0.2770 -0.7499 0.6007
vn -0.1891 -0.8813 0.4331
vn -0.3576 -0.7335 0.5780
vn -0.3533 -0.7661 0.5369
vn -0.0806 -0.8222 0.5634
vn -0.2194 -0.7519 0.6217
vn -0.3990 -0.7691 0.4992
vn 0.1265 -0.8133 0.5679
vn -0.3752 -0.5490 0.7469
vn -0.1726 -0.8444 0.5072
vn -0.4174 -0.5531 0.7210
vn -0.2495 -0.8236 0.5094
vn -0.3821 -0.6656 0.6411
vn -0.7748 -0.3321 0.5380
vn -0.0229 -0.8426 0.5380
vn -0.5204 -0.3569 0.7758
vn -0.0408 -0.7121 0.7008
vn -0.0734 -0.7812 0.6199
vn -0.1908 -0.8234 0.5344
vn -0.2487 -0.7038 0.6654
vn -0.1596 -0.8900 0.4271
vn 0.0266 -0.9003 0.4345
vn -0.3931 -0.8537 0.3415
vn -0.3412 -0.8127 0.4724
vn 0.0819 -0.9762 0.2010
vn -0.1565 -0.9870 0.0362
vn -0.1091 -0.7673 0.6320
vn -0.6552 -0.2816 0.7010
vn -0.1195 -0.5235 0.8436
vn 0.1195 -0.7280 0.6751
vn -0.2445 -0.8981 0.3655
vn -0.5024 -0.6608 0.5576
vn 0.0337 -0.4380 0.8984
vn 0.0236 -0.9065 0.4216
vn -0.3179 -0.7311 0.6036
vn -0.5470 -0.2909 0.7850
vn -0.5270 -0.6515 0.5457
vn -0.4118 -0.7888 0.4563
vn -0.3371 -0.8255 0.4527
vn -0.5784 -0.2090 0.7885
vn -0.5740 -0.1195 0.8101
vn -0.3281 -0.4304 0.8409
vn -0.4388 -0.2456 0.8644
vn -0.4395 -0.3034 0.8455
vn -0.3837 -0.4518 0.8054
vn -0.2553 -0.2842 0.9242
vn -0.3944 -0.6050 0.6917
vn -0.4451 -0.4812 0.7552
vn -0.2063 -0.5971 0.7752
vn -0.3436 -0.5052 0.7917
vn -0.4934 -0.3022 0.8156
vn -0.5547 -0.3236 0.7666
vn -0.4334 -0.4763 0.7650
vn -0.4824 -0.5710 0.6643
vn -0.4291 -0.3936 0.8130
vn -0.3726 -0.3958 0.8393
vn -0.5345 -0.4079 0.7402
vn -0.5091 -0.5048 0.6971
vn -0.4569 -0.5198 0.7219
vn -0.5434 -0.3377 0.7685
vn -0.5118 -0.4687 0.7199
vn -0.5385 -0.6086 0.5828
vn -0.3918 -0.8141 0.4286
vn -0.2380 -0.7381 0.6313
vn -0.5113 -0.4237 0.7477
vn -0.0686 -0.5430 0.8369
vn -0.3868 -0.6313 0.6722
vn -0.1804 -0.4396 0.8799
vn -0.1920 -0.5094 0.8388
vn -0.4601 -0.6106 0.6446
vn -0.0603 -0.4988 0.8646
vn -0.1491 -0.5197 0.8412
vn -0.1823 -0.5608 0.8076
vn -0.3059 -0.3538 0.8839
vn -0.3480 -0.6341 0.6906
vn -0.1145 -0.6420 0.7581
vn -0.1819 -0.4162 0.8909
vn -0.2586 -0.3695 0.8925
vn -0.2207 -0.5238 0.8228
vn -0.2029 -0.4425 0.8735
vn -0.1852 -0.4941 0.8495
vn -0.1649 -0.5653 0.8083
vn -0.1950 -0.3352 0.9217
vn -0.3059 -0.3542 0.8837
vn -0.2030 -0.4968 0.8438
vn -0.5010 -0.3513 0.7910
vn -0.3038 -0.5350 0.7883
vn -0.1500 -0.4681 0.8708
vn -0.1089 -0.5542 0.8252
vn -0.2531 -0.7325 0.6320
vn -0.3500 -0.6686 0.6562
vn -0.4617 -0.3163 0.8287
vn -0.1269 -0.5064 0.8529
vn -0.3199 -0.4182 0.8502
vn -0.2884 -0.3610 0.8868
vn -0.3531 -0.1720 0.9196
vn -0.4071 -0.1879 0.8938
vn -0.4831 0.0537 0.8739
vn -0.4178 0.0679 0.9060
vn -0.2844 0.0370 0.9580
vn -0.3387 0.0598 0.9390
vn -0.5516 -0.0372 0.8333
vn -0.5233 0.0189 0.8519
vn -0.2129 0.0244 0.9768
vn -0.2462 0.0123 0.9691
vn -0.2839 -0.3046 0.9092
vn -0.2257 -0.3295 0.9168
vn -0.2116 -0.2034 0.9559
vn -0.2299 -0.1594 0.9601
vn -0.1493 0.0557 0.9872
vn -0.1085 0.0572 0.9925
vn -0.2757 -0.1645 0.9471
vn -0.2477 -0.1933 0.9494
vn -0.2665 -0.2744 0.9239
vn -0.2747 -0.2769 0.9208
vn -0.2684 -0.9427 0.1984
vn -0.1973 -0.9553 0.2201
vn -0.1923 -0.9718 0.1366
vn -0.2492 -0.8730 0.4193
vn -0.2169 -0.9223 0.3197
vn -0.0485 -0.9979 -0.0420
vn 0.0924 -0.9729 0.2119
vn 0.0084 -0.9682 0.2501
vn 0.0724 -0.9522 0.2967
vn 0.1179 -0.9647 0.2353
vn -0.0714 -0.9781 0.1957
vn 0.0806 -0.9399 0.3317
vn 0.1070 -0.9883 0.1092
vn -0.0578 -0.9375 0.3431
vn 0.2932 -0.9049 0.3085
vn 0.4614 -0.8357 0.2979
vn -0.5196 -0.7178 0.4635
vn -0.4540 -0.8080 0.3755
vn -0.0547 -0.7958 0.6031
vn -0.1113 -0.8922 0.4377
vn 0.1165 -0.8591 0.4983
vn -0.1958 -0.5707 0.7975
vn -0.4220 -0.8019 0.4230
vn 0.2519 -0.8265 0.5035
vn 0.0847 -0.6542 0.7515
vn -0.0356 -0.7125 0.7008
vn -0.0644 -0.6293 0.7745
vn -0.0936 -0.7338 0.6729
vn -0.3011 -0.7403 0.6010
vn -0.4261 -0.9012 0.0794
vn 0.1498 -0.8049 0.5742
vn 0.3126 -0.7949 0.5200
vn -0.1596 -0.8695 0.4674
vn -0.0187 -0.9294 0.3686
vn 0.0979 -0.9611 0.2582
vn -0.6273 -0.6182 0.4736
vn 0.1683 -0.4610 0.8713
vn -0.0555 -0.9270 0.3710
vn -0.5870 -0.7481 0.3095
vn -0.1189 -0.6993 0.7048
vn -0.5435 -0.6467 0.5352
vn -0.2893 -0.1739 0.9413
vn -0.2665 -0.3143 0.9112
vn -0.2248 -0.3050 0.9254
vn -0.2561 -0.1814 0.9495
vn -0.0679 -0.4604 0.8851
vn -0.3565 -0.5112 0.7821
vn -0.4877 -0.6490 0.5838
vn -0.1246 -0.6991 0.7041
vn 0.4647 -0.5227 0.7148
vn 0.1215 -0.7097 0.6940
vn -0.0078 -0.7020 0.7121
vn -0.1179 -0.5970 0.7935
vn 0.6492 -0.5704 0.5031
vn -0.2743 -0.6752 0.6848
vn -0.5073 -0.6986 0.5046
vn 0.5970 -0.6407 0.4828
vn 0.1731 -0.5135 0.8405
vn -0.6203 -0.4483 0.6436
vn -0.5893 -0.4973 0.6367
vn 0.1221 -0.5613 0.8186
vn -0.4360 -0.3703 0.8202
vn -0.3825 -0.4473 0.8085
vn -0.3895 -0.5460 0.7417
vn -0.2459 -0.3515 0.9033
vn -0.0815 -0.9819 0.1712
vn 0.0988 -0.9910 0.0901
vt 0.000000 0.000000
s 0
usemtl defaultMat
f 158/1/1 155/1/1 2/1/1 156/1/1
f 157/1/2 158/1/2 156/1/2 4/1/2
f 5/1/3 159/1/3 162/1/3 161/1/3
f 159/1/4 4/1/4 156/1/4 162/1/4
f 162/1/5 156/1/5 2/1/5 160/1/5
f 161/1/6 162/1/6 160/1/6 1/1/6
f 6/1/7 164/1/7 167/1/7 163/1/7
f 167/1/8 165/1/8 9/1/8 166/1/8
f 163/1/9 167/1/9 166/1/9 7/1/9
f 10/1/10 168/1/10 171/1/10 170/1/10
f 168/1/11 9/1/11 165/1/11 171/1/11
f 171/1/12 165/1/12 8/1/12 169/1/12
f 170/1/13 171/1/13 169/1/13 11/1/13
f 10/1/14 170/1/14 175/1/14 174/1/14
f 170/1/15 11/1/15 172/1/15 175/1/15
f 175/1/16 172/1/16 12/1/16 173/1/16
f 174/1/17 175/1/17 173/1/17 13/1/17
f 11/1/18 176/1/18 179/1/18 172/1/18
f 176/1/19 14/1/19 177/1/19 179/1/19
f 179/1/20 177/1/20 15/1/20 178/1/20
f 172/1/21 179/1/21 178/1/21 12/1/21
f 8/1/22 180/1/22 182/1/22 169/1/22
f 180/1/23 16/1/23 181/1/23 182/1/23
f 182/1/24 181/1/24 14/1/24 176/1/24
f 169/1/25 182/1/25 176/1/25 11/1/25
f 185/1/26 183/1/26 17/1/26 184/1/26
f 181/1/27 185/1/27 184/1/27 14/1/27
f 14/1/28 184/1/28 188/1/28 177/1/28
f 188/1/29 186/1/29 18/1/29 187/1/29
f 177/1/30 188/1/30 187/1/30 15/1/30
f 19/1/31 189/1/31 192/1/31 191/1/31
f 189/1/32 20/1/32 190/1/32 192/1/32
f 192/1/33 190/1/33 15/1/33 187/1/33
f 191/1/34 192/1/34 187/1/34 18/1/34
f 18/1/35 193/1/35 196/1/35 191/1/35
f 196/1/36 194/1/36 22/1/36 195/1/36
f 191/1/37 196/1/37 195/1/37 19/1/37
f 200/1/38 199/1/38 23/1/38 197/1/38
f 183/1/39 200/1/39 197/1/39 17/1/39
f 6/1/40 202/1/40 203/1/40 164/1/40
f 203/1/41 201/1/41 16/1/41 180/1/41
f 164/1/42 203/1/42 180/1/42 8/1/42
f 12/1/43 204/1/43 207/1/43 173/1/43
f 204/1/44 24/1/44 205/1/44 207/1/44
f 207/1/45 205/1/45 25/1/45 206/1/45
f 173/1/46 207/1/46 206/1/46 13/1/46
f 12/1/47 178/1/47 210/1/47 204/1/47
f 178/1/48 15/1/48 190/1/48 210/1/48
f 210/1/49 190/1/49 20/1/49 208/1/49
f 204/1/50 210/1/50 208/1/50 24/1/50
f 13/1/51 206/1/51 213/1/51 212/1/51
f 206/1/52 25/1/52 209/1/52 213/1/52
f 213/1/53 209/1/53 26/1/53 211/1/53
f 212/1/54 213/1/54 211/1/54 27/1/54
f 28/1/55 214/1/55 216/1/55 215/1/55
f 214/1/56 10/1/56 174/1/56 216/1/56
f 216/1/57 174/1/57 13/1/57 212/1/57
f 215/1/58 216/1/58 212/1/58 27/1/58
f 29/1/59 217/1/59 220/1/59 219/1/59
f 217/1/60 28/1/60 215/1/60 220/1/60
f 220/1/61 215/1/61 27/1/61 218/1/61
f 219/1/62 220/1/62 218/1/62 30/1/62
f 31/1/63 221/1/63 223/1/63 222/1/63
f 221/1/64 9/1/64 168/1/64 223/1/64
f 222/1/65 223/1/65 214/1/65 28/1/65
f 32/1/66 224/1/66 226/1/66 225/1/66
f 224/1/67 31/1/67 222/1/67 226/1/67
f 226/1/68 222/1/68 28/1/68 217/1/68
f 225/1/69 226/1/69 217/1/69 29/1/69
f 33/1/70 227/1/70 229/1/70 228/1/70
f 227/1/71 30/1/71 218/1/71 229/1/71
f 229/1/72 218/1/72 27/1/72 211/1/72
f 228/1/73 229/1/73 211/1/73 26/1/73
f 34/1/74 230/1/74 233/1/74 232/1/74
f 230/1/75 30/1/75 227/1/75 233/1/75
f 233/1/76 227/1/76 33/1/76 231/1/76
f 232/1/77 233/1/77 231/1/77 35/1/77
f 35/1/78 231/1/78 235/1/78 234/1/78
f 31/1/79 236/1/79 238/1/79 221/1/79
f 236/1/80 36/1/80 237/1/80 238/1/80
f 238/1/81 237/1/81 7/1/81 166/1/81
f 221/1/82 238/1/82 166/1/82 9/1/82
f 239/1/83 36/1/83 240/1/83 243/1/83
f 243/1/84 240/1/84 37/1/84 241/1/84
f 242/1/85 243/1/85 241/1/85 38/1/85
f 38/1/86 245/1/86 247/1/86 244/1/86
f 245/1/87 39/1/87 246/1/87 247/1/87
f 40/1/88 248/1/88 250/1/88 249/1/88
f 249/1/89 250/1/89 246/1/89 39/1/89
f 41/1/90 251/1/90 254/1/90 253/1/90
f 251/1/91 42/1/91 252/1/91 254/1/91
f 254/1/92 252/1/92 40/1/92 249/1/92
f 253/1/93 254/1/93 249/1/93 39/1/93
f 43/1/94 255/1/94 258/1/94 257/1/94
f 255/1/95 44/1/95 256/1/95 258/1/95
f 258/1/96 256/1/96 42/1/96 251/1/96
f 257/1/97 258/1/97 251/1/97 41/1/97
f 41/1/98 259/1/98 262/1/98 257/1/98
f 259/1/99 37/1/99 260/1/99 262/1/99
f 262/1/100 260/1/100 32/1/100 261/1/100
f 257/1/101 262/1/101 261/1/101 43/1/101
f 245/1/102 38/1/102 241/1/102 263/1/102
f 263/1/103 241/1/103 37/1/103 259/1/103
f 253/1/104 263/1/104 259/1/104 41/1/104
f 248/1/105 40/1/105 264/1/105 266/1/105
f 266/1/106 264/1/106 45/1/106 265/1/106
f 45/1/107 267/1/107 270/1/107 265/1/107
f 267/1/108 47/1/108 268/1/108 270/1/108
f 270/1/109 268/1/109 48/1/109 269/1/109
f 265/1/110 270/1/110 269/1/110 46/1/110
f 45/1/111 271/1/111 274/1/111 267/1/111
f 271/1/112 49/1/112 272/1/112 274/1/112
f 274/1/113 272/1/113 50/1/113 273/1/113
f 267/1/114 274/1/114 273/1/114 47/1/114
f 40/1/115 252/1/115 276/1/115 264/1/115
f 252/1/116 42/1/116 275/1/116 276/1/116
f 276/1/117 275/1/117 49/1/117 271/1/117
f 264/1/118 276/1/118 271/1/118 45/1/118
f 32/1/119 260/1/119 277/1/119 224/1/119
f 260/1/120 37/1/120 240/1/120 277/1/120
f 277/1/121 240/1/121 36/1/121 236/1/121
f 224/1/122 277/1/122 236/1/122 31/1/122
f 34/1/123 232/1/123 282/1/123 281/1/123
f 232/1/124 35/1/124 279/1/124 282/1/124
f 282/1/125 279/1/125 52/1/125 280/1/125
f 281/1/126 282/1/126 280/1/126 54/1/126
f 55/1/127 283/1/127 287/1/127 286/1/127
f 283/1/128 56/1/128 284/1/128 287/1/128
f 287/1/129 284/1/129 54/1/129 285/1/129
f 286/1/130 287/1/130 285/1/130 57/1/130
f 44/1/131 288/1/131 291/1/131 290/1/131
f 288/1/132 56/1/132 283/1/132 291/1/132
f 291/1/133 283/1/133 55/1/133 289/1/133
f 290/1/134 291/1/134 289/1/134 58/1/134
f 56/1/135 292/1/135 294/1/135 284/1/135
f 292/1/136 59/1/136 293/1/136 294/1/136
f 294/1/137 293/1/137 34/1/137 281/1/137
f 284/1/138 294/1/138 281/1/138 54/1/138
f 43/1/139 295/1/139 296/1/139 255/1/139
f 295/1/140 59/1/140 292/1/140 296/1/140
f 296/1/141 292/1/141 56/1/141 288/1/141
f 255/1/142 296/1/142 288/1/142 44/1/142
f 29/1/143 219/1/143 298/1/143 297/1/143
f 219/1/144 30/1/144 230/1/144 298/1/144
f 298/1/145 230/1/145 34/1/145 293/1/145
f 297/1/146 298/1/146 293/1/146 59/1/146
f 29/1/147 297/1/147 299/1/147 225/1/147
f 297/1/148 59/1/148 295/1/148 299/1/148
f 299/1/149 295/1/149 43/1/149 261/1/149
f 225/1/150 299/1/150 261/1/150 32/1/150
f 50/1/151 272/1/151 303/1/151 302/1/151
f 272/1/152 49/1/152 300/1/152 303/1/152
f 303/1/153 300/1/153 58/1/153 301/1/153
f 302/1/154 303/1/154 301/1/154 60/1/154
f 50/1/155 302/1/155 307/1/155 306/1/155
f 302/1/156 60/1/156 304/1/156 307/1/156
f 307/1/157 304/1/157 61/1/157 305/1/157
f 306/1/158 307/1/158 305/1/158 62/1/158
f 63/1/159 308/1/159 311/1/159 310/1/159
f 308/1/160 62/1/160 305/1/160 311/1/160
f 311/1/161 305/1/161 61/1/161 309/1/161
f 310/1/162 311/1/162 309/1/162 64/1/162
f 65/1/163 312/1/163 315/1/163 314/1/163
f 312/1/164 66/1/164 313/1/164 315/1/164
f 315/1/165 313/1/165 64/1/165 309/1/165
f 314/1/166 315/1/166 309/1/166 61/1/166
f 61/1/167 304/1/167 318/1/167 314/1/167
f 304/1/168 60/1/168 316/1/168 318/1/168
f 318/1/169 316/1/169 67/1/169 317/1/169
f 314/1/170 318/1/170 317/1/170 65/1/170
f 60/1/171 301/1/171 320/1/171 316/1/171
f 301/1/172 58/1/172 289/1/172 320/1/172
f 320/1/173 289/1/173 55/1/173 319/1/173
f 316/1/174 320/1/174 319/1/174 67/1/174
f 42/1/175 256/1/175 321/1/175 275/1/175
f 256/1/176 44/1/176 290/1/176 321/1/176
f 321/1/177 290/1/177 58/1/177 300/1/177
f 275/1/178 321/1/178 300/1/178 49/1/178
f 55/1/179 286/1/179 324/1/179 319/1/179
f 286/1/180 57/1/180 322/1/180 324/1/180
f 324/1/181 322/1/181 68/1/181 323/1/181
f 319/1/182 324/1/182 323/1/182 67/1/182
f 57/1/183 325/1/183 328/1/183 322/1/183
f 325/1/184 53/1/184 326/1/184 328/1/184
f 328/1/185 326/1/185 51/1/185 327/1/185
f 322/1/186 328/1/186 327/1/186 68/1/186
f 69/1/187 329/1/187 331/1/187 330/1/187
f 329/1/188 68/1/188 327/1/188 331/1/188
f 52/1/189 278/1/189 332/1/189 280/1/189
f 278/1/190 53/1/190 325/1/190 332/1/190
f 332/1/191 325/1/191 57/1/191 285/1/191
f 280/1/192 332/1/192 285/1/192 54/1/192
f 70/1/193 333/1/193 335/1/193 334/1/193
f 333/1/194 69/1/194 330/1/194 335/1/194
f 66/1/195 336/1/195 339/1/195 338/1/195
f 336/1/196 70/1/196 337/1/196 339/1/196
f 339/1/197 337/1/197 4/1/197 159/1/197
f 338/1/198 339/1/198 159/1/198 5/1/198
f 340/1/199 157/1/199 4/1/199 337/1/199
f 334/1/200 340/1/200 337/1/200 70/1/200
f 70/1/201 336/1/201 342/1/201 333/1/201
f 336/1/202 66/1/202 312/1/202 342/1/202
f 342/1/203 312/1/203 65/1/203 341/1/203
f 333/1/204 342/1/204 341/1/204 69/1/204
f 21/1/205 344/1/205 346/1/205 194/1/205
f 344/1/206 71/1/206 343/1/206 346/1/206
f 194/1/207 346/1/207 345/1/207 22/1/207
f 23/1/208 348/1/208 349/1/208 198/1/208
f 349/1/209 347/1/209 71/1/209 344/1/209
f 198/1/210 349/1/210 344/1/210 21/1/210
f 23/1/211 199/1/211 350/1/211 348/1/211
f 352/1/212 74/1/212 353/1/212 354/1/212
f 74/1/213 355/1/213 357/1/213 353/1/213
f 355/1/214 75/1/214 356/1/214 357/1/214
f 73/1/215 351/1/215 360/1/215 359/1/215
f 351/1/216 72/1/216 356/1/216 360/1/216
f 360/1/217 356/1/217 75/1/217 358/1/217
f 359/1/218 360/1/218 358/1/218 76/1/218
f 73/1/219 359/1/219 364/1/219 363/1/219
f 359/1/220 76/1/220 361/1/220 364/1/220
f 364/1/221 361/1/221 77/1/221 362/1/221
f 363/1/222 364/1/222 362/1/222 78/1/222
f 76/1/223 365/1/223 368/1/223 361/1/223
f 365/1/224 80/1/224 366/1/224 368/1/224
f 368/1/225 366/1/225 79/1/225 367/1/225
f 361/1/226 368/1/226 367/1/226 77/1/226
f 81/1/227 369/1/227 371/1/227 370/1/227
f 369/1/228 80/1/228 365/1/228 371/1/228
f 371/1/229 365/1/229 76/1/229 358/1/229
f 370/1/230 371/1/230 358/1/230 75/1/230
f 63/1/231 372/1/231 375/1/231 374/1/231
f 372/1/232 82/1/232 373/1/232 375/1/232
f 375/1/233 373/1/233 80/1/233 369/1/233
f 374/1/234 375/1/234 369/1/234 81/1/234
f 62/1/235 308/1/235 378/1/235 377/1/235
f 308/1/236 63/1/236 374/1/236 378/1/236
f 378/1/237 374/1/237 81/1/237 376/1/237
f 377/1/238 378/1/238 376/1/238 83/1/238
f 74/1/239 379/1/239 380/1/239 355/1/239
f 379/1/240 83/1/240 376/1/240 380/1/240
f 380/1/241 376/1/241 81/1/241 370/1/241
f 355/1/242 380/1/242 370/1/242 75/1/242
f 48/1/243 268/1/243 382/1/243 352/1/243
f 268/1/244 47/1/244 381/1/244 382/1/244
f 382/1/245 381/1/245 83/1/245 379/1/245
f 352/1/246 382/1/246 379/1/246 74/1/246
f 47/1/247 273/1/247 383/1/247 381/1/247
f 273/1/248 50/1/248 306/1/248 383/1/248
f 383/1/249 306/1/249 62/1/249 377/1/249
f 381/1/250 383/1/250 377/1/250 83/1/250
f 68/1/251 329/1/251 384/1/251 323/1/251
f 329/1/252 69/1/252 341/1/252 384/1/252
f 384/1/253 341/1/253 65/1/253 317/1/253
f 323/1/254 384/1/254 317/1/254 67/1/254
f 63/1/255 310/1/255 387/1/255 372/1/255
f 310/1/256 64/1/256 385/1/256 387/1/256
f 387/1/257 385/1/257 84/1/257 386/1/257
f 372/1/258 387/1/258 386/1/258 82/1/258
f 85/1/259 388/1/259 391/1/259 390/1/259
f 388/1/260 82/1/260 386/1/260 391/1/260
f 391/1/261 386/1/261 84/1/261 389/1/261
f 390/1/262 391/1/262 389/1/262 3/1/262
f 85/1/263 392/1/263 393/1/263 388/1/263
f 392/1/264 79/1/264 366/1/264 393/1/264
f 393/1/265 366/1/265 80/1/265 373/1/265
f 388/1/266 393/1/266 373/1/266 82/1/266
f 84/1/267 394/1/267 396/1/267 389/1/267
f 394/1/268 5/1/268 161/1/268 396/1/268
f 396/1/269 161/1/269 1/1/269 395/1/269
f 389/1/270 396/1/270 395/1/270 3/1/270
f 66/1/271 338/1/271 397/1/271 313/1/271
f 338/1/272 5/1/272 394/1/272 397/1/272
f 397/1/273 394/1/273 84/1/273 385/1/273
f 313/1/274 397/1/274 385/1/274 64/1/274
f 398/1/275 399/1/275 363/1/275 78/1/275
f 87/1/276 401/1/276 403/1/276 402/1/276
f 402/1/277 403/1/277 400/1/277 86/1/277
f 405/1/278 404/1/278 87/1/278 402/1/278
f 406/1/279 88/1/279 407/1/279 408/1/279
f 408/1/280 407/1/280 2/1/280 155/1/280
f 89/1/281 409/1/281 411/1/281 410/1/281
f 409/1/282 1/1/282 160/1/282 411/1/282
f 411/1/283 160/1/283 2/1/283 407/1/283
f 410/1/284 411/1/284 407/1/284 88/1/284
f 90/1/285 412/1/285 416/1/285 415/1/285
f 412/1/286 91/1/286 413/1/286 416/1/286
f 416/1/287 413/1/287 93/1/287 414/1/287
f 94/1/288 417/1/288 420/1/288 419/1/288
f 417/1/289 95/1/289 418/1/289 420/1/289
f 420/1/290 418/1/290 92/1/290 414/1/290
f 419/1/291 420/1/291 414/1/291 93/1/291
f 94/1/292 421/1/292 424/1/292 417/1/292
f 421/1/293 97/1/293 422/1/293 424/1/293
f 424/1/294 422/1/294 96/1/294 423/1/294
f 417/1/295 424/1/295 423/1/295 95/1/295
f 95/1/296 423/1/296 428/1/296 427/1/296
f 423/1/297 96/1/297 425/1/297 428/1/297
f 428/1/298 425/1/298 99/1/298 426/1/298
f 427/1/299 428/1/299 426/1/299 98/1/299
f 418/1/300 95/1/300 427/1/300 431/1/300
f 431/1/301 427/1/301 98/1/301 429/1/301
f 430/1/302 431/1/302 429/1/302 100/1/302
f 100/1/303 429/1/303 435/1/303 434/1/303
f 429/1/304 98/1/304 432/1/304 435/1/304
f 435/1/305 432/1/305 101/1/305 433/1/305
f 426/1/306 99/1/306 436/1/306 438/1/306
f 438/1/307 436/1/307 102/1/307 437/1/307
f 432/1/308 438/1/308 437/1/308 101/1/308
f 439/1/309 102/1/309 436/1/309 441/1/309
f 441/1/310 436/1/310 99/1/310 440/1/310
f 102/1/311 439/1/311 444/1/311 443/1/311
f 443/1/312 444/1/312 442/1/312 103/1/312
f 437/1/313 102/1/313 443/1/313 445/1/313
f 90/1/314 415/1/314 448/1/314 447/1/314
f 415/1/315 92/1/315 430/1/315 448/1/315
f 448/1/316 430/1/316 100/1/316 446/1/316
f 96/1/317 422/1/317 451/1/317 450/1/317
f 422/1/318 97/1/318 449/1/318 451/1/318
f 96/1/319 450/1/319 452/1/319 425/1/319
f 425/1/320 452/1/320 440/1/320 99/1/320
f 97/1/321 453/1/321 455/1/321 449/1/321
f 453/1/322 104/1/322 454/1/322 455/1/322
f 105/1/323 456/1/323 458/1/323 457/1/323
f 456/1/324 104/1/324 453/1/324 458/1/324
f 458/1/325 453/1/325 97/1/325 421/1/325
f 457/1/326 458/1/326 421/1/326 94/1/326
f 106/1/327 459/1/327 462/1/327 461/1/327
f 459/1/328 107/1/328 460/1/328 462/1/328
f 462/1/329 460/1/329 104/1/329 456/1/329
f 461/1/330 462/1/330 456/1/330 105/1/330
f 108/1/331 463/1/331 465/1/331 464/1/331
f 463/1/332 105/1/332 457/1/332 465/1/332
f 465/1/333 457/1/333 94/1/333 419/1/333
f 464/1/334 465/1/334 419/1/334 93/1/334
f 109/1/335 466/1/335 468/1/335 467/1/335
f 466/1/336 106/1/336 461/1/336 468/1/336
f 468/1/337 461/1/337 105/1/337 463/1/337
f 467/1/338 468/1/338 463/1/338 108/1/338
f 470/1/339 454/1/339 104/1/339 460/1/339
f 469/1/340 470/1/340 460/1/340 107/1/340
f 110/1/341 471/1/341 473/1/341 472/1/341
f 472/1/342 473/1/342 469/1/342 107/1/342
f 108/1/343 464/1/343 476/1/343 475/1/343
f 464/1/344 93/1/344 413/1/344 476/1/344
f 476/1/345 413/1/345 91/1/345 474/1/345
f 475/1/346 476/1/346 474/1/346 111/1/346
f 479/1/347 480/1/347 478/1/347 111/1/347
f 115/1/348 482/1/348 484/1/348 483/1/348
f 116/1/349 485/1/349 488/1/349 487/1/349
f 485/1/350 114/1/350 482/1/350 488/1/350
f 488/1/351 482/1/351 115/1/351 486/1/351
f 487/1/352 488/1/352 486/1/352 117/1/352
f 118/1/353 489/1/353 492/1/353 491/1/353
f 489/1/354 116/1/354 487/1/354 492/1/354
f 492/1/355 487/1/355 117/1/355 490/1/355
f 491/1/356 492/1/356 490/1/356 119/1/356
f 116/1/357 489/1/357 496/1/357 495/1/357
f 489/1/358 118/1/358 493/1/358 496/1/358
f 496/1/359 493/1/359 109/1/359 494/1/359
f 495/1/360 496/1/360 494/1/360 112/1/360
f 114/1/361 485/1/361 497/1/361 481/1/361
f 485/1/362 116/1/362 495/1/362 497/1/362
f 497/1/363 495/1/363 112/1/363 477/1/363
f 481/1/364 497/1/364 477/1/364 113/1/364
f 500/1/365 498/1/365 120/1/365 499/1/365
f 483/1/366 500/1/366 499/1/366 115/1/366
f 120/1/367 498/1/367 504/1/367 503/1/367
f 498/1/368 121/1/368 501/1/368 504/1/368
f 504/1/369 501/1/369 123/1/369 502/1/369
f 503/1/370 504/1/370 502/1/370 122/1/370
f 120/1/371 503/1/371 508/1/371 507/1/371
f 503/1/372 122/1/372 505/1/372 508/1/372
f 508/1/373 505/1/373 125/1/373 506/1/373
f 507/1/374 508/1/374 506/1/374 124/1/374
f 115/1/375 499/1/375 510/1/375 486/1/375
f 499/1/376 120/1/376 507/1/376 510/1/376
f 510/1/377 507/1/377 124/1/377 509/1/377
f 486/1/378 510/1/378 509/1/378 117/1/378
f 109/1/379 467/1/379 511/1/379 494/1/379
f 467/1/380 108/1/380 475/1/380 511/1/380
f 511/1/381 475/1/381 111/1/381 478/1/381
f 494/1/382 511/1/382 478/1/382 112/1/382
f 110/1/383 512/1/383 514/1/383 471/1/383
f 512/1/384 126/1/384 513/1/384 514/1/384
f 127/1/385 515/1/385 519/1/385 518/1/385
f 515/1/386 129/1/386 516/1/386 519/1/386
f 519/1/387 516/1/387 126/1/387 517/1/387
f 518/1/388 519/1/388 517/1/388 128/1/388
f 119/1/389 520/1/389 523/1/389 522/1/389
f 520/1/390 130/1/390 521/1/390 523/1/390
f 523/1/391 521/1/391 127/1/391 518/1/391
f 522/1/392 523/1/392 518/1/392 128/1/392
f 128/1/393 517/1/393 526/1/393 525/1/393
f 517/1/394 126/1/394 512/1/394 526/1/394
f 526/1/395 512/1/395 110/1/395 524/1/395
f 525/1/396 526/1/396 524/1/396 131/1/396
f 118/1/397 491/1/397 528/1/397 527/1/397
f 491/1/398 119/1/398 522/1/398 528/1/398
f 528/1/399 522/1/399 128/1/399 525/1/399
f 527/1/400 528/1/400 525/1/400 131/1/400
f 106/1/401 529/1/401 530/1/401 459/1/401
f 529/1/402 131/1/402 524/1/402 530/1/402
f 530/1/403 524/1/403 110/1/403 472/1/403
f 459/1/404 530/1/404 472/1/404 107/1/404
f 106/1/405 466/1/405 531/1/405 529/1/405
f 466/1/406 109/1/406 493/1/406 531/1/406
f 531/1/407 493/1/407 118/1/407 527/1/407
f 529/1/408 531/1/408 527/1/408 131/1/408
f 125/1/409 532/1/409 535/1/409 506/1/409
f 532/1/410 132/1/410 533/1/410 535/1/410
f 535/1/411 533/1/411 130/1/411 534/1/411
f 506/1/412 535/1/412 534/1/412 124/1/412
f 125/1/413 536/1/413 539/1/413 532/1/413
f 536/1/414 134/1/414 537/1/414 539/1/414
f 539/1/415 537/1/415 133/1/415 538/1/415
f 532/1/416 539/1/416 538/1/416 132/1/416
f 135/1/417 540/1/417 543/1/417 542/1/417
f 540/1/418 136/1/418 541/1/418 543/1/418
f 543/1/419 541/1/419 133/1/419 537/1/419
f 542/1/420 543/1/420 537/1/420 134/1/420
f 137/1/421 544/1/421 547/1/421 546/1/421
f 544/1/422 133/1/422 541/1/422 547/1/422
f 547/1/423 541/1/423 136/1/423 545/1/423
f 546/1/424 547/1/424 545/1/424 138/1/424
f 133/1/425 544/1/425 550/1/425 538/1/425
f 544/1/426 137/1/426 548/1/426 550/1/426
f 550/1/427 548/1/427 139/1/427 549/1/427
f 538/1/428 550/1/428 549/1/428 132/1/428
f 132/1/429 549/1/429 552/1/429 533/1/429
f 549/1/430 139/1/430 551/1/430 552/1/430
f 552/1/431 551/1/431 127/1/431 521/1/431
f 533/1/432 552/1/432 521/1/432 130/1/432
f 117/1/433 509/1/433 553/1/433 490/1/433
f 509/1/434 124/1/434 534/1/434 553/1/434
f 553/1/435 534/1/435 130/1/435 520/1/435
f 490/1/436 553/1/436 520/1/436 119/1/436
f 127/1/437 551/1/437 556/1/437 515/1/437
f 551/1/438 139/1/438 554/1/438 556/1/438
f 556/1/439 554/1/439 140/1/439 555/1/439
f 515/1/440 556/1/440 555/1/440 129/1/440
f 129/1/441 555/1/441 559/1/441 558/1/441
f 555/1/442 140/1/442 557/1/442 559/1/442
f 141/1/443 560/1/443 562/1/443 561/1/443
f 561/1/444 562/1/444 557/1/444 140/1/444
f 513/1/445 126/1/445 516/1/445 563/1/445
f 563/1/446 516/1/446 129/1/446 558/1/446
f 142/1/447 564/1/447 566/1/447 565/1/447
f 565/1/448 566/1/448 560/1/448 141/1/448
f 138/1/449 567/1/449 570/1/449 569/1/449
f 567/1/450 89/1/450 410/1/450 570/1/450
f 570/1/451 410/1/451 88/1/451 568/1/451
f 569/1/452 570/1/452 568/1/452 142/1/452
f 564/1/453 142/1/453 568/1/453 571/1/453
f 571/1/454 568/1/454 88/1/454 406/1/454
f 142/1/455 565/1/455 573/1/455 569/1/455
f 565/1/456 141/1/456 572/1/456 573/1/456
f 573/1/457 572/1/457 137/1/457 546/1/457
f 569/1/458 573/1/458 546/1/458 138/1/458
f 103/1/459 442/1/459 578/1/459 577/1/459
f 578/1/460 576/1/460 144/1/460 575/1/460
f 577/1/461 578/1/461 575/1/461 145/1/461
f 580/1/462 579/1/462 143/1/462 574/1/462
f 576/1/463 580/1/463 574/1/463 144/1/463
f 585/1/464 586/1/464 584/1/464 148/1/464
f 146/1/465 587/1/465 589/1/465 582/1/465
f 587/1/466 149/1/466 588/1/466 589/1/466
f 589/1/467 588/1/467 148/1/467 584/1/467
f 146/1/468 590/1/468 592/1/468 587/1/468
f 590/1/469 78/1/469 362/1/469 592/1/469
f 592/1/470 362/1/470 77/1/470 591/1/470
f 587/1/471 592/1/471 591/1/471 149/1/471
f 149/1/472 591/1/472 595/1/472 594/1/472
f 591/1/473 77/1/473 367/1/473 595/1/473
f 595/1/474 367/1/474 79/1/474 593/1/474
f 594/1/475 595/1/475 593/1/475 150/1/475
f 151/1/476 596/1/476 598/1/476 597/1/476
f 596/1/477 148/1/477 588/1/477 598/1/477
f 598/1/478 588/1/478 149/1/478 594/1/478
f 597/1/479 598/1/479 594/1/479 150/1/479
f 135/1/480 599/1/480 602/1/480 601/1/480
f 599/1/481 151/1/481 597/1/481 602/1/481
f 602/1/482 597/1/482 150/1/482 600/1/482
f 601/1/483 602/1/483 600/1/483 152/1/483
f 134/1/484 603/1/484 605/1/484 542/1/484
f 603/1/485 153/1/485 604/1/485 605/1/485
f 605/1/486 604/1/486 151/1/486 599/1/486
f 542/1/487 605/1/487 599/1/487 135/1/487
f 147/1/488 585/1/488 607/1/488 606/1/488
f 585/1/489 148/1/489 596/1/489 607/1/489
f 607/1/490 596/1/490 151/1/490 604/1/490
f 606/1/491 607/1/491 604/1/491 153/1/491
f 123/1/492 583/1/492 609/1/492 502/1/492
f 583/1/493 147/1/493 606/1/493 609/1/493
f 609/1/494 606/1/494 153/1/494 608/1/494
f 502/1/495 609/1/495 608/1/495 122/1/495
f 122/1/496 608/1/496 610/1/496 505/1/496
f 608/1/497 153/1/497 603/1/497 610/1/497
f 610/1/498 603/1/498 134/1/498 536/1/498
f 505/1/499 610/1/499 536/1/499 125/1/499
f 140/1/500 554/1/500 611/1/500 561/1/500
f 554/1/501 139/1/501 548/1/501 611/1/501
f 611/1/502 548/1/502 137/1/502 572/1/502
f 561/1/503 611/1/503 572/1/503 141/1/503
f 135/1/504 601/1/504 614/1/504 540/1/504
f 601/1/505 152/1/505 612/1/505 614/1/505
f 614/1/506 612/1/506 154/1/506 613/1/506
f 540/1/507 614/1/507 613/1/507 136/1/507
f 85/1/508 390/1/508 617/1/508 616/1/508
f 390/1/509 3/1/509 615/1/509 617/1/509
f 617/1/510 615/1/510 154/1/510 612/1/510
f 616/1/511 617/1/511 612/1/511 152/1/511
f 85/1/512 616/1/512 618/1/512 392/1/512
f 616/1/513 152/1/513 600/1/513 618/1/513
f 618/1/514 600/1/514 150/1/514 593/1/514
f 392/1/515 618/1/515 593/1/515 79/1/515
f 154/1/516 615/1/516 620/1/516 619/1/516
f 615/1/517 3/1/517 395/1/517 620/1/517
f 620/1/518 395/1/518 1/1/518 409/1/518
f 619/1/519 620/1/519 409/1/519 89/1/519
f 138/1/520 545/1/520 621/1/520 567/1/520
f 545/1/521 136/1/521 613/1/521 621/1/521
f 621/1/522 613/1/522 154/1/522 619/1/522
f 567/1/523 621/1/523 619/1/523 89/1/523
f 398/1/524 78/1/524 590/1/524 622/1/524
f 622/1/525 590/1/525 146/1/525 581/1/525
