# Blender 5.1.0
# www.blender.org
mtllib Upper Right eyelid.mtl
o Upper_Right_eyelid
v -0.376632 0.839410 1.442500
v -0.452585 0.877402 1.414579
v -0.299883 0.790329 1.458809
v -0.311730 0.728795 1.434905
v -0.382838 0.775604 1.430454
v -0.322509 0.688176 1.397399
v -0.388019 0.729219 1.401576
v -0.455897 0.815012 1.412491
v -0.528401 0.843871 1.385060
v -0.526530 0.904424 1.378913
v -0.529310 0.790595 1.378364
v -0.458300 0.764259 1.395205
v -0.599950 0.806410 1.350249
v -0.601818 0.861737 1.351284
v -0.593995 0.758583 1.336036
v -0.526116 0.746284 1.356614
v -0.457794 0.724329 1.365712
v -0.601767 0.921884 1.340641
v -0.679622 0.929519 1.297024
v -0.676315 0.868476 1.310551
v -0.391597 0.693555 1.366192
v -0.332464 0.655247 1.361463
v -0.341976 0.625308 1.328709
v -0.395626 0.661086 1.333479
v -0.456361 0.690077 1.334376
v -0.269140 0.643893 1.389659
v -0.283124 0.614107 1.354099
v -0.296738 0.586355 1.321954
v -0.752562 0.581494 1.146221
v -0.707123 0.594605 1.174927
v -0.657946 0.604755 1.201962
v -0.721015 0.625784 1.186032
v -0.670570 0.636850 1.216395
v -0.617717 0.643817 1.242506
v -0.606769 0.611240 1.224146
v -0.687048 0.672963 1.233155
v -0.631456 0.680112 1.263420
v -0.739973 0.661461 1.198399
v -0.563477 0.645848 1.262236
v -0.768438 0.610541 1.153317
v -0.794994 0.565726 1.115888
v -0.812534 0.591978 1.118710
v -0.835815 0.548246 1.084050
v -0.854503 0.572210 1.082443
v -0.789677 0.645473 1.160500
v -0.761110 0.701226 1.210113
v -0.813306 0.684960 1.166143
v -0.835465 0.625424 1.119655
v -0.860389 0.663585 1.118871
v -1.072851 0.714972 0.737252
v -1.094036 0.655937 0.668771
v -1.048923 0.661064 0.795576
v -1.068963 0.608449 0.735817
v -1.046915 0.765328 0.811486
v -1.025429 0.707376 0.861480
v -1.024352 0.616144 0.846044
v -1.043074 0.569382 0.793509
v -0.998840 0.578761 0.887908
v -1.016930 0.537323 0.842359
v -0.975101 0.547511 0.922153
v -0.978114 0.615994 0.939599
v -0.955041 0.580200 0.967619
v -1.002338 0.658067 0.904473
v -0.997490 0.747762 0.931293
v -0.977231 0.695143 0.967744
v -1.016608 0.807990 0.889119
v -0.979458 0.845102 0.968043
v -0.964417 0.783578 1.003913
v -0.935134 0.876947 1.045875
v -0.924401 0.814570 1.076851
v -0.351545 0.597254 1.299072
v -0.400121 0.630603 1.303151
v -0.360647 0.571368 1.272040
v -0.405323 0.601079 1.275651
v -0.455420 0.657639 1.304849
v -0.455276 0.625313 1.276191
v -0.509008 0.640988 1.272875
v -0.514884 0.675298 1.300845
v -0.573973 0.681924 1.287032
v -0.520565 0.709113 1.328398
v -0.584401 0.718245 1.312239
v -0.659587 0.761816 1.304142
v -0.646071 0.718607 1.285350
v -0.705079 0.712487 1.250266
v -0.722679 0.757183 1.264107
v -0.783339 0.746167 1.219701
v -0.669442 0.811853 1.312551
v -0.737288 0.808808 1.268864
v -0.801871 0.798337 1.219792
v -0.822510 0.919705 1.187362
v -0.883480 0.902013 1.119881
v -0.815234 0.856995 1.208802
v -0.874811 0.839241 1.146021
v -0.753905 0.929001 1.246641
v -0.748223 0.866776 1.263494
v -0.936384 0.498835 0.971524
v -0.954254 0.521177 0.949729
v -0.934019 0.550056 0.989406
v -0.915855 0.524531 1.006694
v -0.889787 0.548953 1.045585
v -0.873080 0.526833 1.052654
v -0.908926 0.576869 1.033183
v -0.860220 0.780900 1.163715
v -0.908999 0.757320 1.101093
v -0.947137 0.728339 1.034284
v -0.924747 0.679781 1.055629
v -0.954247 0.649366 0.996179
v -0.900140 0.637837 1.068924
v -0.930881 0.609911 1.017477
v -0.876464 0.602281 1.077170
v -0.886967 0.706846 1.114938
v -0.839060 0.729307 1.170109
v -0.452069 0.912474 1.412395
v -0.414952 0.859848 1.429772
v -0.374228 0.877541 1.443092
v -0.413625 0.896376 1.428990
v -0.337755 0.815982 1.452506
v -0.334052 0.855824 1.454653
v -0.263398 0.761980 1.461168
v -0.305915 0.756287 1.449471
v -0.379645 0.805282 1.438687
v -0.346198 0.752487 1.435134
v -0.341926 0.781430 1.446337
v -0.385701 0.750477 1.417711
v -0.353967 0.709185 1.400761
v -0.317308 0.706837 1.416573
v -0.350260 0.728933 1.419175
v -0.419471 0.796557 1.422783
v -0.454027 0.844882 1.415031
v -0.417040 0.826480 1.428116
v -0.492138 0.830817 1.399842
v -0.489580 0.892169 1.397270
v -0.527263 0.873328 1.383085
v -0.490598 0.860469 1.399754
v -0.493799 0.778644 1.388195
v -0.457472 0.788094 1.405938
v -0.529262 0.816200 1.383700
v -0.493394 0.803466 1.396159
v -0.564731 0.799848 1.365597
v -0.564971 0.854195 1.368953
v -0.601295 0.833320 1.352425
v -0.565289 0.826143 1.369131
v -0.560255 0.753648 1.347858
v -0.528215 0.767315 1.369013
v -0.597544 0.781430 1.344710
v -0.563052 0.775681 1.358350
v -0.491862 0.736469 1.362448
v -0.458325 0.743215 1.381306
v -0.493213 0.756425 1.376518
v -0.601838 0.891326 1.347177
v -0.563767 0.914337 1.360072
v -0.564268 0.883644 1.365634
v -0.640814 0.926778 1.319610
v -0.639173 0.866301 1.331737
v -0.678312 0.898602 1.305179
v -0.640253 0.896089 1.326992
v -0.422994 0.747678 1.399653
v -0.421553 0.770342 1.413156
v -0.424231 0.710000 1.366813
v -0.389858 0.710647 1.383891
v -0.423794 0.727878 1.383671
v -0.360952 0.674987 1.364301
v -0.393534 0.677097 1.349411
v -0.367906 0.643720 1.331464
v -0.337246 0.639955 1.344778
v -0.364437 0.659048 1.347551
v -0.327533 0.671244 1.378916
v -0.357483 0.691556 1.382069
v -0.457058 0.706812 1.349795
v -0.425246 0.676746 1.334548
v -0.424641 0.693144 1.350277
v -0.280612 0.704946 1.431366
v -0.293932 0.666474 1.393326
v -0.261866 0.660545 1.408542
v -0.287510 0.684214 1.412341
v -0.276129 0.628651 1.371443
v -0.289991 0.600063 1.337583
v -0.306309 0.634994 1.357834
v -0.300194 0.650277 1.375169
v -0.272587 0.730306 1.448404
v -0.730457 0.588412 1.160616
v -0.682886 0.600112 1.188904
v -0.663599 0.620100 1.208847
v -0.696121 0.631822 1.201619
v -0.713155 0.609384 1.180215
v -0.688673 0.615230 1.194952
v -0.632562 0.608521 1.213769
v -0.611771 0.626830 1.233000
v -0.644391 0.640880 1.230103
v -0.637944 0.623995 1.221601
v -0.678497 0.654514 1.224573
v -0.624371 0.661727 1.252717
v -0.659536 0.677117 1.248968
v -0.651684 0.658675 1.239294
v -0.713886 0.667748 1.216225
v -0.730120 0.643140 1.192189
v -0.704655 0.649343 1.208793
v -0.580783 0.612663 1.232885
v -0.590704 0.645514 1.253342
v -0.558805 0.628605 1.250729
v -0.585356 0.628411 1.242825
v -0.759510 0.594952 1.149672
v -0.745186 0.618693 1.169888
v -0.736882 0.602641 1.165029
v -0.773959 0.573813 1.131384
v -0.790783 0.601415 1.136311
v -0.802900 0.577908 1.117540
v -0.781391 0.586535 1.133936
v -0.833875 0.582441 1.100599
v -0.844670 0.559401 1.083815
v -0.815652 0.557354 1.099955
v -0.824035 0.569020 1.100671
v -0.778677 0.627422 1.157054
v -0.765278 0.654030 1.179836
v -0.754826 0.635820 1.174944
v -0.787755 0.693742 1.188587
v -0.801163 0.664709 1.163438
v -0.750297 0.680840 1.204390
v -0.776218 0.673370 1.184330
v -0.813079 0.635902 1.140382
v -0.837579 0.674893 1.142861
v -0.847675 0.643977 1.119499
v -0.824997 0.654898 1.141765
v -0.823639 0.607980 1.119387
v -0.801605 0.618035 1.138527
v -1.084287 0.686563 0.702200
v -1.085477 0.745940 0.706061
v -1.096739 0.716101 0.668158
v -1.081690 0.630995 0.703507
v -1.059154 0.635560 0.764692
v -1.060760 0.686775 0.767255
v -1.071642 0.659831 0.734431
v -1.037773 0.684985 0.827963
v -1.036268 0.735156 0.837211
v -1.060251 0.741193 0.773741
v -1.049045 0.711847 0.801648
v -1.056067 0.587989 0.765772
v -1.033945 0.593368 0.818870
v -1.036859 0.637585 0.821895
v -1.046652 0.613472 0.792870
v -1.029953 0.552469 0.819055
v -1.008203 0.558546 0.864301
v -1.011541 0.596603 0.868005
v -1.021045 0.575066 0.842693
v -1.004344 0.523741 0.863436
v -0.984088 0.529864 0.901570
v -0.986625 0.562449 0.905914
v -0.995797 0.543558 0.883863
v -0.965446 0.564282 0.944212
v -0.966367 0.597342 0.954459
v -0.988778 0.597912 0.913034
v -0.976832 0.580374 0.929491
v -0.990203 0.636203 0.922976
v -1.013788 0.637717 0.874623
v -1.001215 0.616987 0.894789
v -1.052085 0.544227 0.770273
v -1.065342 0.561122 0.740902
v -1.038677 0.528890 0.797423
v -1.014141 0.681736 0.883964
v -1.026056 0.660333 0.852346
v -0.990193 0.677155 0.935571
v -0.987591 0.720552 0.950389
v -1.012006 0.728249 0.895962
v -1.001350 0.701760 0.916698
v -1.007149 0.776838 0.910775
v -1.032587 0.787509 0.850086
v -1.022380 0.756744 0.873659
v -1.057766 0.798002 0.784990
v -1.072032 0.773199 0.744978
v -0.998944 0.827158 0.928541
v -0.981729 0.766201 0.967360
v -0.972077 0.813521 0.986461
v -0.990464 0.795751 0.948467
v -0.958134 0.861774 1.007274
v -0.945401 0.799784 1.040601
v -0.930141 0.845159 1.061979
v -0.952002 0.830073 1.024461
v -0.318173 0.606259 1.325375
v -0.312294 0.620393 1.341199
v -0.397837 0.645636 1.317992
v -0.374992 0.614531 1.301378
v -0.346713 0.611105 1.313465
v -0.371380 0.628952 1.315998
v -0.402756 0.615683 1.289146
v -0.382301 0.586955 1.274084
v -0.356275 0.583907 1.285323
v -0.378792 0.600396 1.287539
v -0.455798 0.673757 1.319510
v -0.426961 0.645073 1.304442
v -0.426014 0.660732 1.319332
v -0.484974 0.667797 1.303789
v -0.511942 0.658296 1.286863
v -0.481931 0.634511 1.275141
v -0.455251 0.641573 1.290336
v -0.483416 0.651239 1.289366
v -0.568636 0.663840 1.274505
v -0.536204 0.644638 1.268789
v -0.544623 0.679839 1.295271
v -0.540413 0.662336 1.282036
v -0.602909 0.681819 1.276247
v -0.596644 0.663495 1.264585
v -0.552679 0.714854 1.321692
v -0.579206 0.699808 1.299510
v -0.517708 0.692028 1.314488
v -0.548662 0.697170 1.308362
v -0.488313 0.700874 1.332510
v -0.486599 0.684250 1.318084
v -0.523439 0.727065 1.342670
v -0.490130 0.718140 1.347425
v -0.589454 0.737638 1.324752
v -0.556636 0.733505 1.335127
v -0.653180 0.739486 1.295696
v -0.615561 0.719393 1.300037
v -0.627148 0.761296 1.321416
v -0.621684 0.739633 1.311591
v -0.691374 0.760369 1.284799
v -0.714138 0.734000 1.258011
v -0.675901 0.716214 1.268595
v -0.683949 0.737487 1.277583
v -0.695979 0.692266 1.241844
v -0.638743 0.698976 1.274413
v -0.667683 0.696245 1.258877
v -0.609245 0.700298 1.288099
v -0.733517 0.707469 1.230697
v -0.753453 0.752433 1.242475
v -0.772352 0.722868 1.215531
v -0.743685 0.729095 1.237304
v -0.703658 0.811244 1.291258
v -0.730351 0.782104 1.267658
v -0.664920 0.785948 1.309735
v -0.697890 0.784892 1.289239
v -0.770215 0.804426 1.245127
v -0.793211 0.771292 1.221171
v -0.762280 0.777548 1.245100
v -0.634788 0.810413 1.332428
v -0.631507 0.784814 1.328382
v -0.532343 0.627334 1.256204
v -0.329724 0.579101 1.296188
v -0.429643 0.613934 1.276405
v -0.428207 0.629527 1.290174
v -0.303331 0.572926 1.307167
v -0.324004 0.592497 1.310393
v -0.854161 0.911804 1.154528
v -0.879656 0.870167 1.133754
v -0.846160 0.849025 1.178334
v -0.819437 0.888005 1.199206
v -0.850688 0.880028 1.167388
v -0.782456 0.862982 1.237277
v -0.751619 0.897552 1.256466
v -0.788959 0.925509 1.218159
v -0.786307 0.893907 1.228987
v -0.910381 0.890368 1.083514
v -0.717422 0.930289 1.272846
v -0.945021 0.509559 0.961278
v -0.926796 0.511894 0.988493
v -0.924460 0.536762 0.998511
v -0.944665 0.535949 0.968922
v -0.935379 0.523445 0.979275
v -0.962949 0.505742 0.931887
v -0.944234 0.564495 0.979213
v -0.964290 0.533796 0.936722
v -0.954679 0.549508 0.957310
v -0.973140 0.517306 0.917547
v -0.908265 0.513428 1.013747
v -0.918978 0.501345 0.996473
v -0.888420 0.515321 1.036089
v -0.881370 0.537076 1.050046
v -0.903656 0.536849 1.026015
v -0.895932 0.525297 1.031975
v -0.898818 0.562303 1.039722
v -0.922154 0.563641 1.010964
v -0.912315 0.549686 1.018832
v -0.809328 0.827021 1.215718
v -0.743412 0.837064 1.267574
v -0.777052 0.833016 1.242621
v -0.673333 0.839442 1.312937
v -0.712725 0.868626 1.287838
v -0.708735 0.839211 1.290915
v -0.715547 0.899108 1.281805
v -0.637345 0.837662 1.333562
v -0.868370 0.809381 1.156114
v -0.832018 0.790465 1.192651
v -0.839936 0.819056 1.186815
v -0.900963 0.827742 1.112147
v -0.917415 0.785228 1.090017
v -0.885964 0.769825 1.133118
v -0.894296 0.798097 1.123812
v -0.956174 0.755170 1.019967
v -0.929286 0.743431 1.067953
v -0.937954 0.770862 1.055250
v -0.966061 0.671443 0.983004
v -0.940331 0.664934 1.025666
v -0.936673 0.703190 1.046247
v -0.963024 0.712195 1.000749
v -0.952219 0.687736 1.014356
v -0.942360 0.628820 1.007582
v -0.916486 0.624057 1.043191
v -0.912305 0.658026 1.063002
v -0.928213 0.643693 1.035153
v -0.966696 0.633103 0.967383
v -0.978574 0.654300 0.952465
v -0.943628 0.595362 0.992146
v -0.954975 0.613444 0.980567
v -0.919768 0.592672 1.025931
v -0.932693 0.578816 1.002208
v -0.893846 0.589769 1.055409
v -0.888209 0.619312 1.073548
v -0.905075 0.606165 1.049857
v -0.856768 0.614194 1.098540
v -0.881376 0.651135 1.094225
v -0.868965 0.632021 1.096776
v -0.865140 0.586574 1.080110
v -0.873495 0.560910 1.064345
v -0.883251 0.574688 1.060230
v -0.844963 0.597594 1.099794
v -0.873698 0.684412 1.117636
v -0.907120 0.693797 1.085592
v -0.894203 0.671662 1.090647
v -0.826221 0.706348 1.168709
v -0.864201 0.718748 1.143205
v -0.850913 0.696038 1.143675
v -0.850488 0.754157 1.168604
v -0.811973 0.738450 1.195597
v -0.822701 0.763496 1.195683
v -0.898892 0.731120 1.109537
v -0.875990 0.743306 1.139778
v -0.799946 0.715297 1.192681
v -0.919066 0.717698 1.078193
v -0.972646 0.738364 0.984895
v -0.723547 0.687122 1.223610
v -0.906130 0.858536 1.098532
v -0.855258 0.537986 1.068458
v -0.864188 0.548639 1.067178
vn -0.3670 0.0479 0.9290
vn -0.3180 0.0183 0.9479
vn -0.2699 -0.0127 0.9628
vn -0.2834 -0.3560 0.8905
vn -0.2448 -0.1790 0.9529
vn -0.2864 -0.1084 0.9520
vn -0.3166 -0.2619 0.9117
vn -0.3435 -0.4403 0.8296
vn -0.3498 -0.5730 0.7411
vn -0.3454 -0.6142 0.7095
vn -0.3233 -0.5248 0.7874
vn -0.3463 -0.0979 0.9330
vn -0.3306 -0.1797 0.9265
vn -0.3199 -0.0525 0.9460
vn -0.3536 0.0019 0.9354
vn -0.3806 0.0495 0.9234
vn -0.3646 -0.0175 0.9310
vn -0.3846 0.0569 0.9213
vn -0.3970 0.1077 0.9115
vn -0.3628 -0.2346 0.9019
vn -0.3439 -0.3292 0.8794
vn -0.3538 -0.1555 0.9223
vn -0.3743 -0.0703 0.9246
vn -0.4257 -0.1116 0.8980
vn -0.3897 -0.1589 0.9071
vn -0.3919 -0.0112 0.9200
vn -0.4234 0.0196 0.9057
vn -0.3746 -0.4084 0.8324
vn -0.3370 -0.4715 0.8149
vn -0.3716 -0.3258 0.8693
vn -0.4096 -0.2614 0.8740
vn -0.3259 -0.4842 0.8120
vn -0.3399 -0.4049 0.8489
vn -0.3111 -0.5339 0.7862
vn -0.3036 -0.5875 0.7501
vn -0.4140 0.1183 0.9026
vn -0.3911 0.0945 0.9155
vn -0.4008 0.1504 0.9037
vn -0.4870 0.1210 0.8650
vn -0.4489 0.1236 0.8850
vn -0.4416 0.1955 0.8757
vn -0.4796 0.2009 0.8542
vn -0.3428 -0.3473 0.8729
vn -0.3448 -0.2516 0.9043
vn -0.3408 -0.4214 0.8404
vn -0.3453 -0.5045 0.7914
vn -0.3371 -0.6077 0.7191
vn -0.3277 -0.5535 0.7657
vn -0.3105 -0.6295 0.7123
vn -0.3267 -0.6540 0.6823
vn -0.3206 -0.6582 0.6811
vn -0.3261 -0.6545 0.6821
vn -0.3678 -0.6370 0.6775
vn -0.3710 -0.6315 0.6808
vn -0.3730 -0.6295 0.6817
vn -0.3717 -0.6306 0.6813
vn -0.3508 -0.6523 0.6719
vn -0.3520 -0.6449 0.6784
vn -0.3510 -0.6386 0.6848
vn -0.3520 -0.6435 0.6797
vn -0.3505 -0.6378 0.6858
vn -0.3503 -0.6377 0.6861
vn -0.3743 -0.6232 0.6867
vn -0.3735 -0.6286 0.6821
vn -0.3593 -0.6409 0.6784
vn -0.3583 -0.6407 0.6790
vn -0.3495 -0.6385 0.6857
vn -0.3486 -0.6382 0.6864
vn -0.3507 -0.6530 0.6713
vn -0.3675 -0.6375 0.6771
vn -0.3198 -0.6586 0.6811
vn -0.2956 -0.6573 0.6932
vn -0.2871 -0.6568 0.6973
vn -0.2948 -0.6573 0.6936
vn -0.2827 -0.6528 0.7028
vn -0.2860 -0.6564 0.6981
vn -0.3169 -0.6492 0.6915
vn -0.3155 -0.6475 0.6936
vn -0.3165 -0.6488 0.6920
vn -0.3336 -0.5637 0.7556
vn -0.3675 -0.6148 0.6978
vn -0.4337 -0.5837 0.6864
vn -0.4369 -0.5956 0.6740
vn -0.4312 -0.5973 0.6762
vn -0.4364 -0.5959 0.6741
vn -0.3811 -0.6243 0.6819
vn -0.3849 -0.6222 0.6817
vn -0.3814 -0.6241 0.6819
vn -0.3873 -0.6205 0.6819
vn -0.3854 -0.6219 0.6817
vn -0.4291 -0.5950 0.6796
vn -0.4304 -0.5971 0.6769
vn -0.2228 -0.2640 0.9384
vn -0.2779 -0.4384 0.8548
vn -0.3462 -0.4738 0.8097
vn -0.3541 -0.4922 0.7952
vn -0.3746 -0.4751 0.7962
vn -0.3715 -0.4540 0.8099
vn -0.3141 -0.4983 0.8081
vn -0.2805 -0.5253 0.8034
vn -0.2991 -0.5310 0.7929
vn -0.3279 -0.5102 0.7951
vn -0.3499 -0.5358 0.7684
vn -0.3371 -0.5269 0.7802
vn -0.3119 -0.5448 0.7784
vn -0.3247 -0.5553 0.7656
vn -0.3746 -0.5156 0.7706
vn -0.3971 -0.4937 0.7737
vn -0.3809 -0.4919 0.7829
vn -0.3610 -0.5096 0.7810
vn -0.2393 -0.5726 0.7841
vn -0.2709 -0.5527 0.7882
vn -0.2499 -0.5530 0.7948
vn -0.4071 -0.4372 0.8019
vn -0.4013 -0.4244 0.8117
vn -0.3958 -0.4287 0.8121
vn -0.3907 -0.4330 0.8123
vn -0.3880 -0.4378 0.8110
vn -0.3905 -0.4574 0.7990
vn -0.4404 -0.4064 0.8005
vn -0.4171 -0.4146 0.8088
vn -0.4229 -0.4154 0.8053
vn -0.4171 -0.4155 0.8083
vn -0.4286 -0.4162 0.8019
vn -0.4581 -0.3984 0.7946
vn -0.4864 -0.3760 0.7887
vn -0.5090 -0.3382 0.7916
vn -0.4710 -0.3726 0.7996
vn -0.4612 -0.3940 0.7950
vn -0.4452 -0.4424 0.7785
vn -0.4194 -0.4491 0.7889
vn -0.3981 -0.4722 0.7865
vn -0.4185 -0.4690 0.7777
vn -0.4739 -0.4458 0.7594
vn -0.5021 -0.4220 0.7549
vn -0.4778 -0.4258 0.7684
vn -0.4481 -0.4546 0.7698
vn -0.5418 -0.3727 0.7534
vn -0.5105 -0.3986 0.7619
vn -0.5331 -0.3980 0.7465
vn -0.5669 -0.3708 0.7356
vn -0.4819 -0.3933 0.7830
vn -0.4471 -0.4213 0.7891
vn -0.4776 -0.4133 0.7753
vn -0.5120 -0.3841 0.7683
vn -0.9446 -0.0401 0.3259
vn -0.9378 -0.0311 0.3459
vn -0.9397 -0.0380 0.3400
vn -0.9395 -0.0377 0.3405
vn -0.9452 -0.0365 0.3245
vn -0.9362 -0.0463 0.3484
vn -0.9367 -0.0395 0.3479
vn -0.9368 -0.0400 0.3477
vn -0.9349 -0.0445 0.3522
vn -0.9360 -0.0465 0.3489
vn -0.9345 -0.0439 0.3533
vn -0.9308 -0.0394 0.3634
vn -0.9304 -0.0392 0.3643
vn -0.9378 -0.0321 0.3457
vn -0.9360 -0.0273 0.3511
vn -0.9363 -0.0288 0.3501
vn -0.9358 -0.0294 0.3514
vn -0.9261 -0.0656 0.3715
vn -0.9289 -0.0641 0.3648
vn -0.9285 -0.0529 0.3676
vn -0.9287 -0.0653 0.3650
vn -0.9285 -0.0519 0.3677
vn -0.9184 -0.0689 0.3896
vn -0.9125 -0.0916 0.3986
vn -0.9171 -0.0871 0.3890
vn -0.9167 -0.0873 0.3898
vn -0.9020 -0.1067 0.4183
vn -0.9055 -0.0865 0.4155
vn -0.8913 -0.1011 0.4420
vn -0.8870 -0.1212 0.4455
vn -0.8791 -0.1090 0.4640
vn -0.8663 -0.1317 0.4818
vn -0.8753 -0.1292 0.4660
vn -0.8616 -0.1534 0.4838
vn -0.8551 -0.1751 0.4879
vn -0.8686 -0.1640 0.4676
vn -0.8719 -0.1467 0.4672
vn -0.8826 -0.1359 0.4501
vn -0.8825 -0.1370 0.4499
vn -0.8805 -0.1487 0.4502
vn -0.8800 -0.1506 0.4504
vn -0.8770 -0.1618 0.4523
vn -0.8961 -0.1185 0.4278
vn -0.8930 -0.1266 0.4318
vn -0.8924 -0.1321 0.4316
vn -0.8934 -0.1255 0.4314
vn -0.8963 -0.1178 0.4275
vn -0.9176 -0.0429 0.3951
vn -0.9054 -0.0577 0.4205
vn -0.9075 -0.0943 0.4092
vn -0.9063 -0.0949 0.4118
vn -0.9080 -0.0940 0.4082
vn -0.9119 -0.0924 0.4000
vn -0.9206 -0.0623 0.3856
vn -0.9175 -0.0598 0.3933
vn -0.9208 -0.0625 0.3850
vn -0.9259 -0.0655 0.3721
vn -0.9062 -0.0942 0.4123
vn -0.9052 -0.0882 0.4158
vn -0.9050 -0.0879 0.4162
vn -0.9170 -0.0589 0.3945
vn -0.9139 -0.0511 0.4027
vn -0.9142 -0.0516 0.4020
vn -0.9311 -0.0241 0.3641
vn -0.9252 -0.0361 0.3778
vn -0.9193 -0.0278 0.3927
vn -0.9231 -0.0113 0.3844
vn -0.9230 -0.0121 0.3847
vn -0.9250 -0.0015 0.3801
vn -0.9373 -0.0329 0.3470
vn -0.9360 -0.0283 0.3510
vn -0.9351 -0.0236 0.3536
vn -0.9147 0.0071 0.4041
vn -0.9146 0.0064 0.4042
vn -0.9153 0.0186 0.4023
vn -0.9130 -0.0123 0.4078
vn -0.9040 0.0119 0.4273
vn -0.9037 0.0330 0.4269
vn -0.9038 0.0322 0.4268
vn -0.9026 0.0435 0.4283
vn -0.8697 0.1051 0.4824
vn -0.8737 0.0972 0.4767
vn -0.8738 0.0968 0.4765
vn -0.8868 0.0734 0.4563
vn -0.8904 0.0636 0.4507
vn -0.8907 0.0631 0.4503
vn -0.8923 0.0395 0.4497
vn -0.8743 0.0676 0.4806
vn -0.4274 -0.5859 0.6885
vn -0.4287 -0.5938 0.6809
vn -0.3898 -0.6158 0.6847
vn -0.3875 -0.6201 0.6822
vn -0.3901 -0.6153 0.6850
vn -0.4272 -0.5850 0.6894
vn -0.3743 -0.6225 0.6873
vn -0.3498 -0.6374 0.6865
vn -0.3475 -0.6274 0.6968
vn -0.3732 -0.6078 0.7009
vn -0.3701 -0.5995 0.7097
vn -0.3729 -0.6071 0.7017
vn -0.3405 -0.6102 0.7154
vn -0.3364 -0.6135 0.7145
vn -0.3402 -0.6105 0.7152
vn -0.3359 -0.6138 0.7144
vn -0.3733 -0.6069 0.7016
vn -0.3738 -0.6077 0.7007
vn -0.3700 -0.5994 0.7098
vn -0.3128 -0.6441 0.6980
vn -0.3152 -0.6470 0.6943
vn -0.2794 -0.6513 0.7055
vn -0.2823 -0.6523 0.7034
vn -0.2775 -0.6426 0.7142
vn -0.2790 -0.6504 0.7064
vn -0.3125 -0.6437 0.6985
vn -0.2521 -0.6515 0.7156
vn -0.2488 -0.6502 0.7178
vn -0.2485 -0.6501 0.7181
vn -0.2385 -0.6441 0.7268
vn -0.2297 -0.6464 0.7276
vn -0.2289 -0.6466 0.7277
vn -0.2189 -0.6394 0.7371
vn -0.2465 -0.6382 0.7294
vn -0.2444 -0.6108 0.7532
vn -0.2235 -0.6050 0.7642
vn -0.2069 -0.6267 0.7513
vn -0.2256 -0.6317 0.7416
vn -0.2715 -0.5911 0.7595
vn -0.2993 -0.5735 0.7626
vn -0.2858 -0.5636 0.7751
vn -0.2555 -0.5830 0.7713
vn -0.2578 -0.6270 0.7352
vn -0.2776 -0.6076 0.7441
vn -0.2614 -0.6112 0.7470
vn -0.2427 -0.6287 0.7388
vn -0.2675 -0.6523 0.7092
vn -0.2593 -0.6519 0.7126
vn -0.2530 -0.6515 0.7152
vn -0.2581 -0.6517 0.7132
vn -0.2505 -0.6426 0.7241
vn -0.2400 -0.6438 0.7266
vn -0.2499 -0.6426 0.7243
vn -0.2846 -0.6063 0.7426
vn -0.2646 -0.6360 0.7249
vn -0.2681 -0.6523 0.7089
vn -0.2830 -0.6378 0.7163
vn -0.3018 -0.5675 0.7661
vn -0.3328 -0.5242 0.7838
vn -0.2997 -0.5850 0.7536
vn -0.2759 -0.6123 0.7409
vn -0.4151 -0.4422 0.7951
vn -0.3696 -0.5267 0.7655
vn -0.3323 -0.5562 0.7617
vn -0.3720 -0.4807 0.7940
vn -0.4512 -0.4122 0.7915
vn -0.4738 -0.3921 0.7886
vn -0.4325 -0.4731 0.7675
vn -0.4053 -0.4975 0.7670
vn -0.3688 -0.5396 0.7569
vn -0.3983 -0.5144 0.7594
vn -0.3702 -0.5328 0.7610
vn -0.3425 -0.5559 0.7574
vn -0.3051 -0.5866 0.7502
vn -0.3367 -0.5640 0.7540
vn -0.3145 -0.5762 0.7544
vn -0.2867 -0.5941 0.7516
vn -0.4734 -0.4454 0.7599
vn -0.4535 -0.4567 0.7654
vn -0.4891 -0.3824 0.7840
vn -0.5071 -0.3806 0.7733
vn -0.5164 -0.1792 0.8374
vn -0.5353 -0.1784 0.8256
vn -0.5125 -0.2783 0.8123
vn -0.4934 -0.2893 0.8203
vn -0.5563 -0.1731 0.8128
vn -0.5904 -0.1619 0.7907
vn -0.5510 -0.2695 0.7898
vn -0.5268 -0.2731 0.8050
vn -0.4526 -0.2149 0.8654
vn -0.4892 -0.1876 0.8518
vn -0.4609 -0.3127 0.8306
vn -0.4180 -0.3536 0.8368
vn -0.2018 -0.5933 0.7793
vn -0.2772 -0.6417 0.7151
vn -0.2789 -0.6256 0.7285
vn -0.2768 -0.6311 0.7246
vn -0.2788 -0.6260 0.7283
vn -0.3043 -0.6158 0.7267
vn -0.3072 -0.6260 0.7167
vn -0.4261 -0.5715 0.7013
vn -0.4260 -0.5724 0.7006
vn -0.4264 -0.5627 0.7082
vn -0.3923 -0.6028 0.6948
vn -0.3925 -0.5888 0.7066
vn -0.3921 -0.5894 0.7063
vn -0.3954 -0.5842 0.7088
vn -0.7267 0.1828 0.6622
vn -0.7731 0.1683 0.6115
vn -0.7651 0.1212 0.6324
vn -0.7180 0.1257 0.6846
vn -0.6696 0.1244 0.7322
vn -0.6182 0.1202 0.7768
vn -0.6257 0.1981 0.7545
vn -0.8287 -0.1454 0.5405
vn -0.8167 -0.1428 0.5592
vn -0.8015 -0.1571 0.5770
vn -0.8114 -0.1713 0.5588
vn -0.8257 -0.1802 0.5346
vn -0.8405 -0.1814 0.5105
vn -0.8503 -0.1558 0.5028
vn -0.8394 -0.1522 0.5218
vn -0.8484 -0.1290 0.5134
vn -0.8574 -0.1315 0.4976
vn -0.7922 -0.1537 0.5906
vn -0.6386 -0.2581 0.7249
vn -0.7178 -0.1976 0.6676
vn -0.7716 -0.1694 0.6132
vn -0.7896 -0.2009 0.5798
vn -0.7848 -0.1763 0.5942
vn -0.7528 -0.1954 0.6286
vn -0.7616 -0.2258 0.6075
vn -0.6035 0.0226 0.7970
vn -0.6513 0.0322 0.7581
vn -0.6238 -0.0662 0.7788
vn -0.5820 -0.0787 0.8094
vn -0.5626 0.0163 0.8266
vn -0.5504 -0.0855 0.8305
vn -0.5256 -0.0855 0.8464
vn -0.5287 0.0163 0.8487
vn -0.5261 0.1167 0.8424
vn -0.5218 0.2017 0.8289
vn -0.5726 0.2004 0.7950
vn -0.5701 0.1155 0.8134
vn -0.4985 -0.0825 0.8629
vn -0.4659 -0.0874 0.8805
vn -0.4609 0.0271 0.8871
vn -0.4953 0.0221 0.8684
vn -0.6698 -0.0516 0.7407
vn -0.6993 0.0418 0.7136
vn -0.7475 0.0474 0.6625
vn -0.7183 -0.0387 0.6946
vn -0.7928 0.0475 0.6076
vn -0.8352 0.0376 0.5486
vn -0.8127 -0.0312 0.5819
vn -0.7668 -0.0317 0.6411
vn -0.8886 0.0024 0.4587
vn -0.8763 -0.0472 0.4795
vn -0.8497 -0.0363 0.5260
vn -0.8670 0.0229 0.4978
vn -0.8821 -0.1313 0.4525
vn -0.8537 -0.1854 0.4866
vn -0.8331 -0.1981 0.5164
vn -0.8691 -0.1260 0.4784
vn -0.8263 -0.2144 0.5208
vn -0.8022 -0.2258 0.5527
vn -0.7653 -0.2514 0.5926
vn -0.7974 -0.2380 0.5545
vn -0.8921 -0.1329 0.4319
vn -0.8899 -0.1341 0.4361
vn -0.8767 -0.1626 0.4527
vn -0.8686 -0.1745 0.4637
vn -0.8897 -0.1340 0.4365
vn -0.8613 -0.1797 0.4753
vn -0.8446 -0.1929 0.4995
vn -0.8280 -0.2088 0.5205
vn -0.8479 -0.1968 0.4923
vn -0.8045 -0.2234 0.5504
vn -0.8260 -0.2040 0.5255
vn -0.8054 -0.2097 0.5544
vn -0.7780 -0.2362 0.5821
vn -0.7722 -0.2423 0.5874
vn -0.7380 -0.2579 0.6236
vn -0.6820 -0.2837 0.6741
vn -0.7254 -0.2685 0.6338
vn -0.6660 -0.3006 0.6827
vn -0.6214 -0.3160 0.7170
vn -0.5746 -0.3464 0.7415
vn -0.6097 -0.3367 0.7176
vn -0.6037 -0.2652 0.7518
vn -0.6440 -0.2789 0.7124
vn -0.7128 -0.2461 0.6568
vn -0.6862 -0.2202 0.6933
vn -0.5446 -0.3560 0.7594
vn -0.5835 -0.3209 0.7460
vn -0.5484 -0.3216 0.7719
vn -0.5155 -0.3640 0.7757
vn -0.7115 -0.2870 0.6414
vn -0.6500 -0.3312 0.6840
vn -0.7027 -0.3007 0.6448
vn -0.7560 -0.2677 0.5974
vn -0.5540 -0.3999 0.7301
vn -0.5983 -0.3569 0.7174
vn -0.6468 -0.3323 0.6865
vn -0.5955 -0.3708 0.7127
vn -0.6322 -0.1483 0.7605
vn -0.6780 -0.1338 0.7228
vn -0.6226 -0.2554 0.7397
vn -0.5844 -0.2637 0.7674
vn -0.7285 -0.1234 0.6738
vn -0.7761 -0.1182 0.6194
vn -0.7188 -0.2305 0.6559
vn -0.6691 -0.2443 0.7019
vn -0.5305 -0.3785 0.7585
vn -0.5603 -0.3714 0.7404
vn -0.5215 -0.4201 0.7427
vn -0.4951 -0.4343 0.7525
vn -0.8494 -0.1211 0.5137
vn -0.8052 -0.2095 0.5548
vn -0.7660 -0.2189 0.6045
vn -0.8180 -0.1176 0.5631
vn -0.9011 -0.0740 0.4273
vn -0.8918 -0.0585 0.4487
vn -0.9009 -0.0185 0.4337
vn -0.9091 -0.0375 0.4148
vn -0.4492 -0.4685 0.7607
vn -0.4229 -0.4828 0.7669
vn -0.3971 -0.5084 0.7641
vn -0.4246 -0.4905 0.7610
vn -0.8082 0.1114 0.5783
vn -0.8493 0.1272 0.5123
vn -0.8480 0.1336 0.5128
vn -0.8463 0.0930 0.5245
vn -0.6281 -0.2371 0.7411
vn -0.5425 -0.3011 0.7842
vn -0.4843 -0.3389 0.8066
vn -0.5467 -0.2852 0.7873
vt 0.000000 0.000000
s 1
usemtl defaultMat
f 116/1/1 113/1/1 2/1/1 114/1/1
f 115/1/2 116/1/2 114/1/2 1/1/2
f 115/1/3 1/1/3 117/1/3 118/1/3
f 4/1/4 120/1/4 123/1/4 122/1/4
f 120/1/5 3/1/5 117/1/5 123/1/5
f 123/1/6 117/1/6 1/1/6 121/1/6
f 122/1/7 123/1/7 121/1/7 5/1/7
f 5/1/8 124/1/8 127/1/8 122/1/8
f 124/1/9 7/1/9 125/1/9 127/1/9
f 127/1/10 125/1/10 6/1/10 126/1/10
f 122/1/11 127/1/11 126/1/11 4/1/11
f 8/1/12 128/1/12 130/1/12 129/1/12
f 128/1/13 5/1/13 121/1/13 130/1/13
f 130/1/14 121/1/14 1/1/14 114/1/14
f 129/1/15 130/1/15 114/1/15 2/1/15
f 9/1/16 131/1/16 134/1/16 133/1/16
f 131/1/17 8/1/17 129/1/17 134/1/17
f 134/1/18 129/1/18 2/1/18 132/1/18
f 133/1/19 134/1/19 132/1/19 10/1/19
f 11/1/20 135/1/20 138/1/20 137/1/20
f 135/1/21 12/1/21 136/1/21 138/1/21
f 138/1/22 136/1/22 8/1/22 131/1/22
f 137/1/23 138/1/23 131/1/23 9/1/23
f 13/1/24 139/1/24 142/1/24 141/1/24
f 139/1/25 11/1/25 137/1/25 142/1/25
f 142/1/26 137/1/26 9/1/26 140/1/26
f 141/1/27 142/1/27 140/1/27 14/1/27
f 15/1/28 143/1/28 146/1/28 145/1/28
f 143/1/29 16/1/29 144/1/29 146/1/29
f 146/1/30 144/1/30 11/1/30 139/1/30
f 145/1/31 146/1/31 139/1/31 13/1/31
f 12/1/32 135/1/32 149/1/32 148/1/32
f 135/1/33 11/1/33 144/1/33 149/1/33
f 149/1/34 144/1/34 16/1/34 147/1/34
f 148/1/35 149/1/35 147/1/35 17/1/35
f 150/1/36 14/1/36 140/1/36 152/1/36
f 152/1/37 140/1/37 9/1/37 133/1/37
f 151/1/38 152/1/38 133/1/38 10/1/38
f 20/1/39 154/1/39 156/1/39 155/1/39
f 154/1/40 14/1/40 150/1/40 156/1/40
f 156/1/41 150/1/41 18/1/41 153/1/41
f 155/1/42 156/1/42 153/1/42 19/1/42
f 5/1/43 128/1/43 158/1/43 124/1/43
f 128/1/44 8/1/44 136/1/44 158/1/44
f 158/1/45 136/1/45 12/1/45 157/1/45
f 124/1/46 158/1/46 157/1/46 7/1/46
f 7/1/47 157/1/47 161/1/47 160/1/47
f 157/1/48 12/1/48 148/1/48 161/1/48
f 161/1/49 148/1/49 17/1/49 159/1/49
f 160/1/50 161/1/50 159/1/51 21/1/52
f 22/1/53 162/1/54 166/1/55 165/1/56
f 162/1/57 21/1/58 163/1/59 166/1/60
f 166/1/60 163/1/59 24/1/61 164/1/62
f 165/1/56 166/1/55 164/1/63 23/1/64
f 6/1/65 125/1/66 168/1/67 167/1/65
f 125/1/66 7/1/68 160/1/68 168/1/67
f 168/1/69 160/1/69 21/1/58 162/1/57
f 167/1/70 168/1/70 162/1/54 22/1/53
f 21/1/52 159/1/51 171/1/71 163/1/71
f 159/1/72 17/1/72 169/1/73 171/1/74
f 171/1/74 169/1/73 25/1/75 170/1/76
f 163/1/77 171/1/77 170/1/78 24/1/79
f 172/1/80 4/1/80 126/1/80 175/1/80
f 175/1/81 126/1/81 6/1/81 173/1/81
f 174/1/82 175/1/82 173/1/82 26/1/82
f 26/1/83 173/1/83 179/1/84 176/1/85
f 173/1/86 6/1/86 167/1/87 179/1/88
f 179/1/88 167/1/87 22/1/89 178/1/90
f 176/1/85 179/1/84 178/1/91 27/1/92
f 3/1/93 120/1/93 180/1/93 119/1/93
f 120/1/94 4/1/94 172/1/94 180/1/94
f 31/1/95 183/1/95 186/1/95 182/1/95
f 183/1/96 33/1/96 184/1/96 186/1/96
f 186/1/97 184/1/97 32/1/97 185/1/97
f 182/1/98 186/1/98 185/1/98 30/1/98
f 31/1/99 187/1/99 190/1/99 183/1/99
f 187/1/100 35/1/100 188/1/100 190/1/100
f 190/1/101 188/1/101 34/1/101 189/1/101
f 183/1/102 190/1/102 189/1/102 33/1/102
f 36/1/103 191/1/103 194/1/103 193/1/103
f 191/1/104 33/1/104 189/1/104 194/1/104
f 194/1/105 189/1/105 34/1/105 192/1/105
f 193/1/106 194/1/106 192/1/106 37/1/106
f 36/1/107 195/1/107 197/1/107 191/1/107
f 195/1/108 38/1/108 196/1/108 197/1/108
f 197/1/109 196/1/109 32/1/109 184/1/109
f 191/1/110 197/1/110 184/1/110 33/1/110
f 39/1/111 199/1/111 201/1/111 200/1/111
f 199/1/112 34/1/112 188/1/112 201/1/112
f 201/1/113 188/1/113 35/1/113 198/1/113
f 40/1/114 202/1/114 204/1/114 203/1/114
f 202/1/115 29/1/116 181/1/117 204/1/115
f 204/1/118 181/1/118 30/1/118 185/1/118
f 203/1/119 204/1/119 185/1/119 32/1/119
f 41/1/120 205/1/120 208/1/120 207/1/120
f 205/1/121 29/1/121 202/1/122 208/1/123
f 208/1/123 202/1/122 40/1/124 206/1/124
f 207/1/125 208/1/125 206/1/125 42/1/125
f 42/1/126 209/1/126 212/1/126 207/1/126
f 209/1/127 44/1/127 210/1/127 212/1/127
f 212/1/128 210/1/128 43/1/128 211/1/128
f 207/1/129 212/1/129 211/1/129 41/1/129
f 45/1/130 213/1/130 215/1/130 214/1/130
f 213/1/131 40/1/131 203/1/131 215/1/131
f 215/1/132 203/1/132 32/1/132 196/1/132
f 214/1/133 215/1/133 196/1/133 38/1/133
f 46/1/134 216/1/134 219/1/134 218/1/134
f 216/1/135 47/1/135 217/1/135 219/1/135
f 219/1/136 217/1/136 45/1/136 214/1/136
f 218/1/137 219/1/137 214/1/137 38/1/137
f 48/1/138 220/1/138 223/1/138 222/1/138
f 220/1/139 45/1/139 217/1/139 223/1/139
f 223/1/140 217/1/140 47/1/140 221/1/140
f 222/1/141 223/1/141 221/1/141 49/1/141
f 42/1/142 206/1/142 225/1/142 224/1/142
f 206/1/143 40/1/143 213/1/143 225/1/143
f 225/1/144 213/1/144 45/1/144 220/1/144
f 224/1/145 225/1/145 220/1/145 48/1/145
f 228/1/146 226/1/146 50/1/146 227/1/146
f 50/1/147 226/1/148 232/1/148 231/1/149
f 226/1/150 51/1/150 229/1/150 232/1/150
f 232/1/151 229/1/152 53/1/152 230/1/153
f 231/1/154 232/1/151 230/1/153 52/1/155
f 52/1/155 233/1/156 236/1/157 231/1/154
f 233/1/156 55/1/158 234/1/158 236/1/157
f 236/1/159 234/1/160 54/1/161 235/1/162
f 231/1/149 236/1/159 235/1/162 50/1/147
f 52/1/163 230/1/164 240/1/165 239/1/166
f 230/1/164 53/1/167 237/1/167 240/1/165
f 240/1/168 237/1/168 57/1/168 238/1/168
f 239/1/169 240/1/170 238/1/170 56/1/171
f 56/1/172 238/1/172 244/1/172 243/1/172
f 238/1/173 57/1/173 241/1/173 244/1/173
f 244/1/174 241/1/174 59/1/174 242/1/174
f 243/1/175 244/1/175 242/1/175 58/1/175
f 59/1/176 245/1/176 248/1/176 242/1/176
f 248/1/177 246/1/177 60/1/177 247/1/177
f 242/1/178 248/1/178 247/1/178 58/1/178
f 60/1/179 249/1/179 252/1/179 247/1/179
f 249/1/180 62/1/180 250/1/180 252/1/180
f 252/1/181 250/1/181 61/1/181 251/1/181
f 247/1/182 252/1/182 251/1/182 58/1/182
f 58/1/183 251/1/184 255/1/185 243/1/183
f 251/1/184 61/1/186 253/1/187 255/1/185
f 255/1/188 253/1/189 63/1/190 254/1/191
f 243/1/192 255/1/188 254/1/191 56/1/192
f 257/1/193 256/1/193 57/1/193 237/1/193
f 256/1/194 258/1/194 241/1/194 57/1/194
f 63/1/195 259/1/196 260/1/197 254/1/198
f 259/1/199 55/1/200 233/1/201 260/1/201
f 260/1/202 233/1/202 52/1/163 239/1/166
f 254/1/198 260/1/197 239/1/169 56/1/171
f 63/1/195 261/1/203 264/1/204 259/1/196
f 261/1/203 65/1/205 262/1/205 264/1/204
f 264/1/206 262/1/207 64/1/207 263/1/208
f 259/1/199 264/1/206 263/1/208 55/1/200
f 54/1/209 234/1/209 267/1/209 266/1/209
f 234/1/210 55/1/210 263/1/210 267/1/210
f 267/1/211 263/1/211 64/1/211 265/1/211
f 266/1/212 267/1/213 265/1/213 66/1/214
f 227/1/215 50/1/147 235/1/162 269/1/216
f 269/1/216 235/1/162 54/1/161 268/1/217
f 66/1/218 265/1/219 273/1/219 270/1/220
f 265/1/221 64/1/221 271/1/221 273/1/221
f 273/1/222 271/1/222 68/1/222 272/1/222
f 270/1/223 273/1/224 272/1/224 67/1/225
f 69/1/226 274/1/227 277/1/228 276/1/228
f 274/1/229 67/1/230 272/1/231 277/1/231
f 277/1/232 272/1/232 68/1/232 275/1/232
f 276/1/233 277/1/233 275/1/233 70/1/233
f 27/1/92 178/1/91 279/1/234 177/1/235
f 178/1/90 22/1/89 165/1/236 279/1/237
f 279/1/237 165/1/236 23/1/238 278/1/238
f 177/1/235 279/1/234 278/1/239 28/1/239
f 23/1/64 164/1/63 283/1/240 282/1/240
f 164/1/62 24/1/61 280/1/241 283/1/241
f 283/1/242 280/1/242 72/1/242 281/1/242
f 282/1/243 283/1/243 281/1/244 71/1/245
f 72/1/246 284/1/247 287/1/248 281/1/246
f 284/1/247 74/1/249 285/1/249 287/1/248
f 287/1/250 285/1/251 73/1/251 286/1/252
f 281/1/244 287/1/250 286/1/252 71/1/245
f 24/1/79 170/1/78 290/1/253 280/1/254
f 170/1/76 25/1/75 288/1/255 290/1/256
f 290/1/256 288/1/255 75/1/257 289/1/258
f 280/1/254 290/1/253 289/1/259 72/1/259
f 75/1/260 291/1/261 295/1/262 294/1/262
f 291/1/263 78/1/264 292/1/265 295/1/265
f 295/1/266 292/1/266 77/1/266 293/1/266
f 294/1/267 295/1/267 293/1/267 76/1/267
f 79/1/268 296/1/268 299/1/268 298/1/268
f 296/1/269 39/1/269 297/1/269 299/1/269
f 299/1/270 297/1/270 77/1/270 292/1/270
f 298/1/271 299/1/271 292/1/271 78/1/271
f 79/1/272 300/1/272 301/1/272 296/1/272
f 300/1/273 37/1/273 192/1/273 301/1/273
f 301/1/274 192/1/274 34/1/274 199/1/274
f 296/1/275 301/1/275 199/1/275 39/1/275
f 80/1/276 302/1/276 305/1/276 304/1/276
f 302/1/277 81/1/277 303/1/277 305/1/277
f 305/1/278 303/1/278 79/1/278 298/1/278
f 304/1/279 305/1/279 298/1/279 78/1/279
f 25/1/280 306/1/281 307/1/282 288/1/283
f 306/1/284 80/1/284 304/1/285 307/1/286
f 307/1/286 304/1/285 78/1/264 291/1/263
f 288/1/283 307/1/282 291/1/261 75/1/260
f 16/1/287 308/1/287 309/1/287 147/1/287
f 308/1/288 80/1/288 306/1/288 309/1/288
f 309/1/289 306/1/281 25/1/280 169/1/289
f 147/1/290 309/1/290 169/1/290 17/1/290
f 16/1/291 143/1/291 311/1/291 308/1/291
f 143/1/292 15/1/292 310/1/292 311/1/292
f 311/1/293 310/1/293 81/1/293 302/1/293
f 308/1/294 311/1/294 302/1/294 80/1/294
f 82/1/295 312/1/295 315/1/295 314/1/295
f 312/1/296 83/1/296 313/1/296 315/1/296
f 315/1/297 313/1/297 81/1/297 310/1/297
f 314/1/298 315/1/298 310/1/298 15/1/298
f 82/1/299 316/1/299 319/1/299 312/1/299
f 316/1/300 85/1/300 317/1/300 319/1/300
f 319/1/301 317/1/301 84/1/301 318/1/301
f 312/1/302 319/1/302 318/1/302 83/1/302
f 83/1/303 318/1/303 322/1/303 321/1/303
f 318/1/304 84/1/304 320/1/304 322/1/304
f 322/1/305 320/1/305 36/1/305 193/1/305
f 321/1/306 322/1/306 193/1/306 37/1/306
f 81/1/307 313/1/307 323/1/307 303/1/307
f 313/1/308 83/1/308 321/1/308 323/1/308
f 323/1/309 321/1/309 37/1/309 300/1/309
f 303/1/310 323/1/310 300/1/310 79/1/310
f 46/1/311 324/1/311 327/1/311 326/1/311
f 324/1/312 84/1/312 317/1/312 327/1/312
f 327/1/313 317/1/313 85/1/313 325/1/313
f 326/1/314 327/1/314 325/1/314 86/1/314
f 87/1/315 328/1/315 331/1/315 330/1/315
f 328/1/316 88/1/316 329/1/316 331/1/316
f 331/1/317 329/1/317 85/1/317 316/1/317
f 330/1/318 331/1/318 316/1/318 82/1/318
f 88/1/319 332/1/319 334/1/319 329/1/319
f 332/1/320 89/1/320 333/1/320 334/1/320
f 334/1/321 333/1/321 86/1/321 325/1/321
f 329/1/322 334/1/322 325/1/322 85/1/322
f 13/1/323 335/1/323 336/1/323 145/1/323
f 335/1/324 87/1/324 330/1/324 336/1/324
f 336/1/325 330/1/325 82/1/325 314/1/325
f 145/1/326 336/1/326 314/1/326 15/1/326
f 297/1/327 39/1/327 200/1/327 337/1/327
f 75/1/257 294/1/328 340/1/328 289/1/258
f 294/1/329 76/1/330 339/1/331 340/1/329
f 340/1/332 339/1/332 74/1/332 284/1/332
f 289/1/333 340/1/333 284/1/333 72/1/333
f 341/1/334 28/1/335 278/1/335 342/1/336
f 342/1/337 278/1/337 23/1/337 282/1/337
f 338/1/338 342/1/339 282/1/339 71/1/340
f 90/1/341 343/1/341 347/1/341 346/1/341
f 343/1/342 91/1/342 344/1/342 347/1/342
f 347/1/343 344/1/343 93/1/343 345/1/343
f 346/1/344 347/1/344 345/1/344 92/1/344
f 346/1/345 92/1/345 348/1/345 351/1/345
f 351/1/346 348/1/346 95/1/346 349/1/346
f 350/1/347 351/1/347 349/1/347 94/1/347
f 97/1/348 354/1/348 358/1/348 357/1/348
f 354/1/349 96/1/349 355/1/349 358/1/349
f 358/1/350 355/1/350 99/1/350 356/1/350
f 357/1/351 358/1/351 356/1/351 98/1/351
f 98/1/352 360/1/352 362/1/352 357/1/352
f 360/1/353 62/1/353 249/1/353 362/1/353
f 362/1/354 249/1/354 60/1/354 361/1/354
f 357/1/355 362/1/355 361/1/355 97/1/355
f 97/1/356 361/1/356 363/1/356 359/1/356
f 361/1/357 60/1/357 246/1/357 363/1/357
f 364/1/358 99/1/358 355/1/358 365/1/358
f 366/1/359 101/1/359 367/1/359 369/1/359
f 369/1/360 367/1/360 100/1/360 368/1/360
f 364/1/361 369/1/361 368/1/361 99/1/361
f 98/1/362 356/1/362 372/1/362 371/1/362
f 356/1/363 99/1/363 368/1/363 372/1/363
f 372/1/364 368/1/364 100/1/364 370/1/364
f 371/1/365 372/1/365 370/1/365 102/1/365
f 95/1/366 348/1/366 375/1/366 374/1/366
f 348/1/367 92/1/367 373/1/367 375/1/367
f 375/1/368 373/1/368 89/1/368 332/1/368
f 374/1/369 375/1/369 332/1/369 88/1/369
f 95/1/370 374/1/370 378/1/370 377/1/370
f 374/1/371 88/1/371 328/1/371 378/1/371
f 378/1/372 328/1/372 87/1/372 376/1/372
f 377/1/373 378/1/373 376/1/373 20/1/373
f 20/1/374 155/1/374 379/1/374 377/1/374
f 155/1/375 19/1/375 353/1/375 379/1/375
f 379/1/376 353/1/376 94/1/376 349/1/376
f 377/1/377 379/1/377 349/1/377 95/1/377
f 87/1/378 335/1/378 380/1/378 376/1/378
f 335/1/379 13/1/379 141/1/379 380/1/379
f 380/1/380 141/1/380 14/1/380 154/1/380
f 376/1/381 380/1/381 154/1/381 20/1/381
f 89/1/382 373/1/382 383/1/382 382/1/382
f 373/1/383 92/1/383 345/1/383 383/1/383
f 383/1/384 345/1/384 93/1/384 381/1/384
f 382/1/385 383/1/385 381/1/385 103/1/385
f 93/1/386 384/1/386 387/1/386 381/1/386
f 384/1/387 70/1/387 385/1/387 387/1/387
f 387/1/388 385/1/388 104/1/388 386/1/388
f 381/1/389 387/1/389 386/1/389 103/1/389
f 68/1/390 388/1/390 390/1/390 275/1/390
f 388/1/391 105/1/391 389/1/391 390/1/391
f 390/1/392 389/1/392 104/1/392 385/1/392
f 275/1/393 390/1/393 385/1/393 70/1/393
f 65/1/394 391/1/394 395/1/394 394/1/394
f 391/1/395 107/1/395 392/1/395 395/1/395
f 395/1/396 392/1/396 106/1/396 393/1/396
f 394/1/397 395/1/397 393/1/397 105/1/397
f 107/1/398 396/1/398 399/1/398 392/1/398
f 396/1/399 109/1/399 397/1/399 399/1/399
f 399/1/400 397/1/400 108/1/400 398/1/400
f 392/1/401 399/1/401 398/1/401 106/1/401
f 63/1/190 253/1/189 401/1/402 261/1/403
f 253/1/187 61/1/186 400/1/404 401/1/404
f 401/1/405 400/1/405 107/1/405 391/1/405
f 261/1/403 401/1/402 391/1/406 65/1/406
f 61/1/407 250/1/407 403/1/407 400/1/407
f 250/1/408 62/1/408 402/1/408 403/1/408
f 403/1/409 402/1/409 109/1/409 396/1/409
f 400/1/410 403/1/410 396/1/410 107/1/410
f 109/1/411 402/1/411 405/1/411 404/1/411
f 402/1/412 62/1/412 360/1/412 405/1/412
f 405/1/413 360/1/413 98/1/413 371/1/413
f 404/1/414 405/1/414 371/1/414 102/1/414
f 109/1/415 404/1/415 408/1/415 397/1/415
f 404/1/416 102/1/416 406/1/416 408/1/416
f 408/1/417 406/1/417 110/1/417 407/1/417
f 397/1/418 408/1/418 407/1/418 108/1/418
f 108/1/419 407/1/419 411/1/419 410/1/419
f 407/1/420 110/1/420 409/1/420 411/1/420
f 411/1/421 409/1/421 48/1/421 222/1/421
f 410/1/422 411/1/422 222/1/422 49/1/422
f 44/1/423 412/1/423 414/1/423 413/1/423
f 412/1/424 110/1/424 406/1/424 414/1/424
f 414/1/425 406/1/425 102/1/425 370/1/425
f 413/1/426 414/1/426 370/1/426 100/1/426
f 48/1/427 409/1/427 415/1/427 224/1/427
f 409/1/428 110/1/428 412/1/428 415/1/428
f 415/1/429 412/1/429 44/1/429 209/1/429
f 224/1/430 415/1/430 209/1/430 42/1/430
f 108/1/431 410/1/431 418/1/431 398/1/431
f 410/1/432 49/1/432 416/1/432 418/1/432
f 418/1/433 416/1/433 111/1/433 417/1/433
f 398/1/434 418/1/434 417/1/434 106/1/434
f 47/1/435 419/1/435 421/1/435 221/1/435
f 419/1/436 112/1/436 420/1/436 421/1/436
f 421/1/437 420/1/437 111/1/437 416/1/437
f 221/1/438 421/1/438 416/1/438 49/1/438
f 89/1/439 382/1/439 424/1/439 333/1/439
f 382/1/440 103/1/440 422/1/440 424/1/440
f 424/1/441 422/1/441 112/1/441 423/1/441
f 333/1/442 424/1/442 423/1/442 86/1/442
f 103/1/443 386/1/443 426/1/443 422/1/443
f 386/1/444 104/1/444 425/1/444 426/1/444
f 426/1/445 425/1/445 111/1/445 420/1/445
f 422/1/446 426/1/446 420/1/446 112/1/446
f 86/1/447 423/1/447 427/1/447 326/1/447
f 423/1/448 112/1/448 419/1/448 427/1/448
f 427/1/449 419/1/449 47/1/449 216/1/449
f 326/1/450 427/1/450 216/1/450 46/1/450
f 105/1/451 393/1/451 428/1/451 389/1/451
f 393/1/452 106/1/452 417/1/452 428/1/452
f 428/1/453 417/1/453 111/1/453 425/1/453
f 389/1/454 428/1/454 425/1/454 104/1/454
f 65/1/455 394/1/455 429/1/455 262/1/455
f 394/1/456 105/1/456 388/1/456 429/1/456
f 429/1/457 388/1/457 68/1/457 271/1/457
f 262/1/458 429/1/458 271/1/458 64/1/458
f 46/1/459 218/1/459 430/1/459 324/1/459
f 218/1/460 38/1/460 195/1/460 430/1/460
f 430/1/461 195/1/461 36/1/461 320/1/461
f 324/1/462 430/1/462 320/1/462 84/1/462
f 93/1/463 344/1/463 431/1/463 384/1/463
f 431/1/464 352/1/465 69/1/464 276/1/464
f 384/1/466 431/1/466 276/1/466 70/1/466
f 100/1/467 367/1/467 433/1/467 413/1/467
f 367/1/468 101/1/468 432/1/468 433/1/468
f 433/1/469 432/1/469 43/1/469 210/1/469
f 413/1/470 433/1/470 210/1/470 44/1/470
